<?xml version="1.0" encoding="UTF-8" standalone="no"?>
<!-- Created with Inkscape (http://www.inkscape.org/) -->

<svg
   width="64"
   height="64"
   viewBox="0 0 16.933333 16.933333"
   version="1.1"
   id="svg1"
   inkscape:version="1.3.2 (1:1.3.2+202404261509+091e20ef0f)"
   sodipodi:docname="avatar.svg"
   xmlns:inkscape="http://www.inkscape.org/namespaces/inkscape"
   xmlns:sodipodi="http://sodipodi.sourceforge.net/DTD/sodipodi-0.dtd"
   xmlns="http://www.w3.org/2000/svg"
   xmlns:svg="http://www.w3.org/2000/svg">
  <sodipodi:namedview
     id="namedview1"
     pagecolor="#ffffff"
     bordercolor="#999999"
     borderopacity="1"
     inkscape:showpageshadow="2"
     inkscape:pageopacity="0"
     inkscape:pagecheckerboard="0"
     inkscape:deskcolor="#d1d1d1"
     inkscape:document-units="mm"
     inkscape:zoom="7.700242"
     inkscape:cx="34.674235"
     inkscape:cy="30.648387"
     inkscape:window-width="1920"
     inkscape:window-height="963"
     inkscape:window-x="0"
     inkscape:window-y="32"
     inkscape:window-maximized="1"
     inkscape:current-layer="layer1" />
  <defs
     id="defs1">
    <clipPath
       clipPathUnits="userSpaceOnUse"
       id="clipPath1204">
      <path
         d="M 0,1080 H 1920 V 0 H 0 Z"
         transform="translate(-424.82026,-784.28782)"
         id="path1204" />
    </clipPath>
    <clipPath
       clipPathUnits="userSpaceOnUse"
       id="clipPath1206">
      <path
         d="m 397.398,784.288 c 0,-7.573 6.139,-13.712 13.711,-13.712 v 0 c 7.573,0 13.712,6.139 13.712,13.712 v 0 c 0,7.572 -6.139,13.711 -13.712,13.711 v 0 c -7.572,0 -13.711,-6.139 -13.711,-13.711"
         transform="translate(-407.81926,-781.09062)"
         id="path1206" />
    </clipPath>
    <clipPath
       clipPathUnits="userSpaceOnUse"
       id="clipPath1208">
      <path
         d="m 397.398,784.288 c 0,-7.573 6.139,-13.712 13.711,-13.712 v 0 c 7.573,0 13.712,6.139 13.712,13.712 v 0 c 0,7.572 -6.139,13.711 -13.712,13.711 v 0 c -7.572,0 -13.711,-6.139 -13.711,-13.711"
         transform="translate(-415.15576,-787.21072)"
         id="path1208" />
    </clipPath>
    <clipPath
       clipPathUnits="userSpaceOnUse"
       id="clipPath1210">
      <path
         d="m 397.398,784.288 c 0,-7.573 6.139,-13.712 13.711,-13.712 v 0 c 7.573,0 13.712,6.139 13.712,13.712 v 0 c 0,7.572 -6.139,13.711 -13.712,13.711 v 0 c -7.572,0 -13.711,-6.139 -13.711,-13.711"
         transform="translate(-407.35051,-787.21072)"
         id="path1210" />
    </clipPath>
    <linearGradient
       x1="0"
       y1="0"
       x2="1"
       y2="0"
       gradientUnits="userSpaceOnUse"
       gradientTransform="matrix(-0.0866691,-1.8200576,-1.8200576,0.0866691,411.13474,781.19324)"
       spreadMethod="pad"
       id="linearGradient1211">
      <stop
         style="stop-opacity:1;stop-color:#e0653d icc-color(Display, 0.81175232, 0.42352295, 0.28234863);"
         offset="0"
         id="stop1210" />
      <stop
         style="stop-opacity:1;stop-color:#e87950 icc-color(Display, 0.8470459, 0.49411011, 0.34901428);"
         offset="1"
         id="stop1211" />
    </linearGradient>
    <clipPath
       clipPathUnits="userSpaceOnUse"
       id="clipPath1213">
      <path
         d="m 397.398,784.288 c 0,-7.573 6.139,-13.712 13.711,-13.712 v 0 c 7.573,0 13.712,6.139 13.712,13.712 v 0 c 0,7.572 -6.139,13.711 -13.712,13.711 v 0 c -7.572,0 -13.711,-6.139 -13.711,-13.711"
         transform="translate(-407.45026,-788.81182)"
         id="path1213" />
    </clipPath>
    <clipPath
       clipPathUnits="userSpaceOnUse"
       id="clipPath1215">
      <path
         d="m 397.398,784.288 c 0,-7.573 6.139,-13.712 13.711,-13.712 v 0 c 7.573,0 13.712,6.139 13.712,13.712 v 0 c 0,7.572 -6.139,13.711 -13.712,13.711 v 0 c -7.572,0 -13.711,-6.139 -13.711,-13.711"
         transform="translate(-411.22951,-786.31182)"
         id="path1215" />
    </clipPath>
    <clipPath
       clipPathUnits="userSpaceOnUse"
       id="clipPath1217">
      <path
         d="m 397.398,784.288 c 0,-7.573 6.139,-13.712 13.711,-13.712 v 0 c 7.573,0 13.712,6.139 13.712,13.712 v 0 c 0,7.572 -6.139,13.711 -13.712,13.711 v 0 c -7.572,0 -13.711,-6.139 -13.711,-13.711"
         transform="translate(-409.75801,-784.31352)"
         id="path1217" />
    </clipPath>
    <clipPath
       clipPathUnits="userSpaceOnUse"
       id="clipPath1219">
      <path
         d="m 397.398,784.288 c 0,-7.573 6.139,-13.712 13.711,-13.712 v 0 c 7.573,0 13.712,6.139 13.712,13.712 v 0 c 0,7.572 -6.139,13.711 -13.712,13.711 v 0 c -7.572,0 -13.711,-6.139 -13.711,-13.711"
         transform="translate(-413.72551,-784.31352)"
         id="path1219" />
    </clipPath>
    <clipPath
       clipPathUnits="userSpaceOnUse"
       id="clipPath1221">
      <path
         d="m 397.398,784.288 c 0,-7.573 6.139,-13.712 13.711,-13.712 v 0 c 7.573,0 13.712,6.139 13.712,13.712 v 0 c 0,7.572 -6.139,13.711 -13.712,13.711 v 0 c -7.572,0 -13.711,-6.139 -13.711,-13.711"
         transform="translate(-409.37326,-786.15772)"
         id="path1221" />
    </clipPath>
    <clipPath
       clipPathUnits="userSpaceOnUse"
       id="clipPath1223">
      <path
         d="m 397.398,784.288 c 0,-7.573 6.139,-13.712 13.711,-13.712 v 0 c 7.573,0 13.712,6.139 13.712,13.712 v 0 c 0,7.572 -6.139,13.711 -13.712,13.711 v 0 c -7.572,0 -13.711,-6.139 -13.711,-13.711"
         transform="translate(-413.24401,-786.15772)"
         id="path1223" />
    </clipPath>
    <clipPath
       clipPathUnits="userSpaceOnUse"
       id="clipPath1225">
      <path
         d="m 397.398,784.288 c 0,-7.573 6.139,-13.712 13.711,-13.712 v 0 c 7.573,0 13.712,6.139 13.712,13.712 v 0 c 0,7.572 -6.139,13.711 -13.712,13.711 v 0 c -7.572,0 -13.711,-6.139 -13.711,-13.711"
         transform="translate(-415.35151,-790.00042)"
         id="path1225" />
    </clipPath>
  </defs>
  <g
     inkscape:label="Capa 1"
     inkscape:groupmode="layer"
     id="layer1">
    <g
       id="g6863"
       transform="matrix(0.43787505,0,0,0.43787505,-4750.4418,-164.21508)">
      <path
         id="path1203"
         d="m 0,0 c 0,-7.573 -6.139,-13.711 -13.711,-13.711 -7.573,0 -13.712,6.138 -13.712,13.711 0,7.573 6.139,13.711 13.712,13.711 C -6.139,13.711 0,7.573 0,0"
         style="fill:#ffffff icc-color(Display, 1, 1, 1);fill-opacity:1;fill-rule:nonzero;stroke:none"
         transform="matrix(1.3333333,0,0,-1.3333333,10886.427,394.28293)"
         clip-path="url(#clipPath1204)" />
      <path
         id="path1205"
         d="m 0,0 c -1.414,-1.709 -6.098,-4.093 -7.349,-6.484 -1.473,-2.817 -1.288,-7.873 -1.288,-7.873 h 23.952 c 0,0 0.235,5.737 -0.607,7.7 -1.17,2.73 -7.061,5.403 -8.069,7.026 z"
         style="fill:#697eea icc-color(Display, 0.43099976, 0.5019989, 0.88999939);fill-opacity:1;fill-rule:nonzero;stroke:none"
         transform="matrix(1.3333333,0,0,-1.3333333,10863.759,398.54587)"
         clip-path="url(#clipPath1206)" />
      <path
         id="path1207"
         d="M 0,0 C 0,0 0.835,0.068 0.698,-1 0.561,-2.068 -0.389,-1.763 -0.389,-1.763 Z"
         style="fill:#dd4e32 icc-color(Display, 0.79598999, 0.34498596, 0.23899841);fill-opacity:1;fill-rule:nonzero;stroke:none"
         transform="matrix(1.3333333,0,0,-1.3333333,10873.541,390.38573)"
         clip-path="url(#clipPath1208)" />
      <path
         id="path1209"
         d="m 0,0 c 0,0 -0.835,0.068 -0.698,-1 0.137,-1.068 1.087,-0.763 1.087,-0.763 z"
         style="fill:#dd4e32 icc-color(Display, 0.79598999, 0.34498596, 0.23899841);fill-opacity:1;fill-rule:nonzero;stroke:none"
         transform="matrix(1.3333333,0,0,-1.3333333,10863.134,390.38573)"
         clip-path="url(#clipPath1210)" />
      <path
         id="path1211"
         d="m 408.016,784.115 c -0.05,-0.787 0.024,-2.533 -0.197,-3.025 v 0 c 0,0 2.606,-2.606 3.689,-2.557 v 0 c 1.082,0.05 2.95,2.926 2.95,2.926 v 0 c 0,0 -0.27,1.672 -0.319,2.68 v 0 z"
         transform="matrix(1.3333333,0,0,-1.3333333,10320,1440)"
         style="fill:url(#linearGradient1211);stroke:none" />
      <path
         id="path1212"
         d="m 0,0 c -0.03,-1.256 0.098,-3.984 0.639,-5.385 0.541,-1.402 1.574,-2.803 3.492,-2.779 1.918,0.025 2.902,2.902 3.246,4.795 0.344,1.894 0.443,2.803 0.074,3.984 C 7.082,1.795 5.484,3 3.861,2.975 2.238,2.951 0.049,2.066 0,0"
         style="fill:#e87950 icc-color(Display, 0.84599304, 0.49499512, 0.34999084);fill-opacity:1;fill-rule:nonzero;stroke:none"
         transform="matrix(1.3333333,0,0,-1.3333333,10863.267,388.25093)"
         clip-path="url(#clipPath1213)" />
      <path
         id="path1214"
         d="m 0,0 -0.68,-2.354 0.508,-0.219 c 0.107,-0.046 0.22,-0.044 0.326,0.007 l 0.518,0.248 z"
         style="fill:#dd4e32 icc-color(Display, 0.79598999, 0.34498596, 0.23899841);fill-opacity:1;fill-rule:nonzero;stroke:none"
         transform="matrix(1.3333333,0,0,-1.3333333,10868.306,391.58427)"
         clip-path="url(#clipPath1215)" />
      <path
         id="path1216"
         d="m 0,0 c 0,-0.367 -0.297,-0.664 -0.664,-0.664 -0.367,0 -0.665,0.297 -0.665,0.664 0,0.367 0.298,0.664 0.665,0.664 C -0.297,0.664 0,0.367 0,0"
         style="fill:#dd4e32 icc-color(Display, 0.79598999, 0.34498596, 0.23899841);fill-opacity:1;fill-rule:nonzero;stroke:none"
         transform="matrix(1.3333333,0,0,-1.3333333,10866.344,394.24867)"
         clip-path="url(#clipPath1217)" />
      <path
         id="path1218"
         d="m 0,0 c 0,-0.367 -0.298,-0.664 -0.664,-0.664 -0.367,0 -0.665,0.297 -0.665,0.664 0,0.367 0.298,0.664 0.665,0.664 C -0.298,0.664 0,0.367 0,0"
         style="fill:#dd4e32 icc-color(Display, 0.79598999, 0.34498596, 0.23899841);fill-opacity:1;fill-rule:nonzero;stroke:none"
         transform="matrix(1.3333333,0,0,-1.3333333,10871.634,394.24867)"
         clip-path="url(#clipPath1219)" />
      <path
         id="path1220"
         d="m 0,0 c 0,-0.112 -0.091,-0.202 -0.202,-0.202 -0.112,0 -0.202,0.09 -0.202,0.202 0,0.112 0.09,0.202 0.202,0.202 C -0.091,0.202 0,0.112 0,0"
         style="fill:#011e41;fill-opacity:1;fill-rule:nonzero;stroke:none"
         transform="matrix(1.3333333,0,0,-1.3333333,10865.831,391.78973)"
         clip-path="url(#clipPath1221)" />
      <path
         id="path1222"
         d="m 0,0 c 0,-0.112 -0.091,-0.202 -0.202,-0.202 -0.112,0 -0.202,0.09 -0.202,0.202 0,0.112 0.09,0.202 0.202,0.202 C -0.091,0.202 0,0.112 0,0"
         style="fill:#011e41;fill-opacity:1;fill-rule:nonzero;stroke:none"
         transform="matrix(1.3333333,0,0,-1.3333333,10870.992,391.78973)"
         clip-path="url(#clipPath1223)" />
      <path
         id="path1224"
         d="m 0,0 c -0.092,1.501 -1.324,2.687 -3.023,3.036 -0.015,0.05 -0.246,0.807 -0.693,0.825 -0.462,0.019 -0.505,-0.549 -0.505,-0.549 0,0 -0.27,0.954 -0.925,0.838 C -5.801,4.035 -5.68,3.052 -5.68,3.052 c 0,0 -0.361,0.588 -0.939,0.203 C -6.97,3.021 -7.017,2.533 -6.939,2.006 -7.424,1.502 -7.775,0.85 -7.975,0.09 c -0.474,-1.796 0.186,-4.058 0.186,-4.058 0.033,0.902 0.15,2.257 0.65,3.279 0.332,0.679 0.741,1.044 0.968,1.199 0.466,-0.62 1.213,-0.953 2.123,-0.794 1.092,0.19 1.82,1.068 1.82,1.068 0.433,-0.072 1.387,-0.722 1.531,-1.82 0.132,-1.004 0.318,-2.802 0.318,-2.802 0,0 0.51,1.707 0.379,3.838"
         style="fill:#4e4957 icc-color(Display, 0.30198669, 0.28599548, 0.33699036);fill-opacity:1;fill-rule:nonzero;stroke:none"
         transform="matrix(1.3333333,0,0,-1.3333333,10873.802,386.66613)"
         clip-path="url(#clipPath1225)" />
    </g>
  </g>
</svg>
