<?xml version="1.0" encoding="UTF-8" standalone="no"?>
<!-- Created with Inkscape (http://www.inkscape.org/) -->

<svg
   width="64"
   height="64"
   viewBox="0 0 16.933333 16.933333"
   version="1.1"
   id="svg1"
   inkscape:version="1.3.2 (1:1.3.2+202404261509+091e20ef0f)"
   sodipodi:docname="category_5.svg"
   xmlns:inkscape="http://www.inkscape.org/namespaces/inkscape"
   xmlns:sodipodi="http://sodipodi.sourceforge.net/DTD/sodipodi-0.dtd"
   xmlns="http://www.w3.org/2000/svg"
   xmlns:svg="http://www.w3.org/2000/svg">
  <sodipodi:namedview
     id="namedview1"
     pagecolor="#ffffff"
     bordercolor="#999999"
     borderopacity="1"
     inkscape:showpageshadow="2"
     inkscape:pageopacity="0"
     inkscape:pagecheckerboard="0"
     inkscape:deskcolor="#d1d1d1"
     inkscape:document-units="mm"
     inkscape:zoom="6.7280649"
     inkscape:cx="39.387254"
     inkscape:cy="32.847483"
     inkscape:window-width="1920"
     inkscape:window-height="995"
     inkscape:window-x="0"
     inkscape:window-y="0"
     inkscape:window-maximized="1"
     inkscape:current-layer="layer1" />
  <defs
     id="defs1">
    <clipPath
       clipPathUnits="userSpaceOnUse"
       id="clipPath493">
      <path
         d="M 0,1551 H 1920 V 0 H 0 Z"
         transform="translate(-387.00001,-486.99999)"
         id="path493" />
    </clipPath>
    <clipPath
       clipPathUnits="userSpaceOnUse"
       id="clipPath496">
      <path
         d="M 0,1551 H 1920 V 0 H 0 Z"
         transform="translate(-409.22364,-463.35271)"
         id="path496" />
    </clipPath>
    <clipPath
       clipPathUnits="userSpaceOnUse"
       id="clipPath498">
      <path
         d="M 0,1551 H 1920 V 0 H 0 Z"
         transform="translate(-405.24571,-473.36071)"
         id="path498" />
    </clipPath>
    <clipPath
       clipPathUnits="userSpaceOnUse"
       id="clipPath500">
      <path
         d="M 0,1551 H 1920 V 0 H 0 Z"
         transform="translate(-409.22364,-461.98614)"
         id="path500" />
    </clipPath>
    <clipPath
       clipPathUnits="userSpaceOnUse"
       id="clipPath502">
      <path
         d="M 0,1551 H 1920 V 0 H 0 Z"
         transform="translate(-409.22364,-479.47051)"
         id="path502" />
    </clipPath>
    <clipPath
       clipPathUnits="userSpaceOnUse"
       id="clipPath504">
      <path
         d="M 0,1551 H 1920 V 0 H 0 Z"
         transform="translate(-408.66691,-486.33624)"
         id="path504" />
    </clipPath>
    <clipPath
       clipPathUnits="userSpaceOnUse"
       id="clipPath506">
      <path
         d="M 0,1551 H 1920 V 0 H 0 Z"
         transform="translate(-389.16158,-486.28584)"
         id="path506" />
    </clipPath>
    <clipPath
       clipPathUnits="userSpaceOnUse"
       id="clipPath508">
      <path
         d="M 0,1551 H 1920 V 0 H 0 Z"
         transform="translate(-384.94081,-461.90431)"
         id="path508" />
    </clipPath>
    <clipPath
       clipPathUnits="userSpaceOnUse"
       id="clipPath318">
      <path
         d="M 0,1551 H 1920 V 0 H 0 Z"
         id="path318" />
    </clipPath>
    <clipPath
       clipPathUnits="userSpaceOnUse"
       id="clipPath320">
      <path
         d="M 0,1551 H 1920 V 0 H 0 Z"
         id="path320" />
    </clipPath>
    <clipPath
       clipPathUnits="userSpaceOnUse"
       id="clipPath322">
      <path
         d="M 0,1551 H 1920 V 0 H 0 Z"
         transform="translate(-384.92551,-562.65774)"
         id="path322" />
    </clipPath>
    <clipPath
       clipPathUnits="userSpaceOnUse"
       id="clipPath324">
      <path
         d="M 0,1551 H 1920 V 0 H 0 Z"
         transform="translate(-405.42354,-556.85259)"
         id="path324" />
    </clipPath>
    <clipPath
       clipPathUnits="userSpaceOnUse"
       id="clipPath326">
      <path
         d="M 0,1551 H 1920 V 0 H 0 Z"
         transform="translate(-395.17448,-530.44674)"
         id="path326" />
    </clipPath>
    <clipPath
       clipPathUnits="userSpaceOnUse"
       id="clipPath328">
      <path
         d="M 0,1551 H 1920 V 0 H 0 Z"
         transform="translate(-389.31803,-530.44674)"
         id="path328" />
    </clipPath>
    <clipPath
       clipPathUnits="userSpaceOnUse"
       id="clipPath330">
      <path
         d="M 0,1551 H 1920 V 0 H 0 Z"
         transform="translate(-410.54791,-562.65774)"
         id="path330" />
    </clipPath>
    <clipPath
       clipPathUnits="userSpaceOnUse"
       id="clipPath332">
      <path
         d="M 0,1551 H 1920 V 0 H 0 Z"
         transform="translate(-413.47621,-530.44674)"
         id="path332" />
    </clipPath>
    <clipPath
       clipPathUnits="userSpaceOnUse"
       id="clipPath334">
      <path
         d="M 0,1551 H 1920 V 0 H 0 Z"
         transform="translate(-417.13651,-553.14084)"
         id="path334" />
    </clipPath>
  </defs>
  <g
     inkscape:label="Capa 1"
     inkscape:groupmode="layer"
     id="layer1">
    <path
       id="path317"
       d="m 404.085,541.072 h -20.498 v 20.498 h 20.498 z"
       style="fill:#ecedef;fill-opacity:1;fill-rule:nonzero;stroke:none"
       transform="matrix(0.38859294,0,0,-0.38859294,-147.53079,221.47369)"
       clip-path="url(#clipPath318)" />
    <path
       id="path319"
       d="m 406.888,565.586 h -23.426 v -2.928 h 23.426 z"
       style="fill:#6e7fea;fill-opacity:1;fill-rule:nonzero;stroke:#4e4957;stroke-width:1.006;stroke-linecap:butt;stroke-linejoin:round;stroke-miterlimit:10;stroke-dasharray:none;stroke-opacity:1"
       transform="matrix(0.38859294,0,0,-0.38859294,-147.53079,221.47369)"
       clip-path="url(#clipPath320)" />
    <path
       id="path321"
       d="m 0,0 v -20.498 h 20.498 v 5.857"
       style="fill:none;stroke:#4e4957;stroke-width:1.006;stroke-linecap:butt;stroke-linejoin:round;stroke-miterlimit:10;stroke-dasharray:none;stroke-opacity:1"
       transform="matrix(0.38859294,0,0,-0.38859294,2.0485461,2.828867)"
       clip-path="url(#clipPath322)" />
    <path
       id="path323"
       d="M 0,0 V 5.805"
       style="fill:none;stroke:#4e4957;stroke-width:1.006;stroke-linecap:round;stroke-linejoin:round;stroke-miterlimit:10;stroke-dasharray:none;stroke-opacity:1"
       transform="matrix(0.38859294,0,0,-0.38859294,10.013934,5.0847073)"
       clip-path="url(#clipPath324)" />
    <path
       id="path325"
       d="M 0,0 V 11.713"
       style="fill:none;stroke:#4e4957;stroke-width:1.006;stroke-linecap:round;stroke-linejoin:miter;stroke-miterlimit:10;stroke-dasharray:none;stroke-opacity:1"
       transform="matrix(0.38859294,0,0,-0.38859294,6.0312255,15.345834)"
       clip-path="url(#clipPath326)" />
    <path
       id="path327"
       d="M 0,0 5.857,2.928 11.713,0"
       style="fill:none;stroke:#4e4957;stroke-width:1.006;stroke-linecap:round;stroke-linejoin:miter;stroke-miterlimit:10;stroke-dasharray:none;stroke-opacity:1"
       transform="matrix(0.38859294,0,0,-0.38859294,3.7554503,15.345834)"
       clip-path="url(#clipPath328)" />
    <path
       id="path329"
       d="m 0,0 c 0,-2.196 1.311,-3.66 2.928,-3.66 1.617,0 2.929,1.464 2.929,3.66 0,1.617 -1.312,2.928 -2.929,2.928 C 1.311,2.928 0,1.617 0,0 Z"
       style="fill:none;stroke:#4e4957;stroke-width:1.006;stroke-linecap:round;stroke-linejoin:round;stroke-miterlimit:10;stroke-dasharray:none;stroke-opacity:1"
       transform="matrix(0.38859294,0,0,-0.38859294,12.00523,2.828867)"
       clip-path="url(#clipPath330)" />
    <path
       id="path331"
       d="M 0,0 V 14.641"
       style="fill:none;stroke:#4e4957 icc-color(Display, 0.30198669, 0.28599548, 0.33699036);stroke-width:1.006;stroke-linecap:butt;stroke-linejoin:miter;stroke-miterlimit:10;stroke-dasharray:none;stroke-opacity:1"
       transform="matrix(0.38859294,0,0,-0.38859294,13.143147,15.345834)"
       clip-path="url(#clipPath332)" />
    <path
       id="path333"
       d="m 0,0 v -22.694 h -7.321 v 22.82 l -2.839,-2.84 c -0.858,-0.857 -2.248,-0.857 -3.106,0 l -3.1,3.088 c -0.515,0.516 -0.641,1.346 -0.214,1.938 0.543,0.754 1.601,0.816 2.23,0.187 l 2.637,-2.625 2.825,2.825 c 0.176,0.208 0.375,0.391 0.603,0.541 0.655,0.43 2.043,1.152 4.594,1.152 1.444,0 2.787,-0.231 3.881,-0.511 C 1.806,3.469 2.928,2.005 2.928,0.337 v -6.926 c 0,-1.213 -0.983,-2.196 -2.196,-2.196 H 0"
       style="fill:none;stroke:#4e4957;stroke-width:1.006;stroke-linecap:round;stroke-linejoin:round;stroke-miterlimit:10;stroke-dasharray:none;stroke-opacity:1"
       transform="matrix(0.38859294,0,0,-0.38859294,14.565513,6.5270672)"
       clip-path="url(#clipPath334)" />
  </g>
</svg>
