<?xml version="1.0" encoding="UTF-8" standalone="no"?>
<!-- Created with Inkscape (http://www.inkscape.org/) -->

<svg
   width="64"
   height="64"
   viewBox="0 0 16.933333 16.933333"
   version="1.1"
   id="svg1"
   inkscape:version="1.3.2 (1:1.3.2+202404261509+091e20ef0f)"
   sodipodi:docname="school.svg"
   xmlns:inkscape="http://www.inkscape.org/namespaces/inkscape"
   xmlns:sodipodi="http://sodipodi.sourceforge.net/DTD/sodipodi-0.dtd"
   xmlns="http://www.w3.org/2000/svg"
   xmlns:svg="http://www.w3.org/2000/svg">
  <sodipodi:namedview
     id="namedview1"
     pagecolor="#ffffff"
     bordercolor="#999999"
     borderopacity="1"
     inkscape:showpageshadow="2"
     inkscape:pageopacity="0"
     inkscape:pagecheckerboard="0"
     inkscape:deskcolor="#d1d1d1"
     inkscape:document-units="mm"
     inkscape:zoom="11.345903"
     inkscape:cx="42.570431"
     inkscape:cy="23.885273"
     inkscape:window-width="1920"
     inkscape:window-height="995"
     inkscape:window-x="0"
     inkscape:window-y="0"
     inkscape:window-maximized="1"
     inkscape:current-layer="layer1" />
  <defs
     id="defs1">
    <inkscape:path-effect
       effect="fillet_chamfer"
       id="path-effect1"
       is_visible="true"
       lpeversion="1"
       nodesatellites_param="F,0,0,1,0,0,0,1 @ F,0,0,1,0,0,0,1 @ F,0,0,1,0,0,0,1 @ F,0,0,1,0,0,0,1 @ F,0,0,1,0,0,0,1 @ F,0,0,1,0,0,0,1 @ F,0,0,1,0,0,0,1"
       radius="0"
       unit="px"
       method="auto"
       mode="F"
       chamfer_steps="1"
       flexible="false"
       use_knot_distance="true"
       apply_no_radius="true"
       apply_with_radius="true"
       only_selected="false"
       hide_knots="false" />
    <clipPath
       clipPathUnits="userSpaceOnUse"
       id="clipPath956">
      <path
         d="M 0,1080 H 1920 V 0 H 0 Z"
         transform="translate(-402.15834,-376.42521)"
         id="path956" />
    </clipPath>
    <clipPath
       clipPathUnits="userSpaceOnUse"
       id="clipPath958">
      <path
         d="M 0,1080 H 1920 V 0 H 0 Z"
         transform="translate(-411.87961,-358.59671)"
         id="path958" />
    </clipPath>
    <clipPath
       clipPathUnits="userSpaceOnUse"
       id="clipPath960">
      <path
         d="M 0,1080 H 1920 V 0 H 0 Z"
         transform="translate(-393.31381,-377.24431)"
         id="path960" />
    </clipPath>
    <clipPath
       clipPathUnits="userSpaceOnUse"
       id="clipPath962">
      <path
         d="M 0,1080 H 1920 V 0 H 0 Z"
         transform="translate(-386.01788,-375.43241)"
         id="path962" />
    </clipPath>
    <clipPath
       clipPathUnits="userSpaceOnUse"
       id="clipPath964">
      <path
         d="M 0,1080 H 1920 V 0 H 0 Z"
         transform="translate(-416.29989,-375.43241)"
         id="path964" />
    </clipPath>
    <clipPath
       clipPathUnits="userSpaceOnUse"
       id="clipPath966">
      <path
         d="M 0,1080 H 1920 V 0 H 0 Z"
         transform="translate(-401.15829,-351.51061)"
         id="path966" />
    </clipPath>
    <clipPath
       clipPathUnits="userSpaceOnUse"
       id="clipPath968">
      <path
         d="M 0,1080 H 1920 V 0 H 0 Z"
         transform="translate(-416.29989,-359.37041)"
         id="path968" />
    </clipPath>
    <clipPath
       clipPathUnits="userSpaceOnUse"
       id="clipPath970">
      <path
         d="M 0,1080 H 1920 V 0 H 0 Z"
         transform="translate(-411.80484,-353.15971)"
         id="path970" />
    </clipPath>
    <clipPath
       clipPathUnits="userSpaceOnUse"
       id="clipPath972">
      <path
         d="M 0,1080 H 1920 V 0 H 0 Z"
         transform="translate(-389.18453,-377.02871)"
         id="path972" />
    </clipPath>
    <clipPath
       clipPathUnits="userSpaceOnUse"
       id="clipPath974">
      <path
         d="M 0,1080 H 1920 V 0 H 0 Z"
         transform="translate(-389.18453,-377.02871)"
         id="path974" />
    </clipPath>
    <clipPath
       clipPathUnits="userSpaceOnUse"
       id="clipPath976">
      <path
         d="M 0,1080 H 1920 V 0 H 0 Z"
         transform="translate(-412.87959,-358.59671)"
         id="path976" />
    </clipPath>
    <clipPath
       clipPathUnits="userSpaceOnUse"
       id="clipPath978">
      <path
         d="M 0,1080 H 1920 V 0 H 0 Z"
         transform="translate(-415.86931,-358.29491)"
         id="path978" />
    </clipPath>
    <clipPath
       clipPathUnits="userSpaceOnUse"
       id="clipPath980">
      <path
         d="M 0,1080 H 1920 V 0 H 0 Z"
         transform="translate(-418.99689,-357.24581)"
         id="path980" />
    </clipPath>
  </defs>
  <g
     inkscape:label="Capa 1"
     inkscape:groupmode="layer"
     id="layer1">
    <path
       id="path955"
       d="m 0,0 v -23.915 c 0,0 5.451,2.809 9.647,1.649 4.195,-1.159 5.195,-0.159 5.195,-0.159 V 1.484 c 0,0 -0.414,-1.425 -5.207,0.333 C 4.842,3.575 0,0 0,0"
       style="fill:#e6e6e6;fill-opacity:1;fill-rule:nonzero;stroke:none"
       transform="matrix(0.35277776,0,0,-0.35277776,8.2494012,3.3054704)"
       clip-path="url(#clipPath956)" />
    <path
       id="path957"
       d="M 0,0 C 0.519,1.55 2.531,1.03 2.769,0.337 L 2.99,-0.302 C 2.927,0.214 3.119,0.563 3.42,0.776 4.087,1.247 5.288,1.053 5.472,0.52 l 0.354,-1.028 c -0.067,0.441 0.064,0.773 0.295,1 0.604,0.595 1.892,0.485 2.145,-0.247 0,0 1.884,-4.213 2.218,-6.44 0.245,-1.631 -0.156,-3.323 -0.253,-3.898 -0.634,-3.744 -6.821,-5.797 -9.307,-3.282 -0.764,0.773 -1.281,1.441 -2.127,2.342 -0.486,0.517 -2.054,2 -3.301,3.168 -0.928,0.87 -1.677,1.566 -1.677,1.566 -0.465,0.412 -0.617,0.821 -0.586,1.182 0.06,0.733 0.874,1.258 1.335,1.163 1.525,-0.319 2.612,-0.614 4.257,-1.477 0.04,-0.02 0.08,-0.042 0.12,-0.064 l -0.02,0.058 -3.257,9.457 c -0.65,1.886 1.977,2.813 2.627,0.926 z"
       style="fill:#e6e6e6;fill-opacity:1;fill-rule:nonzero;stroke:none"
       transform="matrix(0.35277776,0,0,-0.35277776,11.678851,9.5949707)"
       clip-path="url(#clipPath958)" />
    <path
       id="path959"
       d="m 0,0 v -5.671 l -2.066,1.897 -2.063,-1.897 v 5.455 0.972 H 0 Z"
       style="fill:#697eea;fill-opacity:1;fill-rule:nonzero;stroke:none"
       transform="matrix(0.35277776,0,0,-0.35277776,5.1292494,3.016511)"
       clip-path="url(#clipPath960)" />
    <path
       style="color:#000000;fill:#4e4957;stroke-linecap:round;stroke-linejoin:round;stroke-miterlimit:10;-inkscape-stroke:none;fill-opacity:1"
       d="m 15.117188,-25.205078 -17.8632818,0.117187 a 0.45704569,0.45704569 0 0 0 -0.453125,0.457032 V 0 a 0.45704569,0.45704569 0 0 0 0.4570313,0.45703125 H 0 A 0.45699999,0.45699999 0 0 0 0.45703125,0 0.45699999,0.45699999 0 0 0 0,-0.45703125 H -2.2851563 V -24.177734 l 17.4042973,-0.113282 7.234375,0.04883 a 0.45699999,0.45699999 0 0 0 0.460937,-0.455079 0.45699999,0.45699999 0 0 0 -0.455078,-0.458984 l -7.236328,-0.04883 a 0.45704569,0.45704569 0 0 0 -0.0059,0 z"
       id="path961"
       transform="matrix(0.35277776,0,0,-0.35277776,2.5554092,3.65571)" />
    <path
       style="color:#000000;fill:#4e4957;stroke-linecap:round;stroke-linejoin:round;stroke-miterlimit:10;-inkscape-stroke:none;fill-opacity:1"
       d="M 2.7011719,-16.800781 A 0.45699999,0.45699999 0 0 0 2.2441406,-16.34375 V -0.45703125 H 0 A 0.45699999,0.45699999 0 0 0 -0.45703125,0 0.45699999,0.45699999 0 0 0 0,0.45703125 H 2.7011719 A 0.45704569,0.45704569 0 0 0 3.1582031,0 v -16.34375 a 0.45699999,0.45699999 0 0 0 -0.4570312,-0.457031 z"
       id="path963"
       transform="matrix(0.35277776,0,0,-0.35277776,13.238226,3.65571)" />
    <path
       id="path965"
       d="M 0,0 C 1.764,1.308 3.394,1.822 4.954,1.969"
       style="fill:none;stroke:#4e4957 icc-color(Display, 0.30198669, 0.28599548, 0.33699036);stroke-width:0.914;stroke-linecap:round;stroke-linejoin:round;stroke-miterlimit:10;stroke-dasharray:none;stroke-opacity:1"
       transform="matrix(0.35277776,0,0,-0.35277776,7.8966058,12.094788)"
       clip-path="url(#clipPath966)" />
    <path
       style="color:#000000;fill:#4e4957;stroke-linecap:round;stroke-linejoin:round;stroke-miterlimit:10;-inkscape-stroke:none;fill-opacity:1"
       d="M 0,-0.45703125 A 0.45699999,0.45699999 0 0 0 -0.45703125,0 V 0.00195313 16.0625 17.839844 C -2.8886526,16.985535 -5.2515366,17.250728 -7.515625,17.433594 c -2.4660095,0.199175 -4.814336,0.187897 -7.349609,-1.742188 a 0.45699999,0.45699999 0 0 0 -0.640625,0.08594 0.45699999,0.45699999 0 0 0 0.08789,0.640625 c 2.755722,2.097911 5.4541241,2.129356 7.9746096,1.925781 2.5204856,-0.203575 4.874271,-0.600251 7.25781253,0.460937 A 0.45704569,0.45704569 0 0 0 0.45703125,18.386719 V 16.0625 0.00195313 0 A 0.45699999,0.45699999 0 0 0 0,-0.45703125 Z"
       id="path967"
       transform="matrix(0.35277776,0,0,-0.35277776,13.238226,9.3220266)" />
    <path
       id="path969"
       d="M 0,0 C -0.033,0.001 -0.067,0.004 -0.1,0.006"
       style="fill:none;stroke:#4e4957 icc-color(Display, 0.30198669, 0.28599548, 0.33699036);stroke-width:0.914;stroke-linecap:round;stroke-linejoin:round;stroke-miterlimit:10;stroke-dasharray:none;stroke-opacity:1"
       transform="matrix(0.35277776,0,0,-0.35277776,11.652472,11.513023)"
       clip-path="url(#clipPath970)" />
    <path
       style="color:#000000;fill:#4e4957;stroke-linecap:round;stroke-linejoin:round;stroke-miterlimit:10;-inkscape-stroke:none;fill-opacity:1"
       d="m 12.179688,-25.925781 a 0.45704569,0.45704569 0 0 0 -0.478516,0.04102 c -2.7739177,2.056201 -5.1143389,2.06169 -7.5175783,1.833985 -2.4032393,-0.227705 -4.87250424,-0.738822 -7.5371093,0.447265 a 0.45704569,0.45704569 0 0 0 -0.2695313,0.417969 v 21.5898439 2.32421872 a 0.45704569,0.45704569 0 0 0 0.640625,0.41796878 C -1.9760929,0.69954203 -0.98426791,0.51082677 0.0234375,0.45703125 A 0.45699999,0.45699999 0 0 0 0.45703125,-0.0234375 0.45699999,0.45699999 0 0 0 -0.0234375,-0.45703125 c -0.88037465,0.0469981 -1.783559,0.30208019 -2.6875,0.61914062 V -1.5957031 -22.818359 c 2.28083728,-0.91065 4.4358824,-0.547079 6.8085937,-0.322266 2.2616062,0.214286 4.732693,0.118862 7.4199218,-1.583984 V -1.8613281 C 8.9899682,-0.02060466 6.6392888,-0.03114502 4.1679687,-0.24023438 A 0.45699999,0.45699999 0 0 0 3.6738281,0.17773437 0.45699999,0.45699999 0 0 0 4.0898437,0.671875 C 6.6653274,0.88977726 9.4271071,0.90974755 12.25,-1.2402344 a 0.45704569,0.45704569 0 0 0 0.181641,-0.3632812 V -25.517578 a 0.45704569,0.45704569 0 0 0 -0.251953,-0.408203 z"
       id="path971"
       transform="matrix(0.35277776,0,0,-0.35277776,3.6725329,3.0925708)" />
    <path
       style="color:#000000;fill:#4e4957 icc-color(Display, 0.30198669, 0.28599548, 0.33699036);stroke-linecap:round;stroke-linejoin:round;stroke-miterlimit:10;-inkscape-stroke:none"
       d="m -0.18359375,-5.8730469 a 0.45704569,0.45704569 0 0 0 -0.2734375,0.4179688 V 0 0.97070313 A 0.45704569,0.45704569 0 0 0 0,1.4277344 H 4.1289062 A 0.45704569,0.45704569 0 0 0 4.5859375,0.97070313 V 0.21679688 -5.4550781 A 0.45704569,0.45704569 0 0 0 3.8203125,-5.7910156 L 2.0625,-4.1777344 0.30859375,-5.7910156 a 0.45704569,0.45704569 0 0 0 -0.4921875,-0.082031 z M 3.671875,-4.4160156 V 0.21679688 0.51367187 H 0.45703125 V 0 -4.4140625 l 1.29687495,1.1933594 a 0.45704569,0.45704569 0 0 0 0.6191407,0 z"
       id="path973"
       transform="matrix(0.35277776,0,0,-0.35277776,3.6725329,3.0925708)" />
    <path
       style="color:#000000;fill:#4e4957;stroke-linecap:round;stroke-linejoin:round;stroke-miterlimit:10;-inkscape-stroke:none;fill-opacity:1"
       d="m 3.2734375,-14.908203 c -1.0215317,0.112968 -1.963851,0.494631 -2.67382813,1.21289 -0.78407211,0.793309 -1.30427814,1.463051 -2.13671877,2.34961 -0.4492981,0.477843 -2.0340461,1.9801226 -3.2792968,3.1464842 -0.922747,0.8650753 -1.6608122,1.5519434 -1.6679688,1.5585938 -0.540364,0.4787741 -0.7826937,1.0453095 -0.7382812,1.5625 0.043556,0.524236 0.3443957,0.9403203 0.6914062,1.2128906 0.3474324,0.2729018 0.7458397,0.4511946 1.1914063,0.359375 a 0.45704569,0.45704569 0 0 0 0.00195,0 c 1.2431767,-0.2600481 2.3136444,-0.6738847 3.5371094,-1.2285156 l -2.9628907,8.6054688 c -0.3943122,1.144112 0.2429151,2.1528226 1.1054688,2.4570312 0.4312768,0.1521043 0.9233716,0.1530507 1.3671875,-0.048828 C -1.8471997,6.077418 -1.4705607,5.667967 -1.2734375,5.0957031 L 0.16992187,0.91015625 C 0.57186384,1.2607042 1.0419773,1.4846274 1.5078125,1.4667969 1.8782768,1.4526168 2.2273525,1.3561138 2.5234375,1.1992187 2.7230439,1.0934475 2.8448588,0.89820997 2.9804688,0.71875 3.0722287,0.84195755 3.0369662,1.0640274 3.15625,1.1484375 3.6194745,1.4755421 4.1853505,1.546297 4.6894531,1.4765625 5.1373585,1.414602 5.5663635,1.2134232 5.7949219,0.79882812 c 0.00453,0.004584 0.00127,0.0150198 0.00586,0.0195313 C 6.2285063,1.239711 6.8248532,1.3773195 7.3730469,1.3203125 7.9212406,1.2633055 8.4948584,0.9801522 8.6972656,0.39453125 l -0.013672,0.0371094 c 0,0 0.4747526,-1.06441143 0.9921875,-2.40820313 0.5174347,-1.3437917 1.0803417,-2.9540521 1.2597657,-4.1503906 0.262778,-1.7493527 -0.166811,-3.5266791 -0.253906,-4.0429689 -0.355562,-2.09972 -2.2103373,-3.637404 -4.2617191,-4.34375 -1.0256909,-0.353173 -2.1249527,-0.507499 -3.1464844,-0.394531 z m 0.1289063,0.917969 c 0.8575289,-0.09244 1.8096459,0.02809 2.7207031,0.341796 1.8221143,0.627403 3.3797654,1.986584 3.6582031,3.63086 0.106904,0.6337091 0.477221,2.241262 0.25,3.7539061 C 9.8766742,-5.2330126 9.3322829,-3.6241431 8.8242188,-2.3046875 8.3161546,-0.98523187 7.8496094,0.05859375 7.8496094,0.05859375 A 0.45704569,0.45704569 0 0 0 7.8339844,0.09570312 C 7.7833919,0.24208144 7.5873992,0.3798665 7.2773437,0.41210938 6.9672883,0.44435225 6.6176806,0.33966336 6.4414062,0.16601562 6.3076851,0.03460995 6.2287468,-0.11958395 6.2773437,-0.43945313 A 0.45704569,0.45704569 0 0 0 5.3945312,-0.65625 L 5.0390625,0.37109375 C 5.0415634,0.36384939 4.8735997,0.52950019 4.5644531,0.57226562 4.2553065,0.61503106 3.8873685,0.54623869 3.6835938,0.40234375 3.4999333,0.27237805 3.3969009,0.1344233 3.4433594,-0.24609375 A 0.45704569,0.45704569 0 0 0 2.5585938,-0.45117188 L 2.3378906,0.1875 a 0.45704569,0.45704569 0 0 0 -0.00195,0.001953 C 2.3349844,0.19222825 2.2600239,0.30355159 2.0957031,0.390625 1.9313823,0.47769841 1.6998164,0.54403948 1.4726562,0.55273437 1.0543171,0.56874694 0.70924761,0.42580963 0.5,-0.05273437 L 1.0292969,-1.5898437 A 0.45699999,0.45699999 0 0 0 0.74609375,-2.1699219 0.45699999,0.45699999 0 0 0 0.16601562,-1.8867187 L -0.43164063,-0.1484375 -2.1367188,4.796875 c -0.1278764,0.3712351 -0.3219571,0.554301 -0.5332031,0.6503906 -0.2112459,0.09609 -0.4581212,0.099052 -0.6835937,0.019531 -0.450945,-0.159041 -0.8025622,-0.5569421 -0.546875,-1.2988282 l 3.25781248,-9.4570312 0.0195313,-0.056641 A 0.45704569,0.45704569 0 0 0 -1.2753906,-5.8945312 c -0.04,0.022 -0.074416,0.040138 -0.1035156,0.054687 a 0.45704569,0.45704569 0 0 0 -0.00781,0.00391 c -1.6086835,0.8439476 -2.6258093,1.1174719 -4.1367188,1.4335938 -0.015433,0.00318 -0.2535423,-0.032543 -0.4433594,-0.1816407 -0.189817,-0.1490978 -0.3267354,-0.3624516 -0.34375,-0.5703125 A 0.45704569,0.45704569 0 0 0 -6.3125,-5.15625 c -0.017588,-0.2048087 0.043959,-0.4555562 0.4335938,-0.8007812 a 0.45704569,0.45704569 0 0 0 0.00977,-0.00781 c 0,0 0.7489465,-0.6956677 1.6777344,-1.5664063 1.2483604,-1.1692743 2.7989988,-2.632809 3.32226557,-3.189453 0.85955771,-0.915439 1.37521427,-1.581295 2.11914063,-2.333985 0.5329656,-0.538472 1.2954689,-0.843179 2.1523438,-0.935546 z"
       id="path975"
       transform="matrix(0.35277776,0,0,-0.35277776,12.03162,9.5949707)" />
    <path
       id="path977"
       d="M 0,0 0.454,-1.341"
       style="fill:none;stroke:#4e4957 icc-color(Display, 0.30198669, 0.28599548, 0.33699036);stroke-width:0.914;stroke-linecap:round;stroke-linejoin:round;stroke-miterlimit:10;stroke-dasharray:none;stroke-opacity:1"
       transform="matrix(0.35277776,0,0,-0.35277776,13.086328,9.7014391)"
       clip-path="url(#clipPath978)" />
    <path
       id="path979"
       d="M 0,0 -0.291,0.843"
       style="fill:none;stroke:#4e4957 icc-color(Display, 0.30198669, 0.28599548, 0.33699036);stroke-width:0.914;stroke-linecap:round;stroke-linejoin:round;stroke-miterlimit:10;stroke-dasharray:none;stroke-opacity:1"
       transform="matrix(0.35277776,0,0,-0.35277776,14.189667,10.071538)"
       clip-path="url(#clipPath980)" />
  </g>
</svg>
