<?xml version="1.0" encoding="UTF-8" standalone="no"?>
<!-- Created with Inkscape (http://www.inkscape.org/) -->

<svg
   width="64"
   height="64"
   viewBox="0 0 16.933333 16.933333"
   version="1.1"
   id="svg1"
   inkscape:version="1.3.2 (1:1.3.2+202404261509+091e20ef0f)"
   sodipodi:docname="graduates.svg"
   xmlns:inkscape="http://www.inkscape.org/namespaces/inkscape"
   xmlns:sodipodi="http://sodipodi.sourceforge.net/DTD/sodipodi-0.dtd"
   xmlns="http://www.w3.org/2000/svg"
   xmlns:svg="http://www.w3.org/2000/svg">
  <sodipodi:namedview
     id="namedview1"
     pagecolor="#ffffff"
     bordercolor="#999999"
     borderopacity="1"
     inkscape:showpageshadow="2"
     inkscape:pageopacity="0"
     inkscape:pagecheckerboard="0"
     inkscape:deskcolor="#d1d1d1"
     inkscape:document-units="mm"
     inkscape:zoom="90.767227"
     inkscape:cx="32.346477"
     inkscape:cy="23.940359"
     inkscape:window-width="1920"
     inkscape:window-height="995"
     inkscape:window-x="0"
     inkscape:window-y="0"
     inkscape:window-maximized="1"
     inkscape:current-layer="layer1" />
  <defs
     id="defs1">
    <clipPath
       clipPathUnits="userSpaceOnUse"
       id="clipPath638">
      <path
         d="M 0,1080 H 1920 V 0 H 0 Z"
         transform="translate(-387.46163,-794.34582)"
         id="path638" />
    </clipPath>
    <clipPath
       clipPathUnits="userSpaceOnUse"
       id="clipPath640">
      <path
         d="M 0,1080 H 1920 V 0 H 0 Z"
         transform="translate(-416.41044,-773.57432)"
         id="path640" />
    </clipPath>
    <clipPath
       clipPathUnits="userSpaceOnUse"
       id="clipPath642">
      <path
         d="M 0,1080 H 1920 V 0 H 0 Z"
         transform="translate(-402.08409,-773.57432)"
         id="path642" />
    </clipPath>
    <clipPath
       clipPathUnits="userSpaceOnUse"
       id="clipPath644">
      <path
         d="M 0,1080 H 1920 V 0 H 0 Z"
         transform="translate(-402.08409,-773.57432)"
         id="path644" />
    </clipPath>
    <clipPath
       clipPathUnits="userSpaceOnUse"
       id="clipPath646">
      <path
         d="M 0,1080 H 1920 V 0 H 0 Z"
         transform="translate(-410.82931,-796.31932)"
         id="path646" />
    </clipPath>
    <clipPath
       clipPathUnits="userSpaceOnUse"
       id="clipPath648">
      <path
         d="M 0,1080 H 1920 V 0 H 0 Z"
         transform="translate(-416.41044,-788.11892)"
         id="path648" />
    </clipPath>
    <clipPath
       clipPathUnits="userSpaceOnUse"
       id="clipPath650">
      <path
         d="M 0,1080 H 1920 V 0 H 0 Z"
         transform="translate(-416.41044,-773.57432)"
         id="path650" />
    </clipPath>
    <clipPath
       clipPathUnits="userSpaceOnUse"
       id="clipPath652">
      <path
         d="M 0,1080 H 1920 V 0 H 0 Z"
         transform="translate(-387.75781,-773.57432)"
         id="path652" />
    </clipPath>
    <clipPath
       clipPathUnits="userSpaceOnUse"
       id="clipPath654">
      <path
         d="M 0,1080 H 1920 V 0 H 0 Z"
         transform="translate(-392.83471,-773.57432)"
         id="path654" />
    </clipPath>
    <clipPath
       clipPathUnits="userSpaceOnUse"
       id="clipPath656">
      <path
         d="M 0,1080 H 1920 V 0 H 0 Z"
         transform="translate(-392.83471,-773.57432)"
         id="path656" />
    </clipPath>
    <clipPath
       clipPathUnits="userSpaceOnUse"
       id="clipPath658">
      <path
         d="M 0,1080 H 1920 V 0 H 0 Z"
         transform="translate(-402.08409,-778.38282)"
         id="path658" />
    </clipPath>
    <clipPath
       clipPathUnits="userSpaceOnUse"
       id="clipPath660">
      <path
         d="M 0,1080 H 1920 V 0 H 0 Z"
         transform="translate(-398.18063,-777.66422)"
         id="path660" />
    </clipPath>
    <clipPath
       clipPathUnits="userSpaceOnUse"
       id="clipPath662">
      <path
         d="M 0,1080 H 1920 V 0 H 0 Z"
         transform="translate(-398.18063,-780.73182)"
         id="path662" />
    </clipPath>
    <clipPath
       clipPathUnits="userSpaceOnUse"
       id="clipPath664">
      <path
         d="M 0,1080 H 1920 V 0 H 0 Z"
         transform="translate(-398.18063,-783.79942)"
         id="path664" />
    </clipPath>
    <clipPath
       clipPathUnits="userSpaceOnUse"
       id="clipPath666">
      <path
         d="M 0,1080 H 1920 V 0 H 0 Z"
         id="path666" />
    </clipPath>
    <clipPath
       clipPathUnits="userSpaceOnUse"
       id="clipPath668">
      <path
         d="M 0,1080 H 1920 V 0 H 0 Z"
         transform="translate(-405.97989,-791.10122)"
         id="path668" />
    </clipPath>
    <clipPath
       clipPathUnits="userSpaceOnUse"
       id="clipPath670">
      <path
         d="M 0,1080 H 1920 V 0 H 0 Z"
         transform="translate(-405.97989,-788.03362)"
         id="path670" />
    </clipPath>
    <clipPath
       clipPathUnits="userSpaceOnUse"
       id="clipPath672">
      <path
         d="M 0,1080 H 1920 V 0 H 0 Z"
         transform="translate(-405.97989,-784.96592)"
         id="path672" />
    </clipPath>
    <clipPath
       clipPathUnits="userSpaceOnUse"
       id="clipPath674">
      <path
         d="M 0,1080 H 1920 V 0 H 0 Z"
         id="path674" />
    </clipPath>
    <clipPath
       clipPathUnits="userSpaceOnUse"
       id="clipPath676">
      <path
         d="M 0,1080 H 1920 V 0 H 0 Z"
         transform="translate(-415.70004,-789.77622)"
         id="path676" />
    </clipPath>
    <clipPath
       clipPathUnits="userSpaceOnUse"
       id="clipPath692">
      <path
         d="M 0,1080 H 1920 V 0 H 0 Z"
         transform="translate(-403.20961,-765.29602)"
         id="path692" />
    </clipPath>
    <clipPath
       clipPathUnits="userSpaceOnUse"
       id="clipPath694">
      <path
         d="M 0,1080 H 1920 V 0 H 0 Z"
         transform="translate(-422.19211,-794.81412)"
         id="path694" />
    </clipPath>
    <clipPath
       clipPathUnits="userSpaceOnUse"
       id="clipPath696">
      <path
         d="M 0,1080 H 1920 V 0 H 0 Z"
         transform="translate(-418.30299,-772.77582)"
         id="path696" />
    </clipPath>
    <clipPath
       clipPathUnits="userSpaceOnUse"
       id="clipPath698">
      <path
         d="M 0,1080 H 1920 V 0 H 0 Z"
         transform="translate(-412.02181,-766.94212)"
         id="path698" />
    </clipPath>
    <clipPath
       clipPathUnits="userSpaceOnUse"
       id="clipPath700">
      <path
         d="M 0,1080 H 1920 V 0 H 0 Z"
         transform="translate(-411.76929,-778.60952)"
         id="path700" />
    </clipPath>
    <clipPath
       clipPathUnits="userSpaceOnUse"
       id="clipPath702">
      <path
         d="M 0,1080 H 1920 V 0 H 0 Z"
         transform="translate(-409.87659,-773.30762)"
         id="path702" />
    </clipPath>
    <clipPath
       clipPathUnits="userSpaceOnUse"
       id="clipPath704">
      <path
         d="M 0,1080 H 1920 V 0 H 0 Z"
         transform="translate(-391.72741,-772.77582)"
         id="path704" />
    </clipPath>
    <clipPath
       clipPathUnits="userSpaceOnUse"
       id="clipPath706">
      <path
         d="M 0,1080 H 1920 V 0 H 0 Z"
         transform="translate(-412.02181,-766.94212)"
         id="path706" />
    </clipPath>
    <clipPath
       clipPathUnits="userSpaceOnUse"
       id="clipPath708">
      <path
         d="M 0,1080 H 1920 V 0 H 0 Z"
         transform="translate(-404.69109,-766.94212)"
         id="path708" />
    </clipPath>
    <clipPath
       clipPathUnits="userSpaceOnUse"
       id="clipPath710">
      <path
         d="M 0,1080 H 1920 V 0 H 0 Z"
         transform="translate(-404.69109,-770.83122)"
         id="path710" />
    </clipPath>
    <clipPath
       clipPathUnits="userSpaceOnUse"
       id="clipPath712">
      <path
         d="M 0,1080 H 1920 V 0 H 0 Z"
         transform="translate(-389.78288,-770.83122)"
         id="path712" />
    </clipPath>
    <clipPath
       clipPathUnits="userSpaceOnUse"
       id="clipPath714">
      <path
         d="M 0,1080 H 1920 V 0 H 0 Z"
         transform="translate(-411.82119,-770.83122)"
         id="path714" />
    </clipPath>
    <clipPath
       clipPathUnits="userSpaceOnUse"
       id="clipPath716">
      <path
         d="M 0,1080 H 1920 V 0 H 0 Z"
         transform="translate(-393.67201,-770.83122)"
         id="path716" />
    </clipPath>
    <clipPath
       clipPathUnits="userSpaceOnUse"
       id="clipPath718">
      <path
         d="M 0,1080 H 1920 V 0 H 0 Z"
         transform="translate(-387.83828,-789.62872)"
         id="path718" />
    </clipPath>
    <clipPath
       clipPathUnits="userSpaceOnUse"
       id="clipPath720">
      <path
         d="M 0,1080 H 1920 V 0 H 0 Z"
         transform="translate(-389.78288,-786.38772)"
         id="path720" />
    </clipPath>
    <clipPath
       clipPathUnits="userSpaceOnUse"
       id="clipPath722">
      <path
         d="M 0,1080 H 1920 V 0 H 0 Z"
         transform="translate(-389.78288,-783.14682)"
         id="path722" />
    </clipPath>
    <clipPath
       clipPathUnits="userSpaceOnUse"
       id="clipPath724">
      <path
         d="M 0,1080 H 1920 V 0 H 0 Z"
         transform="translate(-412.78081,-784.87102)"
         id="path724" />
    </clipPath>
    <clipPath
       clipPathUnits="userSpaceOnUse"
       id="clipPath726">
      <path
         d="M 0,1080 H 1920 V 0 H 0 Z"
         transform="translate(-406.64829,-783.52912)"
         id="path726" />
    </clipPath>
    <clipPath
       clipPathUnits="userSpaceOnUse"
       id="clipPath728">
      <path
         d="M 0,1080 H 1920 V 0 H 0 Z"
         transform="translate(-414.41394,-778.60952)"
         id="path728" />
    </clipPath>
    <clipPath
       clipPathUnits="userSpaceOnUse"
       id="clipPath730">
      <path
         d="M 0,1080 H 1920 V 0 H 0 Z"
         transform="translate(-401.45019,-772.77582)"
         id="path730" />
    </clipPath>
    <clipPath
       clipPathUnits="userSpaceOnUse"
       id="clipPath732">
      <path
         d="M 0,1080 H 1920 V 0 H 0 Z"
         transform="translate(-411.60091,-779.86032)"
         id="path732" />
    </clipPath>
    <clipPath
       clipPathUnits="userSpaceOnUse"
       id="clipPath734">
      <path
         d="M 0,1080 H 1920 V 0 H 0 Z"
         transform="translate(-405.98754,-776.66492)"
         id="path734" />
    </clipPath>
    <clipPath
       clipPathUnits="userSpaceOnUse"
       id="clipPath755">
      <path
         d="M 0,1080 H 1920 V 0 H 0 Z"
         transform="translate(-416.46504,-527.35331)"
         id="path755" />
    </clipPath>
    <clipPath
       clipPathUnits="userSpaceOnUse"
       id="clipPath757">
      <path
         d="M 0,1080 H 1920 V 0 H 0 Z"
         transform="translate(-427.19214,-548.35741)"
         id="path757" />
    </clipPath>
    <clipPath
       clipPathUnits="userSpaceOnUse"
       id="clipPath759">
      <path
         d="M 0,1080 H 1920 V 0 H 0 Z"
         transform="translate(-415.44691,-528.38231)"
         id="path759" />
    </clipPath>
    <clipPath
       clipPathUnits="userSpaceOnUse"
       id="clipPath763">
      <path
         d="M 0,1080 H 1920 V 0 H 0 Z"
         transform="translate(-389.56103,-545.18632)"
         id="path763" />
    </clipPath>
    <clipPath
       clipPathUnits="userSpaceOnUse"
       id="clipPath765">
      <path
         d="M 0,1080 H 1920 V 0 H 0 Z"
         transform="translate(-381.28928,-550.33582)"
         id="path765" />
    </clipPath>
    <clipPath
       clipPathUnits="userSpaceOnUse"
       id="clipPath767">
      <path
         d="M 0,1080 H 1920 V 0 H 0 Z"
         transform="translate(-381.28928,-550.33582)"
         id="path767" />
    </clipPath>
    <clipPath
       clipPathUnits="userSpaceOnUse"
       id="clipPath769">
      <path
         d="M 0,1080 H 1920 V 0 H 0 Z"
         transform="translate(-404.01249,-542.72002)"
         id="path769" />
    </clipPath>
    <clipPath
       clipPathUnits="userSpaceOnUse"
       id="clipPath771">
      <path
         d="M 0,1080 H 1920 V 0 H 0 Z"
         transform="translate(-405.32709,-550.11382)"
         id="path771" />
    </clipPath>
    <clipPath
       clipPathUnits="userSpaceOnUse"
       id="clipPath773">
      <path
         d="M 0,1080 H 1920 V 0 H 0 Z"
         transform="translate(-417.02664,-530.36071)"
         id="path773" />
    </clipPath>
    <clipPath
       clipPathUnits="userSpaceOnUse"
       id="clipPath775">
      <path
         d="M 0,1080 H 1920 V 0 H 0 Z"
         transform="translate(-405.38754,-550.49902)"
         id="path775" />
    </clipPath>
    <clipPath
       clipPathUnits="userSpaceOnUse"
       id="clipPath777">
      <path
         d="M 0,1080 H 1920 V 0 H 0 Z"
         transform="translate(-405.38754,-550.49902)"
         id="path777" />
    </clipPath>
    <clipPath
       clipPathUnits="userSpaceOnUse"
       id="clipPath6">
      <g
         id="g7">
        <path
           d="m -134.05302,-181.14381 h 677.3333 v 380.99998 h -677.3333 z"
           id="path6"
           style="stroke-width:0.352778" />
      </g>
    </clipPath>
    <clipPath
       clipPathUnits="userSpaceOnUse"
       id="clipPath7">
      <g
         id="g8">
        <path
           d="m -134.05302,-181.14381 h 677.3333 v 380.99998 h -677.3333 z"
           id="path7"
           style="stroke-width:0.352778" />
      </g>
    </clipPath>
  </defs>
  <g
     inkscape:label="Capa 1"
     inkscape:groupmode="layer"
     id="layer1">
    <path
       id="path754"
       d="m 0,0 c -1.158,0 -2.097,-2.456 -2.097,-4.618 0,-0.562 0.939,-1.017 2.097,-1.017 1.158,0 2.097,0.455 2.097,1.017 C 2.097,-2.456 1.158,0 0,0"
       style="fill:#ecedef;fill-opacity:1;fill-rule:nonzero;stroke:none"
       transform="matrix(0.35277776,0,0,-0.35277776,12.866587,13.817653)"
       clip-path="url(#clipPath755)" />
    <path
       id="path756"
       d="M 0,0 -22.723,7.616 -45.446,0 v -2.169 l 8.894,-2.98 h -0.623 v -4.177 c 0,-3.067 6.471,-6.753 14.452,-6.753 3.553,0 6.805,0.731 9.322,1.813 l 2.674,-4.691 v 6.156 c 1.55,1.095 2.455,2.328 2.455,3.475 v 4.177 H -8.894 L 0,-2.169 Z"
       style="fill:#ecedef;fill-opacity:1;fill-rule:nonzero;stroke:none"
       transform="matrix(0.35277776,0,0,-0.35277776,16.650869,6.4078726)"
       clip-path="url(#clipPath757)" />
    <path
       id="path758"
       d="M 0,0 C 0,-0.562 0.456,-1.018 1.018,-1.018 1.58,-1.018 2.036,-0.562 2.036,0 2.036,0.562 1.58,1.018 1.018,1.018 0.456,1.018 0,0.562 0,0"
       style="fill:#ecedef icc-color(Display, 0.92498779, 0.9289856, 0.93699646);fill-opacity:1;fill-rule:nonzero;stroke:none"
       transform="matrix(0.35277776,0,0,-0.35277776,12.507415,13.454645)"
       clip-path="url(#clipPath759)" />
    <path
       style="color:#000000;fill:#6e7fea;stroke-width:0.352778;stroke-linecap:round;stroke-linejoin:round;stroke-miterlimit:10;-inkscape-stroke:none;fill-opacity:1"
       d="m 13.445178,14.748915 c 0,0.198261 -0.331258,0.358775 -0.739775,0.358775 -0.408517,0 -0.739422,-0.160514 -0.739422,-0.358775 0,-0.762706 0.330905,-1.629128 0.739422,-1.629128 0.408517,0 0.739775,0.866422 0.739775,1.629128"
       id="path1"
       clip-path="url(#clipPath7)" />
    <path
       style="color:#000000;fill:#4e4957;stroke-width:0.352778;stroke-linecap:round;stroke-linejoin:round;stroke-miterlimit:10;-inkscape-stroke:none;fill-opacity:1"
       d="m 12.705172,15.275326 c -0.226252,0 -0.432012,-0.04171 -0.596002,-0.121268 -0.16399,-0.07956 -0.311437,-0.21259 -0.311437,-0.405143 0,-0.405637 0.08536,-0.82895 0.230133,-1.166509 0.07239,-0.16878 0.159609,-0.31649 0.268028,-0.430637 0.108419,-0.114147 0.247791,-0.199816 0.409278,-0.199816 0.161486,0 0.301516,0.08499 0.409966,0.199127 0.10845,0.114137 0.194903,0.262546 0.267339,0.431326 0.144873,0.337559 0.230822,0.760846 0.230822,1.166509 a 0.16792222,0.16792222 0 0 1 -0.121957,0.158474 c -0.058,0.08932 -0.08962,0.198252 -0.18948,0.246669 -0.16406,0.07954 -0.370439,0.121268 -0.59669,0.121268 z m 0,-0.335553 c 0.182264,0 0.346231,-0.03792 0.449929,-0.08819 0.103698,-0.05028 0.121956,-0.09706 0.121956,-0.102664 0,-0.357042 -0.07969,-0.74789 -0.202571,-1.034218 -0.06144,-0.143163 -0.134016,-0.259956 -0.202572,-0.332107 -0.06856,-0.07215 -0.123971,-0.09508 -0.166742,-0.09508 -0.04277,0 -0.09753,0.02294 -0.166054,0.09508 -0.06852,0.07214 -0.14117,0.188944 -0.202572,0.332107 -0.122804,0.286328 -0.202571,0.67715 -0.202571,1.034218 0,0.0057 0.01836,0.0524 0.121956,0.102664 0.103592,0.05026 0.266976,0.08819 0.449241,0.08819 z"
       id="path2"
       clip-path="url(#clipPath6)" />
    <path
       style="color:#000000;fill:#4e4957;fill-opacity:1;stroke-width:0.352778;stroke-linecap:round;stroke-linejoin:round;stroke-miterlimit:10;-inkscape-stroke:none"
       d="m 8.4735059,11.550437 c -1.4336169,0 -2.7304737,-0.329538 -3.6800509,-0.803396 C 4.3186665,10.510111 3.930316,10.237364 3.6538175,9.9436443 3.377319,9.6499241 3.2073331,9.3298404 3.2073331,9.0003772 V 7.5265654 A 0.16792222,0.16792222 0 0 1 3.3754538,7.3584447 0.16792222,0.16792222 0 0 1 3.5435745,7.5265654 v 1.4738118 c 0,0.2113445 0.1153953,0.4587711 0.3548448,0.7131347 0.2394495,0.2543636 0.5974734,0.5096711 1.0452419,0.7331161 0.8955369,0.446891 2.1479447,0.767567 3.5298447,0.767567 1.3820795,0 2.6342641,-0.320676 3.5298441,-0.767567 0.447791,-0.223445 0.805788,-0.4787528 1.045242,-0.7331161 0.239455,-0.2543633 0.355534,-0.5017902 0.355534,-0.7131347 V 7.5265654 a 0.16792222,0.16792222 0 0 1 0.167432,-0.1681207 0.16792222,0.16792222 0 0 1 0.16812,0.1681207 v 1.4738118 c 0,0.3294632 -0.169979,0.6495466 -0.446484,0.9432671 -0.276505,0.2937207 -0.664827,0.5664677 -1.139638,0.8033967 -0.949621,0.473857 -2.2462604,0.803396 -3.6800501,0.803396 z"
       id="path762" />
    <path
       style="color:#000000;fill:#4e4957;fill-opacity:1;stroke-width:0.352778;stroke-linecap:round;stroke-linejoin:round;stroke-miterlimit:10;-inkscape-stroke:none"
       d="M 8.4203577,9.3203961 0.40430976,6.6345998 A 0.16793901,0.16793901 0 0 1 0.28924358,6.4754364 V 5.7099362 A 0.16792222,0.16792222 0 0 1 0.45736423,5.5418155 0.16792222,0.16792222 0 0 1 0.62548488,5.7099362 V 6.354169 L 8.4734119,8.9841548 16.322028,6.354169 V 5.7099362 A 0.16792222,0.16792222 0 0 1 16.48946,5.5418155 0.16792222,0.16792222 0 0 1 16.65758,5.7099362 V 6.4754364 A 0.16793901,0.16793901 0 0 1 16.543203,6.6345998 L 8.5271555,9.3203961 a 0.16793901,0.16793901 0 0 1 -0.1067978,0 z"
       id="path764" />
    <path
       id="path766"
       d="M 0,0 V -2.169 L 22.723,-9.784"
       style="fill:none;stroke:#4e4957 icc-color(Display, 0.30198669, 0.28599548, 0.33699036);stroke-width:0.952;stroke-linecap:round;stroke-linejoin:round;stroke-miterlimit:10;stroke-dasharray:none;stroke-opacity:1"
       transform="matrix(0.35277776,0,0,-0.35277776,0.45736423,5.7099362)"
       clip-path="url(#clipPath767)" />
    <path
       style="color:#000000;fill:#4e4957;fill-opacity:1;stroke-width:0.352778;stroke-linecap:round;stroke-linejoin:round;stroke-miterlimit:10;-inkscape-stroke:none"
       d="M 8.4205496,8.5557846 0.40381284,5.8692993 a 0.16793901,0.16793901 0 0 1 0,-0.3183268 L 8.4205496,2.863798 a 0.16793901,0.16793901 0 0 1 0.106109,0 l 8.0167364,2.6871745 a 0.16793901,0.16793901 0 0 1 0,0.3183268 L 8.5266586,8.5557846 a 0.16793901,0.16793901 0 0 1 -0.106109,0 z M 8.4736041,8.2195433 15.961863,5.7101359 8.4736041,3.2000393 0.98534511,5.7101359 Z"
       id="path768" />
    <path
       style="color:#000000;fill:#4e4957;fill-opacity:1;stroke-width:0.352778;stroke-linecap:round;stroke-linejoin:round;stroke-miterlimit:10;-inkscape-stroke:none"
       d="M 12.705611,12.565444 A 0.16792222,0.16792222 0 0 1 12.53749,12.397324 V 7.1497546 L 8.8850004,5.9481053 A 0.16792222,0.16792222 0 0 1 8.7775134,5.7358875 0.16792222,0.16792222 0 0 1 8.9897312,5.6284005 l 3.7682448,1.2402343 a 0.16793901,0.16793901 0 0 1 0.115067,0.1591634 v 5.3695258 a 0.16792222,0.16792222 0 0 1 -0.167432,0.16812 z"
       id="path770" />
    <path
       style="color:#000000;fill:#4e4957;stroke-linecap:round;stroke-linejoin:round;stroke-miterlimit:10;-inkscape-stroke:none;fill-opacity:1"
       d="m -1.0175781,-1.4941406 c -0.8194796,0 -1.4941406,0.67466099 -1.4941407,1.4941406 0,0.81947961 0.6746611,1.4941406 1.4941407,1.4941406 0.81947959,0 1.4941406,-0.67466099 1.4941406,-1.4941406 0,-0.81947961 -0.67466101,-1.4941406 -1.4941406,-1.4941406 z m 0,0.95117185 c 0.30451924,0 0.5410156,0.23844949 0.5410156,0.54296875 0,0.30451926 -0.23649636,0.54296875 -0.5410156,0.54296875 -0.3045193,0 -0.5429688,-0.23844949 -0.5429688,-0.54296875 0,-0.30451926 0.2384495,-0.54296875 0.5429688,-0.54296875 z"
       id="path772"
       transform="matrix(0.35277776,0,0,-0.35277776,13.064707,12.756708)" />
    <path
       id="path774"
       d="m 0,0 c 0,-0.414 -0.616,-0.75 -1.375,-0.75 -0.759,0 -1.375,0.336 -1.375,0.75 0,0.414 0.616,0.75 1.375,0.75 C -0.616,0.75 0,0.414 0,0 Z"
       style="fill:none;stroke:#4e4957 icc-color(Display, 0.30198669, 0.28599548, 0.33699036);stroke-width:0.952;stroke-linecap:round;stroke-linejoin:round;stroke-miterlimit:10;stroke-dasharray:none;stroke-opacity:1"
       transform="matrix(0.35277776,0,0,-0.35277776,8.9586912,5.6523629)"
       clip-path="url(#clipPath775)" />
    <g
       id="path776"
       clip-path="url(#clipPath777)"
       transform="matrix(0.35277776,0,0,-0.35277776,8.9586912,5.6523629)">
      <path
         style="color:#000000;fill:#6e7fea;stroke-linecap:round;stroke-linejoin:round;stroke-miterlimit:10;-inkscape-stroke:none;fill-opacity:1"
         d="m 0,0 c 0,-0.414 -0.616,-0.75 -1.375,-0.75 -0.759,0 -1.375,0.336 -1.375,0.75 0,0.414 0.616,0.75 1.375,0.75 C -0.616,0.75 0,0.414 0,0"
         id="path3" />
      <path
         style="color:#000000;fill:#4e4957;stroke-linecap:round;stroke-linejoin:round;stroke-miterlimit:10;-inkscape-stroke:none;fill-opacity:1"
         d="m -1.375,-1.2265625 c -0.4497393,0 -0.861054,0.094843 -1.1992188,0.27929687 C -2.9123835,-0.76281211 -3.2265625,-0.4430833 -3.2265625,0 c 0,0.4430833 0.314179,0.76281211 0.6523437,0.94726563 C -2.236054,1.1317191 -1.8247393,1.2265625 -1.375,1.2265625 c 0.44973934,0 0.86105398,-0.094843 1.19921875,-0.27929687 C 0.02364548,0.83848741 0.08616032,0.58934431 0.20898438,0.38867188 A 0.47600001,0.47600001 0 0 0 0.4765625,0 0.47600001,0.47600001 0 0 0 0.171875,-0.44140625 C 0.04954852,-0.61531491 0.00468752,-0.84882812 -0.17578125,-0.94726563 -0.51394602,-1.1317191 -0.92526066,-1.2265625 -1.375,-1.2265625 Z m 0,0.953125 c 0.3092599,0 0.58455589,0.07311 0.74414063,0.16015625 C -0.47127464,-0.02623503 -0.4765625,0.02908371 -0.4765625,0 c 0,-0.02908371 0.005288,0.02623503 -0.15429687,0.11328125 C -0.79044411,0.20032747 -1.0657401,0.2734375 -1.375,0.2734375 c -0.3092599,0 -0.5845559,-0.07311 -0.7441406,-0.16015625 C -2.2787254,0.02623503 -2.2734375,-0.02908371 -2.2734375,0 c 0,0.02908371 -0.00529,-0.02623503 0.1542969,-0.11328125 0.1595847,-0.0870462 0.4348807,-0.16015625 0.7441406,-0.16015625 z"
         id="path4" />
    </g>
  </g>
</svg>
