<?xml version="1.0" encoding="UTF-8" standalone="no"?>
<!-- Created with Inkscape (http://www.inkscape.org/) -->

<svg
   width="64"
   height="64"
   viewBox="0 0 16.933333 16.933333"
   version="1.1"
   id="svg1"
   inkscape:version="1.3.2 (1:1.3.2+202404261509+091e20ef0f)"
   sodipodi:docname="courses.svg"
   xmlns:inkscape="http://www.inkscape.org/namespaces/inkscape"
   xmlns:sodipodi="http://sodipodi.sourceforge.net/DTD/sodipodi-0.dtd"
   xmlns="http://www.w3.org/2000/svg"
   xmlns:svg="http://www.w3.org/2000/svg">
  <sodipodi:namedview
     id="namedview1"
     pagecolor="#ffffff"
     bordercolor="#999999"
     borderopacity="1"
     inkscape:showpageshadow="2"
     inkscape:pageopacity="0"
     inkscape:pagecheckerboard="0"
     inkscape:deskcolor="#d1d1d1"
     inkscape:document-units="mm"
     inkscape:zoom="8.0227652"
     inkscape:cx="39.01398"
     inkscape:cy="21.937573"
     inkscape:window-width="1920"
     inkscape:window-height="995"
     inkscape:window-x="0"
     inkscape:window-y="0"
     inkscape:window-maximized="1"
     inkscape:current-layer="layer1" />
  <defs
     id="defs1">
    <clipPath
       clipPathUnits="userSpaceOnUse"
       id="clipPath638">
      <path
         d="M 0,1080 H 1920 V 0 H 0 Z"
         transform="translate(-387.46163,-794.34582)"
         id="path638" />
    </clipPath>
    <clipPath
       clipPathUnits="userSpaceOnUse"
       id="clipPath640">
      <path
         d="M 0,1080 H 1920 V 0 H 0 Z"
         transform="translate(-416.41044,-773.57432)"
         id="path640" />
    </clipPath>
    <clipPath
       clipPathUnits="userSpaceOnUse"
       id="clipPath642">
      <path
         d="M 0,1080 H 1920 V 0 H 0 Z"
         transform="translate(-402.08409,-773.57432)"
         id="path642" />
    </clipPath>
    <clipPath
       clipPathUnits="userSpaceOnUse"
       id="clipPath644">
      <path
         d="M 0,1080 H 1920 V 0 H 0 Z"
         transform="translate(-402.08409,-773.57432)"
         id="path644" />
    </clipPath>
    <clipPath
       clipPathUnits="userSpaceOnUse"
       id="clipPath646">
      <path
         d="M 0,1080 H 1920 V 0 H 0 Z"
         transform="translate(-410.82931,-796.31932)"
         id="path646" />
    </clipPath>
    <clipPath
       clipPathUnits="userSpaceOnUse"
       id="clipPath648">
      <path
         d="M 0,1080 H 1920 V 0 H 0 Z"
         transform="translate(-416.41044,-788.11892)"
         id="path648" />
    </clipPath>
    <clipPath
       clipPathUnits="userSpaceOnUse"
       id="clipPath650">
      <path
         d="M 0,1080 H 1920 V 0 H 0 Z"
         transform="translate(-416.41044,-773.57432)"
         id="path650" />
    </clipPath>
    <clipPath
       clipPathUnits="userSpaceOnUse"
       id="clipPath652">
      <path
         d="M 0,1080 H 1920 V 0 H 0 Z"
         transform="translate(-387.75781,-773.57432)"
         id="path652" />
    </clipPath>
    <clipPath
       clipPathUnits="userSpaceOnUse"
       id="clipPath654">
      <path
         d="M 0,1080 H 1920 V 0 H 0 Z"
         transform="translate(-392.83471,-773.57432)"
         id="path654" />
    </clipPath>
    <clipPath
       clipPathUnits="userSpaceOnUse"
       id="clipPath656">
      <path
         d="M 0,1080 H 1920 V 0 H 0 Z"
         transform="translate(-392.83471,-773.57432)"
         id="path656" />
    </clipPath>
    <clipPath
       clipPathUnits="userSpaceOnUse"
       id="clipPath658">
      <path
         d="M 0,1080 H 1920 V 0 H 0 Z"
         transform="translate(-402.08409,-778.38282)"
         id="path658" />
    </clipPath>
    <clipPath
       clipPathUnits="userSpaceOnUse"
       id="clipPath660">
      <path
         d="M 0,1080 H 1920 V 0 H 0 Z"
         transform="translate(-398.18063,-777.66422)"
         id="path660" />
    </clipPath>
    <clipPath
       clipPathUnits="userSpaceOnUse"
       id="clipPath662">
      <path
         d="M 0,1080 H 1920 V 0 H 0 Z"
         transform="translate(-398.18063,-780.73182)"
         id="path662" />
    </clipPath>
    <clipPath
       clipPathUnits="userSpaceOnUse"
       id="clipPath664">
      <path
         d="M 0,1080 H 1920 V 0 H 0 Z"
         transform="translate(-398.18063,-783.79942)"
         id="path664" />
    </clipPath>
    <clipPath
       clipPathUnits="userSpaceOnUse"
       id="clipPath666">
      <path
         d="M 0,1080 H 1920 V 0 H 0 Z"
         id="path666" />
    </clipPath>
    <clipPath
       clipPathUnits="userSpaceOnUse"
       id="clipPath668">
      <path
         d="M 0,1080 H 1920 V 0 H 0 Z"
         transform="translate(-405.97989,-791.10122)"
         id="path668" />
    </clipPath>
    <clipPath
       clipPathUnits="userSpaceOnUse"
       id="clipPath670">
      <path
         d="M 0,1080 H 1920 V 0 H 0 Z"
         transform="translate(-405.97989,-788.03362)"
         id="path670" />
    </clipPath>
    <clipPath
       clipPathUnits="userSpaceOnUse"
       id="clipPath672">
      <path
         d="M 0,1080 H 1920 V 0 H 0 Z"
         transform="translate(-405.97989,-784.96592)"
         id="path672" />
    </clipPath>
    <clipPath
       clipPathUnits="userSpaceOnUse"
       id="clipPath674">
      <path
         d="M 0,1080 H 1920 V 0 H 0 Z"
         id="path674" />
    </clipPath>
    <clipPath
       clipPathUnits="userSpaceOnUse"
       id="clipPath676">
      <path
         d="M 0,1080 H 1920 V 0 H 0 Z"
         transform="translate(-415.70004,-789.77622)"
         id="path676" />
    </clipPath>
    <clipPath
       clipPathUnits="userSpaceOnUse"
       id="clipPath692">
      <path
         d="M 0,1080 H 1920 V 0 H 0 Z"
         transform="translate(-403.20961,-765.29602)"
         id="path692" />
    </clipPath>
    <clipPath
       clipPathUnits="userSpaceOnUse"
       id="clipPath694">
      <path
         d="M 0,1080 H 1920 V 0 H 0 Z"
         transform="translate(-422.19211,-794.81412)"
         id="path694" />
    </clipPath>
    <clipPath
       clipPathUnits="userSpaceOnUse"
       id="clipPath696">
      <path
         d="M 0,1080 H 1920 V 0 H 0 Z"
         transform="translate(-418.30299,-772.77582)"
         id="path696" />
    </clipPath>
    <clipPath
       clipPathUnits="userSpaceOnUse"
       id="clipPath698">
      <path
         d="M 0,1080 H 1920 V 0 H 0 Z"
         transform="translate(-412.02181,-766.94212)"
         id="path698" />
    </clipPath>
    <clipPath
       clipPathUnits="userSpaceOnUse"
       id="clipPath700">
      <path
         d="M 0,1080 H 1920 V 0 H 0 Z"
         transform="translate(-411.76929,-778.60952)"
         id="path700" />
    </clipPath>
    <clipPath
       clipPathUnits="userSpaceOnUse"
       id="clipPath702">
      <path
         d="M 0,1080 H 1920 V 0 H 0 Z"
         transform="translate(-409.87659,-773.30762)"
         id="path702" />
    </clipPath>
    <clipPath
       clipPathUnits="userSpaceOnUse"
       id="clipPath704">
      <path
         d="M 0,1080 H 1920 V 0 H 0 Z"
         transform="translate(-391.72741,-772.77582)"
         id="path704" />
    </clipPath>
    <clipPath
       clipPathUnits="userSpaceOnUse"
       id="clipPath706">
      <path
         d="M 0,1080 H 1920 V 0 H 0 Z"
         transform="translate(-412.02181,-766.94212)"
         id="path706" />
    </clipPath>
    <clipPath
       clipPathUnits="userSpaceOnUse"
       id="clipPath708">
      <path
         d="M 0,1080 H 1920 V 0 H 0 Z"
         transform="translate(-404.69109,-766.94212)"
         id="path708" />
    </clipPath>
    <clipPath
       clipPathUnits="userSpaceOnUse"
       id="clipPath710">
      <path
         d="M 0,1080 H 1920 V 0 H 0 Z"
         transform="translate(-404.69109,-770.83122)"
         id="path710" />
    </clipPath>
    <clipPath
       clipPathUnits="userSpaceOnUse"
       id="clipPath712">
      <path
         d="M 0,1080 H 1920 V 0 H 0 Z"
         transform="translate(-389.78288,-770.83122)"
         id="path712" />
    </clipPath>
    <clipPath
       clipPathUnits="userSpaceOnUse"
       id="clipPath714">
      <path
         d="M 0,1080 H 1920 V 0 H 0 Z"
         transform="translate(-411.82119,-770.83122)"
         id="path714" />
    </clipPath>
    <clipPath
       clipPathUnits="userSpaceOnUse"
       id="clipPath716">
      <path
         d="M 0,1080 H 1920 V 0 H 0 Z"
         transform="translate(-393.67201,-770.83122)"
         id="path716" />
    </clipPath>
    <clipPath
       clipPathUnits="userSpaceOnUse"
       id="clipPath718">
      <path
         d="M 0,1080 H 1920 V 0 H 0 Z"
         transform="translate(-387.83828,-789.62872)"
         id="path718" />
    </clipPath>
    <clipPath
       clipPathUnits="userSpaceOnUse"
       id="clipPath720">
      <path
         d="M 0,1080 H 1920 V 0 H 0 Z"
         transform="translate(-389.78288,-786.38772)"
         id="path720" />
    </clipPath>
    <clipPath
       clipPathUnits="userSpaceOnUse"
       id="clipPath722">
      <path
         d="M 0,1080 H 1920 V 0 H 0 Z"
         transform="translate(-389.78288,-783.14682)"
         id="path722" />
    </clipPath>
    <clipPath
       clipPathUnits="userSpaceOnUse"
       id="clipPath724">
      <path
         d="M 0,1080 H 1920 V 0 H 0 Z"
         transform="translate(-412.78081,-784.87102)"
         id="path724" />
    </clipPath>
    <clipPath
       clipPathUnits="userSpaceOnUse"
       id="clipPath726">
      <path
         d="M 0,1080 H 1920 V 0 H 0 Z"
         transform="translate(-406.64829,-783.52912)"
         id="path726" />
    </clipPath>
    <clipPath
       clipPathUnits="userSpaceOnUse"
       id="clipPath728">
      <path
         d="M 0,1080 H 1920 V 0 H 0 Z"
         transform="translate(-414.41394,-778.60952)"
         id="path728" />
    </clipPath>
    <clipPath
       clipPathUnits="userSpaceOnUse"
       id="clipPath730">
      <path
         d="M 0,1080 H 1920 V 0 H 0 Z"
         transform="translate(-401.45019,-772.77582)"
         id="path730" />
    </clipPath>
    <clipPath
       clipPathUnits="userSpaceOnUse"
       id="clipPath732">
      <path
         d="M 0,1080 H 1920 V 0 H 0 Z"
         transform="translate(-411.60091,-779.86032)"
         id="path732" />
    </clipPath>
    <clipPath
       clipPathUnits="userSpaceOnUse"
       id="clipPath734">
      <path
         d="M 0,1080 H 1920 V 0 H 0 Z"
         transform="translate(-405.98754,-776.66492)"
         id="path734" />
    </clipPath>
  </defs>
  <g
     inkscape:label="Capa 1"
     inkscape:groupmode="layer"
     id="layer1">
    <path
       id="path639"
       d="m 0,0 v 21.119 l 0.002,0.224 c 0.009,0.772 -0.614,1.402 -1.386,1.402 h -10.22 c -0.812,0 -1.558,-0.445 -1.943,-1.16 -0.122,-0.225 -0.39,-0.466 -0.779,-0.466 V 0 h 9.805"
       style="fill:#ffffff icc-color(Display, 1, 1, 1);fill-opacity:1;fill-rule:nonzero;stroke:none"
       transform="matrix(0.35277776,0,0,-0.35277776,13.342425,9.9471161)"
       clip-path="url(#clipPath640)" />
    <path
       id="path641"
       d="m 0,0 v -5.375 c 0.389,0 0.657,0.241 0.779,0.466 l 0.788,1.461 h 1.66 8.731 c 1.308,0 2.368,1.06 2.368,2.368 V 0 Z"
       style="fill:#f8df95 icc-color(Display, 0.95298767, 0.875, 0.61999512);fill-opacity:1;fill-rule:nonzero;stroke:#4e4957 icc-color(Display, 0.30198669, 0.28599548, 0.33699036);stroke-width:1.391;stroke-linecap:round;stroke-linejoin:round;stroke-miterlimit:10;stroke-dasharray:none;stroke-opacity:1"
       transform="matrix(0.35277776,0,0,-0.35277776,8.2884075,9.9471161)"
       clip-path="url(#clipPath642)" />
    <path
       id="path643"
       d="M 0,0 H 9.806"
       style="fill:none;stroke:#4e4957 icc-color(Display, 0.30198669, 0.28599548, 0.33699036);stroke-width:1.391;stroke-linecap:round;stroke-linejoin:round;stroke-miterlimit:10;stroke-dasharray:none;stroke-opacity:1"
       transform="matrix(0.35277776,0,0,-0.35277776,8.2884075,9.9471161)"
       clip-path="url(#clipPath644)" />
    <path
       id="path645"
       d="m 0,0 h -6.023 c -0.812,0 -1.558,-0.445 -1.943,-1.16 -0.122,-0.225 -0.39,-0.466 -0.779,-0.466"
       style="fill:none;stroke:#4e4957 icc-color(Display, 0.30198669, 0.28599548, 0.33699036);stroke-width:1.391;stroke-linecap:round;stroke-linejoin:round;stroke-miterlimit:10;stroke-dasharray:none;stroke-opacity:1"
       transform="matrix(0.35277776,0,0,-0.35277776,11.373528,1.9231848)"
       clip-path="url(#clipPath646)" />
    <path
       id="path647"
       d="M 0,0 V 2.893"
       style="fill:none;stroke:#4e4957 icc-color(Display, 0.30198669, 0.28599548, 0.33699036);stroke-width:1.391;stroke-linecap:round;stroke-linejoin:round;stroke-miterlimit:10;stroke-dasharray:none;stroke-opacity:1"
       transform="matrix(0.35277776,0,0,-0.35277776,13.342425,4.8161045)"
       clip-path="url(#clipPath648)" />
    <path
       id="path649"
       d="M 0,0 V 9.246"
       style="fill:none;stroke:#4e4957 icc-color(Display, 0.30198669, 0.28599548, 0.33699036);stroke-width:1.391;stroke-linecap:round;stroke-linejoin:round;stroke-miterlimit:10;stroke-dasharray:none;stroke-opacity:1"
       transform="matrix(0.35277776,0,0,-0.35277776,13.342425,9.9471161)"
       clip-path="url(#clipPath650)" />
    <path
       id="path651"
       d="m 0,0 v -1.08 c 0,-1.308 1.06,-2.368 2.368,-2.368 h 8.731 1.66 l 0.788,-1.461 c 0.122,-0.225 0.39,-0.466 0.779,-0.466 V 0"
       style="fill:#f8df95 icc-color(Display, 0.95298767, 0.875, 0.61999512);fill-opacity:1;fill-rule:nonzero;stroke:#4e4957 icc-color(Display, 0.30198669, 0.28599548, 0.33699036);stroke-width:1.391;stroke-linecap:round;stroke-linejoin:round;stroke-miterlimit:10;stroke-dasharray:none;stroke-opacity:1"
       transform="matrix(0.35277776,0,0,-0.35277776,3.2344161,9.9471161)"
       clip-path="url(#clipPath652)" />
    <path
       id="path653"
       d="m 0,0 h 9.249 v 21.119 c -0.388,0 -0.657,0.241 -0.778,0.466 -0.386,0.715 -1.132,1.16 -1.944,1.16 h -10.22 c -0.772,0 -1.395,-0.63 -1.386,-1.402 l 0.002,-0.224 V 0"
       style="fill:#ffffff icc-color(Display, 1, 1, 1);fill-opacity:1;fill-rule:nonzero;stroke:none"
       transform="matrix(0.35277776,0,0,-0.35277776,5.0254336,9.9471161)"
       clip-path="url(#clipPath654)" />
    <path
       id="path655"
       d="M 0,0 H 9.249"
       style="fill:none;stroke:#4e4957 icc-color(Display, 0.30198669, 0.28599548, 0.33699036);stroke-width:1.391;stroke-linecap:round;stroke-linejoin:round;stroke-miterlimit:10;stroke-dasharray:none;stroke-opacity:1"
       transform="matrix(0.35277776,0,0,-0.35277776,5.0254336,9.9471161)"
       clip-path="url(#clipPath656)" />
    <path
       id="path657"
       d="m 0,0 v 16.311 c -0.389,0 -0.657,0.241 -0.779,0.466 -0.385,0.714 -1.132,1.16 -1.943,1.16 h -10.22 c -0.772,0 -1.395,-0.631 -1.387,-1.402 l 0.003,-0.224 V -4.808"
       style="fill:none;stroke:#4e4957 icc-color(Display, 0.30198669, 0.28599548, 0.33699036);stroke-width:1.391;stroke-linecap:round;stroke-linejoin:round;stroke-miterlimit:10;stroke-dasharray:none;stroke-opacity:1"
       transform="matrix(0.35277776,0,0,-0.35277776,8.2884075,8.2507851)"
       clip-path="url(#clipPath658)" />
    <path
       id="path659"
       d="M 0,0 H -6.537"
       style="fill:none;stroke:#4e4957 icc-color(Display, 0.30198669, 0.28599548, 0.33699036);stroke-width:1.391;stroke-linecap:round;stroke-linejoin:round;stroke-miterlimit:10;stroke-dasharray:none;stroke-opacity:1"
       transform="matrix(0.35277776,0,0,-0.35277776,6.9113571,8.5042903)"
       clip-path="url(#clipPath660)" />
    <path
       id="path661"
       d="M 0,0 H -6.537"
       style="fill:none;stroke:#4e4957 icc-color(Display, 0.30198669, 0.28599548, 0.33699036);stroke-width:1.391;stroke-linecap:round;stroke-linejoin:round;stroke-miterlimit:10;stroke-dasharray:none;stroke-opacity:1"
       transform="matrix(0.35277776,0,0,-0.35277776,6.9113571,7.4221101)"
       clip-path="url(#clipPath662)" />
    <path
       id="path663"
       d="M 0,0 H -6.537"
       style="fill:none;stroke:#4e4957 icc-color(Display, 0.30198669, 0.28599548, 0.33699036);stroke-width:1.391;stroke-linecap:round;stroke-linejoin:round;stroke-miterlimit:10;stroke-dasharray:none;stroke-opacity:1"
       transform="matrix(0.35277776,0,0,-0.35277776,6.9113571,6.3399272)"
       clip-path="url(#clipPath664)" />
    <path
       id="path665"
       d="m 391.643,791.101 h 6.537 v -4.049 h -6.537 z"
       style="fill:#f3c66e icc-color(Display, 0.92199707, 0.77999878, 0.48199463);fill-opacity:1;fill-rule:nonzero;stroke:#4e4957 icc-color(Display, 0.30198669, 0.28599548, 0.33699036);stroke-width:1.391;stroke-linecap:round;stroke-linejoin:round;stroke-miterlimit:10;stroke-dasharray:none;stroke-opacity:1"
       transform="matrix(0.35277776,0,0,-0.35277776,-133.55792,282.84694)"
       clip-path="url(#clipPath666)" />
    <path
       id="path667"
       d="M 0,0 H 4.849"
       style="fill:none;stroke:#4e4957 icc-color(Display, 0.30198669, 0.28599548, 0.33699036);stroke-width:1.391;stroke-linecap:round;stroke-linejoin:round;stroke-miterlimit:10;stroke-dasharray:none;stroke-opacity:1"
       transform="matrix(0.35277776,0,0,-0.35277776,9.6627591,3.7640154)"
       clip-path="url(#clipPath668)" />
    <path
       id="path669"
       d="M 0,0 H 6.537"
       style="fill:none;stroke:#4e4957 icc-color(Display, 0.30198669, 0.28599548, 0.33699036);stroke-width:1.391;stroke-linecap:round;stroke-linejoin:round;stroke-miterlimit:10;stroke-dasharray:none;stroke-opacity:1"
       transform="matrix(0.35277776,0,0,-0.35277776,9.6627591,4.8461956)"
       clip-path="url(#clipPath670)" />
    <path
       id="path671"
       d="M 0,0 H 6.537"
       style="fill:none;stroke:#4e4957 icc-color(Display, 0.30198669, 0.28599548, 0.33699036);stroke-width:1.391;stroke-linecap:round;stroke-linejoin:round;stroke-miterlimit:10;stroke-dasharray:none;stroke-opacity:1"
       transform="matrix(0.35277776,0,0,-0.35277776,9.6627591,5.9284129)"
       clip-path="url(#clipPath672)" />
    <path
       id="path673"
       d="m 412.517,777.664 h -6.537 v 4.049 h 6.537 z"
       style="fill:#f3c66e icc-color(Display, 0.92199707, 0.77999878, 0.48199463);fill-opacity:1;fill-rule:nonzero;stroke:#4e4957 icc-color(Display, 0.30198669, 0.28599548, 0.33699036);stroke-width:1.391;stroke-linecap:round;stroke-linejoin:round;stroke-miterlimit:10;stroke-dasharray:none;stroke-opacity:1"
       transform="matrix(0.35277776,0,0,-0.35277776,-133.55792,282.84694)"
       clip-path="url(#clipPath674)" />
    <path
       id="path691"
       d="m 0,0 h -19.446 c -1.076,0 -1.944,0.868 -1.944,1.945 v 23.982 1.945 c 0,1.076 0.868,1.945 1.944,1.945 h 35.002 c 1.077,0 1.945,-0.869 1.945,-1.945 V 25.927 1.945 C 17.501,0.868 16.633,0 15.556,0 h -3.889"
       style="fill:#eaebed;fill-opacity:1;fill-rule:nonzero;stroke:none"
       transform="matrix(0.35277776,0,0,-0.35277776,8.6854677,12.867515)"
       clip-path="url(#clipPath692)" />
    <path
       id="path693"
       d="m 0,0 v -1.945 h -36.298 -2.593 V 0 c 0,1.076 0.868,1.945 1.944,1.945 H -1.945 C -0.868,1.945 0,1.076 0,0"
       style="fill:#6e7fea;fill-opacity:1;fill-rule:nonzero;stroke:none"
       transform="matrix(0.35277776,0,0,-0.35277776,15.382072,2.4541877)"
       clip-path="url(#clipPath694)" />
    <path
       id="path695"
       d="m 0,0 h -8.426 v 0.532 c 1.95,0 3.603,1.432 3.889,3.357 C -3.565,3.889 0,2.483 0,0"
       style="fill:#6e7fea;fill-opacity:1;fill-rule:nonzero;stroke:none"
       transform="matrix(0.35277776,0,0,-0.35277776,14.010075,10.22881)"
       clip-path="url(#clipPath696)" />
    <path
       id="path697"
       d="M 0,0 3.688,-2.015 0.94,-3.552 3.371,-7.538 0.13,-9.075 -2.307,-5.088 -4.738,-6.618 V 0 2.593 Z"
       style="fill:#ffffff;fill-opacity:1;fill-rule:nonzero;stroke:none"
       transform="matrix(0.35277776,0,0,-0.35277776,11.794216,12.286808)"
       clip-path="url(#clipPath698)" />
    <path
       id="path699"
       d="m 0,0 h -3.785 c 0.104,0.356 0.168,0.771 0.168,1.251 0.5,-0.383 1.089,-0.603 1.724,-0.603 0.636,0 1.225,0.22 1.725,0.603 C -0.168,0.771 -0.104,0.356 0,0"
       style="fill:#ffffff icc-color(Display, 1, 1, 1);fill-opacity:1;fill-rule:nonzero;stroke:none"
       transform="matrix(0.35277776,0,0,-0.35277776,11.705131,8.1708095)"
       clip-path="url(#clipPath700)" />
    <path
       id="path701"
       d="m 0,0 v -0.532 h -8.426 c 0,2.483 3.565,3.889 4.537,3.889 C -3.604,1.432 -1.951,0 0,0"
       style="fill:#6e7fea;fill-opacity:1;fill-rule:nonzero;stroke:none"
       transform="matrix(0.35277776,0,0,-0.35277776,11.037428,10.041202)"
       clip-path="url(#clipPath702)" />
    <path
       id="path703"
       d="m 0,0 c 1.076,0 1.945,-0.868 1.945,-1.945 0,-1.076 -0.869,-1.944 -1.945,-1.944 -1.076,0 -1.945,0.868 -1.945,1.944 C -1.945,-0.868 -1.076,0 0,0"
       style="fill:#6e7fea;fill-opacity:1;fill-rule:nonzero;stroke:none"
       transform="matrix(0.35277776,0,0,-0.35277776,4.6348027,10.22881)"
       clip-path="url(#clipPath704)" />
    <path
       style="color:#000000;fill:#4e4957;stroke-linecap:round;stroke-linejoin:round;stroke-miterlimit:10;-inkscape-stroke:none;fill-opacity:1"
       d="m 0.34179688,-9.5214844 a 0.49454946,0.49454946 0 0 0 -0.63281251,0.1894531 l -2.17578127,3.5585938 -2.0078125,-1.2636719 a 0.49454946,0.49454946 0 0 0 -0.7578125,0.4199219 V 0 2.59375 A 0.49454946,0.49454946 0 0 0 -4.5,3.0273438 L 0.23632813,0.43359375 3.9257813,-1.5800781 a 0.49454946,0.49454946 0 0 0 0.00391,-0.8671875 L 1.6289062,-3.734375 3.7929688,-7.28125 A 0.49454946,0.49454946 0 0 0 3.5820313,-7.984375 Z M 0.3203125,-8.4375 l 2.34375,1.1113281 -2.14648438,3.5175781 a 0.49454946,0.49454946 0 0 0 0.18164063,0.6875 l 1.96679685,1.1015625 -2.90234373,1.58593755 a 0.49454946,0.49454946 0 0 0 -0.001953,0 L -4.2441406,1.7597656 V 0 -5.7226562 l 1.6738281,1.0527343 a 0.49454946,0.49454946 0 0 0 0.6855469,-0.1601562 z"
       id="path705"
       transform="matrix(0.35277776,0,0,-0.35277776,11.794216,12.286808)" />
    <path
       style="color:#000000;fill:#4e4957;stroke-linecap:round;stroke-linejoin:round;stroke-miterlimit:10;-inkscape-stroke:none;fill-opacity:1"
       d="m -19.445312,-0.49414063 c -1.341938,0 -2.439454,1.09676211 -2.439454,2.43945313 v 23.9824215 1.94336 c 0,1.341938 1.097209,2.439453 2.439454,2.439453 h 35.001953 c 1.342997,0 2.439453,-1.097515 2.439453,-2.439453 V 25.927734 1.9453125 c 0,-1.34269102 -1.096762,-2.43945312 -2.439453,-2.43945313 H 11.667969 A 0.49450001,0.49450001 0 0 0 11.171875,0 0.49450001,0.49450001 0 0 0 11.667969,0.49414063 h 3.888672 c 0.811306,0 1.449218,0.63986507 1.449218,1.45117187 v 23.9824215 1.94336 c 0,0.81006 -0.638218,1.451172 -1.449218,1.451172 h -35.001953 c -0.809754,0 -1.449219,-0.641112 -1.449219,-1.451172 V 25.927734 1.9453125 c 0,-0.8113068 0.639159,-1.45117188 1.449219,-1.45117187 H 0 A 0.49450001,0.49450001 0 0 0 0.49414063,0 0.49450001,0.49450001 0 0 0 0,-0.49414063 Z"
       id="path707"
       transform="matrix(0.35277776,0,0,-0.35277776,9.2080991,12.286808)" />
    <path
       style="color:#000000;fill:#4e4957;stroke-linecap:round;stroke-linejoin:round;stroke-miterlimit:10;-inkscape-stroke:none;fill-opacity:1"
       d="M -11.019531,-0.49414063 A 0.49450001,0.49450001 0 0 0 -11.513672,0 0.49450001,0.49450001 0 0 0 -11.019531,0.49414063 H 0 A 0.49450001,0.49450001 0 0 0 0.49414063,0 0.49450001,0.49450001 0 0 0 0,-0.49414063 Z"
       id="path709"
       transform="matrix(0.35277776,0,0,-0.35277776,9.2080991,10.914822)" />
    <path
       style="color:#000000;fill:#4e4957;stroke-linecap:round;stroke-linejoin:round;stroke-miterlimit:10;-inkscape-stroke:none;fill-opacity:1"
       d="M -3.8886719,-0.49414063 A 0.49450001,0.49450001 0 0 0 -4.3828125,0 0.49450001,0.49450001 0 0 0 -3.8886719,0.49414063 H 0 A 0.49450001,0.49450001 0 0 0 0.49414063,0 0.49450001,0.49450001 0 0 0 0,-0.49414063 Z"
       id="path711"
       transform="matrix(0.35277776,0,0,-0.35277776,3.9488175,10.914822)" />
    <path
       style="color:#000000;fill:#4e4957;stroke-linecap:round;stroke-linejoin:round;stroke-miterlimit:10;-inkscape-stroke:none;fill-opacity:1"
       d="M 0,-0.49414063 A 0.49450001,0.49450001 0 0 0 -0.49414063,0 0.49450001,0.49450001 0 0 0 0,0.49414063 H 7.7773437 A 0.49450001,0.49450001 0 0 0 8.2734375,0 0.49450001,0.49450001 0 0 0 7.7773437,-0.49414063 Z"
       id="path713"
       transform="matrix(0.35277776,0,0,-0.35277776,11.72344,10.914822)" />
    <path
       style="color:#000000;fill:#4e4957;stroke-linecap:round;stroke-linejoin:round;stroke-miterlimit:10;-inkscape-stroke:none;fill-opacity:1"
       d="m -1.9453125,-2.4394531 c -1.3422443,0 -2.4375,1.0975152 -2.4375,2.4394531 0,1.3419379 1.0952557,2.4394531 2.4375,2.4394531 1.34299712,0 2.43945312,-1.0975152 2.43945313,-2.4394531 0,-1.3419379 -1.09645601,-2.4394531 -2.43945313,-2.4394531 z m 0,0.9882812 c 0.8110007,0 1.45117187,0.641112 1.45117187,1.4511719 0,0.8100599 -0.64017117,1.4511719 -1.45117187,1.4511719 -0.8097535,0 -1.4492187,-0.641112 -1.4492188,-1.4511719 0,-0.8100599 0.6394653,-1.4511719 1.4492188,-1.4511719 z"
       id="path715"
       transform="matrix(0.35277776,0,0,-0.35277776,5.3208144,10.914822)" />
    <path
       style="color:#000000;fill:#4e4957;stroke-linecap:round;stroke-linejoin:round;stroke-miterlimit:10;-inkscape-stroke:none;fill-opacity:1"
       d="m 0,-10.216797 c -0.98302053,0 -1.7910156,0.8084576 -1.7910156,1.7910157 v 7.1289063 c 0,0.98193676 0.80799507,1.79101563 1.7910156,1.79101563 h 9.0742188 c 0.9824002,0 1.7910152,-0.80861586 1.7910152,-1.79101563 v -5.3984375 c 0,-0.1808946 0.05554,-0.3454545 0.15625,-0.4765625 a 0.49454946,0.49454946 0 0 0 0.0039,-0.00391 l 1.685547,-2.2500001 a 0.49454946,0.49454946 0 0 0 -0.394532,-0.7910157 z m 0,0.9882814 h 11.328125 l -1.089844,1.4550781 c -0.237285,0.3088916 -0.3613279,0.6890201 -0.3613279,1.078125 v 5.3984375 c 0,0.4415988 -0.3611355,0.80273438 -0.8027343,0.80273437 H 0 c -0.44297805,1e-8 -0.80078125,-0.36067255 -0.80078125,-0.80273437 v -7.1289063 c 0,-0.4434404 0.3578032,-0.8027343 0.80078125,-0.8027343 z"
       id="path717"
       transform="matrix(0.35277776,0,0,-0.35277776,3.2628059,4.2834798)" />
    <path
       style="color:#000000;fill:#4e4957;stroke-linecap:round;stroke-linejoin:round;stroke-miterlimit:10;-inkscape-stroke:none;fill-opacity:1"
       d="M 0,-0.49414063 A 0.49450001,0.49450001 0 0 0 -0.49414063,0 0.49450001,0.49450001 0 0 0 0,0.49414063 H 5.1855469 A 0.49450001,0.49450001 0 0 0 5.6796875,0 0.49450001,0.49450001 0 0 0 5.1855469,-0.49414063 Z"
       id="path719"
       transform="matrix(0.35277776,0,0,-0.35277776,3.9488175,5.4268343)" />
    <path
       style="color:#000000;fill:#4e4957;stroke-linecap:round;stroke-linejoin:round;stroke-miterlimit:10;-inkscape-stroke:none;fill-opacity:1"
       d="M 0,-0.49414063 A 0.49450001,0.49450001 0 0 0 -0.49414063,0 0.49450001,0.49450001 0 0 0 0,0.49414063 H 5.1855469 A 0.49450001,0.49450001 0 0 0 5.6796875,0 0.49450001,0.49450001 0 0 0 5.1855469,-0.49414063 Z"
       id="path721"
       transform="matrix(0.35277776,0,0,-0.35277776,3.9488175,6.5701518)" />
    <path
       style="color:#000000;fill:#4e4957;stroke-linecap:round;stroke-linejoin:round;stroke-miterlimit:10;-inkscape-stroke:none;fill-opacity:1"
       d="m -2.9042969,-6.1074219 c -0.7493889,0 -1.4463972,0.2633459 -2.0214843,0.703125 -1.0562307,0.7879745 -1.7128907,2.1503369 -1.7128907,3.6796875 0,0.1452153 0.00456,0.2978584 0.021484,0.4453125 a 0.49450001,0.49450001 0 0 0 0.5488281,0.4355469 0.49450001,0.49450001 0 0 0 0.4355469,-0.5488281 c -0.011079,-0.096546 -0.017578,-0.2172468 -0.017578,-0.3320313 0,-1.2450165 0.5465701,-2.3162113 1.3183594,-2.890625 a 0.49454946,0.49454946 0 0 0 0.00391,-0.00391 c 0.4226294,-0.3235359 0.9018643,-0.5 1.4238281,-0.5 0.5207843,0 1.001452,0.1766579 1.4238282,0.5 a 0.49454946,0.49454946 0 0 0 0.00586,0.00391 c 0.77103005,0.5744764 1.31640627,1.645846 1.31640628,2.890625 -10e-9,0.5562781 -0.10961948,1.07607987 -0.29882813,1.5371094 A 0.49450001,0.49450001 0 0 0 -0.1875,0.45703125 0.49450001,0.49450001 0 0 0 0.45703125,0.1875 c 0.23679092,-0.57696943 0.375,-1.2243887 0.375,-1.9121094 0,-1.5301698 -0.6591439,-2.8938678 -1.71484375,-3.6816406 -0.5749602,-0.4390512 -1.2737833,-0.7011719 -2.0214844,-0.7011719 z"
       id="path723"
       transform="matrix(0.35277776,0,0,-0.35277776,12.061974,5.9618906)" />
    <path
       style="color:#000000;fill:#4e4957;stroke-linecap:round;stroke-linejoin:round;stroke-miterlimit:10;-inkscape-stroke:none;fill-opacity:1"
       d="M -0.03710937,-0.4921875 A 0.49450001,0.49450001 0 0 0 -0.375,-0.32226563 0.49450001,0.49450001 0 0 0 -0.32226563,0.375 l 0.007813,0.005859 a 0.49454946,0.49454946 0 0 0 0.003906,0.005859 C 0.43601224,1.0088513 1.3440468,2.6156242 1.4394531,3.5566406 A 0.49454946,0.49454946 0 0 0 2.2402344,3.8925781 C 3.5514671,2.8433896 4.695872,1.8411344 6.1328125,1.8359375 A 0.49450001,0.49450001 0 0 0 6.6269531,1.3398437 0.49450001,0.49450001 0 0 0 6.1308594,0.84765625 C 4.5034123,0.85354213 3.3004835,1.7965141 2.1699219,2.7109375 1.8429346,1.5436831 1.1736978,0.33719514 0.328125,-0.36914063 l -0.003906,-0.003906 -0.001953,-0.001953 a 0.49450001,0.49450001 0 0 0 -0.359375,-0.1171875 z"
       id="path725"
       transform="matrix(0.35277776,0,0,-0.35277776,9.8985558,6.4352831)" />
    <path
       style="color:#000000;fill:#4e4957;stroke-linecap:round;stroke-linejoin:round;stroke-miterlimit:10;-inkscape-stroke:none;fill-opacity:1"
       d="m -9.0742188,-0.49414063 c -0.852119,0 -1.4299172,0.17845551 -1.8027342,0.38671876 -0.186409,0.10413162 -0.320768,0.21377028 -0.41211,0.30664062 -0.09134,0.0928703 -0.158203,0.20117188 -0.158203,0.20117188 a 0.49454946,0.49454946 0 0 0 0.05859,0.57617187 c 0,0 0.255243,0.2740075 0.556641,1.0527344 0.301397,0.7787268 0.615234,2.0244529 0.615234,3.8574218 0,2.0031563 0.6919794,3.2624339 1.4140626,3.9843751 0.6243451,0.6242222 1.1264615,0.7498792 1.2949219,0.8027342 0.1334953,0.214945 0.967547,1.488281 2.9707031,1.488281 1.5461754,0 2.7225444,-0.381434 3.58007815,-1.017578 C -0.09949749,10.508388 0.42011177,9.633843 0.72460937,8.7246094 1.3336046,6.9061421 1.1425781,4.8888954 1.1425781,3.8886719 c 0,-1.9122022 1.0839844,-2.875 1.0839844,-2.875 a 0.49454946,0.49454946 0 0 0 0.015625,-0.71484377 c 0,0 -0.8264654,-0.79296876 -2.2421875,-0.79296876 A 0.49450001,0.49450001 0 0 0 -0.49414063,0 0.49450001,0.49450001 0 0 0 0,0.49414063 c 0.78299284,0 0.93436032,0.22234675 1.1269531,0.3671875 C 0.7120716,1.3972471 0.15429687,2.2956522 0.15429687,3.8886719 c 0,1.1067744 0.14981616,2.977705 -0.3671875,4.5214844 -0.25850182,0.7718896 -0.66939465,1.4483944 -1.33398437,1.9414067 -0.6645897,0.493011 -1.6034127,0.820312 -2.9902344,0.820312 -1.7165198,0 -2.2050781,-1.080078 -2.2050781,-1.080078 A 0.49454946,0.49454946 0 0 0 -7.0605469,9.8398438 c 0,0 -0.4945532,-0.1196612 -1.0429687,-0.6679688 -0.5484155,-0.5483076 -1.125,-1.5033163 -1.125,-3.2851563 0,-1.9460272 -0.3350389,-3.3193222 -0.6816407,-4.2148437 C -10.14306,1.0701172 -10.264808,0.96358991 -10.40625,0.76367187 c 0.0059,-0.003435 0.0055,-0.004326 0.01172,-0.007813 0.207182,-0.11573642 0.6044329,-0.26171874 1.3203122,-0.26171874 A 0.49450001,0.49450001 0 0 0 -8.5800781,0 0.49450001,0.49450001 0 0 0 -9.0742188,-0.49414063 Z"
       id="path727"
       transform="matrix(0.35277776,0,0,-0.35277776,12.638104,8.1708095)" />
    <path
       style="color:#000000;fill:#4e4957;stroke-linecap:round;stroke-linejoin:round;stroke-miterlimit:10;-inkscape-stroke:none;fill-opacity:1"
       d="M 0,-0.49414063 A 0.49450001,0.49450001 0 0 0 -0.49414063,0 c 1e-8,1.4781602 1.03978191,2.5785501 2.12695313,3.2890625 C 2.1763981,3.6443187 2.7448366,3.9126824 3.25,4.0957031 c 0.5051634,0.1830208 0.9248939,0.2871094 1.2871094,0.2871094 -0.039404,0 0.073498,0.010267 0.1992187,0.058594 0.125721,0.048327 0.2865868,0.1292704 0.4511719,0.25 0.3285954,0.2410378 0.6756355,0.6327956 0.8710937,1.2832032 0.090038,0.3087911 0.1484375,0.6751737 0.1484375,1.109375 A 0.49450001,0.49450001 0 0 0 6.7011719,7.578125 0.49450001,0.49450001 0 0 0 7.1972656,7.0839844 c 0,-0.5230468 -0.071759,-0.9857971 -0.1894531,-1.3886719 a 0.49454946,0.49454946 0 0 0 0,-0.00391 C 6.7490778,4.8268677 6.2510633,4.2463213 5.7714844,3.8945313 5.5316949,3.7186362 5.2981693,3.5969073 5.0917969,3.5175781 4.8854245,3.4382489 4.7290127,3.3945312 4.5371094,3.3945313 c -0.123784,0 -0.5145238,-0.070318 -0.9511719,-0.2285157 C 3.1492894,3.007818 2.6429915,2.7675556 2.1738281,2.4609375 1.2355014,1.8477012 0.49414063,1.0048374 0.49414063,0 A 0.49450001,0.49450001 0 0 0 0,-0.49414063 Z"
       id="path729"
       transform="matrix(0.35277776,0,0,-0.35277776,8.0647816,10.22881)" />
    <path
       style="color:#000000;fill:#4e4957;stroke-linecap:round;stroke-linejoin:round;stroke-miterlimit:10;-inkscape-stroke:none;fill-opacity:1"
       d="m 6.7011719,-7.578125 a 0.49450001,0.49450001 0 0 0 -0.4941407,0.4941406 c 0,1.004242 -0.7413271,1.8475635 -1.6796875,2.4609375 -0.4691801,0.306687 -0.9754585,0.5468071 -1.4121093,0.7050781 -0.4366509,0.1582711 -0.8274727,0.2285157 -0.9511719,0.2285157 -0.1919034,0 -0.3463786,0.043744 -0.5527344,0.1230468 -0.2063557,0.079303 -0.44186,0.2011388 -0.6816406,0.3769532 -0.4795612,0.3516288 -0.97755915,0.9327918 -1.23632813,1.796875 a 0.49454946,0.49454946 0 0 0 0,0.00391 c -0.11586604,0.401594 -0.1875,0.86403006 -0.1875,1.3886719 A 0.49450001,0.49450001 0 0 0 0,0.49414063 0.49450001,0.49450001 0 0 0 0.49414063,0 c 0,-0.43385632 0.0588323,-0.79767718 0.14843749,-1.109375 C 0.8378087,-1.7612903 1.186437,-2.1512075 1.515625,-2.3925781 c 0.164594,-0.1206853 0.3234811,-0.2016785 0.4492187,-0.25 0.1257377,-0.048321 0.2386223,-0.058594 0.1992188,-0.058594 0.3623003,0 0.7839018,-0.1040058 1.2890625,-0.2871094 0.5051607,-0.1831035 1.0716656,-0.4513283 1.6152344,-0.8066406 1.0871376,-0.7106246 2.1289062,-1.811307 2.1289062,-3.2890625 A 0.49450001,0.49450001 0 0 0 6.7011719,-7.578125 Z"
       id="path731"
       transform="matrix(0.35277776,0,0,-0.35277776,11.645732,7.7295559)" />
    <path
       style="color:#000000;fill:#4e4957;stroke-linecap:round;stroke-linejoin:round;stroke-miterlimit:10;-inkscape-stroke:none;fill-opacity:1"
       d="m 3.8886719,-3.8515625 c -2.1927985,0 -4.056616,1.6144921 -4.37695315,3.77929688 A 0.49450001,0.49450001 0 0 0 -0.07226562,0.48828125 0.49450001,0.49450001 0 0 0 0.48828125,0.07226562 C 0.73794353,-1.6149258 2.1794742,-2.8632812 3.8886719,-2.8632813 c 1.7091976,0 3.1507283,1.2483555 3.4003906,2.93554692 A 0.49450001,0.49450001 0 0 0 7.8496094,0.48828125 0.49450001,0.49450001 0 0 0 8.2675781,-0.07226562 C 7.947241,-2.2370704 6.0814703,-3.8515625 3.8886719,-3.8515625 Z"
       id="path733"
       transform="matrix(0.35277776,0,0,-0.35277776,9.6654579,8.8568212)" />
  </g>
</svg>
