<?xml version="1.0" encoding="UTF-8" standalone="no"?>
<!-- Created with Inkscape (http://www.inkscape.org/) -->

<svg
   width="64"
   height="64"
   viewBox="0 0 16.933333 16.933333"
   version="1.1"
   id="svg1"
   xmlns="http://www.w3.org/2000/svg"
   xmlns:svg="http://www.w3.org/2000/svg">
  <defs
     id="defs1">
    <clipPath
       clipPathUnits="userSpaceOnUse"
       id="clipPath2">
      <path
         d="M 0,64 H 64 V 0 H 0 Z"
         transform="translate(-43.864601,-60.341702)"
         id="path2" />
    </clipPath>
    <clipPath
       clipPathUnits="userSpaceOnUse"
       id="clipPath4">
      <path
         d="M 0,64 H 64 V 0 H 0 Z"
         transform="translate(-4.9069001,-3.4228001)"
         id="path4" />
    </clipPath>
    <clipPath
       clipPathUnits="userSpaceOnUse"
       id="clipPath6">
      <path
         d="M 0,64 H 64 V 0 H 0 Z"
         transform="translate(-10.9624,-61.841502)"
         id="path6" />
    </clipPath>
    <clipPath
       clipPathUnits="userSpaceOnUse"
       id="clipPath8">
      <path
         d="M 0,64 H 64 V 0 H 0 Z"
         transform="translate(-1.7805,-9.0450005)"
         id="path8" />
    </clipPath>
    <clipPath
       clipPathUnits="userSpaceOnUse"
       id="clipPath10">
      <path
         d="M 0,64 H 64 V 0 H 0 Z"
         transform="translate(-43.864601,-13.2686)"
         id="path10" />
    </clipPath>
    <clipPath
       clipPathUnits="userSpaceOnUse"
       id="clipPath12">
      <path
         d="M 0,64 H 64 V 0 H 0 Z"
         transform="translate(-4.8754001,-3.4354998)"
         id="path12" />
    </clipPath>
    <clipPath
       clipPathUnits="userSpaceOnUse"
       id="clipPath14">
      <path
         d="M 0,64 H 64 V 0 H 0 Z"
         transform="translate(-39.009601,-45.100001)"
         id="path14" />
    </clipPath>
    <clipPath
       clipPathUnits="userSpaceOnUse"
       id="clipPath16">
      <path
         d="M 0,64 H 64 V 0 H 0 Z"
         transform="translate(-39.009801,-44.335201)"
         id="path16" />
    </clipPath>
    <clipPath
       clipPathUnits="userSpaceOnUse"
       id="clipPath18">
      <path
         d="M 0,64 H 64 V 0 H 0 Z"
         transform="translate(-39.009601,-41.651201)"
         id="path18" />
    </clipPath>
    <clipPath
       clipPathUnits="userSpaceOnUse"
       id="clipPath20">
      <path
         d="M 0,64 H 64 V 0 H 0 Z"
         transform="translate(-39.009801,-40.882301)"
         id="path20" />
    </clipPath>
    <clipPath
       clipPathUnits="userSpaceOnUse"
       id="clipPath22">
      <path
         d="M 0,64 H 64 V 0 H 0 Z"
         transform="translate(-46.731101,-23.680901)"
         id="path22" />
    </clipPath>
    <clipPath
       clipPathUnits="userSpaceOnUse"
       id="clipPath24">
      <path
         d="M 0,64 H 64 V 0 H 0 Z"
         transform="translate(-47.813701,-23.681)"
         id="path24" />
    </clipPath>
    <clipPath
       clipPathUnits="userSpaceOnUse"
       id="clipPath26">
      <path
         d="M 0,64 H 64 V 0 H 0 Z"
         transform="translate(-52.128202,-22.574)"
         id="path26" />
    </clipPath>
    <clipPath
       clipPathUnits="userSpaceOnUse"
       id="clipPath28">
      <path
         d="M 0,64 H 64 V 0 H 0 Z"
         transform="translate(-52.668502,-22.032601)"
         id="path28" />
    </clipPath>
    <clipPath
       clipPathUnits="userSpaceOnUse"
       id="clipPath30">
      <path
         d="M 0,64 H 64 V 0 H 0 Z"
         transform="translate(-43.864601,-7.4982004)"
         id="path30" />
    </clipPath>
    <clipPath
       clipPathUnits="userSpaceOnUse"
       id="clipPath32">
      <path
         d="M 0,64 H 64 V 0 H 0 Z"
         transform="translate(-15.145401,-61.841502)"
         id="path32" />
    </clipPath>
    <clipPath
       clipPathUnits="userSpaceOnUse"
       id="clipPath34">
      <path
         d="M 0,64 H 64 V 0 H 0 Z"
         transform="translate(-19.5354,-54.260001)"
         id="path34" />
    </clipPath>
    <clipPath
       clipPathUnits="userSpaceOnUse"
       id="clipPath232">
      <path
         d="M 0,64 H 64 V 0 H 0 Z"
         transform="translate(-52.876504,-36.941501)"
         id="path232" />
    </clipPath>
    <clipPath
       clipPathUnits="userSpaceOnUse"
       id="clipPath234">
      <path
         d="M 0,64 H 64 V 0 H 0 Z"
         transform="translate(-52.876504,-46.161501)"
         id="path234" />
    </clipPath>
    <clipPath
       clipPathUnits="userSpaceOnUse"
       id="clipPath236">
      <path
         d="M 0,64 H 64 V 0 H 0 Z"
         transform="translate(-7.9573002,-51.570801)"
         id="path236" />
    </clipPath>
    <clipPath
       clipPathUnits="userSpaceOnUse"
       id="clipPath238">
      <path
         d="M 0,64 H 64 V 0 H 0 Z"
         transform="translate(-52.876699,-35.949601)"
         id="path238" />
    </clipPath>
    <clipPath
       clipPathUnits="userSpaceOnUse"
       id="clipPath240">
      <path
         d="M 0,64 H 64 V 0 H 0 Z"
         transform="translate(-12.787203,-50.232401)"
         id="path240" />
    </clipPath>
    <clipPath
       clipPathUnits="userSpaceOnUse"
       id="clipPath242">
      <path
         d="M 0,64 H 64 V 0 H 0 Z"
         transform="translate(-10.238298,-56.522901)"
         id="path242" />
    </clipPath>
    <clipPath
       clipPathUnits="userSpaceOnUse"
       id="clipPath244">
      <path
         d="M 0,64 H 64 V 0 H 0 Z"
         transform="translate(-23.984403,-50.232401)"
         id="path244" />
    </clipPath>
    <clipPath
       clipPathUnits="userSpaceOnUse"
       id="clipPath246">
      <path
         d="M 0,64 H 64 V 0 H 0 Z"
         transform="translate(-21.435401,-56.522901)"
         id="path246" />
    </clipPath>
    <clipPath
       clipPathUnits="userSpaceOnUse"
       id="clipPath248">
      <path
         d="M 0,64 H 64 V 0 H 0 Z"
         transform="translate(-35.181498,-50.232401)"
         id="path248" />
    </clipPath>
    <clipPath
       clipPathUnits="userSpaceOnUse"
       id="clipPath250">
      <path
         d="M 0,64 H 64 V 0 H 0 Z"
         transform="translate(-32.632398,-56.522901)"
         id="path250" />
    </clipPath>
    <clipPath
       clipPathUnits="userSpaceOnUse"
       id="clipPath252">
      <path
         d="M 0,64 H 64 V 0 H 0 Z"
         transform="translate(-46.378601,-50.232401)"
         id="path252" />
    </clipPath>
    <clipPath
       clipPathUnits="userSpaceOnUse"
       id="clipPath254">
      <path
         d="M 0,64 H 64 V 0 H 0 Z"
         transform="translate(-43.830004,-56.522901)"
         id="path254" />
    </clipPath>
    <clipPath
       clipPathUnits="userSpaceOnUse"
       id="clipPath256">
      <path
         d="M 0,64 H 64 V 0 H 0 Z"
         transform="translate(-59.344399,-63.750002)"
         id="path256" />
    </clipPath>
    <clipPath
       clipPathUnits="userSpaceOnUse"
       id="clipPath258">
      <path
         d="M 0,64 H 64 V 0 H 0 Z"
         transform="translate(-61.576999,-48.317901)"
         id="path258" />
    </clipPath>
    <clipPath
       clipPathUnits="userSpaceOnUse"
       id="clipPath260">
      <path
         d="M 0,64 H 64 V 0 H 0 Z"
         transform="translate(-61.576999,-48.317901)"
         id="path260" />
    </clipPath>
    <clipPath
       clipPathUnits="userSpaceOnUse"
       id="clipPath262">
      <path
         d="M 0,64 H 64 V 0 H 0 Z"
         transform="translate(-51.309799,-52.521101)"
         id="path262" />
    </clipPath>
    <clipPath
       clipPathUnits="userSpaceOnUse"
       id="clipPath264">
      <path
         d="M 0,64 H 64 V 0 H 0 Z"
         transform="translate(-15.275598,-26.7149)"
         id="path264" />
    </clipPath>
    <clipPath
       clipPathUnits="userSpaceOnUse"
       id="clipPath266">
      <path
         d="M 0,64 H 64 V 0 H 0 Z"
         transform="translate(-12.030498,-31.059401)"
         id="path266" />
    </clipPath>
    <clipPath
       clipPathUnits="userSpaceOnUse"
       id="clipPath268">
      <path
         d="M 0,64 H 64 V 0 H 0 Z"
         transform="translate(-12.030498,-21.131401)"
         id="path268" />
    </clipPath>
    <clipPath
       clipPathUnits="userSpaceOnUse"
       id="clipPath270">
      <path
         d="M 0,64 H 64 V 0 H 0 Z"
         transform="translate(-12.030498,-11.2034)"
         id="path270" />
    </clipPath>
    <clipPath
       clipPathUnits="userSpaceOnUse"
       id="clipPath272">
      <path
         d="M 0,64 H 64 V 0 H 0 Z"
         transform="translate(-28.838501,-26.7149)"
         id="path272" />
    </clipPath>
    <clipPath
       clipPathUnits="userSpaceOnUse"
       id="clipPath274">
      <path
         d="M 0,64 H 64 V 0 H 0 Z"
         transform="translate(-25.593498,-31.059401)"
         id="path274" />
    </clipPath>
    <clipPath
       clipPathUnits="userSpaceOnUse"
       id="clipPath276">
      <path
         d="M 0,64 H 64 V 0 H 0 Z"
         transform="translate(-25.593498,-21.131401)"
         id="path276" />
    </clipPath>
    <clipPath
       clipPathUnits="userSpaceOnUse"
       id="clipPath278">
      <path
         d="M 0,64 H 64 V 0 H 0 Z"
         transform="translate(-25.593498,-11.2034)"
         id="path278" />
    </clipPath>
    <clipPath
       clipPathUnits="userSpaceOnUse"
       id="clipPath280">
      <path
         d="M 0,64 H 64 V 0 H 0 Z"
         transform="translate(-39.156401,-31.059401)"
         id="path280" />
    </clipPath>
    <clipPath
       clipPathUnits="userSpaceOnUse"
       id="clipPath282">
      <path
         d="M 0,64 H 64 V 0 H 0 Z"
         transform="translate(-39.156401,-21.131401)"
         id="path282" />
    </clipPath>
    <clipPath
       clipPathUnits="userSpaceOnUse"
       id="clipPath284">
      <path
         d="M 0,64 H 64 V 0 H 0 Z"
         transform="translate(-39.156401,-11.2034)"
         id="path284" />
    </clipPath>
    <clipPath
       clipPathUnits="userSpaceOnUse"
       id="clipPath36">
      <path
         d="M 0,64 H 64 V 0 H 0 Z"
         transform="translate(-58.047201,-9.2578002)"
         id="path36" />
    </clipPath>
    <clipPath
       clipPathUnits="userSpaceOnUse"
       id="clipPath38">
      <path
         d="M 0,64 H 64 V 0 H 0 Z"
         transform="translate(-54.817499,-4.6165001)"
         id="path38" />
    </clipPath>
    <clipPath
       clipPathUnits="userSpaceOnUse"
       id="clipPath40">
      <path
         d="M 0,64 H 64 V 0 H 0 Z"
         transform="translate(-62.633002,-49.093601)"
         id="path40" />
    </clipPath>
    <clipPath
       clipPathUnits="userSpaceOnUse"
       id="clipPath42">
      <path
         d="M 0,64 H 64 V 0 H 0 Z"
         transform="translate(-31.964203,-39.076301)"
         id="path42" />
    </clipPath>
    <clipPath
       clipPathUnits="userSpaceOnUse"
       id="clipPath44">
      <path
         d="M 0,64 H 64 V 0 H 0 Z"
         transform="translate(-58.789101,-8.1875)"
         id="path44" />
    </clipPath>
    <clipPath
       clipPathUnits="userSpaceOnUse"
       id="clipPath46">
      <path
         d="M 0,64 H 64 V 0 H 0 Z"
         transform="translate(-2.2343976,-49.859401)"
         id="path46" />
    </clipPath>
    <clipPath
       clipPathUnits="userSpaceOnUse"
       id="clipPath48">
      <path
         d="M 0,64 H 64 V 0 H 0 Z"
         transform="translate(-10.171903,-53.828102)"
         id="path48" />
    </clipPath>
    <clipPath
       clipPathUnits="userSpaceOnUse"
       id="clipPath50">
      <path
         d="M 0,64 H 64 V 0 H 0 Z"
         transform="translate(-16.124998,-53.828102)"
         id="path50" />
    </clipPath>
    <clipPath
       clipPathUnits="userSpaceOnUse"
       id="clipPath52">
      <path
         d="M 0,64 H 64 V 0 H 0 Z"
         transform="translate(-22.078101,-53.828102)"
         id="path52" />
    </clipPath>
    <clipPath
       clipPathUnits="userSpaceOnUse"
       id="clipPath54">
      <path
         d="M 0,64 H 64 V 0 H 0 Z"
         transform="translate(-54.820304,-4.2187001)"
         id="path54" />
    </clipPath>
    <clipPath
       clipPathUnits="userSpaceOnUse"
       id="clipPath56">
      <path
         d="M 0,64 H 64 V 0 H 0 Z"
         transform="translate(-32.000998,-8.1875)"
         id="path56" />
    </clipPath>
    <clipPath
       clipPathUnits="userSpaceOnUse"
       id="clipPath58">
      <path
         d="M 0,64 H 64 V 0 H 0 Z"
         transform="translate(-31.999003,-8.1875)"
         id="path58" />
    </clipPath>
    <clipPath
       clipPathUnits="userSpaceOnUse"
       id="clipPath60">
      <path
         d="M 0,64 H 64 V 0 H 0 Z"
         transform="translate(-32.000998,-4.2187001)"
         id="path60" />
    </clipPath>
    <clipPath
       clipPathUnits="userSpaceOnUse"
       id="clipPath62">
      <path
         d="M 0,64 H 64 V 0 H 0 Z"
         transform="translate(-31.999003,-4.2187001)"
         id="path62" />
    </clipPath>
    <clipPath
       clipPathUnits="userSpaceOnUse"
       id="clipPath64">
      <path
         d="M 0,64 H 64 V 0 H 0 Z"
         transform="translate(-32.000001,-4.2196999)"
         id="path64" />
    </clipPath>
    <clipPath
       clipPathUnits="userSpaceOnUse"
       id="clipPath66">
      <path
         d="M 0,64 H 64 V 0 H 0 Z"
         transform="translate(-25.054701,-35.968801)"
         id="path66" />
    </clipPath>
    <clipPath
       clipPathUnits="userSpaceOnUse"
       id="clipPath68">
      <path
         d="M 0,64 H 64 V 0 H 0 Z"
         transform="translate(-25.054701,-30.015601)"
         id="path68" />
    </clipPath>
    <clipPath
       clipPathUnits="userSpaceOnUse"
       id="clipPath70">
      <path
         d="M 0,64 H 64 V 0 H 0 Z"
         transform="translate(-25.054701,-24.062501)"
         id="path70" />
    </clipPath>
    <clipPath
       clipPathUnits="userSpaceOnUse"
       id="clipPath72">
      <path
         d="M 0,64 H 64 V 0 H 0 Z"
         transform="translate(-25.054701,-18.1094)"
         id="path72" />
    </clipPath>
    <clipPath
       clipPathUnits="userSpaceOnUse"
       id="clipPath74">
      <path
         d="M 0,64 H 64 V 0 H 0 Z"
         transform="translate(-46.882799,-35.968801)"
         id="path74" />
    </clipPath>
    <clipPath
       clipPathUnits="userSpaceOnUse"
       id="clipPath76">
      <path
         d="M 0,64 H 64 V 0 H 0 Z"
         transform="translate(-46.882799,-30.015601)"
         id="path76" />
    </clipPath>
    <clipPath
       clipPathUnits="userSpaceOnUse"
       id="clipPath78">
      <path
         d="M 0,64 H 64 V 0 H 0 Z"
         transform="translate(-46.882799,-24.062501)"
         id="path78" />
    </clipPath>
    <clipPath
       clipPathUnits="userSpaceOnUse"
       id="clipPath80">
      <path
         d="M 0,64 H 64 V 0 H 0 Z"
         transform="translate(-46.882799,-18.1094)"
         id="path80" />
    </clipPath>
    <clipPath
       clipPathUnits="userSpaceOnUse"
       id="clipPath82">
      <path
         d="M 0,64 H 64 V 0 H 0 Z"
         transform="translate(-55.685599,-43.178401)"
         id="path82" />
    </clipPath>
    <clipPath
       clipPathUnits="userSpaceOnUse"
       id="clipPath84">
      <path
         d="M 0,64 H 64 V 0 H 0 Z"
         transform="translate(-8.0628027,-53.329901)"
         id="path84" />
    </clipPath>
    <clipPath
       clipPathUnits="userSpaceOnUse"
       id="clipPath86">
      <path
         d="M 0,64 H 64 V 0 H 0 Z"
         transform="translate(-55.119604,-24.480901)"
         id="path86" />
    </clipPath>
    <clipPath
       clipPathUnits="userSpaceOnUse"
       id="clipPath88">
      <path
         d="M 0,64 H 64 V 0 H 0 Z"
         transform="translate(-44.898304,-48.549001)"
         id="path88" />
    </clipPath>
    <clipPath
       clipPathUnits="userSpaceOnUse"
       id="clipPath90">
      <path
         d="M 0,64 H 64 V 0 H 0 Z"
         transform="translate(-44.898304,-41.898301)"
         id="path90" />
    </clipPath>
    <clipPath
       clipPathUnits="userSpaceOnUse"
       id="clipPath92">
      <path
         d="M 0,64 H 64 V 0 H 0 Z"
         transform="translate(-52.835801,-43.905901)"
         id="path92" />
    </clipPath>
    <clipPath
       clipPathUnits="userSpaceOnUse"
       id="clipPath94">
      <path
         d="M 0,64 H 64 V 0 H 0 Z"
         transform="translate(-52.835801,-43.905901)"
         id="path94" />
    </clipPath>
    <clipPath
       clipPathUnits="userSpaceOnUse"
       id="clipPath96">
      <path
         d="M 0,64 H 64 V 0 H 0 Z"
         transform="translate(-31.999998,-45.890301)"
         id="path96" />
    </clipPath>
    <clipPath
       clipPathUnits="userSpaceOnUse"
       id="clipPath98">
      <path
         d="M 0,64 H 64 V 0 H 0 Z"
         transform="translate(-31.999998,-45.890301)"
         id="path98" />
    </clipPath>
    <clipPath
       clipPathUnits="userSpaceOnUse"
       id="clipPath100">
      <path
         d="M 0,64 H 64 V 0 H 0 Z"
         transform="translate(-31.999998,-33.984101)"
         id="path100" />
    </clipPath>
    <clipPath
       clipPathUnits="userSpaceOnUse"
       id="clipPath102">
      <path
         d="M 0,64 H 64 V 0 H 0 Z"
         transform="translate(-31.999998,-0.99030027)"
         id="path102" />
    </clipPath>
    <clipPath
       clipPathUnits="userSpaceOnUse"
       id="clipPath122">
      <path
         d="M 0,64 H 64 V 0 H 0 Z"
         transform="translate(-1.3087025,-6.0121002)"
         id="path122" />
    </clipPath>
    <clipPath
       clipPathUnits="userSpaceOnUse"
       id="clipPath124">
      <path
         d="M 0,64 H 64 V 0 H 0 Z"
         transform="translate(-43.859601,-25.9862)"
         id="path124" />
    </clipPath>
    <clipPath
       clipPathUnits="userSpaceOnUse"
       id="clipPath126">
      <path
         d="M 0,64 H 64 V 0 H 0 Z"
         transform="translate(-55.197599,-23.302001)"
         id="path126" />
    </clipPath>
    <clipPath
       clipPathUnits="userSpaceOnUse"
       id="clipPath128">
      <path
         d="M 0,64 H 64 V 0 H 0 Z"
         transform="translate(-59.869701,-26.193101)"
         id="path128" />
    </clipPath>
    <clipPath
       clipPathUnits="userSpaceOnUse"
       id="clipPath130">
      <path
         d="M 0,64 H 64 V 0 H 0 Z"
         transform="translate(-27.792801,-33.787801)"
         id="path130" />
    </clipPath>
    <clipPath
       clipPathUnits="userSpaceOnUse"
       id="clipPath132">
      <path
         d="M 0,64 H 64 V 0 H 0 Z"
         transform="translate(-40.945701,-2.0397003)"
         id="path132" />
    </clipPath>
    <clipPath
       clipPathUnits="userSpaceOnUse"
       id="clipPath134">
      <path
         d="M 0,64 H 64 V 0 H 0 Z"
         transform="translate(-43.771004,-17.402701)"
         id="path134" />
    </clipPath>
    <clipPath
       clipPathUnits="userSpaceOnUse"
       id="clipPath136">
      <path
         d="M 0,64 H 64 V 0 H 0 Z"
         transform="translate(-8.4524002,-8.8555002)"
         id="path136" />
    </clipPath>
    <clipPath
       clipPathUnits="userSpaceOnUse"
       id="clipPath138">
      <path
         d="M 0,64 H 64 V 0 H 0 Z"
         transform="translate(-8.4524002,-18.0256)"
         id="path138" />
    </clipPath>
    <clipPath
       clipPathUnits="userSpaceOnUse"
       id="clipPath140">
      <path
         d="M 0,64 H 64 V 0 H 0 Z"
         transform="translate(-12.6893,-24.082301)"
         id="path140" />
    </clipPath>
    <clipPath
       clipPathUnits="userSpaceOnUse"
       id="clipPath142">
      <path
         d="M 0,64 H 64 V 0 H 0 Z"
         transform="translate(-8.4521977,-7.7965002)"
         id="path142" />
    </clipPath>
    <clipPath
       clipPathUnits="userSpaceOnUse"
       id="clipPath144">
      <path
         d="M 0,64 H 64 V 0 H 0 Z"
         transform="translate(-37.489701,-52.832402)"
         id="path144" />
    </clipPath>
    <clipPath
       clipPathUnits="userSpaceOnUse"
       id="clipPath146">
      <path
         d="M 0,64 H 64 V 0 H 0 Z"
         transform="translate(-33.056901,-40.281301)"
         id="path146" />
    </clipPath>
    <clipPath
       clipPathUnits="userSpaceOnUse"
       id="clipPath148">
      <path
         d="M 0,64 H 64 V 0 H 0 Z"
         transform="translate(2.5000001e-6)"
         id="path148" />
    </clipPath>
    <clipPath
       clipPathUnits="userSpaceOnUse"
       id="clipPath150">
      <path
         d="M 0,64 H 64 V 0 H 0 Z"
         transform="translate(-10.4888,-35.468001)"
         id="path150" />
    </clipPath>
    <clipPath
       clipPathUnits="userSpaceOnUse"
       id="clipPath104">
      <path
         d="M 0,64 H 64 V 0 H 0 Z"
         transform="translate(-15.244598,-10.3565)"
         id="path104" />
    </clipPath>
    <clipPath
       clipPathUnits="userSpaceOnUse"
       id="clipPath106">
      <path
         d="M 0,64 H 64 V 0 H 0 Z"
         transform="translate(-28.455601,-58.909801)"
         id="path106" />
    </clipPath>
    <clipPath
       clipPathUnits="userSpaceOnUse"
       id="clipPath108">
      <path
         d="M 0,64 H 64 V 0 H 0 Z"
         transform="translate(-49.308699,-46.659501)"
         id="path108" />
    </clipPath>
    <clipPath
       clipPathUnits="userSpaceOnUse"
       id="clipPath110">
      <path
         d="M 0,64 H 64 V 0 H 0 Z"
         transform="translate(-8.3196002,-44.750801)"
         id="path110" />
    </clipPath>
    <clipPath
       clipPathUnits="userSpaceOnUse"
       id="clipPath112">
      <path
         d="M 0,64 H 64 V 0 H 0 Z"
         transform="translate(-55.653001,-44.722201)"
         id="path112" />
    </clipPath>
    <clipPath
       clipPathUnits="userSpaceOnUse"
       id="clipPath114">
      <path
         d="M 0,64 H 64 V 0 H 0 Z"
         transform="translate(-4.1411026,-49.628301)"
         id="path114" />
    </clipPath>
    <clipPath
       clipPathUnits="userSpaceOnUse"
       id="clipPath116">
      <path
         d="M 0,64 H 64 V 0 H 0 Z"
         transform="translate(-59.847399,-49.597901)"
         id="path116" />
    </clipPath>
    <clipPath
       clipPathUnits="userSpaceOnUse"
       id="clipPath118">
      <path
         d="M 0,64 H 64 V 0 H 0 Z"
         transform="translate(-32.055001,-9.4001)"
         id="path118" />
    </clipPath>
    <clipPath
       clipPathUnits="userSpaceOnUse"
       id="clipPath120">
      <path
         d="M 0,64 H 64 V 0 H 0 Z"
         transform="translate(-28.455601,-58.909801)"
         id="path120" />
    </clipPath>
    <clipPath
       clipPathUnits="userSpaceOnUse"
       id="clipPath367">
      <path
         d="M 0,64 H 64 V 0 H 0 Z"
         transform="translate(-58.786501,-42.928201)"
         id="path367" />
    </clipPath>
    <clipPath
       clipPathUnits="userSpaceOnUse"
       id="clipPath369">
      <path
         d="M 0,64 H 64 V 0 H 0 Z"
         transform="translate(-56.782201,-34.420401)"
         id="path369" />
    </clipPath>
    <clipPath
       clipPathUnits="userSpaceOnUse"
       id="clipPath371">
      <path
         d="M 0,64 H 64 V 0 H 0 Z"
         transform="translate(-56.782201,-26.9747)"
         id="path371" />
    </clipPath>
    <clipPath
       clipPathUnits="userSpaceOnUse"
       id="clipPath373">
      <path
         d="M 0,64 H 64 V 0 H 0 Z"
         transform="translate(-46.117576,-19.530001)"
         id="path373" />
    </clipPath>
    <clipPath
       clipPathUnits="userSpaceOnUse"
       id="clipPath375">
      <path
         d="M 0,64 H 64 V 0 H 0 Z"
         transform="translate(-31.655026,-57.137001)"
         id="path375" />
    </clipPath>
    <clipPath
       clipPathUnits="userSpaceOnUse"
       id="clipPath377">
      <path
         d="M 0,64 H 64 V 0 H 0 Z"
         transform="translate(-5.2125001,-56.078901)"
         id="path377" />
    </clipPath>
    <clipPath
       clipPathUnits="userSpaceOnUse"
       id="clipPath379">
      <path
         d="M 0,64 H 64 V 0 H 0 Z"
         transform="translate(-52.469401,-5.8048001)"
         id="path379" />
    </clipPath>
    <clipPath
       clipPathUnits="userSpaceOnUse"
       id="clipPath381">
      <path
         d="M 0,64 H 64 V 0 H 0 Z"
         transform="translate(-7.5686252,-49.235601)"
         id="path381" />
    </clipPath>
    <clipPath
       clipPathUnits="userSpaceOnUse"
       id="clipPath383">
      <path
         d="M 0,64 H 64 V 0 H 0 Z"
         transform="translate(-7.5686252,-41.789801)"
         id="path383" />
    </clipPath>
    <clipPath
       clipPathUnits="userSpaceOnUse"
       id="clipPath385">
      <path
         d="M 0,64 H 64 V 0 H 0 Z"
         transform="translate(-17.175075,-35.403301)"
         id="path385" />
    </clipPath>
    <clipPath
       clipPathUnits="userSpaceOnUse"
       id="clipPath329">
      <path
         d="M 0,64 H 64 V 0 H 0 Z"
         transform="translate(-62.568427,-32.002901)"
         id="path329" />
    </clipPath>
    <clipPath
       clipPathUnits="userSpaceOnUse"
       id="clipPath331">
      <path
         d="M 0,64 H 64 V 0 H 0 Z"
         transform="translate(-54.336501,-32.005801)"
         id="path331" />
    </clipPath>
    <clipPath
       clipPathUnits="userSpaceOnUse"
       id="clipPath333">
      <path
         d="M 0,64 H 64 V 0 H 0 Z"
         transform="translate(-51.500301,-21.120301)"
         id="path333" />
    </clipPath>
    <clipPath
       clipPathUnits="userSpaceOnUse"
       id="clipPath335">
      <path
         d="M 0,64 H 64 V 0 H 0 Z"
         transform="translate(-44.368176,-37.731201)"
         id="path335" />
    </clipPath>
    <clipPath
       clipPathUnits="userSpaceOnUse"
       id="clipPath337">
      <path
         d="M 0,64 H 64 V 0 H 0 Z"
         transform="translate(-31.906176,-49.022901)"
         id="path337" />
    </clipPath>
    <clipPath
       clipPathUnits="userSpaceOnUse"
       id="clipPath339">
      <path
         d="M 0,64 H 64 V 0 H 0 Z"
         transform="translate(-42.806526,-29.531201)"
         id="path339" />
    </clipPath>
    <clipPath
       clipPathUnits="userSpaceOnUse"
       id="clipPath341">
      <path
         d="M 0,64 H 64 V 0 H 0 Z"
         transform="translate(-13.8401,-21.146801)"
         id="path341" />
    </clipPath>
    <clipPath
       clipPathUnits="userSpaceOnUse"
       id="clipPath343">
      <path
         d="M 0,64 H 64 V 0 H 0 Z"
         transform="translate(-31.906176,-49.022901)"
         id="path343" />
    </clipPath>
    <clipPath
       clipPathUnits="userSpaceOnUse"
       id="clipPath345">
      <path
         d="M 0,64 H 64 V 0 H 0 Z"
         transform="translate(-21.750026,-38.481901)"
         id="path345" />
    </clipPath>
    <clipPath
       clipPathUnits="userSpaceOnUse"
       id="clipPath347">
      <path
         d="M 0,64 H 64 V 0 H 0 Z"
         transform="translate(-53.023001,-23.693201)"
         id="path347" />
    </clipPath>
    <clipPath
       clipPathUnits="userSpaceOnUse"
       id="clipPath349">
      <path
         d="M 0,64 H 64 V 0 H 0 Z"
         transform="translate(-31.360376,-40.514201)"
         id="path349" />
    </clipPath>
    <clipPath
       clipPathUnits="userSpaceOnUse"
       id="clipPath351">
      <path
         d="M 0,64 H 64 V 0 H 0 Z"
         transform="translate(-33.048326,-39.593801)"
         id="path351" />
    </clipPath>
    <clipPath
       clipPathUnits="userSpaceOnUse"
       id="clipPath353">
      <path
         d="M 0,64 H 64 V 0 H 0 Z"
         transform="translate(-21.750026,-38.481901)"
         id="path353" />
    </clipPath>
    <clipPath
       clipPathUnits="userSpaceOnUse"
       id="clipPath355">
      <path
         d="M 0,64 H 64 V 0 H 0 Z"
         transform="translate(-31.952726,-2.2696001)"
         id="path355" />
    </clipPath>
    <clipPath
       clipPathUnits="userSpaceOnUse"
       id="clipPath357">
      <path
         d="M 0,64 H 64 V 0 H 0 Z"
         transform="translate(-19.233025,-2.5128003)"
         id="path357" />
    </clipPath>
    <clipPath
       clipPathUnits="userSpaceOnUse"
       id="clipPath359">
      <path
         d="M 0,64 H 64 V 0 H 0 Z"
         transform="translate(-44.833226,-2.5270998)"
         id="path359" />
    </clipPath>
    <clipPath
       clipPathUnits="userSpaceOnUse"
       id="clipPath361">
      <path
         d="M 0,64 H 64 V 0 H 0 Z"
         transform="translate(-20.982101,-23.642)"
         id="path361" />
    </clipPath>
    <clipPath
       clipPathUnits="userSpaceOnUse"
       id="clipPath363">
      <path
         d="M 0,64 H 64 V 0 H 0 Z"
         transform="translate(-37.002326,-23.6162)"
         id="path363" />
    </clipPath>
    <clipPath
       clipPathUnits="userSpaceOnUse"
       id="clipPath365">
      <path
         d="M 0,64 H 64 V 0 H 0 Z"
         transform="translate(-53.023001,-23.693201)"
         id="path365" />
    </clipPath>
    <clipPath
       clipPathUnits="userSpaceOnUse"
       id="clipPath176">
      <path
         d="M 0,64 H 64 V 0 H 0 Z"
         transform="translate(-7.3634027,-35.901001)"
         id="path176" />
    </clipPath>
    <clipPath
       clipPathUnits="userSpaceOnUse"
       id="clipPath178">
      <path
         d="M 0,64 H 64 V 0 H 0 Z"
         transform="translate(-13.53,-19.8817)"
         id="path178" />
    </clipPath>
    <clipPath
       clipPathUnits="userSpaceOnUse"
       id="clipPath180">
      <path
         d="M 0,64 H 64 V 0 H 0 Z"
         transform="translate(-2.2011976,-12.977101)"
         id="path180" />
    </clipPath>
    <clipPath
       clipPathUnits="userSpaceOnUse"
       id="clipPath182">
      <path
         d="M 0,64 H 64 V 0 H 0 Z"
         transform="translate(-42.393601,-39.227301)"
         id="path182" />
    </clipPath>
    <clipPath
       clipPathUnits="userSpaceOnUse"
       id="clipPath184">
      <path
         d="M 0,64 H 64 V 0 H 0 Z"
         transform="translate(-2.3019976,-36.120601)"
         id="path184" />
    </clipPath>
    <clipPath
       clipPathUnits="userSpaceOnUse"
       id="clipPath186">
      <path
         d="M 0,64 H 64 V 0 H 0 Z"
         transform="translate(-31.878398,-35.901001)"
         id="path186" />
    </clipPath>
    <clipPath
       clipPathUnits="userSpaceOnUse"
       id="clipPath188">
      <path
         d="M 0,64 H 64 V 0 H 0 Z"
         transform="translate(-19.620998,-12.663001)"
         id="path188" />
    </clipPath>
    <clipPath
       clipPathUnits="userSpaceOnUse"
       id="clipPath190">
      <path
         d="M 0,64 H 64 V 0 H 0 Z"
         transform="translate(-37.040798,-0.25000001)"
         id="path190" />
    </clipPath>
    <clipPath
       clipPathUnits="userSpaceOnUse"
       id="clipPath192">
      <path
         d="M 0,64 H 64 V 0 H 0 Z"
         transform="translate(-51.357301,-27.522901)"
         id="path192" />
    </clipPath>
    <clipPath
       clipPathUnits="userSpaceOnUse"
       id="clipPath194">
      <path
         d="M 0,64 H 64 V 0 H 0 Z"
         transform="translate(-61.865199,-53.867301)"
         id="path194" />
    </clipPath>
    <clipPath
       clipPathUnits="userSpaceOnUse"
       id="clipPath196">
      <path
         d="M 0,64 H 64 V 0 H 0 Z"
         transform="translate(-52.975899,-61.763002)"
         id="path196" />
    </clipPath>
    <clipPath
       clipPathUnits="userSpaceOnUse"
       id="clipPath198">
      <path
         d="M 0,64 H 64 V 0 H 0 Z"
         transform="translate(-17.0328,-42.933401)"
         id="path198" />
    </clipPath>
    <clipPath
       clipPathUnits="userSpaceOnUse"
       id="clipPath200">
      <path
         d="M 0,64 H 64 V 0 H 0 Z"
         transform="translate(-9.3321002,-30.832801)"
         id="path200" />
    </clipPath>
    <clipPath
       clipPathUnits="userSpaceOnUse"
       id="clipPath202">
      <path
         d="M 0,64 H 64 V 0 H 0 Z"
         transform="translate(-31.643003,-30.832801)"
         id="path202" />
    </clipPath>
    <clipPath
       clipPathUnits="userSpaceOnUse"
       id="clipPath204">
      <path
         d="M 0,64 H 64 V 0 H 0 Z"
         transform="translate(-13.877498,-42.521401)"
         id="path204" />
    </clipPath>
    <clipPath
       clipPathUnits="userSpaceOnUse"
       id="clipPath206">
      <path
         d="M 0,64 H 64 V 0 H 0 Z"
         transform="translate(-51.722401,-50.344701)"
         id="path206" />
    </clipPath>
    <clipPath
       clipPathUnits="userSpaceOnUse"
       id="clipPath208">
      <path
         d="M 0,64 H 64 V 0 H 0 Z"
         transform="translate(-52.157004,-52.583901)"
         id="path208" />
    </clipPath>
    <clipPath
       clipPathUnits="userSpaceOnUse"
       id="clipPath388">
      <path
         d="M 0,64 H 64 V 0 H 0 Z"
         transform="translate(-16.4936,-19.565401)"
         id="path388" />
    </clipPath>
    <clipPath
       clipPathUnits="userSpaceOnUse"
       id="clipPath390">
      <path
         d="M 0,64 H 64 V 0 H 0 Z"
         transform="translate(-54.983901,-1.3080003)"
         id="path390" />
    </clipPath>
    <clipPath
       clipPathUnits="userSpaceOnUse"
       id="clipPath392">
      <path
         d="M 0,64 H 64 V 0 H 0 Z"
         transform="translate(2.5000001e-5)"
         id="path392" />
    </clipPath>
    <clipPath
       clipPathUnits="userSpaceOnUse"
       id="clipPath394">
      <path
         d="M 0,64 H 64 V 0 H 0 Z"
         transform="translate(-13.0139,-8.2500005)"
         id="path394" />
    </clipPath>
    <clipPath
       clipPathUnits="userSpaceOnUse"
       id="clipPath396">
      <path
         d="M 0,64 H 64 V 0 H 0 Z"
         transform="translate(-16.4936,-8.2500005)"
         id="path396" />
    </clipPath>
    <clipPath
       clipPathUnits="userSpaceOnUse"
       id="clipPath398">
      <path
         d="M 0,64 H 64 V 0 H 0 Z"
         transform="translate(-16.4936,-44.691701)"
         id="path398" />
    </clipPath>
    <clipPath
       clipPathUnits="userSpaceOnUse"
       id="clipPath400">
      <path
         d="M 0,64 H 64 V 0 H 0 Z"
         transform="translate(-16.4936,-18.5077)"
         id="path400" />
    </clipPath>
    <clipPath
       clipPathUnits="userSpaceOnUse"
       id="clipPath402">
      <path
         d="M 0,64 H 64 V 0 H 0 Z"
         transform="translate(2.5000001e-5)"
         id="path402" />
    </clipPath>
    <clipPath
       clipPathUnits="userSpaceOnUse"
       id="clipPath404">
      <path
         d="M 0,64 H 64 V 0 H 0 Z"
         transform="translate(-26.473101,-26.123401)"
         id="path404" />
    </clipPath>
    <clipPath
       clipPathUnits="userSpaceOnUse"
       id="clipPath406">
      <path
         d="M 0,64 H 64 V 0 H 0 Z"
         transform="translate(-34.740126,-32.225001)"
         id="path406" />
    </clipPath>
    <clipPath
       clipPathUnits="userSpaceOnUse"
       id="clipPath408">
      <path
         d="M 0,64 H 64 V 0 H 0 Z"
         transform="translate(-34.739826,-32.225001)"
         id="path408" />
    </clipPath>
    <clipPath
       clipPathUnits="userSpaceOnUse"
       id="clipPath410">
      <path
         d="M 0,64 H 64 V 0 H 0 Z"
         transform="translate(-54.984126,-8.2500005)"
         id="path410" />
    </clipPath>
    <clipPath
       clipPathUnits="userSpaceOnUse"
       id="clipPath412">
      <path
         d="M 0,64 H 64 V 0 H 0 Z"
         transform="translate(-34.738926,-31.166101)"
         id="path412" />
    </clipPath>
    <clipPath
       clipPathUnits="userSpaceOnUse"
       id="clipPath414">
      <path
         d="M 0,64 H 64 V 0 H 0 Z"
         transform="translate(-56.231126,-1.7025003)"
         id="path414" />
    </clipPath>
    <clipPath
       clipPathUnits="userSpaceOnUse"
       id="clipPath416">
      <path
         d="M 0,64 H 64 V 0 H 0 Z"
         transform="translate(-7.9729752,-62.754102)"
         id="path416" />
    </clipPath>
    <clipPath
       clipPathUnits="userSpaceOnUse"
       id="clipPath418">
      <path
         d="M 0,64 H 64 V 0 H 0 Z"
         transform="translate(-31.312001,-42.258301)"
         id="path418" />
    </clipPath>
    <clipPath
       clipPathUnits="userSpaceOnUse"
       id="clipPath420">
      <path
         d="M 0,64 H 64 V 0 H 0 Z"
         transform="translate(-4.0324001,-3.5112003)"
         id="path420" />
    </clipPath>
    <clipPath
       clipPathUnits="userSpaceOnUse"
       id="clipPath422">
      <path
         d="M 0,64 H 64 V 0 H 0 Z"
         transform="translate(-31.312001,-42.258301)"
         id="path422" />
    </clipPath>
    <clipPath
       clipPathUnits="userSpaceOnUse"
       id="clipPath424">
      <path
         d="M 0,64 H 64 V 0 H 0 Z"
         transform="translate(-32.012201,-9.0129005)"
         id="path424" />
    </clipPath>
    <clipPath
       clipPathUnits="userSpaceOnUse"
       id="clipPath426">
      <path
         d="M 0,64 H 64 V 0 H 0 Z"
         transform="translate(-50.199701,-46.231901)"
         id="path426" />
    </clipPath>
    <clipPath
       clipPathUnits="userSpaceOnUse"
       id="clipPath428">
      <path
         d="M 0,64 H 64 V 0 H 0 Z"
         transform="translate(-50.160101,-35.284001)"
         id="path428" />
    </clipPath>
    <clipPath
       clipPathUnits="userSpaceOnUse"
       id="clipPath430">
      <path
         d="M 0,64 H 64 V 0 H 0 Z"
         transform="translate(-50.268476,-28.717501)"
         id="path430" />
    </clipPath>
    <clipPath
       clipPathUnits="userSpaceOnUse"
       id="clipPath432">
      <path
         d="M 0,64 H 64 V 0 H 0 Z"
         transform="translate(-50.220326,-17.7695)"
         id="path432" />
    </clipPath>
    <clipPath
       clipPathUnits="userSpaceOnUse"
       id="clipPath434">
      <path
         d="M 0,64 H 64 V 0 H 0 Z"
         transform="translate(-9.0216252,-56.853001)"
         id="path434" />
    </clipPath>
    <clipPath
       clipPathUnits="userSpaceOnUse"
       id="clipPath436">
      <path
         d="M 0,64 H 64 V 0 H 0 Z"
         transform="translate(-15.565225,-56.853001)"
         id="path436" />
    </clipPath>
    <clipPath
       clipPathUnits="userSpaceOnUse"
       id="clipPath438">
      <path
         d="M 0,64 H 64 V 0 H 0 Z"
         transform="translate(-22.204526,-59.692701)"
         id="path438" />
    </clipPath>
    <clipPath
       clipPathUnits="userSpaceOnUse"
       id="clipPath440">
      <path
         d="M 0,64 H 64 V 0 H 0 Z"
         transform="translate(-23.857001,-33.874701)"
         id="path440" />
    </clipPath>
    <clipPath
       clipPathUnits="userSpaceOnUse"
       id="clipPath442">
      <path
         d="M 0,64 H 64 V 0 H 0 Z"
         transform="translate(-31.312001,-42.258301)"
         id="path442" />
    </clipPath>
    <clipPath
       clipPathUnits="userSpaceOnUse"
       id="clipPath444">
      <path
         d="M 0,64 H 64 V 0 H 0 Z"
         transform="translate(-15.8368,-22.271701)"
         id="path444" />
    </clipPath>
    <clipPath
       clipPathUnits="userSpaceOnUse"
       id="clipPath446">
      <path
         d="M 0,64 H 64 V 0 H 0 Z"
         transform="translate(-23.857001,-33.874701)"
         id="path446" />
    </clipPath>
    <clipPath
       clipPathUnits="userSpaceOnUse"
       id="clipPath448">
      <path
         d="M 0,64 H 64 V 0 H 0 Z"
         transform="translate(-40.101001,-10.710601)"
         id="path448" />
    </clipPath>
    <clipPath
       clipPathUnits="userSpaceOnUse"
       id="clipPath450">
      <path
         d="M 0,64 H 64 V 0 H 0 Z"
         transform="translate(-29.876401,-28.6685)"
         id="path450" />
    </clipPath>
    <clipPath
       clipPathUnits="userSpaceOnUse"
       id="clipPath452">
      <path
         d="M 0,64 H 64 V 0 H 0 Z"
         transform="translate(-54.948601,-34.603901)"
         id="path452" />
    </clipPath>
    <clipPath
       clipPathUnits="userSpaceOnUse"
       id="clipPath454">
      <path
         d="M 0,64 H 64 V 0 H 0 Z"
         transform="translate(-49.882876,-57.970701)"
         id="path454" />
    </clipPath>
    <clipPath
       clipPathUnits="userSpaceOnUse"
       id="clipPath456">
      <path
         d="M 0,64 H 64 V 0 H 0 Z"
         transform="translate(-42.273976,-49.428701)"
         id="path456" />
    </clipPath>
    <clipPath
       clipPathUnits="userSpaceOnUse"
       id="clipPath458">
      <path
         d="M 0,64 H 64 V 0 H 0 Z"
         transform="translate(-40.101001,-10.710601)"
         id="path458" />
    </clipPath>
    <clipPath
       clipPathUnits="userSpaceOnUse"
       id="clipPath460">
      <path
         d="M 0,64 H 64 V 0 H 0 Z"
         transform="translate(-47.174326,-35.051301)"
         id="path460" />
    </clipPath>
    <clipPath
       clipPathUnits="userSpaceOnUse"
       id="clipPath462">
      <path
         d="M 0,64 H 64 V 0 H 0 Z"
         transform="translate(-20.137501,-38.052201)"
         id="path462" />
    </clipPath>
    <clipPath
       clipPathUnits="userSpaceOnUse"
       id="clipPath464">
      <path
         d="M 0,64 H 64 V 0 H 0 Z"
         transform="translate(-18.912375,-33.188001)"
         id="path464" />
    </clipPath>
    <clipPath
       clipPathUnits="userSpaceOnUse"
       id="clipPath466">
      <path
         d="M 0,64 H 64 V 0 H 0 Z"
         transform="translate(-29.876401,-28.6685)"
         id="path466" />
    </clipPath>
    <clipPath
       clipPathUnits="userSpaceOnUse"
       id="clipPath210">
      <path
         d="M 0,64 H 64 V 0 H 0 Z"
         transform="translate(-22.751203,-30.882801)"
         id="path210" />
    </clipPath>
    <clipPath
       clipPathUnits="userSpaceOnUse"
       id="clipPath212">
      <path
         d="M 0,64 H 64 V 0 H 0 Z"
         transform="translate(-12.456298,-25.3217)"
         id="path212" />
    </clipPath>
    <clipPath
       clipPathUnits="userSpaceOnUse"
       id="clipPath214">
      <path
         d="M 0,64 H 64 V 0 H 0 Z"
         transform="translate(-4.2167976,-3.7735001)"
         id="path214" />
    </clipPath>
    <clipPath
       clipPathUnits="userSpaceOnUse"
       id="clipPath216">
      <path
         d="M 0,64 H 64 V 0 H 0 Z"
         transform="translate(-4.2167976,-28.8002)"
         id="path216" />
    </clipPath>
    <clipPath
       clipPathUnits="userSpaceOnUse"
       id="clipPath218">
      <path
         d="M 0,64 H 64 V 0 H 0 Z"
         transform="translate(-31.573603,-1.0936)"
         id="path218" />
    </clipPath>
    <clipPath
       clipPathUnits="userSpaceOnUse"
       id="clipPath220">
      <path
         d="M 0,64 H 64 V 0 H 0 Z"
         transform="translate(-34.139301,-8.4817002)"
         id="path220" />
    </clipPath>
    <clipPath
       clipPathUnits="userSpaceOnUse"
       id="clipPath222">
      <path
         d="M 0,64 H 64 V 0 H 0 Z"
         transform="translate(-25.947201,-36.458401)"
         id="path222" />
    </clipPath>
    <clipPath
       clipPathUnits="userSpaceOnUse"
       id="clipPath224">
      <path
         d="M 0,64 H 64 V 0 H 0 Z"
         transform="translate(-41.416799,-30.882801)"
         id="path224" />
    </clipPath>
    <clipPath
       clipPathUnits="userSpaceOnUse"
       id="clipPath226">
      <path
         d="M 0,64 H 64 V 0 H 0 Z"
         transform="translate(-26.991898,-37.192201)"
         id="path226" />
    </clipPath>
    <clipPath
       clipPathUnits="userSpaceOnUse"
       id="clipPath228">
      <path
         d="M 0,64 H 64 V 0 H 0 Z"
         transform="translate(-41.417301,-29.838301)"
         id="path228" />
    </clipPath>
    <clipPath
       clipPathUnits="userSpaceOnUse"
       id="clipPath230">
      <path
         d="M 0,64 H 64 V 0 H 0 Z"
         transform="translate(-60.085799,-29.838301)"
         id="path230" />
    </clipPath>
  </defs>
  <g
     id="layer1">
    <path
       id="path209"
       d="m 0,0 h 37.335 c 1.115,0 2.03,0.911 2.03,2.03 v 21.344 c 0,1.115 -0.915,2.03 -2.03,2.03 L 0,25.404 c -1.119,0 -2.03,-0.915 -2.03,-2.03 V 2.03 C -2.03,0.911 -1.119,0 0,0"
       style="fill:#697ee9;fill-opacity:1;fill-rule:evenodd;stroke:none"
       transform="matrix(0.25709803,0,0,-0.25709803,6.1306858,8.90844)"
       clip-path="url(#clipPath210)" />
    <path
       id="path211"
       d="m 0,0 v -17.026 l 13.236,-5.451 c 6.844,-1.476 11.089,-0.649 17.339,2.503 l 16.687,8.422 c 7,3.531 0.022,6.844 -3.958,5.681 l -17.645,-5.153 c -0.255,1.352 -1.214,2.529 -2.602,3.065 l -7.445,2.875 C 13.924,-4.431 13.13,-3.218 11.989,-1.818 9.223,1.578 3.703,2.059 0,0"
       style="fill:#ffffff;fill-opacity:1;fill-rule:evenodd;stroke:none"
       transform="matrix(0.25709803,0,0,-0.25709803,3.4838865,10.338188)"
       clip-path="url(#clipPath212)" />
    <path
       id="path213"
       d="M 0,0 H 5.313 C 6.924,0 8.24,1.316 8.24,2.926 v 1.596 17.026 1.596 c 0,1.611 -1.316,2.927 -2.927,2.927 H 0 c -1.607,0 -2.923,-1.316 -2.923,-2.927 V 2.926 C -2.923,1.316 -1.607,0 0,0"
       style="fill:#f69f00;fill-opacity:1;fill-rule:evenodd;stroke:none"
       transform="matrix(0.25709803,0,0,-0.25709803,1.365527,15.878189)"
       clip-path="url(#clipPath214)" />
    <path
       id="path215"
       d="M 0,0 C -1.036,0 -1.878,-0.844 -1.878,-1.882 V -22.1 c 0,-1.038 0.842,-1.882 1.878,-1.882 h 5.313 c 1.038,0 1.882,0.844 1.882,1.882 V -1.882 C 7.195,-0.844 6.351,0 5.313,0 Z M 5.313,-26.071 H 0 c -2.187,0 -3.967,1.782 -3.967,3.971 v 20.218 c 0,2.189 1.78,3.97 3.967,3.97 h 5.313 c 2.189,0 3.971,-1.781 3.971,-3.97 V -22.1 c 0,-2.189 -1.782,-3.971 -3.971,-3.971"
       style="fill:#4e4957;fill-opacity:1;fill-rule:nonzero;stroke:none"
       transform="matrix(0.25709803,0,0,-0.25709803,1.365527,9.443872)"
       clip-path="url(#clipPath216)" />
    <path
       id="path217"
       d="m 0,0 c -1.9,0 -3.882,0.251 -6.102,0.73 -0.06,0.013 -0.121,0.032 -0.178,0.055 l -13.235,5.452 c -0.533,0.22 -0.787,0.83 -0.568,1.363 0.22,0.534 0.829,0.783 1.363,0.568 L -5.571,2.752 C 0.666,1.423 4.702,2.018 10.988,5.186 l 16.686,8.422 c 1.669,0.842 2.601,1.761 2.373,2.339 -0.433,1.098 -3.439,2.028 -5.568,1.408 L 6.834,12.202 C 6.552,12.121 6.246,12.161 5.996,12.314 5.744,12.468 5.57,12.721 5.516,13.011 5.32,14.045 4.591,14.899 3.564,15.295 l -7.446,2.876 C -5.616,18.841 -6.54,20 -7.519,21.228 l -0.419,0.522 c -2.513,3.087 -7.548,3.304 -10.671,1.566 -0.507,-0.283 -1.142,-0.098 -1.421,0.404 -0.28,0.505 -0.099,1.14 0.405,1.421 3.847,2.139 10.028,1.953 13.307,-2.071 l 0.433,-0.54 c 0.899,-1.13 1.55,-1.945 2.755,-2.411 L 4.316,17.243 C 5.649,16.729 6.684,15.738 7.23,14.494 l 16.664,4.866 c 2.844,0.831 7.141,-0.226 8.096,-2.647 0.401,-1.018 0.496,-3.017 -3.376,-4.97 L 11.928,3.322 C 7.412,1.044 3.877,0 0,0"
       style="fill:#4e4957;fill-opacity:1;fill-rule:nonzero;stroke:none"
       transform="matrix(0.25709803,0,0,-0.25709803,8.3989077,16.567185)"
       clip-path="url(#clipPath218)" />
    <path
       id="path219"
       d="m 0,0 c -0.577,0 -1.154,0.1 -1.712,0.3 l -7.286,2.621 c -0.543,0.195 -0.824,0.793 -0.629,1.336 0.195,0.543 0.79,0.824 1.336,0.63 L -1.005,2.266 C -0.259,1.996 0.553,2.037 1.28,2.379 2.006,2.721 2.553,3.321 2.822,4.07 3.006,4.578 3.048,5.098 2.95,5.619 2.843,6.185 3.215,6.731 3.782,6.838 4.351,6.944 4.895,6.573 5.002,6.006 5.169,5.125 5.095,4.211 4.787,3.361 4.331,2.09 3.401,1.07 2.169,0.489 1.479,0.164 0.74,0 0,0"
       style="fill:#4e4957;fill-opacity:1;fill-rule:nonzero;stroke:none"
       transform="matrix(0.25709803,0,0,-0.25709803,9.0585438,14.667719)"
       clip-path="url(#clipPath220)" />
    <path
       id="path221"
       d="M 0,0 15.47,-5.576 V 19.828 L 0,25.404 Z"
       style="fill:#d9d9d9;fill-opacity:1;fill-rule:evenodd;stroke:none"
       transform="matrix(0.25709803,0,0,-0.25709803,6.9523705,7.4749635)"
       clip-path="url(#clipPath222)" />
    <path
       id="path223"
       d="M 0,0 15.473,5.576 V 30.979 L 0,25.404 Z"
       style="fill:#ffffff;fill-opacity:1;fill-rule:evenodd;stroke:none"
       transform="matrix(0.25709803,0,0,-0.25709803,10.929574,8.90844)"
       clip-path="url(#clipPath224)" />
    <path
       id="path225"
       d="M 0,0 14.425,-5.2 28.854,0 V 23.183 L 14.779,18.112 c -0.229,-0.083 -0.48,-0.082 -0.707,0 L 0,23.183 Z m 14.425,-7.354 c -0.12,0 -0.239,0.02 -0.353,0.062 l -15.47,5.576 c -0.414,0.149 -0.69,0.542 -0.69,0.982 V 24.67 c 0,0.34 0.165,0.659 0.443,0.854 0.279,0.196 0.634,0.244 0.955,0.128 l 15.115,-5.448 15.119,5.448 c 0.32,0.116 0.676,0.068 0.955,-0.128 0.278,-0.195 0.443,-0.514 0.443,-0.854 V -0.734 c 0,-0.44 -0.276,-0.833 -0.69,-0.982 L 14.779,-7.292 c -0.114,-0.042 -0.234,-0.062 -0.354,-0.062"
       style="fill:#4e4957;fill-opacity:1;fill-rule:nonzero;stroke:none"
       transform="matrix(0.25709803,0,0,-0.25709803,7.2209602,7.2863055)"
       clip-path="url(#clipPath226)" />
    <path
       id="path227"
       d="m 0,0 c -0.577,0 -1.044,0.468 -1.044,1.044 v 25.404 c 0,0.577 0.467,1.044 1.044,1.044 0.577,0 1.044,-0.467 1.044,-1.044 V 1.044 C 1.044,0.468 0.577,0 0,0"
       style="fill:#4e4957;fill-opacity:1;fill-rule:nonzero;stroke:none"
       transform="matrix(0.25709803,0,0,-0.25709803,10.929704,9.1769791)"
       clip-path="url(#clipPath228)" />
    <path
       id="path229"
       d="m 0,0 h -37.335 c -1.695,0 -3.074,1.379 -3.074,3.074 v 21.344 c 0,1.695 1.379,3.074 3.074,3.074 h 3.197 c 0.577,0 1.044,-0.467 1.044,-1.044 0,-0.576 -0.467,-1.044 -1.044,-1.044 h -3.197 c -0.544,0 -0.985,-0.442 -0.985,-0.986 V 3.074 c 0,-0.543 0.441,-0.986 0.985,-0.986 H 0 c 0.544,0 0.986,0.443 0.986,0.986 v 21.344 c 0,0.535 -0.452,0.986 -0.986,0.986 h -3.196 c -0.577,0 -1.044,0.468 -1.044,1.044 0,0.577 0.467,1.044 1.044,1.044 H 0 c 1.695,0 3.075,-1.379 3.075,-3.074 V 3.074 C 3.075,1.379 1.695,0 0,0"
       style="fill:#4e4957;fill-opacity:1;fill-rule:nonzero;stroke:none"
       transform="matrix(0.25709803,0,0,-0.25709803,15.729338,9.1769791)"
       clip-path="url(#clipPath230)" />
  </g>
</svg>
