<?xml version="1.0" encoding="UTF-8" standalone="no"?>
<!-- Created with Inkscape (http://www.inkscape.org/) -->

<svg
   width="64"
   height="64"
   viewBox="0 0 16.933333 16.933333"
   version="1.1"
   id="svg1"
   inkscape:version="1.3.2 (1:1.3.2+202404261509+091e20ef0f)"
   sodipodi:docname="courses.svg"
   xmlns:inkscape="http://www.inkscape.org/namespaces/inkscape"
   xmlns:sodipodi="http://sodipodi.sourceforge.net/DTD/sodipodi-0.dtd"
   xmlns="http://www.w3.org/2000/svg"
   xmlns:svg="http://www.w3.org/2000/svg">
  <sodipodi:namedview
     id="namedview1"
     pagecolor="#ffffff"
     bordercolor="#999999"
     borderopacity="1"
     inkscape:showpageshadow="2"
     inkscape:pageopacity="0"
     inkscape:pagecheckerboard="0"
     inkscape:deskcolor="#d1d1d1"
     inkscape:document-units="mm"
     inkscape:zoom="5.6729517"
     inkscape:cx="40.45513"
     inkscape:cy="38.604242"
     inkscape:window-width="1920"
     inkscape:window-height="995"
     inkscape:window-x="0"
     inkscape:window-y="0"
     inkscape:window-maximized="1"
     inkscape:current-layer="layer1" />
  <defs
     id="defs1">
    <clipPath
       clipPathUnits="userSpaceOnUse"
       id="clipPath163">
      <path
         d="M 0,1551 H 1920 V 0 H 0 Z"
         transform="translate(-413.19211,-1199.627)"
         id="path163" />
    </clipPath>
    <clipPath
       clipPathUnits="userSpaceOnUse"
       id="clipPath165">
      <path
         d="M 0,1551 H 1920 V 0 H 0 Z"
         transform="translate(-393.48691,-1195.5687)"
         id="path165" />
    </clipPath>
    <clipPath
       clipPathUnits="userSpaceOnUse"
       id="clipPath167">
      <path
         d="M 0,1551 H 1920 V 0 H 0 Z"
         transform="translate(-406.96929,-1185.5961)"
         id="path167" />
    </clipPath>
    <clipPath
       clipPathUnits="userSpaceOnUse"
       id="clipPath169">
      <path
         d="M 0,1551 H 1920 V 0 H 0 Z"
         transform="translate(-398.50178,-1191.5602)"
         id="path169" />
    </clipPath>
    <clipPath
       clipPathUnits="userSpaceOnUse"
       id="clipPath171">
      <path
         d="M 0,1551 H 1920 V 0 H 0 Z"
         transform="translate(-395.91511,-1189.7357)"
         id="path171" />
    </clipPath>
    <clipPath
       clipPathUnits="userSpaceOnUse"
       id="clipPath173">
      <path
         d="M 0,1551 H 1920 V 0 H 0 Z"
         transform="translate(-396.20168,-1186.5834)"
         id="path173" />
    </clipPath>
    <clipPath
       clipPathUnits="userSpaceOnUse"
       id="clipPath175">
      <path
         d="M 0,1551 H 1920 V 0 H 0 Z"
         transform="translate(-401.37511,-1190.2322)"
         id="path175" />
    </clipPath>
  </defs>
  <g
     inkscape:label="Capa 1"
     inkscape:groupmode="layer"
     id="layer1">
    <path
       id="path162"
       d="m 0,0 h -19.705 c -0.957,0 -1.74,-0.783 -1.74,-1.739 v -0.58 c 0,-0.957 0.783,-1.739 1.74,-1.739 H 0"
       style="fill:#e9f3fd;fill-opacity:1;fill-rule:nonzero;stroke:#697eea;stroke-width:1.146;stroke-linecap:butt;stroke-linejoin:miter;stroke-miterlimit:4;stroke-dasharray:none;stroke-opacity:1"
       transform="matrix(0.56168631,0,0,-0.56168631,14.700779,1.5091059)"
       clip-path="url(#clipPath163)" />
    <path
       id="path164"
       d="m 0,0 c -0.823,0 -1.513,0.58 -1.692,1.351 v -20.966 c 0.179,-0.77 0.869,-1.351 1.692,-1.351 H 19.083 L 19.131,0 Z"
       style="fill:#697eea;fill-opacity:1;fill-rule:nonzero;stroke:#697eea icc-color(Display, 0.43099976, 0.5019989, 0.88999939);stroke-width:1.146;stroke-linecap:butt;stroke-linejoin:miter;stroke-miterlimit:4;stroke-dasharray:none;stroke-opacity:1"
       transform="matrix(0.56168631,0,0,-0.56168631,3.632638,3.7885989)"
       clip-path="url(#clipPath165)" />
    <path
       id="path166"
       d="m 0,0 -3.81,1.021 -3.81,1.021 1.021,-3.81 1.021,-3.81 1.573,1.573 3.791,-3.79 2.431,2.431 -3.79,3.791 z"
       style="fill:#ffffff;fill-opacity:1;fill-rule:nonzero;stroke:none"
       transform="matrix(0.56168631,0,0,-0.56168631,11.205504,9.3900719)"
       clip-path="url(#clipPath167)" />
    <path
       id="path168"
       d="M 0,0 V -1.719"
       style="fill:#ffffff;stroke:#ffffff icc-color(Display, 1, 1, 1);stroke-width:1.146;stroke-linecap:butt;stroke-linejoin:miter;stroke-miterlimit:4;stroke-dasharray:none;stroke-opacity:1;fill-opacity:1"
       transform="matrix(0.56168631,0,0,-0.56168631,6.4494247,6.0401199)"
       clip-path="url(#clipPath169)" />
    <path
       id="path170"
       d="M 0,0 1.489,-0.86"
       style="fill:#ffffff;stroke:#ffffff icc-color(Display, 1, 1, 1);stroke-width:1.146;stroke-linecap:butt;stroke-linejoin:miter;stroke-miterlimit:4;stroke-dasharray:none;stroke-opacity:1;fill-opacity:1"
       transform="matrix(0.56168631,0,0,-0.56168631,4.9965248,7.0649138)"
       clip-path="url(#clipPath171)" />
    <path
       id="path172"
       d="M 0,0 1.489,0.86"
       style="fill:#ffffff;stroke:#ffffff icc-color(Display, 1, 1, 1);stroke-width:1.146;stroke-linecap:butt;stroke-linejoin:miter;stroke-miterlimit:4;stroke-dasharray:none;stroke-opacity:1;fill-opacity:1"
       transform="matrix(0.56168631,0,0,-0.56168631,5.15749,8.835519)"
       clip-path="url(#clipPath173)" />
    <path
       id="path174"
       d="M 0,0 -1.489,-0.86"
       style="fill:#ffffff;stroke:#ffffff icc-color(Display, 1, 1, 1);stroke-width:1.146;stroke-linecap:butt;stroke-linejoin:miter;stroke-miterlimit:4;stroke-dasharray:none;stroke-opacity:1;fill-opacity:1"
       transform="matrix(0.56168631,0,0,-0.56168631,8.0633321,6.7860366)"
       clip-path="url(#clipPath175)" />
  </g>
</svg>
