<?xml version="1.0" encoding="UTF-8" standalone="no"?>
<!-- Created with Inkscape (http://www.inkscape.org/) -->

<svg
   width="64"
   height="64"
   viewBox="0 0 16.933333 16.933333"
   version="1.1"
   id="svg1"
   inkscape:version="1.4 (1:1.4+202410161351+e7c3feb100)"
   sodipodi:docname="evaluation.svg"
   xmlns:inkscape="http://www.inkscape.org/namespaces/inkscape"
   xmlns:sodipodi="http://sodipodi.sourceforge.net/DTD/sodipodi-0.dtd"
   xmlns="http://www.w3.org/2000/svg"
   xmlns:svg="http://www.w3.org/2000/svg">
  <sodipodi:namedview
     id="namedview1"
     pagecolor="#ffffff"
     bordercolor="#999999"
     borderopacity="1"
     inkscape:showpageshadow="2"
     inkscape:pageopacity="0"
     inkscape:pagecheckerboard="0"
     inkscape:deskcolor="#d1d1d1"
     inkscape:document-units="mm"
     inkscape:zoom="11.33165"
     inkscape:cx="40.550141"
     inkscape:cy="31.769425"
     inkscape:window-width="1920"
     inkscape:window-height="1043"
     inkscape:window-x="0"
     inkscape:window-y="0"
     inkscape:window-maximized="1"
     inkscape:current-layer="layer1" />
  <defs
     id="defs1">
    <clipPath
       clipPathUnits="userSpaceOnUse"
       id="clipPath3547">
      <path
         d="M 0,1534 H 1920 V 0 H 0 Z"
         transform="translate(-813.36902,-874.90432)"
         id="path3547" />
    </clipPath>
    <clipPath
       clipPathUnits="userSpaceOnUse"
       id="clipPath3549">
      <path
         d="M 0,1534 H 1920 V 0 H 0 Z"
         transform="translate(-840.11627,-843.16502)"
         id="path3549" />
    </clipPath>
    <clipPath
       clipPathUnits="userSpaceOnUse"
       id="clipPath3551">
      <path
         d="M 0,1534 H 1920 V 0 H 0 Z"
         transform="translate(-840.11627,-856.47562)"
         id="path3551" />
    </clipPath>
    <clipPath
       clipPathUnits="userSpaceOnUse"
       id="clipPath3553">
      <path
         d="M 0,1534 H 1920 V 0 H 0 Z"
         transform="translate(-824.86652,-842.35162)"
         id="path3553" />
    </clipPath>
    <clipPath
       clipPathUnits="userSpaceOnUse"
       id="clipPath3555">
      <path
         d="M 0,1534 H 1920 V 0 H 0 Z"
         transform="translate(-824.86652,-857.28912)"
         id="path3555" />
    </clipPath>
    <clipPath
       clipPathUnits="userSpaceOnUse"
       id="clipPath3557">
      <path
         d="M 0,1534 H 1920 V 0 H 0 Z"
         transform="translate(-809.61902,-842.35162)"
         id="path3557" />
    </clipPath>
    <clipPath
       clipPathUnits="userSpaceOnUse"
       id="clipPath3559">
      <path
         d="M 0,1534 H 1920 V 0 H 0 Z"
         transform="translate(-812.77577,-853.32032)"
         id="path3559" />
    </clipPath>
    <clipPath
       clipPathUnits="userSpaceOnUse"
       id="clipPath3561">
      <path
         d="M 0,1534 H 1920 V 0 H 0 Z"
         transform="translate(-855.39452,-867.34082)"
         id="path3561" />
    </clipPath>
    <clipPath
       clipPathUnits="userSpaceOnUse"
       id="clipPath3563">
      <path
         d="M 0,1534 H 1920 V 0 H 0 Z"
         transform="translate(-802.98377,-867.34082)"
         id="path3563" />
    </clipPath>
    <clipPath
       clipPathUnits="userSpaceOnUse"
       id="clipPath3565">
      <path
         d="M 0,1534 H 1920 V 0 H 0 Z"
         transform="translate(-812.77577,-839.19632)"
         id="path3565" />
    </clipPath>
    <clipPath
       clipPathUnits="userSpaceOnUse"
       id="clipPath3628">
      <path
         d="M 0,1534 H 1920 V 0 H 0 Z"
         transform="translate(-496.71076,-592.06639)"
         id="path3628" />
    </clipPath>
    <clipPath
       clipPathUnits="userSpaceOnUse"
       id="clipPath3630">
      <path
         d="M 0,1534 H 1920 V 0 H 0 Z"
         transform="translate(-449.33476,-627.99904)"
         id="path3630" />
    </clipPath>
    <clipPath
       clipPathUnits="userSpaceOnUse"
       id="clipPath3632">
      <path
         d="M 0,1534 H 1920 V 0 H 0 Z"
         transform="translate(-472.70026,-612.11622)"
         id="path3632" />
    </clipPath>
    <clipPath
       clipPathUnits="userSpaceOnUse"
       id="clipPath3634">
      <path
         d="M 0,1534 H 1920 V 0 H 0 Z"
         transform="translate(-472.70026,-612.11622)"
         id="path3634" />
    </clipPath>
    <clipPath
       clipPathUnits="userSpaceOnUse"
       id="clipPath3636">
      <path
         d="M 0,1534 H 1920 V 0 H 0 Z"
         transform="translate(-443.41801,-594.81049)"
         id="path3636" />
    </clipPath>
    <clipPath
       clipPathUnits="userSpaceOnUse"
       id="clipPath3638">
      <path
         d="M 0,1534 H 1920 V 0 H 0 Z"
         transform="translate(-485.02576,-600.55182)"
         id="path3638" />
    </clipPath>
    <clipPath
       clipPathUnits="userSpaceOnUse"
       id="clipPath3640">
      <path
         d="M 0,1534 H 1920 V 0 H 0 Z"
         transform="translate(-453.93151,-600.55182)"
         id="path3640" />
    </clipPath>
    <clipPath
       clipPathUnits="userSpaceOnUse"
       id="clipPath3642">
      <path
         d="M 0,1534 H 1920 V 0 H 0 Z"
         transform="translate(-488.30101,-588.24124)"
         id="path3642" />
    </clipPath>
    <clipPath
       clipPathUnits="userSpaceOnUse"
       id="clipPath3644">
      <path
         d="M 0,1534 H 1920 V 0 H 0 Z"
         transform="translate(-473.31376,-592.06639)"
         id="path3644" />
    </clipPath>
    <clipPath
       clipPathUnits="userSpaceOnUse"
       id="clipPath3646">
      <path
         d="M 0,1534 H 1920 V 0 H 0 Z"
         transform="translate(-473.31376,-592.06639)"
         id="path3646" />
    </clipPath>
    <clipPath
       clipPathUnits="userSpaceOnUse"
       id="clipPath3648">
      <path
         d="M 0,1534 H 1920 V 0 H 0 Z"
         transform="translate(-456.65701,-602.79492)"
         id="path3648" />
    </clipPath>
    <clipPath
       clipPathUnits="userSpaceOnUse"
       id="clipPath3650">
      <path
         d="M 0,1534 H 1920 V 0 H 0 Z"
         transform="translate(-449.33476,-627.99904)"
         id="path3650" />
    </clipPath>
    <clipPath
       clipPathUnits="userSpaceOnUse"
       id="clipPath3652">
      <path
         d="M 0,1534 H 1920 V 0 H 0 Z"
         transform="translate(-453.82651,-627.99904)"
         id="path3652" />
    </clipPath>
    <clipPath
       clipPathUnits="userSpaceOnUse"
       id="clipPath3654">
      <path
         d="M 0,1534 H 1920 V 0 H 0 Z"
         transform="translate(-458.31751,-627.99904)"
         id="path3654" />
    </clipPath>
    <clipPath
       clipPathUnits="userSpaceOnUse"
       id="clipPath3656">
      <path
         d="M 0,1534 H 1920 V 0 H 0 Z"
         transform="translate(-443.41801,-623.21974)"
         id="path3656" />
    </clipPath>
    <clipPath
       clipPathUnits="userSpaceOnUse"
       id="clipPath3850">
      <path
         d="M 0,1534 H 1920 V 0 H 0 Z"
         transform="translate(-447.85576,-279.04001)"
         id="path3850" />
    </clipPath>
    <clipPath
       clipPathUnits="userSpaceOnUse"
       id="clipPath3852">
      <path
         d="M 0,1534 H 1920 V 0 H 0 Z"
         transform="translate(-482.22826,-269.79881)"
         id="path3852" />
    </clipPath>
    <clipPath
       clipPathUnits="userSpaceOnUse"
       id="clipPath3854">
      <path
         d="M 0,1534 H 1920 V 0 H 0 Z"
         transform="translate(-482.23051,-269.79881)"
         id="path3854" />
    </clipPath>
    <clipPath
       clipPathUnits="userSpaceOnUse"
       id="clipPath3856">
      <path
         d="M 0,1534 H 1920 V 0 H 0 Z"
         transform="translate(-471.13801,-274.33008)"
         id="path3856" />
    </clipPath>
    <clipPath
       clipPathUnits="userSpaceOnUse"
       id="clipPath3858">
      <path
         d="M 0,1534 H 1920 V 0 H 0 Z"
         transform="translate(-457.23826,-306.35643)"
         id="path3858" />
    </clipPath>
    <clipPath
       clipPathUnits="userSpaceOnUse"
       id="clipPath3860">
      <path
         d="M 0,1534 H 1920 V 0 H 0 Z"
         transform="translate(-471.13801,-308.06928)"
         id="path3860" />
    </clipPath>
    <clipPath
       clipPathUnits="userSpaceOnUse"
       id="clipPath3862">
      <path
         d="M 0,1534 H 1920 V 0 H 0 Z"
         transform="translate(-471.13801,-303.20703)"
         id="path3862" />
    </clipPath>
    <clipPath
       clipPathUnits="userSpaceOnUse"
       id="clipPath3864">
      <path
         d="M 0,1534 H 1920 V 0 H 0 Z"
         transform="translate(-487.31551,-289.93953)"
         id="path3864" />
    </clipPath>
    <clipPath
       clipPathUnits="userSpaceOnUse"
       id="clipPath3866">
      <path
         d="M 0,1534 H 1920 V 0 H 0 Z"
         transform="translate(-495.65851,-281.09373)"
         id="path3866" />
    </clipPath>
    <clipPath
       clipPathUnits="userSpaceOnUse"
       id="clipPath3868">
      <path
         d="M 0,1534 H 1920 V 0 H 0 Z"
         transform="translate(-487.31551,-285.77538)"
         id="path3868" />
    </clipPath>
    <clipPath
       clipPathUnits="userSpaceOnUse"
       id="clipPath3870">
      <path
         d="M 0,1534 H 1920 V 0 H 0 Z"
         transform="translate(-482.22826,-269.79881)"
         id="path3870" />
    </clipPath>
    <clipPath
       clipPathUnits="userSpaceOnUse"
       id="clipPath3872">
      <path
         d="M 0,1534 H 1920 V 0 H 0 Z"
         transform="translate(-491.64076,-287.20803)"
         id="path3872" />
    </clipPath>
    <clipPath
       clipPathUnits="userSpaceOnUse"
       id="clipPath3874">
      <path
         d="M 0,1534 H 1920 V 0 H 0 Z"
         transform="translate(-498.79501,-263.78223)"
         id="path3874" />
    </clipPath>
    <clipPath
       clipPathUnits="userSpaceOnUse"
       id="clipPath3876">
      <path
         d="M 0,1534 H 1920 V 0 H 0 Z"
         transform="translate(-465.25951,-304.91801)"
         id="path3876" />
    </clipPath>
    <clipPath
       clipPathUnits="userSpaceOnUse"
       id="clipPath3878">
      <path
         d="M 0,1534 H 1920 V 0 H 0 Z"
         transform="translate(-465.08476,-283.84181)"
         id="path3878" />
    </clipPath>
  </defs>
  <g
     inkscape:label="Capa 1"
     inkscape:groupmode="layer"
     id="layer1">
    <path
       id="path3849"
       d="m 0,0 v 37.497 c 0,0.097 0.077,0.175 0.174,0.175 h 44.955 c 1.964,0 3.555,-1.598 3.555,-3.569 V 6.529"
       style="fill:none;stroke:#4d4956;stroke-width:1.814;stroke-linecap:butt;stroke-linejoin:round;stroke-miterlimit:10;stroke-dasharray:none;stroke-opacity:1"
       transform="matrix(0.25052315,0,0,-0.25052315,2.4538611,10.581631)"
       clip-path="url(#clipPath3850)" />
    <path
       id="path3851"
       d="m 0,0 h -38.714 c -0.097,0 -0.174,0.079 -0.174,0.175 v 8.891 c 0,0.096 0.077,0.175 0.174,0.175 H -4.105 C -2.481,6.487 -1.246,3.684 0,0"
       style="fill:#6e80e3;fill-opacity:1;fill-rule:nonzero;stroke:#4d4956;stroke-width:1.814;stroke-linecap:butt;stroke-linejoin:round;stroke-miterlimit:10;stroke-dasharray:none;stroke-opacity:1"
       transform="matrix(0.25052315,0,0,-0.25052315,11.064969,12.89676)"
       clip-path="url(#clipPath3852)" />
    <path
       id="path3853"
       d="M 0,0 H -0.002"
       style="fill:none;stroke:#4d4956;stroke-width:1.814;stroke-linecap:butt;stroke-linejoin:round;stroke-miterlimit:10;stroke-dasharray:none;stroke-opacity:1"
       transform="matrix(0.25052315,0,0,-0.25052315,11.065534,12.89676)"
       clip-path="url(#clipPath3854)" />
    <path
       id="path3855"
       d="M 0,0 H 2.118"
       style="fill:none;stroke:#4d4956;stroke-width:1.814;stroke-linecap:round;stroke-linejoin:round;stroke-miterlimit:10;stroke-dasharray:none;stroke-opacity:1"
       transform="matrix(0.25052315,0,0,-0.25052315,8.286604,11.761567)"
       clip-path="url(#clipPath3856)" />
    <path
       id="path3857"
       d="m 0,0 2.003,-2.53 c 0.073,-0.093 0.215,-0.087 0.28,0.011 l 5.919,8.931"
       style="fill:none;stroke:#4d4956;stroke-width:1.814;stroke-linecap:butt;stroke-linejoin:round;stroke-miterlimit:10;stroke-dasharray:none;stroke-opacity:1"
       transform="matrix(0.25052315,0,0,-0.25052315,4.804396,3.7382286)"
       clip-path="url(#clipPath3858)" />
    <path
       id="path3859"
       d="M 0,0 H 19.218"
       style="fill:none;stroke:#4d4956;stroke-width:1.814;stroke-linecap:butt;stroke-linejoin:miter;stroke-miterlimit:10;stroke-dasharray:none;stroke-opacity:1"
       transform="matrix(0.25052315,0,0,-0.25052315,8.286604,3.3091116)"
       clip-path="url(#clipPath3860)" />
    <path
       id="path3861"
       d="M 0,0 H 7.311"
       style="fill:none;stroke:#4d4956;stroke-width:1.814;stroke-linecap:butt;stroke-linejoin:miter;stroke-miterlimit:10;stroke-dasharray:none;stroke-opacity:1"
       transform="matrix(0.25052315,0,0,-0.25052315,8.286604,4.5272275)"
       clip-path="url(#clipPath3862)" />
    <path
       id="path3863"
       d="M 0,0 C 0.03,1.884 4.296,1.722 4.325,-0.194 V -1.96 c 0,-0.152 0.18,-0.228 0.291,-0.126 0.925,0.855 3.727,0.526 3.727,-0.993 v -1.725"
       style="fill:none;stroke:#4d4956;stroke-width:1.814;stroke-linecap:round;stroke-linejoin:round;stroke-miterlimit:10;stroke-dasharray:none;stroke-opacity:1"
       transform="matrix(0.25052315,0,0,-0.25052315,12.339443,7.8510343)"
       clip-path="url(#clipPath3864)" />
    <path
       id="path3865"
       d="M 0,0 V 4.042 C 0,4.111 0.043,4.176 0.107,4.204 0.381,4.317 0.638,4.41 0.882,4.476 1.824,4.727 2.563,4.564 3.261,3.587 4.435,1.942 3.989,-3.943 3.252,-9.22 c -0.334,-2.396 -1.606,-3.374 -1.893,-4.627 -0.232,-1.037 -0.295,-2.606 -0.309,-3.12 -0.001,-0.095 -0.078,-0.17 -0.174,-0.17"
       style="fill:none;stroke:#4d4956;stroke-width:1.814;stroke-linecap:round;stroke-linejoin:round;stroke-miterlimit:10;stroke-dasharray:none;stroke-opacity:1"
       transform="matrix(0.25052315,0,0,-0.25052315,14.429557,10.067119)"
       clip-path="url(#clipPath3866)" />
    <path
       id="path3867"
       d="m 0,0 v 4.164 8.267 c 0,2.529 -4.591,2.529 -4.591,0 V -4.434 c 0,-0.17 -0.218,-0.239 -0.316,-0.101 -1.569,2.225 -2.918,4.015 -4.837,5.213 -1.495,0.931 -3.459,-1.351 -2.497,-2.855 1.174,-1.593 2.169,-3.067 3.049,-4.558"
       style="fill:none;stroke:#4d4956;stroke-width:1.814;stroke-linecap:round;stroke-linejoin:round;stroke-miterlimit:10;stroke-dasharray:none;stroke-opacity:1"
       transform="matrix(0.25052315,0,0,-0.25052315,12.339443,8.894252)"
       clip-path="url(#clipPath3868)" />
    <path
       id="path3869"
       d="m 0,0 c 0.273,-0.806 0.547,-1.653 0.824,-2.552 0.334,-1.075 0.363,-2.603 0.363,-3.115 0,-0.097 0.076,-0.175 0.173,-0.175"
       style="fill:none;stroke:#4d4956;stroke-width:1.814;stroke-linecap:round;stroke-linejoin:round;stroke-miterlimit:10;stroke-dasharray:none;stroke-opacity:1"
       transform="matrix(0.25052315,0,0,-0.25052315,11.064969,12.89676)"
       clip-path="url(#clipPath3870)" />
    <path
       id="path3871"
       d="M 0,0 V -3.912"
       style="fill:none;stroke:#4d4956;stroke-width:1.814;stroke-linecap:round;stroke-linejoin:round;stroke-miterlimit:10;stroke-dasharray:none;stroke-opacity:1"
       transform="matrix(0.25052315,0,0,-0.25052315,13.423018,8.5353435)"
       clip-path="url(#clipPath3872)" />
    <path
       id="path3873"
       d="m 0,0 v -5.633 c 0,-0.096 -0.078,-0.175 -0.174,-0.175 h -17.255 c -0.095,0 -0.174,0.079 -0.174,0.175 V 0 c 0,0.098 0.079,0.175 0.174,0.175 H -0.174 C -0.078,0.175 0,0.098 0,0"
       style="fill:#e9a306;fill-opacity:1;fill-rule:nonzero;stroke:#4d4956;stroke-width:1.814;stroke-linecap:butt;stroke-linejoin:miter;stroke-miterlimit:10;stroke-dasharray:none;stroke-opacity:1"
       transform="matrix(0.25052315,0,0,-0.25052315,15.215325,14.404043)"
       clip-path="url(#clipPath3874)" />
    <path
       id="path3875"
       d="M 0,0 V -4.804 C 0,-4.9 -0.078,-4.979 -0.174,-4.979 h -10.608 c -0.097,0 -0.174,0.079 -0.174,0.175 V 5.578 c 0,0.097 0.077,0.175 0.174,0.175 h 5.461"
       style="fill:none;stroke:#4d4956;stroke-width:1.814;stroke-linecap:butt;stroke-linejoin:round;stroke-miterlimit:10;stroke-dasharray:none;stroke-opacity:1"
       transform="matrix(0.25052315,0,0,-0.25052315,6.8139036,4.0985778)"
       clip-path="url(#clipPath3876)" />
    <path
       id="path3877"
       d="m 0,0 h -10.607 c -0.096,0 -0.174,0.078 -0.174,0.174 v 10.273 c 0,0.096 0.078,0.174 0.174,0.174 H 0 c 0.097,0 0.175,-0.078 0.175,-0.174 V 0.174 C 0.175,0.078 0.097,0 0,0 Z"
       style="fill:none;stroke:#4d4956;stroke-width:1.814;stroke-linecap:butt;stroke-linejoin:round;stroke-miterlimit:10;stroke-dasharray:none;stroke-opacity:1"
       transform="matrix(0.25052315,0,0,-0.25052315,6.7701256,9.3786635)"
       clip-path="url(#clipPath3878)" />
  </g>
</svg>
