<?xml version="1.0" encoding="UTF-8" standalone="no"?>
<!-- Created with Inkscape (http://www.inkscape.org/) -->

<svg
   width="64"
   height="64"
   viewBox="0 0 16.933333 16.933333"
   version="1.1"
   id="svg1"
   xmlns="http://www.w3.org/2000/svg"
   xmlns:svg="http://www.w3.org/2000/svg">
  <defs
     id="defs1">
    <clipPath
       clipPathUnits="userSpaceOnUse"
       id="clipPath2">
      <path
         d="M 0,64 H 64 V 0 H 0 Z"
         transform="translate(-43.864601,-60.341702)"
         id="path2" />
    </clipPath>
    <clipPath
       clipPathUnits="userSpaceOnUse"
       id="clipPath4">
      <path
         d="M 0,64 H 64 V 0 H 0 Z"
         transform="translate(-4.9069001,-3.4228001)"
         id="path4" />
    </clipPath>
    <clipPath
       clipPathUnits="userSpaceOnUse"
       id="clipPath6">
      <path
         d="M 0,64 H 64 V 0 H 0 Z"
         transform="translate(-10.9624,-61.841502)"
         id="path6" />
    </clipPath>
    <clipPath
       clipPathUnits="userSpaceOnUse"
       id="clipPath8">
      <path
         d="M 0,64 H 64 V 0 H 0 Z"
         transform="translate(-1.7805,-9.0450005)"
         id="path8" />
    </clipPath>
    <clipPath
       clipPathUnits="userSpaceOnUse"
       id="clipPath10">
      <path
         d="M 0,64 H 64 V 0 H 0 Z"
         transform="translate(-43.864601,-13.2686)"
         id="path10" />
    </clipPath>
    <clipPath
       clipPathUnits="userSpaceOnUse"
       id="clipPath12">
      <path
         d="M 0,64 H 64 V 0 H 0 Z"
         transform="translate(-4.8754001,-3.4354998)"
         id="path12" />
    </clipPath>
    <clipPath
       clipPathUnits="userSpaceOnUse"
       id="clipPath14">
      <path
         d="M 0,64 H 64 V 0 H 0 Z"
         transform="translate(-39.009601,-45.100001)"
         id="path14" />
    </clipPath>
    <clipPath
       clipPathUnits="userSpaceOnUse"
       id="clipPath16">
      <path
         d="M 0,64 H 64 V 0 H 0 Z"
         transform="translate(-39.009801,-44.335201)"
         id="path16" />
    </clipPath>
    <clipPath
       clipPathUnits="userSpaceOnUse"
       id="clipPath18">
      <path
         d="M 0,64 H 64 V 0 H 0 Z"
         transform="translate(-39.009601,-41.651201)"
         id="path18" />
    </clipPath>
    <clipPath
       clipPathUnits="userSpaceOnUse"
       id="clipPath20">
      <path
         d="M 0,64 H 64 V 0 H 0 Z"
         transform="translate(-39.009801,-40.882301)"
         id="path20" />
    </clipPath>
    <clipPath
       clipPathUnits="userSpaceOnUse"
       id="clipPath22">
      <path
         d="M 0,64 H 64 V 0 H 0 Z"
         transform="translate(-46.731101,-23.680901)"
         id="path22" />
    </clipPath>
    <clipPath
       clipPathUnits="userSpaceOnUse"
       id="clipPath24">
      <path
         d="M 0,64 H 64 V 0 H 0 Z"
         transform="translate(-47.813701,-23.681)"
         id="path24" />
    </clipPath>
    <clipPath
       clipPathUnits="userSpaceOnUse"
       id="clipPath26">
      <path
         d="M 0,64 H 64 V 0 H 0 Z"
         transform="translate(-52.128202,-22.574)"
         id="path26" />
    </clipPath>
    <clipPath
       clipPathUnits="userSpaceOnUse"
       id="clipPath28">
      <path
         d="M 0,64 H 64 V 0 H 0 Z"
         transform="translate(-52.668502,-22.032601)"
         id="path28" />
    </clipPath>
    <clipPath
       clipPathUnits="userSpaceOnUse"
       id="clipPath30">
      <path
         d="M 0,64 H 64 V 0 H 0 Z"
         transform="translate(-43.864601,-7.4982004)"
         id="path30" />
    </clipPath>
    <clipPath
       clipPathUnits="userSpaceOnUse"
       id="clipPath32">
      <path
         d="M 0,64 H 64 V 0 H 0 Z"
         transform="translate(-15.145401,-61.841502)"
         id="path32" />
    </clipPath>
    <clipPath
       clipPathUnits="userSpaceOnUse"
       id="clipPath34">
      <path
         d="M 0,64 H 64 V 0 H 0 Z"
         transform="translate(-19.5354,-54.260001)"
         id="path34" />
    </clipPath>
    <clipPath
       clipPathUnits="userSpaceOnUse"
       id="clipPath232">
      <path
         d="M 0,64 H 64 V 0 H 0 Z"
         transform="translate(-52.876504,-36.941501)"
         id="path232" />
    </clipPath>
    <clipPath
       clipPathUnits="userSpaceOnUse"
       id="clipPath234">
      <path
         d="M 0,64 H 64 V 0 H 0 Z"
         transform="translate(-52.876504,-46.161501)"
         id="path234" />
    </clipPath>
    <clipPath
       clipPathUnits="userSpaceOnUse"
       id="clipPath236">
      <path
         d="M 0,64 H 64 V 0 H 0 Z"
         transform="translate(-7.9573002,-51.570801)"
         id="path236" />
    </clipPath>
    <clipPath
       clipPathUnits="userSpaceOnUse"
       id="clipPath238">
      <path
         d="M 0,64 H 64 V 0 H 0 Z"
         transform="translate(-52.876699,-35.949601)"
         id="path238" />
    </clipPath>
    <clipPath
       clipPathUnits="userSpaceOnUse"
       id="clipPath240">
      <path
         d="M 0,64 H 64 V 0 H 0 Z"
         transform="translate(-12.787203,-50.232401)"
         id="path240" />
    </clipPath>
    <clipPath
       clipPathUnits="userSpaceOnUse"
       id="clipPath242">
      <path
         d="M 0,64 H 64 V 0 H 0 Z"
         transform="translate(-10.238298,-56.522901)"
         id="path242" />
    </clipPath>
    <clipPath
       clipPathUnits="userSpaceOnUse"
       id="clipPath244">
      <path
         d="M 0,64 H 64 V 0 H 0 Z"
         transform="translate(-23.984403,-50.232401)"
         id="path244" />
    </clipPath>
    <clipPath
       clipPathUnits="userSpaceOnUse"
       id="clipPath246">
      <path
         d="M 0,64 H 64 V 0 H 0 Z"
         transform="translate(-21.435401,-56.522901)"
         id="path246" />
    </clipPath>
    <clipPath
       clipPathUnits="userSpaceOnUse"
       id="clipPath248">
      <path
         d="M 0,64 H 64 V 0 H 0 Z"
         transform="translate(-35.181498,-50.232401)"
         id="path248" />
    </clipPath>
    <clipPath
       clipPathUnits="userSpaceOnUse"
       id="clipPath250">
      <path
         d="M 0,64 H 64 V 0 H 0 Z"
         transform="translate(-32.632398,-56.522901)"
         id="path250" />
    </clipPath>
    <clipPath
       clipPathUnits="userSpaceOnUse"
       id="clipPath252">
      <path
         d="M 0,64 H 64 V 0 H 0 Z"
         transform="translate(-46.378601,-50.232401)"
         id="path252" />
    </clipPath>
    <clipPath
       clipPathUnits="userSpaceOnUse"
       id="clipPath254">
      <path
         d="M 0,64 H 64 V 0 H 0 Z"
         transform="translate(-43.830004,-56.522901)"
         id="path254" />
    </clipPath>
    <clipPath
       clipPathUnits="userSpaceOnUse"
       id="clipPath256">
      <path
         d="M 0,64 H 64 V 0 H 0 Z"
         transform="translate(-59.344399,-63.750002)"
         id="path256" />
    </clipPath>
    <clipPath
       clipPathUnits="userSpaceOnUse"
       id="clipPath258">
      <path
         d="M 0,64 H 64 V 0 H 0 Z"
         transform="translate(-61.576999,-48.317901)"
         id="path258" />
    </clipPath>
    <clipPath
       clipPathUnits="userSpaceOnUse"
       id="clipPath260">
      <path
         d="M 0,64 H 64 V 0 H 0 Z"
         transform="translate(-61.576999,-48.317901)"
         id="path260" />
    </clipPath>
    <clipPath
       clipPathUnits="userSpaceOnUse"
       id="clipPath262">
      <path
         d="M 0,64 H 64 V 0 H 0 Z"
         transform="translate(-51.309799,-52.521101)"
         id="path262" />
    </clipPath>
    <clipPath
       clipPathUnits="userSpaceOnUse"
       id="clipPath264">
      <path
         d="M 0,64 H 64 V 0 H 0 Z"
         transform="translate(-15.275598,-26.7149)"
         id="path264" />
    </clipPath>
    <clipPath
       clipPathUnits="userSpaceOnUse"
       id="clipPath266">
      <path
         d="M 0,64 H 64 V 0 H 0 Z"
         transform="translate(-12.030498,-31.059401)"
         id="path266" />
    </clipPath>
    <clipPath
       clipPathUnits="userSpaceOnUse"
       id="clipPath268">
      <path
         d="M 0,64 H 64 V 0 H 0 Z"
         transform="translate(-12.030498,-21.131401)"
         id="path268" />
    </clipPath>
    <clipPath
       clipPathUnits="userSpaceOnUse"
       id="clipPath270">
      <path
         d="M 0,64 H 64 V 0 H 0 Z"
         transform="translate(-12.030498,-11.2034)"
         id="path270" />
    </clipPath>
    <clipPath
       clipPathUnits="userSpaceOnUse"
       id="clipPath272">
      <path
         d="M 0,64 H 64 V 0 H 0 Z"
         transform="translate(-28.838501,-26.7149)"
         id="path272" />
    </clipPath>
    <clipPath
       clipPathUnits="userSpaceOnUse"
       id="clipPath274">
      <path
         d="M 0,64 H 64 V 0 H 0 Z"
         transform="translate(-25.593498,-31.059401)"
         id="path274" />
    </clipPath>
    <clipPath
       clipPathUnits="userSpaceOnUse"
       id="clipPath276">
      <path
         d="M 0,64 H 64 V 0 H 0 Z"
         transform="translate(-25.593498,-21.131401)"
         id="path276" />
    </clipPath>
    <clipPath
       clipPathUnits="userSpaceOnUse"
       id="clipPath278">
      <path
         d="M 0,64 H 64 V 0 H 0 Z"
         transform="translate(-25.593498,-11.2034)"
         id="path278" />
    </clipPath>
    <clipPath
       clipPathUnits="userSpaceOnUse"
       id="clipPath280">
      <path
         d="M 0,64 H 64 V 0 H 0 Z"
         transform="translate(-39.156401,-31.059401)"
         id="path280" />
    </clipPath>
    <clipPath
       clipPathUnits="userSpaceOnUse"
       id="clipPath282">
      <path
         d="M 0,64 H 64 V 0 H 0 Z"
         transform="translate(-39.156401,-21.131401)"
         id="path282" />
    </clipPath>
    <clipPath
       clipPathUnits="userSpaceOnUse"
       id="clipPath284">
      <path
         d="M 0,64 H 64 V 0 H 0 Z"
         transform="translate(-39.156401,-11.2034)"
         id="path284" />
    </clipPath>
    <clipPath
       clipPathUnits="userSpaceOnUse"
       id="clipPath36">
      <path
         d="M 0,64 H 64 V 0 H 0 Z"
         transform="translate(-58.047201,-9.2578002)"
         id="path36" />
    </clipPath>
    <clipPath
       clipPathUnits="userSpaceOnUse"
       id="clipPath38">
      <path
         d="M 0,64 H 64 V 0 H 0 Z"
         transform="translate(-54.817499,-4.6165001)"
         id="path38" />
    </clipPath>
    <clipPath
       clipPathUnits="userSpaceOnUse"
       id="clipPath40">
      <path
         d="M 0,64 H 64 V 0 H 0 Z"
         transform="translate(-62.633002,-49.093601)"
         id="path40" />
    </clipPath>
    <clipPath
       clipPathUnits="userSpaceOnUse"
       id="clipPath42">
      <path
         d="M 0,64 H 64 V 0 H 0 Z"
         transform="translate(-31.964203,-39.076301)"
         id="path42" />
    </clipPath>
    <clipPath
       clipPathUnits="userSpaceOnUse"
       id="clipPath44">
      <path
         d="M 0,64 H 64 V 0 H 0 Z"
         transform="translate(-58.789101,-8.1875)"
         id="path44" />
    </clipPath>
    <clipPath
       clipPathUnits="userSpaceOnUse"
       id="clipPath46">
      <path
         d="M 0,64 H 64 V 0 H 0 Z"
         transform="translate(-2.2343976,-49.859401)"
         id="path46" />
    </clipPath>
    <clipPath
       clipPathUnits="userSpaceOnUse"
       id="clipPath48">
      <path
         d="M 0,64 H 64 V 0 H 0 Z"
         transform="translate(-10.171903,-53.828102)"
         id="path48" />
    </clipPath>
    <clipPath
       clipPathUnits="userSpaceOnUse"
       id="clipPath50">
      <path
         d="M 0,64 H 64 V 0 H 0 Z"
         transform="translate(-16.124998,-53.828102)"
         id="path50" />
    </clipPath>
    <clipPath
       clipPathUnits="userSpaceOnUse"
       id="clipPath52">
      <path
         d="M 0,64 H 64 V 0 H 0 Z"
         transform="translate(-22.078101,-53.828102)"
         id="path52" />
    </clipPath>
    <clipPath
       clipPathUnits="userSpaceOnUse"
       id="clipPath54">
      <path
         d="M 0,64 H 64 V 0 H 0 Z"
         transform="translate(-54.820304,-4.2187001)"
         id="path54" />
    </clipPath>
    <clipPath
       clipPathUnits="userSpaceOnUse"
       id="clipPath56">
      <path
         d="M 0,64 H 64 V 0 H 0 Z"
         transform="translate(-32.000998,-8.1875)"
         id="path56" />
    </clipPath>
    <clipPath
       clipPathUnits="userSpaceOnUse"
       id="clipPath58">
      <path
         d="M 0,64 H 64 V 0 H 0 Z"
         transform="translate(-31.999003,-8.1875)"
         id="path58" />
    </clipPath>
    <clipPath
       clipPathUnits="userSpaceOnUse"
       id="clipPath60">
      <path
         d="M 0,64 H 64 V 0 H 0 Z"
         transform="translate(-32.000998,-4.2187001)"
         id="path60" />
    </clipPath>
    <clipPath
       clipPathUnits="userSpaceOnUse"
       id="clipPath62">
      <path
         d="M 0,64 H 64 V 0 H 0 Z"
         transform="translate(-31.999003,-4.2187001)"
         id="path62" />
    </clipPath>
    <clipPath
       clipPathUnits="userSpaceOnUse"
       id="clipPath64">
      <path
         d="M 0,64 H 64 V 0 H 0 Z"
         transform="translate(-32.000001,-4.2196999)"
         id="path64" />
    </clipPath>
    <clipPath
       clipPathUnits="userSpaceOnUse"
       id="clipPath66">
      <path
         d="M 0,64 H 64 V 0 H 0 Z"
         transform="translate(-25.054701,-35.968801)"
         id="path66" />
    </clipPath>
    <clipPath
       clipPathUnits="userSpaceOnUse"
       id="clipPath68">
      <path
         d="M 0,64 H 64 V 0 H 0 Z"
         transform="translate(-25.054701,-30.015601)"
         id="path68" />
    </clipPath>
    <clipPath
       clipPathUnits="userSpaceOnUse"
       id="clipPath70">
      <path
         d="M 0,64 H 64 V 0 H 0 Z"
         transform="translate(-25.054701,-24.062501)"
         id="path70" />
    </clipPath>
    <clipPath
       clipPathUnits="userSpaceOnUse"
       id="clipPath72">
      <path
         d="M 0,64 H 64 V 0 H 0 Z"
         transform="translate(-25.054701,-18.1094)"
         id="path72" />
    </clipPath>
    <clipPath
       clipPathUnits="userSpaceOnUse"
       id="clipPath74">
      <path
         d="M 0,64 H 64 V 0 H 0 Z"
         transform="translate(-46.882799,-35.968801)"
         id="path74" />
    </clipPath>
    <clipPath
       clipPathUnits="userSpaceOnUse"
       id="clipPath76">
      <path
         d="M 0,64 H 64 V 0 H 0 Z"
         transform="translate(-46.882799,-30.015601)"
         id="path76" />
    </clipPath>
    <clipPath
       clipPathUnits="userSpaceOnUse"
       id="clipPath78">
      <path
         d="M 0,64 H 64 V 0 H 0 Z"
         transform="translate(-46.882799,-24.062501)"
         id="path78" />
    </clipPath>
    <clipPath
       clipPathUnits="userSpaceOnUse"
       id="clipPath80">
      <path
         d="M 0,64 H 64 V 0 H 0 Z"
         transform="translate(-46.882799,-18.1094)"
         id="path80" />
    </clipPath>
    <clipPath
       clipPathUnits="userSpaceOnUse"
       id="clipPath82">
      <path
         d="M 0,64 H 64 V 0 H 0 Z"
         transform="translate(-55.685599,-43.178401)"
         id="path82" />
    </clipPath>
    <clipPath
       clipPathUnits="userSpaceOnUse"
       id="clipPath84">
      <path
         d="M 0,64 H 64 V 0 H 0 Z"
         transform="translate(-8.0628027,-53.329901)"
         id="path84" />
    </clipPath>
    <clipPath
       clipPathUnits="userSpaceOnUse"
       id="clipPath86">
      <path
         d="M 0,64 H 64 V 0 H 0 Z"
         transform="translate(-55.119604,-24.480901)"
         id="path86" />
    </clipPath>
    <clipPath
       clipPathUnits="userSpaceOnUse"
       id="clipPath88">
      <path
         d="M 0,64 H 64 V 0 H 0 Z"
         transform="translate(-44.898304,-48.549001)"
         id="path88" />
    </clipPath>
    <clipPath
       clipPathUnits="userSpaceOnUse"
       id="clipPath90">
      <path
         d="M 0,64 H 64 V 0 H 0 Z"
         transform="translate(-44.898304,-41.898301)"
         id="path90" />
    </clipPath>
    <clipPath
       clipPathUnits="userSpaceOnUse"
       id="clipPath92">
      <path
         d="M 0,64 H 64 V 0 H 0 Z"
         transform="translate(-52.835801,-43.905901)"
         id="path92" />
    </clipPath>
    <clipPath
       clipPathUnits="userSpaceOnUse"
       id="clipPath94">
      <path
         d="M 0,64 H 64 V 0 H 0 Z"
         transform="translate(-52.835801,-43.905901)"
         id="path94" />
    </clipPath>
    <clipPath
       clipPathUnits="userSpaceOnUse"
       id="clipPath96">
      <path
         d="M 0,64 H 64 V 0 H 0 Z"
         transform="translate(-31.999998,-45.890301)"
         id="path96" />
    </clipPath>
    <clipPath
       clipPathUnits="userSpaceOnUse"
       id="clipPath98">
      <path
         d="M 0,64 H 64 V 0 H 0 Z"
         transform="translate(-31.999998,-45.890301)"
         id="path98" />
    </clipPath>
    <clipPath
       clipPathUnits="userSpaceOnUse"
       id="clipPath100">
      <path
         d="M 0,64 H 64 V 0 H 0 Z"
         transform="translate(-31.999998,-33.984101)"
         id="path100" />
    </clipPath>
    <clipPath
       clipPathUnits="userSpaceOnUse"
       id="clipPath102">
      <path
         d="M 0,64 H 64 V 0 H 0 Z"
         transform="translate(-31.999998,-0.99030027)"
         id="path102" />
    </clipPath>
    <clipPath
       clipPathUnits="userSpaceOnUse"
       id="clipPath122">
      <path
         d="M 0,64 H 64 V 0 H 0 Z"
         transform="translate(-1.3087025,-6.0121002)"
         id="path122" />
    </clipPath>
    <clipPath
       clipPathUnits="userSpaceOnUse"
       id="clipPath124">
      <path
         d="M 0,64 H 64 V 0 H 0 Z"
         transform="translate(-43.859601,-25.9862)"
         id="path124" />
    </clipPath>
    <clipPath
       clipPathUnits="userSpaceOnUse"
       id="clipPath126">
      <path
         d="M 0,64 H 64 V 0 H 0 Z"
         transform="translate(-55.197599,-23.302001)"
         id="path126" />
    </clipPath>
    <clipPath
       clipPathUnits="userSpaceOnUse"
       id="clipPath128">
      <path
         d="M 0,64 H 64 V 0 H 0 Z"
         transform="translate(-59.869701,-26.193101)"
         id="path128" />
    </clipPath>
    <clipPath
       clipPathUnits="userSpaceOnUse"
       id="clipPath130">
      <path
         d="M 0,64 H 64 V 0 H 0 Z"
         transform="translate(-27.792801,-33.787801)"
         id="path130" />
    </clipPath>
    <clipPath
       clipPathUnits="userSpaceOnUse"
       id="clipPath132">
      <path
         d="M 0,64 H 64 V 0 H 0 Z"
         transform="translate(-40.945701,-2.0397003)"
         id="path132" />
    </clipPath>
    <clipPath
       clipPathUnits="userSpaceOnUse"
       id="clipPath134">
      <path
         d="M 0,64 H 64 V 0 H 0 Z"
         transform="translate(-43.771004,-17.402701)"
         id="path134" />
    </clipPath>
    <clipPath
       clipPathUnits="userSpaceOnUse"
       id="clipPath136">
      <path
         d="M 0,64 H 64 V 0 H 0 Z"
         transform="translate(-8.4524002,-8.8555002)"
         id="path136" />
    </clipPath>
    <clipPath
       clipPathUnits="userSpaceOnUse"
       id="clipPath138">
      <path
         d="M 0,64 H 64 V 0 H 0 Z"
         transform="translate(-8.4524002,-18.0256)"
         id="path138" />
    </clipPath>
    <clipPath
       clipPathUnits="userSpaceOnUse"
       id="clipPath140">
      <path
         d="M 0,64 H 64 V 0 H 0 Z"
         transform="translate(-12.6893,-24.082301)"
         id="path140" />
    </clipPath>
    <clipPath
       clipPathUnits="userSpaceOnUse"
       id="clipPath142">
      <path
         d="M 0,64 H 64 V 0 H 0 Z"
         transform="translate(-8.4521977,-7.7965002)"
         id="path142" />
    </clipPath>
    <clipPath
       clipPathUnits="userSpaceOnUse"
       id="clipPath144">
      <path
         d="M 0,64 H 64 V 0 H 0 Z"
         transform="translate(-37.489701,-52.832402)"
         id="path144" />
    </clipPath>
    <clipPath
       clipPathUnits="userSpaceOnUse"
       id="clipPath146">
      <path
         d="M 0,64 H 64 V 0 H 0 Z"
         transform="translate(-33.056901,-40.281301)"
         id="path146" />
    </clipPath>
    <clipPath
       clipPathUnits="userSpaceOnUse"
       id="clipPath148">
      <path
         d="M 0,64 H 64 V 0 H 0 Z"
         transform="translate(2.5000001e-6)"
         id="path148" />
    </clipPath>
    <clipPath
       clipPathUnits="userSpaceOnUse"
       id="clipPath150">
      <path
         d="M 0,64 H 64 V 0 H 0 Z"
         transform="translate(-10.4888,-35.468001)"
         id="path150" />
    </clipPath>
    <clipPath
       clipPathUnits="userSpaceOnUse"
       id="clipPath104">
      <path
         d="M 0,64 H 64 V 0 H 0 Z"
         transform="translate(-15.244598,-10.3565)"
         id="path104" />
    </clipPath>
    <clipPath
       clipPathUnits="userSpaceOnUse"
       id="clipPath106">
      <path
         d="M 0,64 H 64 V 0 H 0 Z"
         transform="translate(-28.455601,-58.909801)"
         id="path106" />
    </clipPath>
    <clipPath
       clipPathUnits="userSpaceOnUse"
       id="clipPath108">
      <path
         d="M 0,64 H 64 V 0 H 0 Z"
         transform="translate(-49.308699,-46.659501)"
         id="path108" />
    </clipPath>
    <clipPath
       clipPathUnits="userSpaceOnUse"
       id="clipPath110">
      <path
         d="M 0,64 H 64 V 0 H 0 Z"
         transform="translate(-8.3196002,-44.750801)"
         id="path110" />
    </clipPath>
    <clipPath
       clipPathUnits="userSpaceOnUse"
       id="clipPath112">
      <path
         d="M 0,64 H 64 V 0 H 0 Z"
         transform="translate(-55.653001,-44.722201)"
         id="path112" />
    </clipPath>
    <clipPath
       clipPathUnits="userSpaceOnUse"
       id="clipPath114">
      <path
         d="M 0,64 H 64 V 0 H 0 Z"
         transform="translate(-4.1411026,-49.628301)"
         id="path114" />
    </clipPath>
    <clipPath
       clipPathUnits="userSpaceOnUse"
       id="clipPath116">
      <path
         d="M 0,64 H 64 V 0 H 0 Z"
         transform="translate(-59.847399,-49.597901)"
         id="path116" />
    </clipPath>
    <clipPath
       clipPathUnits="userSpaceOnUse"
       id="clipPath118">
      <path
         d="M 0,64 H 64 V 0 H 0 Z"
         transform="translate(-32.055001,-9.4001)"
         id="path118" />
    </clipPath>
    <clipPath
       clipPathUnits="userSpaceOnUse"
       id="clipPath120">
      <path
         d="M 0,64 H 64 V 0 H 0 Z"
         transform="translate(-28.455601,-58.909801)"
         id="path120" />
    </clipPath>
    <clipPath
       clipPathUnits="userSpaceOnUse"
       id="clipPath367">
      <path
         d="M 0,64 H 64 V 0 H 0 Z"
         transform="translate(-58.786501,-42.928201)"
         id="path367" />
    </clipPath>
    <clipPath
       clipPathUnits="userSpaceOnUse"
       id="clipPath369">
      <path
         d="M 0,64 H 64 V 0 H 0 Z"
         transform="translate(-56.782201,-34.420401)"
         id="path369" />
    </clipPath>
    <clipPath
       clipPathUnits="userSpaceOnUse"
       id="clipPath371">
      <path
         d="M 0,64 H 64 V 0 H 0 Z"
         transform="translate(-56.782201,-26.9747)"
         id="path371" />
    </clipPath>
    <clipPath
       clipPathUnits="userSpaceOnUse"
       id="clipPath373">
      <path
         d="M 0,64 H 64 V 0 H 0 Z"
         transform="translate(-46.117576,-19.530001)"
         id="path373" />
    </clipPath>
    <clipPath
       clipPathUnits="userSpaceOnUse"
       id="clipPath375">
      <path
         d="M 0,64 H 64 V 0 H 0 Z"
         transform="translate(-31.655026,-57.137001)"
         id="path375" />
    </clipPath>
    <clipPath
       clipPathUnits="userSpaceOnUse"
       id="clipPath377">
      <path
         d="M 0,64 H 64 V 0 H 0 Z"
         transform="translate(-5.2125001,-56.078901)"
         id="path377" />
    </clipPath>
    <clipPath
       clipPathUnits="userSpaceOnUse"
       id="clipPath379">
      <path
         d="M 0,64 H 64 V 0 H 0 Z"
         transform="translate(-52.469401,-5.8048001)"
         id="path379" />
    </clipPath>
    <clipPath
       clipPathUnits="userSpaceOnUse"
       id="clipPath381">
      <path
         d="M 0,64 H 64 V 0 H 0 Z"
         transform="translate(-7.5686252,-49.235601)"
         id="path381" />
    </clipPath>
    <clipPath
       clipPathUnits="userSpaceOnUse"
       id="clipPath383">
      <path
         d="M 0,64 H 64 V 0 H 0 Z"
         transform="translate(-7.5686252,-41.789801)"
         id="path383" />
    </clipPath>
    <clipPath
       clipPathUnits="userSpaceOnUse"
       id="clipPath385">
      <path
         d="M 0,64 H 64 V 0 H 0 Z"
         transform="translate(-17.175075,-35.403301)"
         id="path385" />
    </clipPath>
    <clipPath
       clipPathUnits="userSpaceOnUse"
       id="clipPath329">
      <path
         d="M 0,64 H 64 V 0 H 0 Z"
         transform="translate(-62.568427,-32.002901)"
         id="path329" />
    </clipPath>
    <clipPath
       clipPathUnits="userSpaceOnUse"
       id="clipPath331">
      <path
         d="M 0,64 H 64 V 0 H 0 Z"
         transform="translate(-54.336501,-32.005801)"
         id="path331" />
    </clipPath>
    <clipPath
       clipPathUnits="userSpaceOnUse"
       id="clipPath333">
      <path
         d="M 0,64 H 64 V 0 H 0 Z"
         transform="translate(-51.500301,-21.120301)"
         id="path333" />
    </clipPath>
    <clipPath
       clipPathUnits="userSpaceOnUse"
       id="clipPath335">
      <path
         d="M 0,64 H 64 V 0 H 0 Z"
         transform="translate(-44.368176,-37.731201)"
         id="path335" />
    </clipPath>
    <clipPath
       clipPathUnits="userSpaceOnUse"
       id="clipPath337">
      <path
         d="M 0,64 H 64 V 0 H 0 Z"
         transform="translate(-31.906176,-49.022901)"
         id="path337" />
    </clipPath>
    <clipPath
       clipPathUnits="userSpaceOnUse"
       id="clipPath339">
      <path
         d="M 0,64 H 64 V 0 H 0 Z"
         transform="translate(-42.806526,-29.531201)"
         id="path339" />
    </clipPath>
    <clipPath
       clipPathUnits="userSpaceOnUse"
       id="clipPath341">
      <path
         d="M 0,64 H 64 V 0 H 0 Z"
         transform="translate(-13.8401,-21.146801)"
         id="path341" />
    </clipPath>
    <clipPath
       clipPathUnits="userSpaceOnUse"
       id="clipPath343">
      <path
         d="M 0,64 H 64 V 0 H 0 Z"
         transform="translate(-31.906176,-49.022901)"
         id="path343" />
    </clipPath>
    <clipPath
       clipPathUnits="userSpaceOnUse"
       id="clipPath345">
      <path
         d="M 0,64 H 64 V 0 H 0 Z"
         transform="translate(-21.750026,-38.481901)"
         id="path345" />
    </clipPath>
    <clipPath
       clipPathUnits="userSpaceOnUse"
       id="clipPath347">
      <path
         d="M 0,64 H 64 V 0 H 0 Z"
         transform="translate(-53.023001,-23.693201)"
         id="path347" />
    </clipPath>
    <clipPath
       clipPathUnits="userSpaceOnUse"
       id="clipPath349">
      <path
         d="M 0,64 H 64 V 0 H 0 Z"
         transform="translate(-31.360376,-40.514201)"
         id="path349" />
    </clipPath>
    <clipPath
       clipPathUnits="userSpaceOnUse"
       id="clipPath351">
      <path
         d="M 0,64 H 64 V 0 H 0 Z"
         transform="translate(-33.048326,-39.593801)"
         id="path351" />
    </clipPath>
    <clipPath
       clipPathUnits="userSpaceOnUse"
       id="clipPath353">
      <path
         d="M 0,64 H 64 V 0 H 0 Z"
         transform="translate(-21.750026,-38.481901)"
         id="path353" />
    </clipPath>
    <clipPath
       clipPathUnits="userSpaceOnUse"
       id="clipPath355">
      <path
         d="M 0,64 H 64 V 0 H 0 Z"
         transform="translate(-31.952726,-2.2696001)"
         id="path355" />
    </clipPath>
    <clipPath
       clipPathUnits="userSpaceOnUse"
       id="clipPath357">
      <path
         d="M 0,64 H 64 V 0 H 0 Z"
         transform="translate(-19.233025,-2.5128003)"
         id="path357" />
    </clipPath>
    <clipPath
       clipPathUnits="userSpaceOnUse"
       id="clipPath359">
      <path
         d="M 0,64 H 64 V 0 H 0 Z"
         transform="translate(-44.833226,-2.5270998)"
         id="path359" />
    </clipPath>
    <clipPath
       clipPathUnits="userSpaceOnUse"
       id="clipPath361">
      <path
         d="M 0,64 H 64 V 0 H 0 Z"
         transform="translate(-20.982101,-23.642)"
         id="path361" />
    </clipPath>
    <clipPath
       clipPathUnits="userSpaceOnUse"
       id="clipPath363">
      <path
         d="M 0,64 H 64 V 0 H 0 Z"
         transform="translate(-37.002326,-23.6162)"
         id="path363" />
    </clipPath>
    <clipPath
       clipPathUnits="userSpaceOnUse"
       id="clipPath365">
      <path
         d="M 0,64 H 64 V 0 H 0 Z"
         transform="translate(-53.023001,-23.693201)"
         id="path365" />
    </clipPath>
  </defs>
  <g
     id="layer1">
    <path
       id="path344"
       d="m 0,0 c 1.208,0.944 2.357,1.807 3.463,2.722 0.477,0.395 0.98,0.592 1.585,0.619 1.148,0.051 2.277,0.253 3.387,0.538 2.978,0.766 5.684,2.037 7.771,4.379 2.699,3.029 2.724,6.839 0.094,9.92 -0.889,1.042 -1.935,1.901 -3.125,2.565 C 8.476,23.367 3.474,23.838 -1.71,22.692 -4.534,22.068 -7.1,20.895 -9.201,18.811 -12.53,15.509 -12.58,11.185 -9.283,7.85 -7.928,6.48 -6.314,5.507 -4.548,4.773 -3.259,4.238 -1.922,3.861 -0.542,3.632 0.409,3.475 0.731,2.981 0.51,2.048 0.357,1.402 0.19,0.759 0,0 M 9.61,2.032 C 8.438,1.861 7.297,1.455 6.112,1.434 5.158,1.418 4.482,0.981 3.793,0.412 2.235,-0.877 0.636,-2.115 -0.936,-3.386 c -0.425,-0.342 -0.861,-0.548 -1.363,-0.22 -0.489,0.319 -0.536,0.777 -0.386,1.323 0.319,1.163 0.585,2.341 0.893,3.507 0.105,0.395 0.044,0.552 -0.404,0.658 -3.321,0.788 -6.334,2.174 -8.732,4.684 -4.076,4.264 -3.764,10.079 0.749,14.075 2.649,2.346 5.797,3.613 9.233,4.263 0.683,0.129 1.393,0.101 2.051,0.364 h 4.006 c 0.992,-0.166 1.992,-0.295 2.974,-0.505 3.861,-0.826 7.275,-2.472 9.914,-5.505 0.157,-0.217 0.319,-0.432 0.471,-0.653 2.018,-2.948 2.388,-6.057 0.846,-9.319 C 18.394,7.337 16.917,5.857 15.163,4.642 13.459,3.462 11.574,2.662 9.61,2.032"
       style="fill:#4e4957;fill-opacity:1;fill-rule:nonzero;stroke:none"
       transform="matrix(0.25604479,0,0,-0.25604479,5.8764111,6.770672)"
       clip-path="url(#clipPath345)" />
    <path
       id="path346"
       d="m 0,0 c 0.003,2.763 -2.241,5.017 -4.995,5.017 -2.759,10e-4 -5.023,-2.257 -5.019,-5.003 0.005,-2.759 2.246,-5.006 5.006,-5.02 C -2.262,-5.02 -0.003,-2.761 0,0 m -16.021,-0.077 c 0.03,2.778 -2.175,5.061 -4.918,5.093 -2.769,0.033 -5.068,-2.189 -5.095,-4.925 -0.028,-2.795 2.206,-5.076 4.991,-5.097 2.721,-0.021 4.994,2.21 5.022,4.929 m -16.02,0.026 c 0.02,2.773 -2.198,5.046 -4.944,5.068 -2.766,0.022 -5.054,-2.212 -5.07,-4.951 -0.017,-2.791 2.231,-5.063 5.017,-5.072 2.719,-0.009 4.977,2.23 4.997,4.955 M -8.19,-21.166 c 4.998,-0.557 9.856,0.031 14.599,1.629 0.337,0.113 0.447,0.233 0.366,0.61 -0.357,1.646 -0.65,3.306 -1.016,4.95 -0.474,2.137 -1.648,3.832 -3.522,4.948 -2.689,1.602 -5.615,2.274 -8.745,1.877 -1.588,-0.201 -3.131,-0.574 -4.604,-1.328 1.309,-1.358 2.282,-2.882 2.706,-4.673 0.518,-2.185 0.924,-4.397 1.366,-6.599 0.112,-0.561 -0.114,-0.977 -0.647,-1.209 -0.166,-0.072 -0.335,-0.137 -0.503,-0.205 m -25.6,-0.014 c -0.072,0.027 -0.143,0.055 -0.215,0.083 -1.014,0.39 -1.145,0.624 -0.936,1.69 0.308,1.572 0.641,3.14 0.922,4.717 0.385,2.158 1.163,4.12 2.698,5.731 0.499,0.523 0.502,0.528 -0.18,0.807 -3.761,1.537 -7.501,1.435 -11.231,-0.123 -2.539,-1.06 -4.312,-2.828 -4.998,-5.524 -0.43,-1.686 -0.699,-3.413 -1.055,-5.118 -0.067,-0.323 -0.007,-0.48 0.332,-0.577 1.057,-0.303 2.091,-0.692 3.157,-0.956 3.774,-0.934 7.602,-1.178 11.506,-0.73 m 12.719,-0.243 c 3.889,-0.019 7.667,0.631 11.358,1.843 0.485,0.16 0.527,0.385 0.437,0.805 -0.299,1.404 -0.594,2.81 -0.857,4.222 -0.515,2.776 -2.016,4.804 -4.563,6.025 -3.85,1.847 -7.77,1.973 -11.746,0.415 -2.706,-1.061 -4.628,-2.869 -5.331,-5.758 -0.403,-1.657 -0.67,-3.347 -1.032,-5.015 -0.086,-0.398 0.016,-0.524 0.387,-0.65 3.681,-1.253 7.46,-1.894 11.347,-1.887 m -20.234,15.831 c -3.652,3.049 -3.42,7.789 -0.765,10.507 2.713,2.776 7.195,2.811 9.946,0.088 2.691,-2.664 3.05,-7.455 -0.66,-10.586 1.251,-0.38 2.444,-0.825 3.557,-1.457 0.153,-0.087 0.262,-0.055 0.4,0.021 1.11,0.608 2.283,1.065 3.519,1.422 -3.855,3.29 -3.199,8.09 -0.678,10.58 2.733,2.699 7.118,2.712 9.861,0.045 2.53,-2.46 3.26,-7.29 -0.625,-10.622 1.232,-0.359 2.41,-0.808 3.514,-1.431 0.178,-0.101 0.303,-0.068 0.457,0.017 1.098,0.603 2.257,1.058 3.529,1.416 -1.97,1.639 -2.943,3.697 -2.742,6.219 0.149,1.86 0.956,3.438 2.373,4.67 2.87,2.495 7.186,2.253 9.751,-0.518 2.475,-2.674 2.751,-7.302 -0.876,-10.362 0.969,-0.299 1.897,-0.621 2.785,-1.043 3.461,-1.645 5.347,-4.425 5.96,-8.161 0.266,-1.621 0.631,-3.226 0.952,-4.839 0.15,-0.751 -0.052,-1.128 -0.782,-1.402 -6.682,-2.504 -13.524,-3.071 -20.518,-1.652 -0.692,0.14 -1.319,-0.022 -1.965,-0.14 -4.71,-0.864 -9.412,-0.842 -14.099,0.144 -0.928,0.195 -1.773,-0.13 -2.642,-0.269 -6.498,-1.035 -12.828,-0.423 -18.999,1.852 -0.972,0.358 -1.117,0.629 -0.914,1.649 0.369,1.857 0.73,3.716 1.113,5.571 0.713,3.457 2.748,5.851 5.924,7.32 0.832,0.384 1.694,0.687 2.624,0.961"
       style="fill:#4e4957;fill-opacity:1;fill-rule:nonzero;stroke:none"
       transform="matrix(0.25604479,0,0,-0.25604479,13.883694,10.557242)"
       clip-path="url(#clipPath347)" />
    <path
       id="path348"
       d="m 0,0 c 1.964,0.63 3.849,1.43 5.552,2.61 1.755,1.215 3.231,2.695 4.153,4.644 1.543,3.262 1.173,6.37 -0.846,9.319 -0.151,0.221 -0.313,0.435 -0.471,0.653 0.748,0.002 1.495,0.005 2.243,0.007 0.113,-0.797 0.37,-1.042 1.146,-1.135 2.733,-0.328 5.276,-1.166 7.49,-2.849 1.621,-1.232 2.854,-2.756 3.257,-4.801 0.523,-2.653 -0.547,-4.767 -2.412,-6.545 -1.65,-1.574 -3.66,-2.5 -5.842,-3.087 -0.849,-0.229 -1.047,-0.511 -1.002,-1.382 0.036,-0.69 0.083,-1.38 0.133,-2.187 -1.421,0.923 -2.735,1.758 -4.027,2.624 -0.415,0.278 -0.85,0.424 -1.336,0.453 C 6.425,-1.579 4.865,-1.222 3.374,-0.62 2.703,-0.349 2.175,-0.395 1.688,-0.92 1.009,-0.826 0.494,-0.432 0,0"
       style="fill:#ffffff;fill-opacity:1;fill-rule:nonzero;stroke:none"
       transform="matrix(0.25604479,0,0,-0.25604479,8.337091,6.2503123)"
       clip-path="url(#clipPath349)" />
    <path
       id="path350"
       d="m 0,0 c 0.487,0.525 1.015,0.571 1.686,0.3 1.491,-0.601 3.051,-0.958 4.664,-1.055 0.486,-0.03 0.921,-0.175 1.337,-0.454 1.292,-0.866 2.605,-1.701 4.026,-2.623 -0.05,0.807 -0.097,1.496 -0.133,2.187 -0.045,0.871 0.153,1.153 1.002,1.381 2.182,0.587 4.192,1.514 5.842,3.087 1.865,1.779 2.935,3.892 2.412,6.546 -0.403,2.045 -1.635,3.569 -3.257,4.801 -2.214,1.682 -4.757,2.521 -7.49,2.849 -0.776,0.093 -1.032,0.338 -1.146,1.135 0.15,0.567 0.478,0.944 1.105,0.875 4.217,-0.461 7.987,-1.91 10.77,-5.25 3.305,-3.965 2.784,-8.984 -1.2,-12.579 -1.569,-1.416 -3.39,-2.4 -5.387,-3.054 -0.447,-0.147 -0.635,-0.286 -0.559,-0.803 0.143,-0.967 0.188,-1.949 0.282,-2.923 0.045,-0.468 -0.039,-0.879 -0.462,-1.146 -0.454,-0.286 -0.867,-0.141 -1.279,0.129 -1.686,1.11 -3.405,2.171 -5.054,3.333 C 6.47,-2.778 5.724,-2.766 4.977,-2.655 3.613,-2.452 2.288,-2.115 1.001,-1.624 0.012,-1.246 -0.111,-1.038 0,0"
       style="fill:#4e4957;fill-opacity:1;fill-rule:nonzero;stroke:none"
       transform="matrix(0.25604479,0,0,-0.25604479,8.7692824,6.4859755)"
       clip-path="url(#clipPath351)" />
    <path
       id="path352"
       d="m 0,0 c 0.19,0.759 0.357,1.402 0.51,2.048 0.221,0.933 -0.101,1.427 -1.052,1.584 -1.38,0.229 -2.717,0.606 -4.006,1.141 -1.766,0.734 -3.38,1.707 -4.735,3.077 -3.297,3.335 -3.247,7.659 0.082,10.961 2.101,2.084 4.667,3.257 7.491,3.881 5.184,1.146 10.186,0.675 14.885,-1.949 1.19,-0.664 2.236,-1.523 3.125,-2.565 2.63,-3.081 2.605,-6.891 -0.094,-9.92 C 14.119,5.916 11.413,4.645 8.435,3.879 7.325,3.594 6.196,3.392 5.048,3.341 4.443,3.314 3.94,3.117 3.463,2.722 2.357,1.807 1.208,0.944 0,0"
       style="fill:#697ee9;fill-opacity:1;fill-rule:nonzero;stroke:none"
       transform="matrix(0.25604479,0,0,-0.25604479,5.8764111,6.770672)"
       clip-path="url(#clipPath353)" />
    <path
       id="path354"
       d="m 0,0 c -3.888,-0.006 -7.667,0.634 -11.347,1.887 -0.372,0.127 -0.474,0.252 -0.387,0.651 0.362,1.668 0.628,3.357 1.031,5.014 0.704,2.889 2.625,4.698 5.331,5.758 3.976,1.558 7.896,1.432 11.746,-0.414 2.547,-1.222 4.048,-3.25 4.564,-6.025 C 11.2,5.459 11.495,4.053 11.795,2.649 11.884,2.228 11.842,2.003 11.358,1.844 7.666,0.632 3.889,-0.019 0,0"
       style="fill:#697ee9;fill-opacity:1;fill-rule:nonzero;stroke:none"
       transform="matrix(0.25604479,0,0,-0.25604479,8.4887592,16.042644)"
       clip-path="url(#clipPath355)" />
    <path
       id="path356"
       d="m 0,0 c -3.904,-0.447 -7.732,-0.204 -11.506,0.731 -1.066,0.264 -2.1,0.652 -3.157,0.955 -0.339,0.098 -0.399,0.254 -0.332,0.577 0.356,1.705 0.625,3.432 1.054,5.119 0.687,2.695 2.46,4.463 4.999,5.523 3.73,1.558 7.47,1.661 11.231,0.124 C 2.97,12.75 2.968,12.745 2.469,12.221 0.934,10.61 0.156,8.648 -0.229,6.49 -0.51,4.913 -0.843,3.346 -1.151,1.773 -1.36,0.707 -1.229,0.473 -0.215,0.083 -0.143,0.056 -0.072,0.028 0,0"
       style="fill:#f69f00;fill-opacity:1;fill-rule:nonzero;stroke:none"
       transform="matrix(0.25604479,0,0,-0.25604479,5.2319468,15.980374)"
       clip-path="url(#clipPath357)" />
    <path
       id="path358"
       d="m 0,0 c 0.168,0.068 0.337,0.133 0.502,0.205 0.534,0.232 0.76,0.648 0.647,1.209 -0.441,2.202 -0.848,4.414 -1.365,6.599 -0.424,1.791 -1.397,3.315 -2.706,4.674 1.473,0.753 3.016,1.126 4.603,1.327 3.131,0.397 6.056,-0.275 8.746,-1.877 1.874,-1.116 3.048,-2.811 3.522,-4.948 0.365,-1.644 0.659,-3.304 1.016,-4.95 C 15.046,1.862 14.936,1.742 14.598,1.629 9.856,0.031 4.998,-0.557 0,0"
       style="fill:#f69f00;fill-opacity:1;fill-rule:nonzero;stroke:none"
       transform="matrix(0.25604479,0,0,-0.25604479,11.786744,15.976712)"
       clip-path="url(#clipPath359)" />
    <path
       id="path360"
       d="m 0,0 c -0.02,-2.724 -2.278,-4.963 -4.997,-4.955 -2.786,0.009 -5.034,2.282 -5.017,5.072 0.016,2.739 2.304,4.973 5.069,4.951 C -2.198,5.046 0.02,2.773 0,0"
       style="fill:#ffffff;fill-opacity:1;fill-rule:nonzero;stroke:none"
       transform="matrix(0.25604479,0,0,-0.25604479,5.6797885,10.570352)"
       clip-path="url(#clipPath361)" />
    <path
       id="path362"
       d="m 0,0 c -0.029,-2.719 -2.301,-4.95 -5.022,-4.929 -2.785,0.021 -5.019,2.302 -4.991,5.097 0.027,2.736 2.325,4.958 5.095,4.925 C -2.176,5.061 0.029,2.778 0,0"
       style="fill:#ffffff;fill-opacity:1;fill-rule:nonzero;stroke:none"
       transform="matrix(0.25604479,0,0,-0.25604479,9.7816833,10.576957)"
       clip-path="url(#clipPath363)" />
    <path
       id="path364"
       d="m 0,0 c -0.003,-2.761 -2.262,-5.02 -5.008,-5.006 -2.76,0.014 -5.001,2.261 -5.006,5.02 -0.004,2.746 2.26,5.004 5.019,5.003 C -2.241,5.017 0.003,2.763 0,0"
       style="fill:#ffffff;fill-opacity:1;fill-rule:nonzero;stroke:none"
       transform="matrix(0.25604479,0,0,-0.25604479,13.883694,10.557242)"
       clip-path="url(#clipPath365)" />
  </g>
</svg>
