<?xml version="1.0" encoding="UTF-8" standalone="no"?>
<!-- Created with Inkscape (http://www.inkscape.org/) -->

<svg
   width="128"
   height="128"
   viewBox="0 0 33.866666 33.866666"
   version="1.1"
   id="svg1"
   xml:space="preserve"
   sodipodi:docname="icon_avatar.svg"
   inkscape:version="1.4.2 (1:1.4.2+202505120737+ebf0e940d0)"
   inkscape:export-filename="/var/www/aula-virtual/main/img/icons/128/unknown.png"
   inkscape:export-xdpi="96"
   inkscape:export-ydpi="96"
   xmlns:inkscape="http://www.inkscape.org/namespaces/inkscape"
   xmlns:sodipodi="http://sodipodi.sourceforge.net/DTD/sodipodi-0.dtd"
   xmlns="http://www.w3.org/2000/svg"
   xmlns:svg="http://www.w3.org/2000/svg"><sodipodi:namedview
     id="namedview1"
     pagecolor="#ffffff"
     bordercolor="#999999"
     borderopacity="1"
     inkscape:showpageshadow="2"
     inkscape:pageopacity="0"
     inkscape:pagecheckerboard="0"
     inkscape:deskcolor="#d1d1d1"
     inkscape:document-units="mm"
     inkscape:zoom="3.6183075"
     inkscape:cx="92.170166"
     inkscape:cy="79.595226"
     inkscape:window-width="1920"
     inkscape:window-height="963"
     inkscape:window-x="1920"
     inkscape:window-y="32"
     inkscape:window-maximized="1"
     inkscape:current-layer="layer1" /><defs
     id="defs1" /><g
     inkscape:label="Capa 1"
     inkscape:groupmode="layer"
     id="layer1"><g
       id="g1"><rect
         style="fill:#ffffff;stroke-width:0.146655;stroke-linecap:round;stroke-linejoin:round"
         id="rect1"
         width="33.866665"
         height="33.866665"
         x="0"
         y="0"
         ry="0" /><g
         id="g5"
         transform="matrix(2.5477064,0,0,2.5477064,-25.537712,-25.148898)"><path
           id="path5"
           style="fill:#697ee9;stroke-width:0.175495;stroke-linecap:round;stroke-linejoin:round"
           d="m 19.376052,13.288474 a 2.700824,2.700824 0 0 1 -2.700824,2.700824 2.700824,2.700824 0 0 1 -2.700824,-2.700824 2.700824,2.700824 0 0 1 2.700824,-2.700824 2.700824,2.700824 0 0 1 2.700824,2.700824 z" /><path
           style="fill:#697ee9;fill-opacity:1"
           d="m 12.167355,21.79541 c -0.746811,-0.74681 -0.712137,-2.558272 0.07142,-3.731185 0.889789,-1.331933 2.084369,-1.824242 4.426496,-1.824242 2.342128,0 3.536707,0.492309 4.426497,1.824242 0.783556,1.172913 0.81823,2.984375 0.07142,3.731185 -0.48213,0.48213 -0.881945,0.529167 -4.497917,0.529167 -3.615972,0 -4.015787,-0.04704 -4.497916,-0.529167 z"
           id="path2" /></g></g><path
       style="fill:#000000"
       id="path1"
       d="" /></g></svg>
