<?xml version="1.0" encoding="UTF-8" standalone="no"?>
<!-- Created with Inkscape (http://www.inkscape.org/) -->

<svg
   width="64"
   height="64"
   viewBox="0 0 16.933333 16.933333"
   version="1.1"
   id="svg1"
   inkscape:version="1.3.2 (1:1.3.2+202404261509+091e20ef0f)"
   sodipodi:docname="induccion.svg"
   xmlns:inkscape="http://www.inkscape.org/namespaces/inkscape"
   xmlns:sodipodi="http://sodipodi.sourceforge.net/DTD/sodipodi-0.dtd"
   xmlns="http://www.w3.org/2000/svg"
   xmlns:svg="http://www.w3.org/2000/svg">
  <sodipodi:namedview
     id="namedview1"
     pagecolor="#ffffff"
     bordercolor="#999999"
     borderopacity="1"
     inkscape:showpageshadow="2"
     inkscape:pageopacity="0"
     inkscape:pagecheckerboard="0"
     inkscape:deskcolor="#d1d1d1"
     inkscape:document-units="mm"
     inkscape:zoom="8.0227653"
     inkscape:cx="44.311405"
     inkscape:cy="36.895009"
     inkscape:window-width="1920"
     inkscape:window-height="995"
     inkscape:window-x="0"
     inkscape:window-y="0"
     inkscape:window-maximized="1"
     inkscape:current-layer="layer1" />
  <defs
     id="defs1">
    <clipPath
       clipPathUnits="userSpaceOnUse"
       id="clipPath163">
      <path
         d="M 0,1551 H 1920 V 0 H 0 Z"
         transform="translate(-413.19211,-1199.627)"
         id="path163" />
    </clipPath>
    <clipPath
       clipPathUnits="userSpaceOnUse"
       id="clipPath165">
      <path
         d="M 0,1551 H 1920 V 0 H 0 Z"
         transform="translate(-393.48691,-1195.5687)"
         id="path165" />
    </clipPath>
    <clipPath
       clipPathUnits="userSpaceOnUse"
       id="clipPath167">
      <path
         d="M 0,1551 H 1920 V 0 H 0 Z"
         transform="translate(-406.96929,-1185.5961)"
         id="path167" />
    </clipPath>
    <clipPath
       clipPathUnits="userSpaceOnUse"
       id="clipPath169">
      <path
         d="M 0,1551 H 1920 V 0 H 0 Z"
         transform="translate(-398.50178,-1191.5602)"
         id="path169" />
    </clipPath>
    <clipPath
       clipPathUnits="userSpaceOnUse"
       id="clipPath171">
      <path
         d="M 0,1551 H 1920 V 0 H 0 Z"
         transform="translate(-395.91511,-1189.7357)"
         id="path171" />
    </clipPath>
    <clipPath
       clipPathUnits="userSpaceOnUse"
       id="clipPath173">
      <path
         d="M 0,1551 H 1920 V 0 H 0 Z"
         transform="translate(-396.20168,-1186.5834)"
         id="path173" />
    </clipPath>
    <clipPath
       clipPathUnits="userSpaceOnUse"
       id="clipPath175">
      <path
         d="M 0,1551 H 1920 V 0 H 0 Z"
         transform="translate(-401.37511,-1190.2322)"
         id="path175" />
    </clipPath>
    <clipPath
       clipPathUnits="userSpaceOnUse"
       id="clipPath233">
      <path
         d="M 0,1551 H 1920 V 0 H 0 Z"
         transform="translate(-490.83279,-997.12343)"
         id="path233" />
    </clipPath>
    <clipPath
       clipPathUnits="userSpaceOnUse"
       id="clipPath235">
      <path
         d="M 0,1551 H 1920 V 0 H 0 Z"
         transform="translate(-471.88261,-1010.6091)"
         id="path235" />
    </clipPath>
    <clipPath
       clipPathUnits="userSpaceOnUse"
       id="clipPath237">
      <path
         d="M 0,1551 H 1920 V 0 H 0 Z"
         transform="translate(-471.88261,-1008.6112)"
         id="path237" />
    </clipPath>
    <clipPath
       clipPathUnits="userSpaceOnUse"
       id="clipPath239">
      <path
         d="M 0,1551 H 1920 V 0 H 0 Z"
         transform="translate(-471.88261,-1003.6165)"
         id="path239" />
    </clipPath>
    <clipPath
       clipPathUnits="userSpaceOnUse"
       id="clipPath241">
      <path
         d="M 0,1551 H 1920 V 0 H 0 Z"
         transform="translate(-471.88261,-1001.6187)"
         id="path241" />
    </clipPath>
    <clipPath
       clipPathUnits="userSpaceOnUse"
       id="clipPath243">
      <path
         d="M 0,1551 H 1920 V 0 H 0 Z"
         transform="translate(-484.44459,-1004.1837)"
         id="path243" />
    </clipPath>
    <clipPath
       clipPathUnits="userSpaceOnUse"
       id="clipPath245">
      <path
         d="M 0,1551 H 1920 V 0 H 0 Z"
         transform="translate(-489.16854,-1004.1837)"
         id="path245" />
    </clipPath>
    <clipPath
       clipPathUnits="userSpaceOnUse"
       id="clipPath247">
      <path
         d="M 0,1551 H 1920 V 0 H 0 Z"
         transform="translate(-488.98051,-1009.7336)"
         id="path247" />
    </clipPath>
    <clipPath
       clipPathUnits="userSpaceOnUse"
       id="clipPath249">
      <path
         d="M 0,1551 H 1920 V 0 H 0 Z"
         transform="translate(-486.36204,-1005.8689)"
         id="path249" />
    </clipPath>
  </defs>
  <g
     inkscape:label="Capa 1"
     inkscape:groupmode="layer"
     id="layer1">
    <path
       id="path232"
       d="M 0,0 H -21.947 V 16.482 H 0"
       style="fill:#697eea;fill-opacity:1;fill-rule:nonzero;stroke:none"
       transform="matrix(0.61752528,0,0,-0.61752528,14.971896,11.684078)"
       clip-path="url(#clipPath233)" />
    <path
       id="path234"
       d="M 0,0 H 6.993"
       style="fill:none;stroke:#ffffff;stroke-width:0.999;stroke-linecap:butt;stroke-linejoin:miter;stroke-miterlimit:4;stroke-dasharray:none;stroke-opacity:1"
       transform="matrix(0.61752528,0,0,-0.61752528,3.2696836,3.356319)"
       clip-path="url(#clipPath235)" />
    <path
       id="path236"
       d="M 0,0 H 4.495"
       style="fill:none;stroke:#ffffff;stroke-width:0.999;stroke-linecap:butt;stroke-linejoin:miter;stroke-miterlimit:4;stroke-dasharray:none;stroke-opacity:1"
       transform="matrix(0.61752528,0,0,-0.61752528,3.2696836,4.5900744)"
       clip-path="url(#clipPath237)" />
    <path
       id="path238"
       d="M 0,0 H 10.489"
       style="fill:none;stroke:#ffffff;stroke-width:0.999;stroke-linecap:butt;stroke-linejoin:miter;stroke-miterlimit:4;stroke-dasharray:none;stroke-opacity:1"
       transform="matrix(0.61752528,0,0,-0.61752528,3.2696836,7.6744279)"
       clip-path="url(#clipPath239)" />
    <path
       id="path240"
       d="M 0,0 H 8.598"
       style="fill:none;stroke:#ffffff;stroke-width:0.999;stroke-linecap:butt;stroke-linejoin:miter;stroke-miterlimit:4;stroke-dasharray:none;stroke-opacity:1"
       transform="matrix(0.61752528,0,0,-0.61752528,3.2696836,8.9081184)"
       clip-path="url(#clipPath241)" />
    <path
       id="path242"
       clip-path="url(#clipPath243)"
       style="fill:#0b2d4f;fill-opacity:1;fill-rule:nonzero;stroke:none"
       d="M 2.3426348 7.7433035 C 1.130636 7.7433035 0.14930067 6.7609681 0.14930067 5.5499693 C 0.14930067 4.3389705 1.130636 3.3566351 2.3426348 3.3566351 C 3.5536336 3.3566351 4.535969 4.3389705 4.535969 5.5499693 C 4.535969 6.7609681 3.5536336 7.7433035 2.3426348 7.7433035 z M -4.8214757 5.6637783 C -4.8838975 5.6657314 -4.9355185 5.6594548 -4.9712685 5.6462049 C -5.1982682 5.5622049 -5.455371 5.3747606 -5.1553713 4.981761 C -4.6983718 4.3847616 -3.087196 2.0573241 -0.2891988 0.49132565 C -0.11119898 0.39132575 0.0023447397 0.20510562 0.00034474171 0.00010582774 L -0.13605872 -13.150694 C -0.13905871 -13.457694 0.10908691 -13.70886 0.4170866 -13.70886 C 0.68208634 -13.70886 0.91118999 -13.519808 0.96018995 -13.257808 L 2.0740121 -6.7882676 C 2.0740121 -6.7882676 2.1031372 -6.5498518 2.3618819 -6.503745 C 2.6213095 -6.5495281 2.6497518 -6.7882676 2.6497518 -6.7882676 L 3.7635739 -13.257808 C 3.8125739 -13.519808 4.0406775 -13.70886 4.3066773 -13.70886 C 4.614677 -13.70886 4.8628226 -13.457694 4.8598226 -13.150694 L 4.7351348 -1.0819167 C 4.7383605 -1.0870462 4.7419611 -1.0918386 4.7451767 -1.0969797 C 5.6671758 -2.5719782 6.1472265 -3.4237009 6.591226 -4.3397 C 6.7902258 -4.7486995 7.1013227 -4.9885121 7.2523225 -5.0125121 C 7.4923223 -5.0505121 7.8076845 -5.0128023 7.7376845 -4.5238028 C 7.6316847 -3.7798035 7.3577942 -0.96564646 5.6907958 1.7733508 C 5.282548 2.4435036 4.493165 2.5735948 3.7033221 2.4386315 C 3.4184342 2.4328046 3.1450078 2.4348062 2.886575 2.4394683 C 2.8474182 2.4484031 2.8071528 2.4534291 2.7652345 2.4536944 C 1.9492353 2.4596944 0.48771277 2.7140556 -0.86828588 3.4570549 C -2.3942844 4.292054 -3.2299813 4.8007668 -4.0649805 5.3817663 C -4.3454802 5.5767661 -4.6342103 5.6579189 -4.8214757 5.6637783 z "
       transform="matrix(0.61752528,0,0,-0.61752528,11.027021,7.3241661)" />
  </g>
</svg>
