<?xml version="1.0" encoding="UTF-8" standalone="no"?>
<!-- Created with Inkscape (http://www.inkscape.org/) -->

<svg
   width="64"
   height="64"
   viewBox="0 0 16.933333 16.933333"
   version="1.1"
   id="svg1"
   xmlns="http://www.w3.org/2000/svg"
   xmlns:svg="http://www.w3.org/2000/svg">
  <defs
     id="defs1">
    <clipPath
       clipPathUnits="userSpaceOnUse"
       id="clipPath2">
      <path
         d="M 0,64 H 64 V 0 H 0 Z"
         transform="translate(-43.864601,-60.341702)"
         id="path2" />
    </clipPath>
    <clipPath
       clipPathUnits="userSpaceOnUse"
       id="clipPath4">
      <path
         d="M 0,64 H 64 V 0 H 0 Z"
         transform="translate(-4.9069001,-3.4228001)"
         id="path4" />
    </clipPath>
    <clipPath
       clipPathUnits="userSpaceOnUse"
       id="clipPath6">
      <path
         d="M 0,64 H 64 V 0 H 0 Z"
         transform="translate(-10.9624,-61.841502)"
         id="path6" />
    </clipPath>
    <clipPath
       clipPathUnits="userSpaceOnUse"
       id="clipPath8">
      <path
         d="M 0,64 H 64 V 0 H 0 Z"
         transform="translate(-1.7805,-9.0450005)"
         id="path8" />
    </clipPath>
    <clipPath
       clipPathUnits="userSpaceOnUse"
       id="clipPath10">
      <path
         d="M 0,64 H 64 V 0 H 0 Z"
         transform="translate(-43.864601,-13.2686)"
         id="path10" />
    </clipPath>
    <clipPath
       clipPathUnits="userSpaceOnUse"
       id="clipPath12">
      <path
         d="M 0,64 H 64 V 0 H 0 Z"
         transform="translate(-4.8754001,-3.4354998)"
         id="path12" />
    </clipPath>
    <clipPath
       clipPathUnits="userSpaceOnUse"
       id="clipPath14">
      <path
         d="M 0,64 H 64 V 0 H 0 Z"
         transform="translate(-39.009601,-45.100001)"
         id="path14" />
    </clipPath>
    <clipPath
       clipPathUnits="userSpaceOnUse"
       id="clipPath16">
      <path
         d="M 0,64 H 64 V 0 H 0 Z"
         transform="translate(-39.009801,-44.335201)"
         id="path16" />
    </clipPath>
    <clipPath
       clipPathUnits="userSpaceOnUse"
       id="clipPath18">
      <path
         d="M 0,64 H 64 V 0 H 0 Z"
         transform="translate(-39.009601,-41.651201)"
         id="path18" />
    </clipPath>
    <clipPath
       clipPathUnits="userSpaceOnUse"
       id="clipPath20">
      <path
         d="M 0,64 H 64 V 0 H 0 Z"
         transform="translate(-39.009801,-40.882301)"
         id="path20" />
    </clipPath>
    <clipPath
       clipPathUnits="userSpaceOnUse"
       id="clipPath22">
      <path
         d="M 0,64 H 64 V 0 H 0 Z"
         transform="translate(-46.731101,-23.680901)"
         id="path22" />
    </clipPath>
    <clipPath
       clipPathUnits="userSpaceOnUse"
       id="clipPath24">
      <path
         d="M 0,64 H 64 V 0 H 0 Z"
         transform="translate(-47.813701,-23.681)"
         id="path24" />
    </clipPath>
    <clipPath
       clipPathUnits="userSpaceOnUse"
       id="clipPath26">
      <path
         d="M 0,64 H 64 V 0 H 0 Z"
         transform="translate(-52.128202,-22.574)"
         id="path26" />
    </clipPath>
    <clipPath
       clipPathUnits="userSpaceOnUse"
       id="clipPath28">
      <path
         d="M 0,64 H 64 V 0 H 0 Z"
         transform="translate(-52.668502,-22.032601)"
         id="path28" />
    </clipPath>
    <clipPath
       clipPathUnits="userSpaceOnUse"
       id="clipPath30">
      <path
         d="M 0,64 H 64 V 0 H 0 Z"
         transform="translate(-43.864601,-7.4982004)"
         id="path30" />
    </clipPath>
    <clipPath
       clipPathUnits="userSpaceOnUse"
       id="clipPath32">
      <path
         d="M 0,64 H 64 V 0 H 0 Z"
         transform="translate(-15.145401,-61.841502)"
         id="path32" />
    </clipPath>
    <clipPath
       clipPathUnits="userSpaceOnUse"
       id="clipPath34">
      <path
         d="M 0,64 H 64 V 0 H 0 Z"
         transform="translate(-19.5354,-54.260001)"
         id="path34" />
    </clipPath>
    <clipPath
       clipPathUnits="userSpaceOnUse"
       id="clipPath232">
      <path
         d="M 0,64 H 64 V 0 H 0 Z"
         transform="translate(-52.876504,-36.941501)"
         id="path232" />
    </clipPath>
    <clipPath
       clipPathUnits="userSpaceOnUse"
       id="clipPath234">
      <path
         d="M 0,64 H 64 V 0 H 0 Z"
         transform="translate(-52.876504,-46.161501)"
         id="path234" />
    </clipPath>
    <clipPath
       clipPathUnits="userSpaceOnUse"
       id="clipPath236">
      <path
         d="M 0,64 H 64 V 0 H 0 Z"
         transform="translate(-7.9573002,-51.570801)"
         id="path236" />
    </clipPath>
    <clipPath
       clipPathUnits="userSpaceOnUse"
       id="clipPath238">
      <path
         d="M 0,64 H 64 V 0 H 0 Z"
         transform="translate(-52.876699,-35.949601)"
         id="path238" />
    </clipPath>
    <clipPath
       clipPathUnits="userSpaceOnUse"
       id="clipPath240">
      <path
         d="M 0,64 H 64 V 0 H 0 Z"
         transform="translate(-12.787203,-50.232401)"
         id="path240" />
    </clipPath>
    <clipPath
       clipPathUnits="userSpaceOnUse"
       id="clipPath242">
      <path
         d="M 0,64 H 64 V 0 H 0 Z"
         transform="translate(-10.238298,-56.522901)"
         id="path242" />
    </clipPath>
    <clipPath
       clipPathUnits="userSpaceOnUse"
       id="clipPath244">
      <path
         d="M 0,64 H 64 V 0 H 0 Z"
         transform="translate(-23.984403,-50.232401)"
         id="path244" />
    </clipPath>
    <clipPath
       clipPathUnits="userSpaceOnUse"
       id="clipPath246">
      <path
         d="M 0,64 H 64 V 0 H 0 Z"
         transform="translate(-21.435401,-56.522901)"
         id="path246" />
    </clipPath>
    <clipPath
       clipPathUnits="userSpaceOnUse"
       id="clipPath248">
      <path
         d="M 0,64 H 64 V 0 H 0 Z"
         transform="translate(-35.181498,-50.232401)"
         id="path248" />
    </clipPath>
    <clipPath
       clipPathUnits="userSpaceOnUse"
       id="clipPath250">
      <path
         d="M 0,64 H 64 V 0 H 0 Z"
         transform="translate(-32.632398,-56.522901)"
         id="path250" />
    </clipPath>
    <clipPath
       clipPathUnits="userSpaceOnUse"
       id="clipPath252">
      <path
         d="M 0,64 H 64 V 0 H 0 Z"
         transform="translate(-46.378601,-50.232401)"
         id="path252" />
    </clipPath>
    <clipPath
       clipPathUnits="userSpaceOnUse"
       id="clipPath254">
      <path
         d="M 0,64 H 64 V 0 H 0 Z"
         transform="translate(-43.830004,-56.522901)"
         id="path254" />
    </clipPath>
    <clipPath
       clipPathUnits="userSpaceOnUse"
       id="clipPath256">
      <path
         d="M 0,64 H 64 V 0 H 0 Z"
         transform="translate(-59.344399,-63.750002)"
         id="path256" />
    </clipPath>
    <clipPath
       clipPathUnits="userSpaceOnUse"
       id="clipPath258">
      <path
         d="M 0,64 H 64 V 0 H 0 Z"
         transform="translate(-61.576999,-48.317901)"
         id="path258" />
    </clipPath>
    <clipPath
       clipPathUnits="userSpaceOnUse"
       id="clipPath260">
      <path
         d="M 0,64 H 64 V 0 H 0 Z"
         transform="translate(-61.576999,-48.317901)"
         id="path260" />
    </clipPath>
    <clipPath
       clipPathUnits="userSpaceOnUse"
       id="clipPath262">
      <path
         d="M 0,64 H 64 V 0 H 0 Z"
         transform="translate(-51.309799,-52.521101)"
         id="path262" />
    </clipPath>
    <clipPath
       clipPathUnits="userSpaceOnUse"
       id="clipPath264">
      <path
         d="M 0,64 H 64 V 0 H 0 Z"
         transform="translate(-15.275598,-26.7149)"
         id="path264" />
    </clipPath>
    <clipPath
       clipPathUnits="userSpaceOnUse"
       id="clipPath266">
      <path
         d="M 0,64 H 64 V 0 H 0 Z"
         transform="translate(-12.030498,-31.059401)"
         id="path266" />
    </clipPath>
    <clipPath
       clipPathUnits="userSpaceOnUse"
       id="clipPath268">
      <path
         d="M 0,64 H 64 V 0 H 0 Z"
         transform="translate(-12.030498,-21.131401)"
         id="path268" />
    </clipPath>
    <clipPath
       clipPathUnits="userSpaceOnUse"
       id="clipPath270">
      <path
         d="M 0,64 H 64 V 0 H 0 Z"
         transform="translate(-12.030498,-11.2034)"
         id="path270" />
    </clipPath>
    <clipPath
       clipPathUnits="userSpaceOnUse"
       id="clipPath272">
      <path
         d="M 0,64 H 64 V 0 H 0 Z"
         transform="translate(-28.838501,-26.7149)"
         id="path272" />
    </clipPath>
    <clipPath
       clipPathUnits="userSpaceOnUse"
       id="clipPath274">
      <path
         d="M 0,64 H 64 V 0 H 0 Z"
         transform="translate(-25.593498,-31.059401)"
         id="path274" />
    </clipPath>
    <clipPath
       clipPathUnits="userSpaceOnUse"
       id="clipPath276">
      <path
         d="M 0,64 H 64 V 0 H 0 Z"
         transform="translate(-25.593498,-21.131401)"
         id="path276" />
    </clipPath>
    <clipPath
       clipPathUnits="userSpaceOnUse"
       id="clipPath278">
      <path
         d="M 0,64 H 64 V 0 H 0 Z"
         transform="translate(-25.593498,-11.2034)"
         id="path278" />
    </clipPath>
    <clipPath
       clipPathUnits="userSpaceOnUse"
       id="clipPath280">
      <path
         d="M 0,64 H 64 V 0 H 0 Z"
         transform="translate(-39.156401,-31.059401)"
         id="path280" />
    </clipPath>
    <clipPath
       clipPathUnits="userSpaceOnUse"
       id="clipPath282">
      <path
         d="M 0,64 H 64 V 0 H 0 Z"
         transform="translate(-39.156401,-21.131401)"
         id="path282" />
    </clipPath>
    <clipPath
       clipPathUnits="userSpaceOnUse"
       id="clipPath284">
      <path
         d="M 0,64 H 64 V 0 H 0 Z"
         transform="translate(-39.156401,-11.2034)"
         id="path284" />
    </clipPath>
    <clipPath
       clipPathUnits="userSpaceOnUse"
       id="clipPath36">
      <path
         d="M 0,64 H 64 V 0 H 0 Z"
         transform="translate(-58.047201,-9.2578002)"
         id="path36" />
    </clipPath>
    <clipPath
       clipPathUnits="userSpaceOnUse"
       id="clipPath38">
      <path
         d="M 0,64 H 64 V 0 H 0 Z"
         transform="translate(-54.817499,-4.6165001)"
         id="path38" />
    </clipPath>
    <clipPath
       clipPathUnits="userSpaceOnUse"
       id="clipPath40">
      <path
         d="M 0,64 H 64 V 0 H 0 Z"
         transform="translate(-62.633002,-49.093601)"
         id="path40" />
    </clipPath>
    <clipPath
       clipPathUnits="userSpaceOnUse"
       id="clipPath42">
      <path
         d="M 0,64 H 64 V 0 H 0 Z"
         transform="translate(-31.964203,-39.076301)"
         id="path42" />
    </clipPath>
    <clipPath
       clipPathUnits="userSpaceOnUse"
       id="clipPath44">
      <path
         d="M 0,64 H 64 V 0 H 0 Z"
         transform="translate(-58.789101,-8.1875)"
         id="path44" />
    </clipPath>
    <clipPath
       clipPathUnits="userSpaceOnUse"
       id="clipPath46">
      <path
         d="M 0,64 H 64 V 0 H 0 Z"
         transform="translate(-2.2343976,-49.859401)"
         id="path46" />
    </clipPath>
    <clipPath
       clipPathUnits="userSpaceOnUse"
       id="clipPath48">
      <path
         d="M 0,64 H 64 V 0 H 0 Z"
         transform="translate(-10.171903,-53.828102)"
         id="path48" />
    </clipPath>
    <clipPath
       clipPathUnits="userSpaceOnUse"
       id="clipPath50">
      <path
         d="M 0,64 H 64 V 0 H 0 Z"
         transform="translate(-16.124998,-53.828102)"
         id="path50" />
    </clipPath>
    <clipPath
       clipPathUnits="userSpaceOnUse"
       id="clipPath52">
      <path
         d="M 0,64 H 64 V 0 H 0 Z"
         transform="translate(-22.078101,-53.828102)"
         id="path52" />
    </clipPath>
    <clipPath
       clipPathUnits="userSpaceOnUse"
       id="clipPath54">
      <path
         d="M 0,64 H 64 V 0 H 0 Z"
         transform="translate(-54.820304,-4.2187001)"
         id="path54" />
    </clipPath>
    <clipPath
       clipPathUnits="userSpaceOnUse"
       id="clipPath56">
      <path
         d="M 0,64 H 64 V 0 H 0 Z"
         transform="translate(-32.000998,-8.1875)"
         id="path56" />
    </clipPath>
    <clipPath
       clipPathUnits="userSpaceOnUse"
       id="clipPath58">
      <path
         d="M 0,64 H 64 V 0 H 0 Z"
         transform="translate(-31.999003,-8.1875)"
         id="path58" />
    </clipPath>
    <clipPath
       clipPathUnits="userSpaceOnUse"
       id="clipPath60">
      <path
         d="M 0,64 H 64 V 0 H 0 Z"
         transform="translate(-32.000998,-4.2187001)"
         id="path60" />
    </clipPath>
    <clipPath
       clipPathUnits="userSpaceOnUse"
       id="clipPath62">
      <path
         d="M 0,64 H 64 V 0 H 0 Z"
         transform="translate(-31.999003,-4.2187001)"
         id="path62" />
    </clipPath>
    <clipPath
       clipPathUnits="userSpaceOnUse"
       id="clipPath64">
      <path
         d="M 0,64 H 64 V 0 H 0 Z"
         transform="translate(-32.000001,-4.2196999)"
         id="path64" />
    </clipPath>
    <clipPath
       clipPathUnits="userSpaceOnUse"
       id="clipPath66">
      <path
         d="M 0,64 H 64 V 0 H 0 Z"
         transform="translate(-25.054701,-35.968801)"
         id="path66" />
    </clipPath>
    <clipPath
       clipPathUnits="userSpaceOnUse"
       id="clipPath68">
      <path
         d="M 0,64 H 64 V 0 H 0 Z"
         transform="translate(-25.054701,-30.015601)"
         id="path68" />
    </clipPath>
    <clipPath
       clipPathUnits="userSpaceOnUse"
       id="clipPath70">
      <path
         d="M 0,64 H 64 V 0 H 0 Z"
         transform="translate(-25.054701,-24.062501)"
         id="path70" />
    </clipPath>
    <clipPath
       clipPathUnits="userSpaceOnUse"
       id="clipPath72">
      <path
         d="M 0,64 H 64 V 0 H 0 Z"
         transform="translate(-25.054701,-18.1094)"
         id="path72" />
    </clipPath>
    <clipPath
       clipPathUnits="userSpaceOnUse"
       id="clipPath74">
      <path
         d="M 0,64 H 64 V 0 H 0 Z"
         transform="translate(-46.882799,-35.968801)"
         id="path74" />
    </clipPath>
    <clipPath
       clipPathUnits="userSpaceOnUse"
       id="clipPath76">
      <path
         d="M 0,64 H 64 V 0 H 0 Z"
         transform="translate(-46.882799,-30.015601)"
         id="path76" />
    </clipPath>
    <clipPath
       clipPathUnits="userSpaceOnUse"
       id="clipPath78">
      <path
         d="M 0,64 H 64 V 0 H 0 Z"
         transform="translate(-46.882799,-24.062501)"
         id="path78" />
    </clipPath>
    <clipPath
       clipPathUnits="userSpaceOnUse"
       id="clipPath80">
      <path
         d="M 0,64 H 64 V 0 H 0 Z"
         transform="translate(-46.882799,-18.1094)"
         id="path80" />
    </clipPath>
    <clipPath
       clipPathUnits="userSpaceOnUse"
       id="clipPath82">
      <path
         d="M 0,64 H 64 V 0 H 0 Z"
         transform="translate(-55.685599,-43.178401)"
         id="path82" />
    </clipPath>
    <clipPath
       clipPathUnits="userSpaceOnUse"
       id="clipPath84">
      <path
         d="M 0,64 H 64 V 0 H 0 Z"
         transform="translate(-8.0628027,-53.329901)"
         id="path84" />
    </clipPath>
    <clipPath
       clipPathUnits="userSpaceOnUse"
       id="clipPath86">
      <path
         d="M 0,64 H 64 V 0 H 0 Z"
         transform="translate(-55.119604,-24.480901)"
         id="path86" />
    </clipPath>
    <clipPath
       clipPathUnits="userSpaceOnUse"
       id="clipPath88">
      <path
         d="M 0,64 H 64 V 0 H 0 Z"
         transform="translate(-44.898304,-48.549001)"
         id="path88" />
    </clipPath>
    <clipPath
       clipPathUnits="userSpaceOnUse"
       id="clipPath90">
      <path
         d="M 0,64 H 64 V 0 H 0 Z"
         transform="translate(-44.898304,-41.898301)"
         id="path90" />
    </clipPath>
    <clipPath
       clipPathUnits="userSpaceOnUse"
       id="clipPath92">
      <path
         d="M 0,64 H 64 V 0 H 0 Z"
         transform="translate(-52.835801,-43.905901)"
         id="path92" />
    </clipPath>
    <clipPath
       clipPathUnits="userSpaceOnUse"
       id="clipPath94">
      <path
         d="M 0,64 H 64 V 0 H 0 Z"
         transform="translate(-52.835801,-43.905901)"
         id="path94" />
    </clipPath>
    <clipPath
       clipPathUnits="userSpaceOnUse"
       id="clipPath96">
      <path
         d="M 0,64 H 64 V 0 H 0 Z"
         transform="translate(-31.999998,-45.890301)"
         id="path96" />
    </clipPath>
    <clipPath
       clipPathUnits="userSpaceOnUse"
       id="clipPath98">
      <path
         d="M 0,64 H 64 V 0 H 0 Z"
         transform="translate(-31.999998,-45.890301)"
         id="path98" />
    </clipPath>
    <clipPath
       clipPathUnits="userSpaceOnUse"
       id="clipPath100">
      <path
         d="M 0,64 H 64 V 0 H 0 Z"
         transform="translate(-31.999998,-33.984101)"
         id="path100" />
    </clipPath>
    <clipPath
       clipPathUnits="userSpaceOnUse"
       id="clipPath102">
      <path
         d="M 0,64 H 64 V 0 H 0 Z"
         transform="translate(-31.999998,-0.99030027)"
         id="path102" />
    </clipPath>
  </defs>
  <g
     id="layer1">
    <g
       id="g1"
       transform="translate(1.5061403)">
      <path
         id="path81"
         d="m 0,0 c 0,-1.276 -1.034,-2.31 -2.31,-2.31 -1.275,0 -2.309,1.034 -2.309,2.31 0,1.276 1.034,2.31 2.309,2.31 C -1.034,2.31 0,1.276 0,0"
         style="fill:#f69f00;fill-opacity:1;fill-rule:nonzero;stroke:none"
         transform="matrix(0.25904373,0,0,-0.25904373,13.257222,5.6292177)"
         clip-path="url(#clipPath82)" />
      <path
         id="path83"
         d="m 0,0 10.356,-3.484 v -6.484 c 0,0 7.468,4.041 14.573,3.521 0,0 9.719,-1.295 11.751,-4.102 v 7.065 L 48.294,0.29 23.711,9.581 Z"
         style="fill:#697ee9;fill-opacity:1;fill-rule:nonzero;stroke:none"
         transform="matrix(0.25904373,0,0,-0.25904373,0.9208353,2.9995356)"
         clip-path="url(#clipPath84)" />
      <path
         id="path85"
         d="m 0,0 c 0,-12.698 -10.294,-22.991 -22.991,-22.991 -12.698,0 -22.991,10.293 -22.991,22.991 0,12.698 10.293,22.991 22.991,22.991 C -10.294,22.991 0,12.698 0,0"
         style="fill:#ffffff;fill-opacity:1;fill-rule:nonzero;stroke:none"
         transform="matrix(0.25904373,0,0,-0.25904373,13.110605,10.472688)"
         clip-path="url(#clipPath86)" />
      <path
         id="path87"
         d="m 0,0 c -0.407,0 -0.789,0.252 -0.934,0.656 -0.186,0.515 0.083,1.084 0.599,1.269 l 9.311,3.354 -21.874,7.875 -21.876,-7.875 9.314,-3.354 c 0.515,-0.185 0.782,-0.754 0.596,-1.269 -0.186,-0.515 -0.751,-0.784 -1.269,-0.597 l -11.906,4.287 c -0.393,0.141 -0.656,0.514 -0.656,0.933 0,0.418 0.263,0.791 0.656,0.933 l 24.804,8.929 c 0.217,0.08 0.456,0.08 0.673,0 L 12.241,6.212 C 12.637,6.07 12.898,5.697 12.898,5.279 12.898,4.86 12.637,4.487 12.241,4.346 L 0.335,0.059 C 0.225,0.018 0.112,0 0,0"
         style="fill:#4e4957;fill-opacity:1;fill-rule:nonzero;stroke:none"
         transform="matrix(0.25904373,0,0,-0.25904373,10.462841,4.2379977)"
         clip-path="url(#clipPath88)" />
      <path
         id="path89"
         d="m 0,0 c -0.548,0 -0.992,0.444 -0.992,0.992 v 8.099 c -6.998,3.792 -16.816,3.79 -23.813,0 V 0.992 C -24.805,0.444 -25.248,0 -25.797,0 c -0.548,0 -0.992,0.444 -0.992,0.992 v 8.681 c 0,0.353 0.189,0.681 0.495,0.858 7.761,4.496 19.029,4.494 26.792,0 0.306,-0.177 0.494,-0.505 0.494,-0.858 V 0.992 C 0.992,0.444 0.548,0 0,0"
         style="fill:#4e4957;fill-opacity:1;fill-rule:nonzero;stroke:none"
         transform="matrix(0.25904373,0,0,-0.25904373,10.462841,5.9608198)"
         clip-path="url(#clipPath90)" />
      <path
         id="path91"
         d="m 0,0 c -0.546,0 -0.992,-0.445 -0.992,-0.992 0,-0.548 0.446,-0.992 0.992,-0.992 0.546,0 0.992,0.444 0.992,0.992 C 0.992,-0.445 0.546,0 0,0 m 0,-3.969 c -1.641,0 -2.977,1.335 -2.977,2.977 0,1.641 1.336,2.976 2.977,2.976 1.641,0 2.977,-1.335 2.977,-2.976 0,-1.642 -1.336,-2.977 -2.977,-2.977"
         style="fill:#4e4957;fill-opacity:1;fill-rule:nonzero;stroke:none"
         transform="matrix(0.25904373,0,0,-0.25904373,12.519,5.4407633)"
         clip-path="url(#clipPath92)" />
      <path
         id="path93"
         d="m 0,0 c -0.548,0 -0.992,0.444 -0.992,0.992 v 9.442 c 0,0.549 0.444,0.993 0.992,0.993 0.548,0 0.992,-0.444 0.992,-0.993 V 0.992 C 0.992,0.444 0.548,0 0,0"
         style="fill:#4e4957;fill-opacity:1;fill-rule:nonzero;stroke:none"
         transform="matrix(0.25904373,0,0,-0.25904373,12.519,5.4407633)"
         clip-path="url(#clipPath94)" />
      <path
         id="path95"
         d="m 0,0 c -12.036,0 -21.828,-9.792 -21.828,-21.828 0,-12.036 9.792,-21.828 21.828,-21.828 12.036,0 21.828,9.792 21.828,21.828 C 21.828,-9.792 12.036,0 0,0 m 0,-45.64 c -13.13,0 -23.812,10.681 -23.812,23.812 0,13.13 10.682,23.812 23.812,23.812 13.131,0 23.812,-10.682 23.812,-23.812 C 23.812,-34.959 13.131,-45.64 0,-45.64"
         style="fill:#4e4957;fill-opacity:1;fill-rule:nonzero;stroke:none"
         transform="matrix(0.25904373,0,0,-0.25904373,7.1216156,4.926717)"
         clip-path="url(#clipPath96)" />
      <path
         id="path97"
         d="m 0,0 c -5.379,0 -9.922,-9.996 -9.922,-21.828 0,-11.832 4.543,-21.828 9.922,-21.828 5.378,0 9.922,9.996 9.922,21.828 C 9.922,-9.996 5.378,0 0,0 m 0,-45.64 c -6.676,0 -11.906,10.46 -11.906,23.812 0,13.353 5.23,23.812 11.906,23.812 6.676,0 11.906,-10.459 11.906,-23.812 C 11.906,-35.18 6.676,-45.64 0,-45.64"
         style="fill:#4e4957;fill-opacity:1;fill-rule:nonzero;stroke:none"
         transform="matrix(0.25904373,0,0,-0.25904373,7.1216156,4.926717)"
         clip-path="url(#clipPath98)" />
      <path
         id="path99"
         d="m 0,0 c -11.832,0 -21.828,-4.544 -21.828,-9.922 0,-5.377 9.996,-9.922 21.828,-9.922 11.833,0 21.828,4.545 21.828,9.922 C 21.828,-4.544 11.833,0 0,0 m 0,-21.828 c -13.353,0 -23.812,5.23 -23.812,11.906 0,6.676 10.459,11.906 23.812,11.906 13.352,0 23.812,-5.23 23.812,-11.906 0,-6.676 -10.46,-11.906 -23.812,-11.906"
         style="fill:#4e4957;fill-opacity:1;fill-rule:nonzero;stroke:none"
         transform="matrix(0.25904373,0,0,-0.25904373,7.1216156,8.0109439)"
         clip-path="url(#clipPath100)" />
      <path
         id="path101"
         d="m 0,0 c -0.548,0 -0.992,0.444 -0.992,0.992 v 44.9 c 0,0.549 0.444,0.992 0.992,0.992 0.548,0 0.992,-0.443 0.992,-0.992 V 0.992 C 0.992,0.444 0.548,0 0,0"
         style="fill:#4e4957;fill-opacity:1;fill-rule:nonzero;stroke:none"
         transform="matrix(0.25904373,0,0,-0.25904373,7.1216156,16.557781)"
         clip-path="url(#clipPath102)" />
    </g>
  </g>
</svg>
