<?xml version="1.0" encoding="UTF-8" standalone="no"?>
<svg
   height="512px"
   style="enable-background:new 0 0 512 512;"
   version="1.1"
   viewBox="0 0 512 512"
   width="512px"
   xml:space="preserve"
   id="svg5"
   sodipodi:docname="locked_icon.svg"
   inkscape:version="1.4.2 (1:1.4.2+202505120737+ebf0e940d0)"
   xmlns:inkscape="http://www.inkscape.org/namespaces/inkscape"
   xmlns:sodipodi="http://sodipodi.sourceforge.net/DTD/sodipodi-0.dtd"
   xmlns="http://www.w3.org/2000/svg"
   xmlns:svg="http://www.w3.org/2000/svg"><defs
     id="defs5" /><sodipodi:namedview
     id="namedview5"
     pagecolor="#ffffff"
     bordercolor="#999999"
     borderopacity="1"
     inkscape:showpageshadow="2"
     inkscape:pageopacity="0"
     inkscape:pagecheckerboard="0"
     inkscape:deskcolor="#d1d1d1"
     inkscape:zoom="0.77929688"
     inkscape:cx="255.3584"
     inkscape:cy="263.05764"
     inkscape:window-width="1920"
     inkscape:window-height="1043"
     inkscape:window-x="1920"
     inkscape:window-y="0"
     inkscape:window-maximized="1"
     inkscape:current-layer="svg5" /><g
     id="_x31_61_x2C__Twitter_x2C__Lock_x2C__Locked"
     transform="matrix(1.2457149,0,0,1.2457149,-63.88553,-62.411143)"><g
       id="g5"><g
         id="g2"><g
           id="g1"><path
             d="M 360,228.999 H 160 c -5.523,0 -10,-4.477 -10,-10 v -30 c 0,-60.654 49.346,-110 110,-110 29.393,0 57.017,11.443 77.783,32.221 20.774,20.762 32.217,48.386 32.217,77.779 v 30 c 0,5.522 -4.478,10 -10,10 z m -190,-20 h 180 v -20 c 0,-24.048 -9.361,-46.648 -26.359,-63.637 C 306.648,108.36 284.049,98.999 260,98.999 c -49.626,0 -90,40.374 -90,90 z"
             style="fill:#d7deed;fill-opacity:1"
             id="path1" /></g></g><polygon
         points="160,199 110,199 110,429 410,429 410,199 360,199 "
         style="fill:#d7deed"
         id="polygon2" /><g
         id="g3"><circle
           cx="260"
           cy="308.99799"
           r="30"
           style="fill:#707487"
           id="circle2" /></g><g
         id="g4"><path
           d="m 260,378.998 c -5.523,0 -10,-4.477 -10,-10 v -30 c 0,-5.521 4.477,-10 10,-10 5.522,0 10,4.479 10,10 v 30 c 0,5.523 -4.478,10 -10,10 z"
           style="fill:#707487"
           id="path3" /></g></g></g><g
     id="Layer_1" /></svg>
