<?xml version="1.0" encoding="UTF-8" standalone="no"?>
<svg
   id="Capa_2"
   data-name="Capa 2"
   viewBox="0 0 160 44.999999"
   version="1.1"
   sodipodi:docname="logo-educhile.svg"
   width="160"
   height="45"
   inkscape:version="1.4.1 (1:1.4.1+202503302257+93de688d07)"
   xmlns:inkscape="http://www.inkscape.org/namespaces/inkscape"
   xmlns:sodipodi="http://sodipodi.sourceforge.net/DTD/sodipodi-0.dtd"
   xmlns="http://www.w3.org/2000/svg"
   xmlns:svg="http://www.w3.org/2000/svg">
  <sodipodi:namedview
     id="namedview18"
     pagecolor="#ffffff"
     bordercolor="#999999"
     borderopacity="1"
     inkscape:showpageshadow="2"
     inkscape:pageopacity="0"
     inkscape:pagecheckerboard="0"
     inkscape:deskcolor="#d1d1d1"
     inkscape:zoom="4.528698"
     inkscape:cx="94.397992"
     inkscape:cy="11.040701"
     inkscape:window-width="1920"
     inkscape:window-height="1043"
     inkscape:window-x="0"
     inkscape:window-y="0"
     inkscape:window-maximized="1"
     inkscape:current-layer="Capa_2" />
  <defs
     id="defs1">
    <style
       id="style1">      .cls-1 {        fill: #6e80ea;      }      .cls-2 {        fill: #4e4957;      }    </style>
  </defs>
  <g
     id="Capa_1-2"
     data-name="Capa 1"
     transform="matrix(0.77727781,0,0,0.77727781,4.0957909,4.0901751)">
    <g
       id="g18">
      <g
         id="g2">
        <path
           class="cls-1"
           d="M 51.61,32.48 H 10.08 C 5,32.48 0.55,28.77 0.05,23.77 -0.19,21.36 0.46,19.11 1.72,17.29 L 2.53,16.19 12.62,4.16 C 14.65,1.54 17.81,0 21.13,0 c 0.07,0 0.14,0 0.21,0 h 40.1 c 1.11,0.03 2.1,0.83 2.3,1.98 0.12,0.68 -0.1,1.38 -0.53,1.93 -1.53,1.93 -7.03,8.86 -9.64,12.15 -0.88,1.11 -2.22,1.75 -3.64,1.75 H 9.92 c -2.35,0 -4.5,1.54 -5.02,3.82 -0.74,3.24 1.74,6.13 4.88,6.13 h 40.66 c 0.86,0 1.67,-0.4 2.2,-1.07 l 9.35,-12 c 0.72,-0.92 2.01,-1.3 3.05,-0.76 1.36,0.7 1.69,2.4 0.8,3.55 L 55.7,30.5 c -0.98,1.26 -2.49,1.99 -4.09,1.99 z"
           id="path1" />
        <path
           class="cls-1"
           d="M 53.69,47.15 H 10.11 c -5.03,0 -9.49,-3.63 -10.05,-8.59 -0.65,-5.8 3.88,-10.73 9.58,-10.81 1.21,-0.02 2.34,0.84 2.5,2.04 0.2,1.46 -0.96,2.71 -2.4,2.69 -1.52,-0.02 -3.05,0.47 -3.9,1.72 -2.71,3.98 0.13,8.23 3.94,8.23 h 42.7 c 0.88,0 1.72,-0.42 2.24,-1.12 l 8.93,-11.8 c 0.7,-0.95 2.01,-1.35 3.07,-0.82 1.35,0.68 1.71,2.36 0.85,3.51 l -9.72,12.87 c -0.97,1.31 -2.52,2.09 -4.16,2.09 z"
           id="path2" />
      </g>
      <g
         id="g17">
        <g
           id="g11">
          <path
             class="cls-2"
             d="m 92.81,15.13 v 3.28 H 83.33 V 1.26 h 9.26 V 4.54 H 86.93 V 7.5 h 5.06 v 3.21 h -5.06 v 4.41 h 5.88 z"
             id="path3" />
          <path
             class="cls-2"
             d="m 107.71,0.04 v 18.37 h -3.26 v -1.49 c -0.95,1.19 -2.31,1.79 -4.08,1.79 -1.63,0 -3.01,-0.58 -4.14,-1.74 -1.13,-1.16 -1.69,-2.59 -1.69,-4.29 0,-1.7 0.56,-3.13 1.69,-4.29 1.13,-1.16 2.51,-1.74 4.14,-1.74 1.76,0 3.12,0.6 4.08,1.79 v -8.4 z m -4.3,14.87 c 0.64,-0.57 0.96,-1.31 0.96,-2.23 0,-0.92 -0.32,-1.65 -0.95,-2.22 -0.63,-0.56 -1.41,-0.85 -2.33,-0.85 -0.92,0 -1.7,0.28 -2.33,0.85 -0.63,0.56 -0.95,1.3 -0.95,2.22 0,0.92 0.32,1.65 0.95,2.22 0.63,0.56 1.41,0.85 2.33,0.85 0.92,0 1.7,-0.28 2.32,-0.83 z"
             id="path4" />
          <path
             class="cls-2"
             d="m 110.6,6.95 h 3.26 v 6.76 c 0,0.65 0.19,1.18 0.58,1.58 0.39,0.4 0.88,0.6 1.49,0.6 0.61,0 1.11,-0.2 1.49,-0.6 0.39,-0.4 0.58,-0.93 0.58,-1.58 V 6.95 h 3.26 V 18.41 H 118 v -1.22 c -0.87,1.01 -2,1.52 -3.38,1.52 -1.14,0 -2.09,-0.39 -2.87,-1.16 -0.77,-0.78 -1.16,-1.8 -1.16,-3.07 V 6.95 Z"
             id="path5" />
          <path
             class="cls-2"
             d="m 129.79,6.65 c 1.88,0 3.47,0.68 4.79,2.03 l -2.35,2.01 c -0.59,-0.72 -1.4,-1.08 -2.42,-1.08 -0.84,0 -1.56,0.29 -2.16,0.87 -0.6,0.58 -0.9,1.31 -0.9,2.19 0,0.88 0.3,1.61 0.9,2.19 0.6,0.58 1.32,0.87 2.16,0.87 1.02,0 1.83,-0.36 2.42,-1.08 l 2.35,2.01 c -1.32,1.36 -2.91,2.03 -4.79,2.03 -1.75,0 -3.24,-0.58 -4.47,-1.75 -1.23,-1.17 -1.85,-2.59 -1.85,-4.27 0,-1.68 0.62,-3.11 1.85,-4.27 1.23,-1.17 2.72,-1.75 4.47,-1.75 z"
             id="path6" />
          <path
             class="cls-2"
             d="m 148.78,6.95 v 11.46 h -3.26 v -1.49 c -0.95,1.19 -2.31,1.79 -4.08,1.79 -1.63,0 -3.01,-0.58 -4.14,-1.74 -1.13,-1.16 -1.69,-2.59 -1.69,-4.29 0,-1.7 0.56,-3.13 1.69,-4.29 1.13,-1.16 2.51,-1.74 4.14,-1.74 1.76,0 3.12,0.6 4.08,1.79 V 6.95 Z m -4.3,7.96 c 0.64,-0.57 0.96,-1.31 0.96,-2.23 0,-0.92 -0.32,-1.65 -0.95,-2.22 -0.63,-0.56 -1.41,-0.85 -2.33,-0.85 -0.92,0 -1.7,0.28 -2.33,0.85 -0.63,0.56 -0.95,1.3 -0.95,2.22 0,0.92 0.32,1.65 0.95,2.22 0.63,0.56 1.41,0.85 2.33,0.85 0.92,0 1.7,-0.28 2.32,-0.83 z"
             id="path7" />
          <path
             class="cls-2"
             d="m 157.3,6.65 c 1.88,0 3.47,0.68 4.79,2.03 l -2.35,2.01 c -0.59,-0.72 -1.4,-1.08 -2.42,-1.08 -0.84,0 -1.56,0.29 -2.16,0.87 -0.6,0.58 -0.9,1.31 -0.9,2.19 0,0.88 0.3,1.61 0.9,2.19 0.6,0.58 1.32,0.87 2.16,0.87 1.02,0 1.83,-0.36 2.42,-1.08 l 2.35,2.01 c -1.32,1.36 -2.91,2.03 -4.79,2.03 -1.75,0 -3.24,-0.58 -4.47,-1.75 -1.23,-1.17 -1.85,-2.59 -1.85,-4.27 0,-1.68 0.62,-3.11 1.85,-4.27 1.23,-1.17 2.72,-1.75 4.47,-1.75 z"
             id="path8" />
          <path
             class="cls-2"
             d="m 167.11,3.96 c -0.4,0.38 -0.86,0.56 -1.41,0.56 -0.55,0 -1.01,-0.19 -1.41,-0.58 -0.4,-0.38 -0.59,-0.85 -0.59,-1.38 0,-0.53 0.2,-1 0.59,-1.38 0.4,-0.38 0.86,-0.58 1.41,-0.58 0.55,0 1.01,0.19 1.41,0.58 0.39,0.38 0.59,0.85 0.59,1.38 0,0.53 -0.2,1 -0.59,1.4 z m 0.22,2.99 v 11.46 h -3.26 V 6.95 Z"
             id="path9" />
          <path
             class="cls-2"
             d="m 171.5,16.96 c -1.23,-1.16 -1.85,-2.59 -1.85,-4.29 0,-1.7 0.62,-3.13 1.85,-4.29 1.23,-1.16 2.75,-1.74 4.54,-1.74 1.79,0 3.31,0.58 4.54,1.74 1.23,1.16 1.85,2.59 1.85,4.29 0,1.7 -0.62,3.13 -1.85,4.29 -1.23,1.16 -2.75,1.74 -4.54,1.74 -1.79,0 -3.31,-0.58 -4.54,-1.74 z m 2.32,-6.47 c -0.61,0.59 -0.91,1.31 -0.91,2.18 0,0.87 0.31,1.59 0.93,2.18 0.62,0.59 1.35,0.88 2.21,0.88 0.86,0 1.59,-0.29 2.21,-0.88 0.62,-0.59 0.93,-1.31 0.93,-2.18 0,-0.87 -0.31,-1.59 -0.93,-2.18 -0.62,-0.59 -1.35,-0.88 -2.21,-0.88 -0.86,0 -1.6,0.29 -2.22,0.88 z m 3.83,-9.97 1.51,1.69 -3.8,3.26 -1.48,-1.67 3.78,-3.28 z"
             id="path10" />
          <path
             class="cls-2"
             d="m 195.31,18.41 h -3.26 v -6.76 c 0,-0.65 -0.19,-1.18 -0.58,-1.58 -0.39,-0.4 -0.89,-0.6 -1.49,-0.6 -0.6,0 -1.11,0.2 -1.49,0.6 -0.39,0.4 -0.58,0.93 -0.58,1.58 v 6.76 h -3.26 V 6.95 h 3.26 v 1.22 c 0.87,-1.01 2,-1.52 3.38,-1.52 1.14,0 2.09,0.39 2.86,1.16 0.77,0.78 1.16,1.8 1.16,3.07 v 7.52 z"
             id="path11" />
        </g>
        <g
           id="g16">
          <path
             class="cls-1"
             d="m 92.84,24.91 c 3.5,0 6.41,1.22 8.72,3.66 l -3.31,2.79 c -1.42,-1.53 -3.19,-2.29 -5.31,-2.29 -1.98,0 -3.65,0.68 -5.02,2.03 -1.36,1.35 -2.05,3.03 -2.05,5.04 0,2.01 0.68,3.68 2.05,5.04 1.36,1.35 3.04,2.03 5.02,2.03 2.12,0 3.9,-0.76 5.31,-2.29 l 3.31,2.79 c -2.31,2.44 -5.22,3.66 -8.72,3.66 -3.15,0 -5.85,-1.07 -8.13,-3.22 -2.27,-2.15 -3.41,-4.81 -3.41,-8 0,-3.19 1.14,-5.85 3.41,-8 2.27,-2.15 4.98,-3.22 8.13,-3.22 z"
             id="path12" />
          <path
             class="cls-1"
             d="m 118.19,46.98 h -4.12 v -8.55 c 0,-0.83 -0.25,-1.49 -0.73,-2 -0.49,-0.51 -1.12,-0.76 -1.89,-0.76 -0.77,0 -1.4,0.25 -1.89,0.76 -0.49,0.51 -0.73,1.17 -0.73,2 v 8.55 H 104.7 V 23.74 h 4.13 v 10.29 c 1.1,-1.28 2.53,-1.92 4.28,-1.92 1.44,0 2.65,0.49 3.63,1.47 0.98,0.98 1.47,2.28 1.47,3.89 v 9.52 z"
             id="path13" />
          <path
             class="cls-1"
             d="m 126.19,28.7 c -0.5,0.48 -1.09,0.71 -1.78,0.71 -0.69,0 -1.28,-0.24 -1.78,-0.73 -0.5,-0.49 -0.75,-1.07 -0.75,-1.75 0,-0.68 0.25,-1.27 0.75,-1.75 0.5,-0.49 1.09,-0.73 1.78,-0.73 0.69,0 1.28,0.24 1.78,0.73 0.5,0.49 0.75,1.07 0.75,1.75 0,0.68 -0.25,1.27 -0.75,1.77 z m 0.28,3.78 v 14.51 h -4.12 V 32.48 Z"
             id="path14" />
          <path
             class="cls-1"
             d="m 135,23.74 v 23.25 h -4.12 V 23.74 Z"
             id="path15" />
          <path
             class="cls-1"
             d="m 146.5,43.6 c 1.46,0 2.62,-0.59 3.5,-1.77 l 3.34,2.14 c -1.67,2.25 -3.95,3.38 -6.84,3.38 -2.29,0 -4.22,-0.73 -5.78,-2.19 -1.56,-1.46 -2.34,-3.27 -2.34,-5.44 0,-2.17 0.77,-3.96 2.31,-5.42 1.54,-1.47 3.42,-2.2 5.62,-2.2 2.2,0 3.99,0.74 5.53,2.22 1.54,1.48 2.32,3.3 2.34,5.47 0,0.45 -0.03,0.84 -0.09,1.15 h -11.41 c 0.25,0.86 0.72,1.52 1.41,1.98 0.69,0.46 1.49,0.69 2.41,0.69 z m -3.72,-5.61 h 7.31 c -0.21,-0.7 -0.65,-1.26 -1.33,-1.66 -0.68,-0.4 -1.46,-0.6 -2.36,-0.6 -0.79,0 -1.53,0.21 -2.2,0.62 -0.68,0.41 -1.15,0.96 -1.42,1.64 z"
             id="path16" />
        </g>
      </g>
    </g>
  </g>
</svg>
