<?xml version="1.0" encoding="UTF-8" standalone="no"?>
<!-- Created with Inkscape (http://www.inkscape.org/) -->

<svg
   width="64"
   height="64"
   viewBox="0 0 16.933333 16.933333"
   version="1.1"
   id="svg1"
   xmlns="http://www.w3.org/2000/svg"
   xmlns:svg="http://www.w3.org/2000/svg">
  <defs
     id="defs1">
    <clipPath
       clipPathUnits="userSpaceOnUse"
       id="clipPath2">
      <path
         d="M 0,64 H 64 V 0 H 0 Z"
         transform="translate(-43.864601,-60.341702)"
         id="path2" />
    </clipPath>
    <clipPath
       clipPathUnits="userSpaceOnUse"
       id="clipPath4">
      <path
         d="M 0,64 H 64 V 0 H 0 Z"
         transform="translate(-4.9069001,-3.4228001)"
         id="path4" />
    </clipPath>
    <clipPath
       clipPathUnits="userSpaceOnUse"
       id="clipPath6">
      <path
         d="M 0,64 H 64 V 0 H 0 Z"
         transform="translate(-10.9624,-61.841502)"
         id="path6" />
    </clipPath>
    <clipPath
       clipPathUnits="userSpaceOnUse"
       id="clipPath8">
      <path
         d="M 0,64 H 64 V 0 H 0 Z"
         transform="translate(-1.7805,-9.0450005)"
         id="path8" />
    </clipPath>
    <clipPath
       clipPathUnits="userSpaceOnUse"
       id="clipPath10">
      <path
         d="M 0,64 H 64 V 0 H 0 Z"
         transform="translate(-43.864601,-13.2686)"
         id="path10" />
    </clipPath>
    <clipPath
       clipPathUnits="userSpaceOnUse"
       id="clipPath12">
      <path
         d="M 0,64 H 64 V 0 H 0 Z"
         transform="translate(-4.8754001,-3.4354998)"
         id="path12" />
    </clipPath>
    <clipPath
       clipPathUnits="userSpaceOnUse"
       id="clipPath14">
      <path
         d="M 0,64 H 64 V 0 H 0 Z"
         transform="translate(-39.009601,-45.100001)"
         id="path14" />
    </clipPath>
    <clipPath
       clipPathUnits="userSpaceOnUse"
       id="clipPath16">
      <path
         d="M 0,64 H 64 V 0 H 0 Z"
         transform="translate(-39.009801,-44.335201)"
         id="path16" />
    </clipPath>
    <clipPath
       clipPathUnits="userSpaceOnUse"
       id="clipPath18">
      <path
         d="M 0,64 H 64 V 0 H 0 Z"
         transform="translate(-39.009601,-41.651201)"
         id="path18" />
    </clipPath>
    <clipPath
       clipPathUnits="userSpaceOnUse"
       id="clipPath20">
      <path
         d="M 0,64 H 64 V 0 H 0 Z"
         transform="translate(-39.009801,-40.882301)"
         id="path20" />
    </clipPath>
    <clipPath
       clipPathUnits="userSpaceOnUse"
       id="clipPath22">
      <path
         d="M 0,64 H 64 V 0 H 0 Z"
         transform="translate(-46.731101,-23.680901)"
         id="path22" />
    </clipPath>
    <clipPath
       clipPathUnits="userSpaceOnUse"
       id="clipPath24">
      <path
         d="M 0,64 H 64 V 0 H 0 Z"
         transform="translate(-47.813701,-23.681)"
         id="path24" />
    </clipPath>
    <clipPath
       clipPathUnits="userSpaceOnUse"
       id="clipPath26">
      <path
         d="M 0,64 H 64 V 0 H 0 Z"
         transform="translate(-52.128202,-22.574)"
         id="path26" />
    </clipPath>
    <clipPath
       clipPathUnits="userSpaceOnUse"
       id="clipPath28">
      <path
         d="M 0,64 H 64 V 0 H 0 Z"
         transform="translate(-52.668502,-22.032601)"
         id="path28" />
    </clipPath>
    <clipPath
       clipPathUnits="userSpaceOnUse"
       id="clipPath30">
      <path
         d="M 0,64 H 64 V 0 H 0 Z"
         transform="translate(-43.864601,-7.4982004)"
         id="path30" />
    </clipPath>
    <clipPath
       clipPathUnits="userSpaceOnUse"
       id="clipPath32">
      <path
         d="M 0,64 H 64 V 0 H 0 Z"
         transform="translate(-15.145401,-61.841502)"
         id="path32" />
    </clipPath>
    <clipPath
       clipPathUnits="userSpaceOnUse"
       id="clipPath34">
      <path
         d="M 0,64 H 64 V 0 H 0 Z"
         transform="translate(-19.5354,-54.260001)"
         id="path34" />
    </clipPath>
    <clipPath
       clipPathUnits="userSpaceOnUse"
       id="clipPath232">
      <path
         d="M 0,64 H 64 V 0 H 0 Z"
         transform="translate(-52.876504,-36.941501)"
         id="path232" />
    </clipPath>
    <clipPath
       clipPathUnits="userSpaceOnUse"
       id="clipPath234">
      <path
         d="M 0,64 H 64 V 0 H 0 Z"
         transform="translate(-52.876504,-46.161501)"
         id="path234" />
    </clipPath>
    <clipPath
       clipPathUnits="userSpaceOnUse"
       id="clipPath236">
      <path
         d="M 0,64 H 64 V 0 H 0 Z"
         transform="translate(-7.9573002,-51.570801)"
         id="path236" />
    </clipPath>
    <clipPath
       clipPathUnits="userSpaceOnUse"
       id="clipPath238">
      <path
         d="M 0,64 H 64 V 0 H 0 Z"
         transform="translate(-52.876699,-35.949601)"
         id="path238" />
    </clipPath>
    <clipPath
       clipPathUnits="userSpaceOnUse"
       id="clipPath240">
      <path
         d="M 0,64 H 64 V 0 H 0 Z"
         transform="translate(-12.787203,-50.232401)"
         id="path240" />
    </clipPath>
    <clipPath
       clipPathUnits="userSpaceOnUse"
       id="clipPath242">
      <path
         d="M 0,64 H 64 V 0 H 0 Z"
         transform="translate(-10.238298,-56.522901)"
         id="path242" />
    </clipPath>
    <clipPath
       clipPathUnits="userSpaceOnUse"
       id="clipPath244">
      <path
         d="M 0,64 H 64 V 0 H 0 Z"
         transform="translate(-23.984403,-50.232401)"
         id="path244" />
    </clipPath>
    <clipPath
       clipPathUnits="userSpaceOnUse"
       id="clipPath246">
      <path
         d="M 0,64 H 64 V 0 H 0 Z"
         transform="translate(-21.435401,-56.522901)"
         id="path246" />
    </clipPath>
    <clipPath
       clipPathUnits="userSpaceOnUse"
       id="clipPath248">
      <path
         d="M 0,64 H 64 V 0 H 0 Z"
         transform="translate(-35.181498,-50.232401)"
         id="path248" />
    </clipPath>
    <clipPath
       clipPathUnits="userSpaceOnUse"
       id="clipPath250">
      <path
         d="M 0,64 H 64 V 0 H 0 Z"
         transform="translate(-32.632398,-56.522901)"
         id="path250" />
    </clipPath>
    <clipPath
       clipPathUnits="userSpaceOnUse"
       id="clipPath252">
      <path
         d="M 0,64 H 64 V 0 H 0 Z"
         transform="translate(-46.378601,-50.232401)"
         id="path252" />
    </clipPath>
    <clipPath
       clipPathUnits="userSpaceOnUse"
       id="clipPath254">
      <path
         d="M 0,64 H 64 V 0 H 0 Z"
         transform="translate(-43.830004,-56.522901)"
         id="path254" />
    </clipPath>
    <clipPath
       clipPathUnits="userSpaceOnUse"
       id="clipPath256">
      <path
         d="M 0,64 H 64 V 0 H 0 Z"
         transform="translate(-59.344399,-63.750002)"
         id="path256" />
    </clipPath>
    <clipPath
       clipPathUnits="userSpaceOnUse"
       id="clipPath258">
      <path
         d="M 0,64 H 64 V 0 H 0 Z"
         transform="translate(-61.576999,-48.317901)"
         id="path258" />
    </clipPath>
    <clipPath
       clipPathUnits="userSpaceOnUse"
       id="clipPath260">
      <path
         d="M 0,64 H 64 V 0 H 0 Z"
         transform="translate(-61.576999,-48.317901)"
         id="path260" />
    </clipPath>
    <clipPath
       clipPathUnits="userSpaceOnUse"
       id="clipPath262">
      <path
         d="M 0,64 H 64 V 0 H 0 Z"
         transform="translate(-51.309799,-52.521101)"
         id="path262" />
    </clipPath>
    <clipPath
       clipPathUnits="userSpaceOnUse"
       id="clipPath264">
      <path
         d="M 0,64 H 64 V 0 H 0 Z"
         transform="translate(-15.275598,-26.7149)"
         id="path264" />
    </clipPath>
    <clipPath
       clipPathUnits="userSpaceOnUse"
       id="clipPath266">
      <path
         d="M 0,64 H 64 V 0 H 0 Z"
         transform="translate(-12.030498,-31.059401)"
         id="path266" />
    </clipPath>
    <clipPath
       clipPathUnits="userSpaceOnUse"
       id="clipPath268">
      <path
         d="M 0,64 H 64 V 0 H 0 Z"
         transform="translate(-12.030498,-21.131401)"
         id="path268" />
    </clipPath>
    <clipPath
       clipPathUnits="userSpaceOnUse"
       id="clipPath270">
      <path
         d="M 0,64 H 64 V 0 H 0 Z"
         transform="translate(-12.030498,-11.2034)"
         id="path270" />
    </clipPath>
    <clipPath
       clipPathUnits="userSpaceOnUse"
       id="clipPath272">
      <path
         d="M 0,64 H 64 V 0 H 0 Z"
         transform="translate(-28.838501,-26.7149)"
         id="path272" />
    </clipPath>
    <clipPath
       clipPathUnits="userSpaceOnUse"
       id="clipPath274">
      <path
         d="M 0,64 H 64 V 0 H 0 Z"
         transform="translate(-25.593498,-31.059401)"
         id="path274" />
    </clipPath>
    <clipPath
       clipPathUnits="userSpaceOnUse"
       id="clipPath276">
      <path
         d="M 0,64 H 64 V 0 H 0 Z"
         transform="translate(-25.593498,-21.131401)"
         id="path276" />
    </clipPath>
    <clipPath
       clipPathUnits="userSpaceOnUse"
       id="clipPath278">
      <path
         d="M 0,64 H 64 V 0 H 0 Z"
         transform="translate(-25.593498,-11.2034)"
         id="path278" />
    </clipPath>
    <clipPath
       clipPathUnits="userSpaceOnUse"
       id="clipPath280">
      <path
         d="M 0,64 H 64 V 0 H 0 Z"
         transform="translate(-39.156401,-31.059401)"
         id="path280" />
    </clipPath>
    <clipPath
       clipPathUnits="userSpaceOnUse"
       id="clipPath282">
      <path
         d="M 0,64 H 64 V 0 H 0 Z"
         transform="translate(-39.156401,-21.131401)"
         id="path282" />
    </clipPath>
    <clipPath
       clipPathUnits="userSpaceOnUse"
       id="clipPath284">
      <path
         d="M 0,64 H 64 V 0 H 0 Z"
         transform="translate(-39.156401,-11.2034)"
         id="path284" />
    </clipPath>
    <clipPath
       clipPathUnits="userSpaceOnUse"
       id="clipPath36">
      <path
         d="M 0,64 H 64 V 0 H 0 Z"
         transform="translate(-58.047201,-9.2578002)"
         id="path36" />
    </clipPath>
    <clipPath
       clipPathUnits="userSpaceOnUse"
       id="clipPath38">
      <path
         d="M 0,64 H 64 V 0 H 0 Z"
         transform="translate(-54.817499,-4.6165001)"
         id="path38" />
    </clipPath>
    <clipPath
       clipPathUnits="userSpaceOnUse"
       id="clipPath40">
      <path
         d="M 0,64 H 64 V 0 H 0 Z"
         transform="translate(-62.633002,-49.093601)"
         id="path40" />
    </clipPath>
    <clipPath
       clipPathUnits="userSpaceOnUse"
       id="clipPath42">
      <path
         d="M 0,64 H 64 V 0 H 0 Z"
         transform="translate(-31.964203,-39.076301)"
         id="path42" />
    </clipPath>
    <clipPath
       clipPathUnits="userSpaceOnUse"
       id="clipPath44">
      <path
         d="M 0,64 H 64 V 0 H 0 Z"
         transform="translate(-58.789101,-8.1875)"
         id="path44" />
    </clipPath>
    <clipPath
       clipPathUnits="userSpaceOnUse"
       id="clipPath46">
      <path
         d="M 0,64 H 64 V 0 H 0 Z"
         transform="translate(-2.2343976,-49.859401)"
         id="path46" />
    </clipPath>
    <clipPath
       clipPathUnits="userSpaceOnUse"
       id="clipPath48">
      <path
         d="M 0,64 H 64 V 0 H 0 Z"
         transform="translate(-10.171903,-53.828102)"
         id="path48" />
    </clipPath>
    <clipPath
       clipPathUnits="userSpaceOnUse"
       id="clipPath50">
      <path
         d="M 0,64 H 64 V 0 H 0 Z"
         transform="translate(-16.124998,-53.828102)"
         id="path50" />
    </clipPath>
    <clipPath
       clipPathUnits="userSpaceOnUse"
       id="clipPath52">
      <path
         d="M 0,64 H 64 V 0 H 0 Z"
         transform="translate(-22.078101,-53.828102)"
         id="path52" />
    </clipPath>
    <clipPath
       clipPathUnits="userSpaceOnUse"
       id="clipPath54">
      <path
         d="M 0,64 H 64 V 0 H 0 Z"
         transform="translate(-54.820304,-4.2187001)"
         id="path54" />
    </clipPath>
    <clipPath
       clipPathUnits="userSpaceOnUse"
       id="clipPath56">
      <path
         d="M 0,64 H 64 V 0 H 0 Z"
         transform="translate(-32.000998,-8.1875)"
         id="path56" />
    </clipPath>
    <clipPath
       clipPathUnits="userSpaceOnUse"
       id="clipPath58">
      <path
         d="M 0,64 H 64 V 0 H 0 Z"
         transform="translate(-31.999003,-8.1875)"
         id="path58" />
    </clipPath>
    <clipPath
       clipPathUnits="userSpaceOnUse"
       id="clipPath60">
      <path
         d="M 0,64 H 64 V 0 H 0 Z"
         transform="translate(-32.000998,-4.2187001)"
         id="path60" />
    </clipPath>
    <clipPath
       clipPathUnits="userSpaceOnUse"
       id="clipPath62">
      <path
         d="M 0,64 H 64 V 0 H 0 Z"
         transform="translate(-31.999003,-4.2187001)"
         id="path62" />
    </clipPath>
    <clipPath
       clipPathUnits="userSpaceOnUse"
       id="clipPath64">
      <path
         d="M 0,64 H 64 V 0 H 0 Z"
         transform="translate(-32.000001,-4.2196999)"
         id="path64" />
    </clipPath>
    <clipPath
       clipPathUnits="userSpaceOnUse"
       id="clipPath66">
      <path
         d="M 0,64 H 64 V 0 H 0 Z"
         transform="translate(-25.054701,-35.968801)"
         id="path66" />
    </clipPath>
    <clipPath
       clipPathUnits="userSpaceOnUse"
       id="clipPath68">
      <path
         d="M 0,64 H 64 V 0 H 0 Z"
         transform="translate(-25.054701,-30.015601)"
         id="path68" />
    </clipPath>
    <clipPath
       clipPathUnits="userSpaceOnUse"
       id="clipPath70">
      <path
         d="M 0,64 H 64 V 0 H 0 Z"
         transform="translate(-25.054701,-24.062501)"
         id="path70" />
    </clipPath>
    <clipPath
       clipPathUnits="userSpaceOnUse"
       id="clipPath72">
      <path
         d="M 0,64 H 64 V 0 H 0 Z"
         transform="translate(-25.054701,-18.1094)"
         id="path72" />
    </clipPath>
    <clipPath
       clipPathUnits="userSpaceOnUse"
       id="clipPath74">
      <path
         d="M 0,64 H 64 V 0 H 0 Z"
         transform="translate(-46.882799,-35.968801)"
         id="path74" />
    </clipPath>
    <clipPath
       clipPathUnits="userSpaceOnUse"
       id="clipPath76">
      <path
         d="M 0,64 H 64 V 0 H 0 Z"
         transform="translate(-46.882799,-30.015601)"
         id="path76" />
    </clipPath>
    <clipPath
       clipPathUnits="userSpaceOnUse"
       id="clipPath78">
      <path
         d="M 0,64 H 64 V 0 H 0 Z"
         transform="translate(-46.882799,-24.062501)"
         id="path78" />
    </clipPath>
    <clipPath
       clipPathUnits="userSpaceOnUse"
       id="clipPath80">
      <path
         d="M 0,64 H 64 V 0 H 0 Z"
         transform="translate(-46.882799,-18.1094)"
         id="path80" />
    </clipPath>
    <clipPath
       clipPathUnits="userSpaceOnUse"
       id="clipPath82">
      <path
         d="M 0,64 H 64 V 0 H 0 Z"
         transform="translate(-55.685599,-43.178401)"
         id="path82" />
    </clipPath>
    <clipPath
       clipPathUnits="userSpaceOnUse"
       id="clipPath84">
      <path
         d="M 0,64 H 64 V 0 H 0 Z"
         transform="translate(-8.0628027,-53.329901)"
         id="path84" />
    </clipPath>
    <clipPath
       clipPathUnits="userSpaceOnUse"
       id="clipPath86">
      <path
         d="M 0,64 H 64 V 0 H 0 Z"
         transform="translate(-55.119604,-24.480901)"
         id="path86" />
    </clipPath>
    <clipPath
       clipPathUnits="userSpaceOnUse"
       id="clipPath88">
      <path
         d="M 0,64 H 64 V 0 H 0 Z"
         transform="translate(-44.898304,-48.549001)"
         id="path88" />
    </clipPath>
    <clipPath
       clipPathUnits="userSpaceOnUse"
       id="clipPath90">
      <path
         d="M 0,64 H 64 V 0 H 0 Z"
         transform="translate(-44.898304,-41.898301)"
         id="path90" />
    </clipPath>
    <clipPath
       clipPathUnits="userSpaceOnUse"
       id="clipPath92">
      <path
         d="M 0,64 H 64 V 0 H 0 Z"
         transform="translate(-52.835801,-43.905901)"
         id="path92" />
    </clipPath>
    <clipPath
       clipPathUnits="userSpaceOnUse"
       id="clipPath94">
      <path
         d="M 0,64 H 64 V 0 H 0 Z"
         transform="translate(-52.835801,-43.905901)"
         id="path94" />
    </clipPath>
    <clipPath
       clipPathUnits="userSpaceOnUse"
       id="clipPath96">
      <path
         d="M 0,64 H 64 V 0 H 0 Z"
         transform="translate(-31.999998,-45.890301)"
         id="path96" />
    </clipPath>
    <clipPath
       clipPathUnits="userSpaceOnUse"
       id="clipPath98">
      <path
         d="M 0,64 H 64 V 0 H 0 Z"
         transform="translate(-31.999998,-45.890301)"
         id="path98" />
    </clipPath>
    <clipPath
       clipPathUnits="userSpaceOnUse"
       id="clipPath100">
      <path
         d="M 0,64 H 64 V 0 H 0 Z"
         transform="translate(-31.999998,-33.984101)"
         id="path100" />
    </clipPath>
    <clipPath
       clipPathUnits="userSpaceOnUse"
       id="clipPath102">
      <path
         d="M 0,64 H 64 V 0 H 0 Z"
         transform="translate(-31.999998,-0.99030027)"
         id="path102" />
    </clipPath>
    <clipPath
       clipPathUnits="userSpaceOnUse"
       id="clipPath122">
      <path
         d="M 0,64 H 64 V 0 H 0 Z"
         transform="translate(-1.3087025,-6.0121002)"
         id="path122" />
    </clipPath>
    <clipPath
       clipPathUnits="userSpaceOnUse"
       id="clipPath124">
      <path
         d="M 0,64 H 64 V 0 H 0 Z"
         transform="translate(-43.859601,-25.9862)"
         id="path124" />
    </clipPath>
    <clipPath
       clipPathUnits="userSpaceOnUse"
       id="clipPath126">
      <path
         d="M 0,64 H 64 V 0 H 0 Z"
         transform="translate(-55.197599,-23.302001)"
         id="path126" />
    </clipPath>
    <clipPath
       clipPathUnits="userSpaceOnUse"
       id="clipPath128">
      <path
         d="M 0,64 H 64 V 0 H 0 Z"
         transform="translate(-59.869701,-26.193101)"
         id="path128" />
    </clipPath>
    <clipPath
       clipPathUnits="userSpaceOnUse"
       id="clipPath130">
      <path
         d="M 0,64 H 64 V 0 H 0 Z"
         transform="translate(-27.792801,-33.787801)"
         id="path130" />
    </clipPath>
    <clipPath
       clipPathUnits="userSpaceOnUse"
       id="clipPath132">
      <path
         d="M 0,64 H 64 V 0 H 0 Z"
         transform="translate(-40.945701,-2.0397003)"
         id="path132" />
    </clipPath>
    <clipPath
       clipPathUnits="userSpaceOnUse"
       id="clipPath134">
      <path
         d="M 0,64 H 64 V 0 H 0 Z"
         transform="translate(-43.771004,-17.402701)"
         id="path134" />
    </clipPath>
    <clipPath
       clipPathUnits="userSpaceOnUse"
       id="clipPath136">
      <path
         d="M 0,64 H 64 V 0 H 0 Z"
         transform="translate(-8.4524002,-8.8555002)"
         id="path136" />
    </clipPath>
    <clipPath
       clipPathUnits="userSpaceOnUse"
       id="clipPath138">
      <path
         d="M 0,64 H 64 V 0 H 0 Z"
         transform="translate(-8.4524002,-18.0256)"
         id="path138" />
    </clipPath>
    <clipPath
       clipPathUnits="userSpaceOnUse"
       id="clipPath140">
      <path
         d="M 0,64 H 64 V 0 H 0 Z"
         transform="translate(-12.6893,-24.082301)"
         id="path140" />
    </clipPath>
    <clipPath
       clipPathUnits="userSpaceOnUse"
       id="clipPath142">
      <path
         d="M 0,64 H 64 V 0 H 0 Z"
         transform="translate(-8.4521977,-7.7965002)"
         id="path142" />
    </clipPath>
    <clipPath
       clipPathUnits="userSpaceOnUse"
       id="clipPath144">
      <path
         d="M 0,64 H 64 V 0 H 0 Z"
         transform="translate(-37.489701,-52.832402)"
         id="path144" />
    </clipPath>
    <clipPath
       clipPathUnits="userSpaceOnUse"
       id="clipPath146">
      <path
         d="M 0,64 H 64 V 0 H 0 Z"
         transform="translate(-33.056901,-40.281301)"
         id="path146" />
    </clipPath>
    <clipPath
       clipPathUnits="userSpaceOnUse"
       id="clipPath148">
      <path
         d="M 0,64 H 64 V 0 H 0 Z"
         transform="translate(2.5000001e-6)"
         id="path148" />
    </clipPath>
    <clipPath
       clipPathUnits="userSpaceOnUse"
       id="clipPath150">
      <path
         d="M 0,64 H 64 V 0 H 0 Z"
         transform="translate(-10.4888,-35.468001)"
         id="path150" />
    </clipPath>
    <clipPath
       clipPathUnits="userSpaceOnUse"
       id="clipPath104">
      <path
         d="M 0,64 H 64 V 0 H 0 Z"
         transform="translate(-15.244598,-10.3565)"
         id="path104" />
    </clipPath>
    <clipPath
       clipPathUnits="userSpaceOnUse"
       id="clipPath106">
      <path
         d="M 0,64 H 64 V 0 H 0 Z"
         transform="translate(-28.455601,-58.909801)"
         id="path106" />
    </clipPath>
    <clipPath
       clipPathUnits="userSpaceOnUse"
       id="clipPath108">
      <path
         d="M 0,64 H 64 V 0 H 0 Z"
         transform="translate(-49.308699,-46.659501)"
         id="path108" />
    </clipPath>
    <clipPath
       clipPathUnits="userSpaceOnUse"
       id="clipPath110">
      <path
         d="M 0,64 H 64 V 0 H 0 Z"
         transform="translate(-8.3196002,-44.750801)"
         id="path110" />
    </clipPath>
    <clipPath
       clipPathUnits="userSpaceOnUse"
       id="clipPath112">
      <path
         d="M 0,64 H 64 V 0 H 0 Z"
         transform="translate(-55.653001,-44.722201)"
         id="path112" />
    </clipPath>
    <clipPath
       clipPathUnits="userSpaceOnUse"
       id="clipPath114">
      <path
         d="M 0,64 H 64 V 0 H 0 Z"
         transform="translate(-4.1411026,-49.628301)"
         id="path114" />
    </clipPath>
    <clipPath
       clipPathUnits="userSpaceOnUse"
       id="clipPath116">
      <path
         d="M 0,64 H 64 V 0 H 0 Z"
         transform="translate(-59.847399,-49.597901)"
         id="path116" />
    </clipPath>
    <clipPath
       clipPathUnits="userSpaceOnUse"
       id="clipPath118">
      <path
         d="M 0,64 H 64 V 0 H 0 Z"
         transform="translate(-32.055001,-9.4001)"
         id="path118" />
    </clipPath>
    <clipPath
       clipPathUnits="userSpaceOnUse"
       id="clipPath120">
      <path
         d="M 0,64 H 64 V 0 H 0 Z"
         transform="translate(-28.455601,-58.909801)"
         id="path120" />
    </clipPath>
    <clipPath
       clipPathUnits="userSpaceOnUse"
       id="clipPath367">
      <path
         d="M 0,64 H 64 V 0 H 0 Z"
         transform="translate(-58.786501,-42.928201)"
         id="path367" />
    </clipPath>
    <clipPath
       clipPathUnits="userSpaceOnUse"
       id="clipPath369">
      <path
         d="M 0,64 H 64 V 0 H 0 Z"
         transform="translate(-56.782201,-34.420401)"
         id="path369" />
    </clipPath>
    <clipPath
       clipPathUnits="userSpaceOnUse"
       id="clipPath371">
      <path
         d="M 0,64 H 64 V 0 H 0 Z"
         transform="translate(-56.782201,-26.9747)"
         id="path371" />
    </clipPath>
    <clipPath
       clipPathUnits="userSpaceOnUse"
       id="clipPath373">
      <path
         d="M 0,64 H 64 V 0 H 0 Z"
         transform="translate(-46.117576,-19.530001)"
         id="path373" />
    </clipPath>
    <clipPath
       clipPathUnits="userSpaceOnUse"
       id="clipPath375">
      <path
         d="M 0,64 H 64 V 0 H 0 Z"
         transform="translate(-31.655026,-57.137001)"
         id="path375" />
    </clipPath>
    <clipPath
       clipPathUnits="userSpaceOnUse"
       id="clipPath377">
      <path
         d="M 0,64 H 64 V 0 H 0 Z"
         transform="translate(-5.2125001,-56.078901)"
         id="path377" />
    </clipPath>
    <clipPath
       clipPathUnits="userSpaceOnUse"
       id="clipPath379">
      <path
         d="M 0,64 H 64 V 0 H 0 Z"
         transform="translate(-52.469401,-5.8048001)"
         id="path379" />
    </clipPath>
    <clipPath
       clipPathUnits="userSpaceOnUse"
       id="clipPath381">
      <path
         d="M 0,64 H 64 V 0 H 0 Z"
         transform="translate(-7.5686252,-49.235601)"
         id="path381" />
    </clipPath>
    <clipPath
       clipPathUnits="userSpaceOnUse"
       id="clipPath383">
      <path
         d="M 0,64 H 64 V 0 H 0 Z"
         transform="translate(-7.5686252,-41.789801)"
         id="path383" />
    </clipPath>
    <clipPath
       clipPathUnits="userSpaceOnUse"
       id="clipPath385">
      <path
         d="M 0,64 H 64 V 0 H 0 Z"
         transform="translate(-17.175075,-35.403301)"
         id="path385" />
    </clipPath>
    <clipPath
       clipPathUnits="userSpaceOnUse"
       id="clipPath329">
      <path
         d="M 0,64 H 64 V 0 H 0 Z"
         transform="translate(-62.568427,-32.002901)"
         id="path329" />
    </clipPath>
    <clipPath
       clipPathUnits="userSpaceOnUse"
       id="clipPath331">
      <path
         d="M 0,64 H 64 V 0 H 0 Z"
         transform="translate(-54.336501,-32.005801)"
         id="path331" />
    </clipPath>
    <clipPath
       clipPathUnits="userSpaceOnUse"
       id="clipPath333">
      <path
         d="M 0,64 H 64 V 0 H 0 Z"
         transform="translate(-51.500301,-21.120301)"
         id="path333" />
    </clipPath>
    <clipPath
       clipPathUnits="userSpaceOnUse"
       id="clipPath335">
      <path
         d="M 0,64 H 64 V 0 H 0 Z"
         transform="translate(-44.368176,-37.731201)"
         id="path335" />
    </clipPath>
    <clipPath
       clipPathUnits="userSpaceOnUse"
       id="clipPath337">
      <path
         d="M 0,64 H 64 V 0 H 0 Z"
         transform="translate(-31.906176,-49.022901)"
         id="path337" />
    </clipPath>
    <clipPath
       clipPathUnits="userSpaceOnUse"
       id="clipPath339">
      <path
         d="M 0,64 H 64 V 0 H 0 Z"
         transform="translate(-42.806526,-29.531201)"
         id="path339" />
    </clipPath>
    <clipPath
       clipPathUnits="userSpaceOnUse"
       id="clipPath341">
      <path
         d="M 0,64 H 64 V 0 H 0 Z"
         transform="translate(-13.8401,-21.146801)"
         id="path341" />
    </clipPath>
    <clipPath
       clipPathUnits="userSpaceOnUse"
       id="clipPath343">
      <path
         d="M 0,64 H 64 V 0 H 0 Z"
         transform="translate(-31.906176,-49.022901)"
         id="path343" />
    </clipPath>
  </defs>
  <g
     id="layer1">
    <path
       id="path328"
       d="m 0,0 c 0,-16.883 -13.686,-30.569 -30.568,-30.569 -16.882,0 -30.568,13.686 -30.568,30.569 0,16.882 13.686,30.568 30.568,30.568 C -13.686,30.568 0,16.882 0,0"
       style="fill:#ffffff;fill-opacity:1;fill-rule:nonzero;stroke:none"
       transform="matrix(0.25892326,0,0,-0.25892326,16.436405,8.5155497)"
       clip-path="url(#clipPath329)" />
    <path
       id="path330"
       d="m 0,0 c 0,-3.954 -1.024,-7.661 -2.836,-10.885 -4.519,5.861 -11.615,9.626 -19.595,9.626 -7.919,0 -14.968,-3.707 -19.487,-9.485 -1.765,3.189 -2.755,6.849 -2.755,10.744 0,12.333 10.003,22.336 22.337,22.336 C -10.003,22.336 0,12.333 0,0"
       style="fill:#697ee9;fill-opacity:1;fill-rule:nonzero;stroke:none"
       transform="matrix(0.25892326,0,0,-0.25892326,14.30497,8.5147993)"
       clip-path="url(#clipPath331)" />
    <path
       id="path332"
       d="m 0,0 c -3.813,-6.825 -11.121,-11.45 -19.5,-11.45 -8.438,0 -15.793,4.683 -19.582,11.591 4.519,5.779 11.568,9.485 19.488,9.485 C -11.615,9.626 -4.519,5.861 0,0"
       style="fill:#ffffff;fill-opacity:1;fill-rule:nonzero;stroke:none"
       transform="matrix(0.25892326,0,0,-0.25892326,13.570611,11.333305)"
       clip-path="url(#clipPath333)" />
    <path
       id="path334"
       d="m 0,0 c 0,-6.885 -5.582,-12.467 -12.467,-12.467 -6.885,0 -12.467,5.582 -12.467,12.467 0,6.885 5.582,12.467 12.467,12.467 C -5.582,12.467 0,6.885 0,0"
       style="fill:#f69f00;fill-opacity:1;fill-rule:nonzero;stroke:none"
       transform="matrix(0.25892326,0,0,-0.25892326,11.72394,7.0323594)"
       clip-path="url(#clipPath335)" />
    <path
       id="path336"
       d="m 0,0 c -6.23,0 -11.298,-5.063 -11.298,-11.286 0,-2.943 1.132,-5.733 3.188,-7.855 0,0 10e-4,-0.001 0.002,-0.001 2.139,-2.219 5.02,-3.441 8.108,-3.441 3.099,0 5.982,1.226 8.118,3.451 2.043,2.12 3.167,4.906 3.167,7.846 C 11.285,-5.063 6.222,0 0,0 m 0,-24.936 c -3.734,0 -7.214,1.477 -9.803,4.16 -2.482,2.563 -3.848,5.933 -3.848,9.49 0,7.52 6.124,13.64 13.651,13.64 7.52,0 13.639,-6.12 13.639,-13.64 0,-3.552 -1.358,-6.918 -3.824,-9.478 C 7.233,-23.455 3.746,-24.936 0,-24.936 m 0.094,37.304 c -16.209,0 -29.397,-13.182 -29.397,-29.385 0,-16.209 13.188,-29.396 29.397,-29.396 16.209,0 29.396,13.187 29.396,29.396 0,16.203 -13.187,29.385 -29.396,29.385 m 0,-61.135 c -17.507,0 -31.75,14.243 -31.75,31.75 0,17.501 14.243,31.738 31.75,31.738 17.507,0 31.75,-14.237 31.75,-31.738 0,-17.507 -14.243,-31.75 -31.75,-31.75"
       style="fill:#4e4957;fill-opacity:1;fill-rule:nonzero;stroke:none"
       transform="matrix(0.25892326,0,0,-0.25892326,8.4972372,4.1086752)"
       clip-path="url(#clipPath337)" />
    <path
       id="path338"
       d="m 0,0 c 3.218,-1.493 6.097,-3.631 8.456,-6.281 1.244,2.729 1.896,5.723 1.896,8.756 0,11.667 -9.491,21.158 -21.158,21.158 -11.667,0 -21.159,-9.491 -21.159,-21.158 0,-2.987 0.628,-5.934 1.83,-8.619 2.34,2.59 5.178,4.678 8.339,6.134 -1.787,2.36 -2.756,5.222 -2.756,8.216 0,7.52 6.124,13.639 13.652,13.639 7.52,0 13.638,-6.119 13.638,-13.639 C 2.738,5.215 1.775,2.357 0,0 m 8.848,-10.538 -1.087,1.409 c -2.622,3.401 -6.122,6.021 -10.12,7.576 l -1.648,0.641 1.227,1.273 c 2.04,2.119 3.165,4.905 3.165,7.845 0,6.223 -5.063,11.286 -11.285,11.286 -6.23,0 -11.298,-5.063 -11.298,-11.286 0,-2.943 1.132,-5.733 3.187,-7.855 l 1.238,-1.278 -1.66,-0.639 c -3.944,-1.517 -7.412,-4.087 -10.028,-7.429 l -1.096,-1.399 -0.86,1.554 c -1.899,3.428 -2.902,7.342 -2.902,11.315 0,12.964 10.548,23.512 23.513,23.512 12.964,0 23.512,-10.548 23.512,-23.512 0,-4.023 -1.033,-7.986 -2.986,-11.462 z"
       style="fill:#4e4957;fill-opacity:1;fill-rule:nonzero;stroke:none"
       transform="matrix(0.25892326,0,0,-0.25892326,11.319592,9.1555305)"
       clip-path="url(#clipPath339)" />
    <path
       id="path340"
       d="m 0,0 c 3.808,-6.373 10.695,-10.3 18.16,-10.3 7.395,0 14.249,3.877 18.077,10.17 -2.401,2.909 -5.464,5.2 -8.931,6.677 C 24.792,4.215 21.54,2.94 18.066,2.94 14.603,2.94 11.355,4.212 8.837,6.538 5.421,5.096 2.392,2.853 0,0 m 18.16,-12.653 c -8.586,0 -16.485,4.675 -20.614,12.202 l -0.373,0.68 0.478,0.611 c 2.88,3.678 6.696,6.505 11.037,8.175 l 0.727,0.28 0.543,-0.561 c 2.14,-2.219 5.02,-3.441 8.108,-3.441 3.099,0 5.982,1.226 8.118,3.451 L 26.728,9.31 27.46,9.026 C 31.858,7.315 35.708,4.433 38.592,0.692 L 39.066,0.078 38.687,-0.601 C 34.534,-8.035 26.668,-12.653 18.16,-12.653"
       style="fill:#4e4957;fill-opacity:1;fill-rule:nonzero;stroke:none"
       transform="matrix(0.25892326,0,0,-0.25892326,3.8195098,11.32645)"
       clip-path="url(#clipPath341)" />
    <path
       id="path342"
       d="m 0,0 c -6.23,0 -11.298,-5.063 -11.298,-11.286 0,-2.943 1.132,-5.733 3.188,-7.855 2.141,-2.22 5.022,-3.442 8.11,-3.442 3.099,0 5.982,1.226 8.118,3.451 2.043,2.12 3.167,4.906 3.167,7.846 C 11.285,-5.063 6.222,0 0,0 m 0,-24.936 c -3.734,0 -7.214,1.477 -9.803,4.16 -2.481,2.562 -3.848,5.933 -3.848,9.49 0,7.52 6.124,13.64 13.651,13.64 7.52,0 13.639,-6.12 13.639,-13.64 0,-3.552 -1.358,-6.918 -3.824,-9.478 C 7.233,-23.455 3.746,-24.936 0,-24.936"
       style="fill:#4e4957;fill-opacity:1;fill-rule:nonzero;stroke:none"
       transform="matrix(0.25892326,0,0,-0.25892326,8.4972372,4.1086752)"
       clip-path="url(#clipPath343)" />
  </g>
</svg>
