<?xml version="1.0" encoding="UTF-8" standalone="no"?>
<!-- Created with Inkscape (http://www.inkscape.org/) -->

<svg
   width="350"
   height="500"
   viewBox="0 0 92.604165 132.29167"
   version="1.1"
   id="svg1"
   inkscape:version="1.4 (1:1.4+202410161351+e7c3feb100)"
   sodipodi:docname="profile.svg"
   xmlns:inkscape="http://www.inkscape.org/namespaces/inkscape"
   xmlns:sodipodi="http://sodipodi.sourceforge.net/DTD/sodipodi-0.dtd"
   xmlns="http://www.w3.org/2000/svg"
   xmlns:svg="http://www.w3.org/2000/svg">
  <sodipodi:namedview
     id="namedview1"
     pagecolor="#ffffff"
     bordercolor="#999999"
     borderopacity="1"
     inkscape:showpageshadow="2"
     inkscape:pageopacity="0"
     inkscape:pagecheckerboard="0"
     inkscape:deskcolor="#d1d1d1"
     inkscape:document-units="mm"
     inkscape:zoom="1.3505331"
     inkscape:cx="294.69844"
     inkscape:cy="189.55478"
     inkscape:window-width="1920"
     inkscape:window-height="963"
     inkscape:window-x="0"
     inkscape:window-y="32"
     inkscape:window-maximized="1"
     inkscape:current-layer="layer1" />
  <defs
     id="defs1">
    <clipPath
       clipPathUnits="userSpaceOnUse"
       id="clipPath5">
      <path
         d="M 0,500 H 500 V 0 H 0 Z"
         transform="translate(-217.66561,-418.40141)"
         id="path5" />
    </clipPath>
    <clipPath
       clipPathUnits="userSpaceOnUse"
       id="clipPath7">
      <path
         d="M 0,500 H 500 V 0 H 0 Z"
         transform="translate(-105.8238,-286.16061)"
         id="path7" />
    </clipPath>
    <clipPath
       clipPathUnits="userSpaceOnUse"
       id="clipPath9">
      <path
         d="M 0,500 H 500 V 0 H 0 Z"
         transform="translate(-111.5211,-280.5093)"
         id="path9" />
    </clipPath>
    <clipPath
       clipPathUnits="userSpaceOnUse"
       id="clipPath11">
      <path
         d="M 0,500 H 500 V 0 H 0 Z"
         transform="translate(-110.776,-278.0508)"
         id="path11" />
    </clipPath>
    <clipPath
       clipPathUnits="userSpaceOnUse"
       id="clipPath13">
      <path
         d="M 0,500 H 500 V 0 H 0 Z"
         transform="translate(-110.14221,-275.70411)"
         id="path13" />
    </clipPath>
    <clipPath
       clipPathUnits="userSpaceOnUse"
       id="clipPath15">
      <path
         d="M 0,500 H 500 V 0 H 0 Z"
         transform="translate(-110.6461,-263.4321)"
         id="path15" />
    </clipPath>
    <clipPath
       clipPathUnits="userSpaceOnUse"
       id="clipPath17">
      <path
         d="M 0,500 H 500 V 0 H 0 Z"
         transform="translate(-162.5152,-287.13921)"
         id="path17" />
    </clipPath>
    <clipPath
       clipPathUnits="userSpaceOnUse"
       id="clipPath19">
      <path
         d="M 0,500 H 500 V 0 H 0 Z"
         transform="translate(-156.7965,-280.54251)"
         id="path19" />
    </clipPath>
    <clipPath
       clipPathUnits="userSpaceOnUse"
       id="clipPath21">
      <path
         d="M 0,500 H 500 V 0 H 0 Z"
         transform="translate(-157.92441,-278.23391)"
         id="path21" />
    </clipPath>
    <clipPath
       clipPathUnits="userSpaceOnUse"
       id="clipPath23">
      <path
         d="M 0,500 H 500 V 0 H 0 Z"
         transform="translate(-158.9244,-276.0186)"
         id="path23" />
    </clipPath>
    <clipPath
       clipPathUnits="userSpaceOnUse"
       id="clipPath25">
      <path
         d="M 0,500 H 500 V 0 H 0 Z"
         transform="translate(-161.3814,-263.93211)"
         id="path25" />
    </clipPath>
    <clipPath
       clipPathUnits="userSpaceOnUse"
       id="clipPath27">
      <path
         d="M 0,500 H 500 V 0 H 0 Z"
         transform="translate(-167.9293,-321.07961)"
         id="path27" />
    </clipPath>
    <clipPath
       clipPathUnits="userSpaceOnUse"
       id="clipPath29">
      <path
         d="M 0,500 H 500 V 0 H 0 Z"
         transform="translate(-87.739802,-393.36041)"
         id="path29" />
    </clipPath>
    <clipPath
       clipPathUnits="userSpaceOnUse"
       id="clipPath31">
      <path
         d="M 0,500 H 500 V 0 H 0 Z"
         transform="translate(-185.4166,-389.32671)"
         id="path31" />
    </clipPath>
    <clipPath
       clipPathUnits="userSpaceOnUse"
       id="clipPath33">
      <path
         d="M 0,500 H 500 V 0 H 0 Z"
         transform="translate(-60.814102,-365.73581)"
         id="path33" />
    </clipPath>
    <clipPath
       clipPathUnits="userSpaceOnUse"
       id="clipPath35">
      <path
         d="M 0,500 H 500 V 0 H 0 Z"
         transform="translate(-92.9635,-355.21441)"
         id="path35" />
    </clipPath>
    <clipPath
       clipPathUnits="userSpaceOnUse"
       id="clipPath37">
      <path
         d="M 0,500 H 500 V 0 H 0 Z"
         transform="translate(-99.072805,-335.39361)"
         id="path37" />
    </clipPath>
    <clipPath
       clipPathUnits="userSpaceOnUse"
       id="clipPath39">
      <path
         d="M 0,500 H 500 V 0 H 0 Z"
         transform="translate(-169.71051,-335.35111)"
         id="path39" />
    </clipPath>
    <clipPath
       clipPathUnits="userSpaceOnUse"
       id="clipPath41">
      <path
         d="M 0,500 H 500 V 0 H 0 Z"
         transform="translate(-61.539602,-389.48931)"
         id="path41" />
    </clipPath>
    <clipPath
       clipPathUnits="userSpaceOnUse"
       id="clipPath43">
      <path
         d="M 0,500 H 500 V 0 H 0 Z"
         transform="translate(-37.203701,-395.09621)"
         id="path43" />
    </clipPath>
    <clipPath
       clipPathUnits="userSpaceOnUse"
       id="clipPath45">
      <path
         d="M 0,500 H 500 V 0 H 0 Z"
         transform="translate(-52.168501,-379.15231)"
         id="path45" />
    </clipPath>
    <clipPath
       clipPathUnits="userSpaceOnUse"
       id="clipPath47">
      <path
         d="M 0,500 H 500 V 0 H 0 Z"
         transform="translate(-79.303299,-394.38091)"
         id="path47" />
    </clipPath>
    <clipPath
       clipPathUnits="userSpaceOnUse"
       id="clipPath49">
      <path
         d="M 0,500 H 500 V 0 H 0 Z"
         transform="translate(-181.066,-393.36041)"
         id="path49" />
    </clipPath>
    <clipPath
       clipPathUnits="userSpaceOnUse"
       id="clipPath51">
      <path
         d="M 0,500 H 500 V 0 H 0 Z"
         transform="translate(-207.99081,-365.73581)"
         id="path51" />
    </clipPath>
    <clipPath
       clipPathUnits="userSpaceOnUse"
       id="clipPath53">
      <path
         d="M 0,500 H 500 V 0 H 0 Z"
         transform="translate(-175.8424,-355.21441)"
         id="path53" />
    </clipPath>
    <clipPath
       clipPathUnits="userSpaceOnUse"
       id="clipPath55">
      <path
         d="M 0,500 H 500 V 0 H 0 Z"
         transform="translate(-153.607,-382.27101)"
         id="path55" />
    </clipPath>
    <clipPath
       clipPathUnits="userSpaceOnUse"
       id="clipPath57">
      <path
         d="M 0,500 H 500 V 0 H 0 Z"
         transform="translate(-208.42341,-392.01761)"
         id="path57" />
    </clipPath>
    <clipPath
       clipPathUnits="userSpaceOnUse"
       id="clipPath59">
      <path
         d="M 0,500 H 500 V 0 H 0 Z"
         transform="translate(-233.37751,-391.03561)"
         id="path59" />
    </clipPath>
    <clipPath
       clipPathUnits="userSpaceOnUse"
       id="clipPath61">
      <path
         d="M 0,500 H 500 V 0 H 0 Z"
         transform="translate(-215.24281,-379.49711)"
         id="path61" />
    </clipPath>
    <clipPath
       clipPathUnits="userSpaceOnUse"
       id="clipPath63">
      <path
         d="M 0,500 H 500 V 0 H 0 Z"
         transform="translate(-192.5689,-401.40381)"
         id="path63" />
    </clipPath>
    <clipPath
       clipPathUnits="userSpaceOnUse"
       id="clipPath65">
      <path
         d="M 0,500 H 500 V 0 H 0 Z"
         transform="translate(-109.4137,-417.18211)"
         id="path65" />
    </clipPath>
    <clipPath
       clipPathUnits="userSpaceOnUse"
       id="clipPath67">
      <path
         d="M 0,500 H 500 V 0 H 0 Z"
         transform="translate(-162.5719,-417.18211)"
         id="path67" />
    </clipPath>
    <clipPath
       clipPathUnits="userSpaceOnUse"
       id="clipPath69">
      <path
         d="M 0,500 H 500 V 0 H 0 Z"
         transform="translate(-135.9928,-368.59281)"
         id="path69" />
    </clipPath>
    <clipPath
       clipPathUnits="userSpaceOnUse"
       id="clipPath71">
      <path
         d="M 0,500 H 500 V 0 H 0 Z"
         transform="translate(-152.2818,-392.25591)"
         id="path71" />
    </clipPath>
    <clipPath
       clipPathUnits="userSpaceOnUse"
       id="clipPath73">
      <path
         d="M 0,500 H 500 V 0 H 0 Z"
         transform="translate(-115.25841,-436.78761)"
         id="path73" />
    </clipPath>
    <clipPath
       clipPathUnits="userSpaceOnUse"
       id="clipPath75">
      <path
         d="M 0,500 H 500 V 0 H 0 Z"
         transform="translate(-111.01821,-418.60211)"
         id="path75" />
    </clipPath>
    <clipPath
       clipPathUnits="userSpaceOnUse"
       id="clipPath77">
      <path
         d="M 0,500 H 500 V 0 H 0 Z"
         transform="translate(-115.25841,-405.86571)"
         id="path77" />
    </clipPath>
    <clipPath
       clipPathUnits="userSpaceOnUse"
       id="clipPath79">
      <path
         d="M 0,500 H 500 V 0 H 0 Z"
         transform="translate(-156.7281,-405.86571)"
         id="path79" />
    </clipPath>
    <clipPath
       clipPathUnits="userSpaceOnUse"
       id="clipPath81">
      <path
         d="M 0,500 H 500 V 0 H 0 Z"
         transform="translate(-127.0269,-401.13431)"
         id="path81" />
    </clipPath>
    <clipPath
       clipPathUnits="userSpaceOnUse"
       id="clipPath83">
      <path
         d="M 0,500 H 500 V 0 H 0 Z"
         transform="translate(-130.12461,-396.30621)"
         id="path83" />
    </clipPath>
    <clipPath
       clipPathUnits="userSpaceOnUse"
       id="clipPath85">
      <path
         d="M 0,500 H 500 V 0 H 0 Z"
         transform="translate(-124.90491,-412.19241)"
         id="path85" />
    </clipPath>
    <clipPath
       clipPathUnits="userSpaceOnUse"
       id="clipPath87">
      <path
         d="M 0,500 H 500 V 0 H 0 Z"
         transform="translate(-147.0816,-412.19241)"
         id="path87" />
    </clipPath>
    <clipPath
       clipPathUnits="userSpaceOnUse"
       id="clipPath89">
      <path
         d="M 0,500 H 500 V 0 H 0 Z"
         transform="translate(-120.14121,-419.07811)"
         id="path89" />
    </clipPath>
    <clipPath
       clipPathUnits="userSpaceOnUse"
       id="clipPath91">
      <path
         d="M 0,500 H 500 V 0 H 0 Z"
         transform="translate(-151.8111,-419.02441)"
         id="path91" />
    </clipPath>
    <clipPath
       clipPathUnits="userSpaceOnUse"
       id="clipPath93">
      <path
         d="M 0,500 H 500 V 0 H 0 Z"
         transform="translate(-131.5299,-405.60551)"
         id="path93" />
    </clipPath>
    <clipPath
       clipPathUnits="userSpaceOnUse"
       id="clipPath95">
      <path
         d="M 0,500 H 500 V 0 H 0 Z"
         transform="translate(-123.775,-420.90621)"
         id="path95" />
    </clipPath>
    <clipPath
       clipPathUnits="userSpaceOnUse"
       id="clipPath97">
      <path
         d="M 0,500 H 500 V 0 H 0 Z"
         transform="translate(-148.3717,-420.90621)"
         id="path97" />
    </clipPath>
    <clipPath
       clipPathUnits="userSpaceOnUse"
       id="clipPath99">
      <path
         d="M 0,500 H 500 V 0 H 0 Z"
         transform="translate(-138.87951,-415.65531)"
         id="path99" />
    </clipPath>
    <clipPath
       clipPathUnits="userSpaceOnUse"
       id="clipPath34">
      <path
         d="M 0,500 H 500 V 0 H 0 Z"
         transform="translate(-51.563101,-407.36881)"
         id="path34-1" />
    </clipPath>
    <clipPath
       clipPathUnits="userSpaceOnUse"
       id="clipPath36">
      <path
         d="M 0,500 H 500 V 0 H 0 Z"
         transform="translate(-51.563101,-407.12521)"
         id="path36-8" />
    </clipPath>
    <clipPath
       clipPathUnits="userSpaceOnUse"
       id="clipPath38">
      <path
         d="M 0,500 H 500 V 0 H 0 Z"
         transform="translate(-83.277002,-398.93521)"
         id="path38-7" />
    </clipPath>
    <clipPath
       clipPathUnits="userSpaceOnUse"
       id="clipPath40">
      <path
         d="M 0,500 H 500 V 0 H 0 Z"
         id="path40-9" />
    </clipPath>
    <clipPath
       clipPathUnits="userSpaceOnUse"
       id="clipPath42">
      <path
         d="M 0,500 H 500 V 0 H 0 Z"
         transform="translate(-80.067002,-320.09341)"
         id="path42-2" />
    </clipPath>
    <clipPath
       clipPathUnits="userSpaceOnUse"
       id="clipPath44">
      <path
         d="M 0,500 H 500 V 0 H 0 Z"
         transform="translate(-131.7453,-311.37271)"
         id="path44-0" />
    </clipPath>
    <clipPath
       clipPathUnits="userSpaceOnUse"
       id="clipPath46">
      <path
         d="M 0,500 H 500 V 0 H 0 Z"
         transform="translate(-56.626601,-344.49191)"
         id="path46-2" />
    </clipPath>
    <clipPath
       clipPathUnits="userSpaceOnUse"
       id="clipPath48">
      <path
         d="M 0,500 H 500 V 0 H 0 Z"
         transform="translate(-56.453302,-339.67501)"
         id="path48-3" />
    </clipPath>
    <clipPath
       clipPathUnits="userSpaceOnUse"
       id="clipPath2">
      <path
         d="M 0,500 H 500 V 0 H 0 Z"
         transform="translate(-424.12851,-273.20181)"
         id="path2" />
    </clipPath>
    <clipPath
       clipPathUnits="userSpaceOnUse"
       id="clipPath4">
      <path
         d="M 0,500 H 500 V 0 H 0 Z"
         transform="translate(-174.108,-425.17991)"
         id="path4-5" />
    </clipPath>
    <clipPath
       clipPathUnits="userSpaceOnUse"
       id="clipPath6">
      <path
         d="M 0,500 H 500 V 0 H 0 Z"
         transform="translate(-162.6105,-332.31811)"
         id="path6-6" />
    </clipPath>
    <clipPath
       clipPathUnits="userSpaceOnUse"
       id="clipPath60">
      <path
         d="M 0,500 H 500 V 0 H 0 Z"
         transform="translate(-316.65301,-398.49871)"
         id="path60-2" />
    </clipPath>
    <clipPath
       clipPathUnits="userSpaceOnUse"
       id="clipPath63-7">
      <path
         d="M 0,500 H 500 V 0 H 0 Z"
         transform="matrix(1.3333333,0,0,-1.3333333,0,666.66667)"
         id="path63-3" />
    </clipPath>
    <clipPath
       clipPathUnits="userSpaceOnUse"
       id="clipPath61-8">
      <path
         d="m 241.253,410.654 h 41.88 V 304.86 h -41.88 z"
         transform="translate(-283.13341,-316.37861)"
         id="path61-9" />
    </clipPath>
    <clipPath
       clipPathUnits="userSpaceOnUse"
       id="clipPath66">
      <path
         d="M 0,500 H 500 V 0 H 0 Z"
         transform="matrix(1.3333333,0,0,-1.3333333,0,666.66667)"
         id="path66-1" />
    </clipPath>
    <clipPath
       clipPathUnits="userSpaceOnUse"
       id="clipPath64">
      <path
         d="m 282.804,410.654 h 41.573 V 304.86 h -41.573 z"
         transform="translate(-283.13341,-304.86001)"
         id="path64-6" />
    </clipPath>
    <clipPath
       clipPathUnits="userSpaceOnUse"
       id="clipPath69-3">
      <path
         d="M 0,500 H 500 V 0 H 0 Z"
         transform="matrix(1.3333333,0,0,-1.3333333,0,666.66667)"
         id="path69-1" />
    </clipPath>
    <clipPath
       clipPathUnits="userSpaceOnUse"
       id="clipPath67-2">
      <path
         d="m 270.014,381.715 h 26.239 v -37.079 h -26.239 z"
         transform="translate(-289.89031,-370.27121)"
         id="path67-9" />
    </clipPath>
    <clipPath
       clipPathUnits="userSpaceOnUse"
       id="clipPath71-9">
      <path
         d="M 0,500 H 500 V 0 H 0 Z"
         transform="translate(-255.48301,-370.44161)"
         id="path71-4" />
    </clipPath>
    <clipPath
       clipPathUnits="userSpaceOnUse"
       id="clipPath73-7">
      <path
         d="M 0,500 H 500 V 0 H 0 Z"
         transform="translate(-255.9811,-361.80151)"
         id="path73-8" />
    </clipPath>
    <clipPath
       clipPathUnits="userSpaceOnUse"
       id="clipPath75-4">
      <path
         d="M 0,500 H 500 V 0 H 0 Z"
         transform="translate(-328.14031,-408.54071)"
         id="path75-5" />
    </clipPath>
  </defs>
  <g
     inkscape:label="Capa 1"
     inkscape:groupmode="layer"
     id="layer1">
    <path
       id="path4"
       d="m 0,0 c -0.835,1.082 -1.731,2.12 -2.693,3.111 -21.529,22.195 -60.336,18.372 -87.028,10.015 -29.572,-9.26 -64.419,-32.866 -77.114,-66.199 -4.583,-12.035 -6.484,-25.783 -2.933,-37.933 5.041,-17.243 19.873,-28.044 34.89,-34.198 33.192,-13.604 72.625,-9.836 103.044,12.674 16.306,12.066 29.98,29.54 36.615,50.225 C 11.181,-42.355 12.57,-16.283 0,0"
       style="fill:#e6e6e6;fill-opacity:1;fill-rule:nonzero;stroke:none"
       transform="matrix(0.43523935,0,0,-0.43523935,78.051284,63.464736)"
       clip-path="url(#clipPath5)" />
    <path
       id="path6"
       d="m 0,0 -4.562,-12.685 c -0.84,-2.933 -0.44,-6.06 1.066,-9.508 1.725,-2.83 5.2,-3.921 8.119,-1.508 4.081,4.299 4.849,12.529 4.945,21.709 z"
       style="fill:#ffb54a;fill-opacity:1;fill-rule:nonzero;stroke:none"
       transform="matrix(0.37607936,0,0,-0.37607936,36.417679,113.62874)"
       clip-path="url(#clipPath7)" />
    <path
       id="path8"
       d="m 0,0 c -1.695,0 -3.227,0.46 -4.561,1.372 l 0.283,0.413 C -2.786,0.764 -1.025,0.35 0.949,0.549 L 1,0.052 C 0.66,0.017 0.327,0 0,0"
       style="fill:#514557;fill-opacity:1;fill-rule:nonzero;stroke:none"
       transform="matrix(0.37607936,0,0,-0.37607936,38.560316,115.75407)"
       clip-path="url(#clipPath9)" />
    <path
       id="path10"
       d="m 0,0 c -1.695,0 -3.226,0.46 -4.561,1.372 l 0.283,0.413 C -2.786,0.765 -1.024,0.351 0.95,0.549 L 1.001,0.052 C 0.661,0.017 0.328,0 0,0"
       style="fill:#514557;fill-opacity:1;fill-rule:nonzero;stroke:none"
       transform="matrix(0.37607936,0,0,-0.37607936,38.280098,116.67867)"
       clip-path="url(#clipPath11)" />
    <path
       id="path12"
       d="m 0,0 c -1.696,0 -3.227,0.46 -4.561,1.372 l 0.283,0.413 C -2.786,0.765 -1.023,0.351 0.949,0.549 L 1,0.052 C 0.66,0.017 0.327,0 0,0"
       style="fill:#514557;fill-opacity:1;fill-rule:nonzero;stroke:none"
       transform="matrix(0.37607936,0,0,-0.37607936,38.041741,117.56121)"
       clip-path="url(#clipPath13)" />
    <path
       id="path14"
       d="M 0,0 C -2.371,-1.961 -5.165,-1.649 -7.056,0.055 -7.837,0.759 -8.348,1.711 -8.702,2.701 -9.575,5.14 -9.828,7.443 -9.484,9.615 -10.089,7.162 -9.906,4.537 -8.902,1.731 -8.548,0.74 -8.036,-0.212 -7.255,-0.917 -5.364,-2.621 -2.57,-2.933 -0.199,-0.972 1.903,1.242 3.149,4.504 3.881,8.397 3.129,4.935 1.924,2.027 0,0"
       style="fill:#514557;fill-opacity:1;fill-rule:nonzero;stroke:none"
       transform="matrix(0.37607936,0,0,-0.37607936,38.231245,122.17646)"
       clip-path="url(#clipPath15)" />
    <path
       id="path16"
       d="m 0,0 6.527,-11.794 c 1.298,-2.762 1.402,-5.913 0.466,-9.557 -1.252,-3.069 -4.509,-4.7 -7.775,-2.784 -4.714,3.593 -6.893,11.74 -8.453,20.788 z"
       style="fill:#ffb54a;fill-opacity:1;fill-rule:nonzero;stroke:none"
       transform="matrix(0.37607936,0,0,-0.37607936,57.738144,113.2607)"
       clip-path="url(#clipPath17)" />
    <path
       id="path18"
       d="M 0,0 -0.029,0.499 C 1.955,0.617 3.625,1.308 4.935,2.553 L 5.279,2.191 C 3.882,0.862 2.105,0.125 0,0"
       style="fill:#514557;fill-opacity:1;fill-rule:nonzero;stroke:none"
       transform="matrix(0.37607936,0,0,-0.37607936,55.58746,115.74159)"
       clip-path="url(#clipPath19)" />
    <path
       id="path20"
       d="M 0,0 -0.029,0.499 C 1.953,0.617 3.624,1.308 4.935,2.554 L 5.279,2.191 C 3.88,0.862 2.104,0.125 0,0"
       style="fill:#514557;fill-opacity:1;fill-rule:nonzero;stroke:none"
       transform="matrix(0.37607936,0,0,-0.37607936,56.011641,116.6098)"
       clip-path="url(#clipPath21)" />
    <path
       id="path22"
       d="M 0,0 -0.029,0.499 C 1.955,0.617 3.625,1.308 4.935,2.553 L 5.279,2.191 C 3.882,0.862 2.105,0.125 0,0"
       style="fill:#514557;fill-opacity:1;fill-rule:nonzero;stroke:none"
       transform="matrix(0.37607936,0,0,-0.37607936,56.387719,117.44293)"
       clip-path="url(#clipPath23)" />
    <path
       id="path24"
       d="M 0,0 C 2.654,-1.557 5.362,-0.803 6.957,1.18 7.615,2 7.968,3.021 8.16,4.055 8.633,6.603 8.515,8.916 7.829,11.005 8.817,8.681 9.056,6.06 8.512,3.129 8.32,2.095 7.968,1.073 7.309,0.252 5.714,-1.731 3.006,-2.485 0.352,-0.928 -2.076,0.922 -3.827,3.944 -5.171,7.671 -3.876,4.373 -2.223,1.694 0,0"
       style="fill:#514557;fill-opacity:1;fill-rule:nonzero;stroke:none"
       transform="matrix(0.37607936,0,0,-0.37607936,57.311746,121.98842)"
       clip-path="url(#clipPath25)" />
    <path
       id="path26"
       d="M 0,0 -33.598,-16.958 -67.196,0 c -2.705,-5.75 -0.339,-18.243 5.09,-34.809 1.502,-3.806 6.401,-4.71 9.559,-2.479 l 4.95,12.727 c 8.438,-1.611 17.847,-1.473 27.997,0 l 4.951,-12.727 c 3.158,-2.231 8.057,-1.327 9.56,2.479 C 0.34,-18.243 2.705,-5.75 0,0"
       style="fill:#514557;fill-opacity:1;fill-rule:nonzero;stroke:none"
       transform="matrix(0.37607936,0,0,-0.37607936,59.774275,100.49642)"
       clip-path="url(#clipPath27)" />
    <path
       id="path28"
       d="m 0,0 c -9.759,-7.45 -19.705,-17.523 -26.978,-27.771 -0.374,3.088 -0.689,5.888 -0.681,8.367 -7.967,-1.574 -15.112,-0.418 -21.686,3.029 0,0 -14.008,-32.355 0.124,-47.107 12.645,-13.265 54.445,25.336 54.445,25.336 z"
       style="fill:#5580fd;fill-opacity:1;fill-rule:nonzero;stroke:none"
       transform="matrix(0.37607936,0,0,-0.37607936,29.616659,73.313101)"
       clip-path="url(#clipPath29)" />
    <path
       id="path30"
       d="m 0,0 c -2.916,3.337 -6.612,6.217 -13.877,9.08 -6.795,2.676 -14.002,4.156 -21.294,4.564 l -11.386,0.636 0.008,0.183 -1.822,-0.082 -1.463,0.082 -10e-4,-0.148 -16.78,-0.752 C -74.39,13.215 -82.076,11.613 -89.263,8.627 -95.797,5.913 -99.26,3.161 -102.022,0 c 0,0 13.45,-48.862 15.433,-53.325 1.984,-4.463 -0.806,-7.004 2.5,-17.004 5.054,-10.142 16.946,-14.955 33.004,-14.876 16.057,-0.079 28.098,4.734 33.151,14.876 3.306,10 0.517,12.541 2.5,17.004 C -13.45,-48.862 0,0 0,0"
       style="fill:#5580fd;fill-opacity:1;fill-rule:nonzero;stroke:none"
       transform="matrix(0.37607936,0,0,-0.37607936,66.350888,74.830093)"
       clip-path="url(#clipPath31)" />
    <path
       id="path32"
       d="M 0,0 0.726,-17.998 8.21,10.181 C 5.202,6.823 2.459,3.43 0,0"
       style="fill:#514557;fill-opacity:1;fill-rule:nonzero;stroke:none"
       transform="matrix(0.37607936,0,0,-0.37607936,19.490454,83.702143)"
       clip-path="url(#clipPath33)" />
    <path
       id="path34"
       d="M 0,0 -3.352,11.799 -3.859,-3.365 c 0,0 1.963,1.63 3.859,3.365"
       style="fill:#514557;fill-opacity:1;fill-rule:nonzero;stroke:none"
       transform="matrix(0.37607936,0,0,-0.37607936,31.581184,87.659027)"
       clip-path="url(#clipPath35)" />
    <path
       id="path36"
       d="M 0,0 C 0,0 2.096,-7.541 5.561,-10.391 3.393,-9.075 1.658,-7.414 0.536,-5.268 0.483,-3.578 0.512,-1.584 0,0"
       style="fill:#514557;fill-opacity:1;fill-rule:nonzero;stroke:none"
       transform="matrix(0.37607936,0,0,-0.37607936,33.878768,95.11322)"
       clip-path="url(#clipPath37)" />
    <path
       id="path38"
       d="m 0,0 c 0,0 -2.138,-7.498 -5.603,-10.349 2.168,1.317 3.989,2.977 5.111,5.124 C -0.439,-3.536 -0.512,-1.584 0,0"
       style="fill:#514557;fill-opacity:1;fill-rule:nonzero;stroke:none"
       transform="matrix(0.37607936,0,0,-0.37607936,60.44415,95.129204)"
       clip-path="url(#clipPath39)" />
    <path
       id="path40"
       d="M 0,0 C 8.53,7.647 15.239,10.983 18.072,5.149 L 9.674,-1.509 C 8.502,-3.972 7.191,-6.382 5.778,-8.713 c -1.41,-2.328 -3.966,-4.855 -6.15,-6.519 -3.562,-2.713 -8.052,-3.011 -12.362,-2.931 -4.217,0.079 -8.818,2.246 -10.977,5.962 -2.445,4.208 -3.699,9.039 -3.976,13.883 -0.036,0.639 -0.066,1.284 -0.042,1.924 -1.739,6.582 -3.508,13.258 -4.15,16.396 -0.594,2.878 3.295,4.352 4.4,0.838 1.299,-3.819 2.793,-8.695 4.378,-14.059 -1.343,7.211 -2.592,14.112 -3.05,18.407 -0.394,3.626 4.131,4.464 5.109,0.743 1.361,-5.149 2.796,-10.948 4.286,-17.239 -1.281,7.228 -2.345,13.939 -3.013,19.717 -0.597,3.768 4.727,4.984 5.547,0.754 l 3.941,-19.199 c -0.82,7.014 -1.551,13.657 -1.861,18.538 -0.082,3.449 4.478,4.138 5.255,0.341 C -4.44,16.884 -3.048,5.359 0,0"
       style="fill:#ffffff;fill-opacity:1;fill-rule:nonzero;stroke:#c3bbc9;stroke-width:0.375;stroke-dasharray:none;stroke-opacity:1"
       transform="matrix(0.37607936,0,0,-0.37607936,19.763319,74.768943)"
       clip-path="url(#clipPath41)" />
    <path
       id="path42"
       d="M 0,0 -0.219,0.449 C 4.49,2.746 9.941,4.239 15.982,4.886 L 16.036,4.389 C 10.052,3.748 4.657,2.271 0,0"
       style="fill:#c3bbc9;fill-opacity:1;fill-rule:nonzero;stroke:none"
       transform="matrix(0.37607936,0,0,-0.37607936,10.611079,72.660302)"
       clip-path="url(#clipPath43)" />
    <path
       id="path44"
       d="M 0,0 -0.498,0.047 C 0.288,8.372 9.225,10.559 9.314,10.581 L 9.429,10.094 C 9.342,10.073 0.752,7.963 0,0"
       style="fill:#c3bbc9;fill-opacity:1;fill-rule:nonzero;stroke:none"
       transform="matrix(0.37607936,0,0,-0.37607936,16.239041,78.656476)"
       clip-path="url(#clipPath45)" />
    <path
       id="path46"
       d="m 0,0 c -0.255,0.459 -0.524,0.77 -0.921,1.027 0,0 -4.073,-2 -2.775,-3.944 z"
       style="fill:#514557;fill-opacity:1;fill-rule:nonzero;stroke:none"
       transform="matrix(0.37607936,0,0,-0.37607936,26.443865,72.929314)"
       clip-path="url(#clipPath47)" />
    <path
       id="path48"
       d="m 0,0 c 9.759,-7.45 19.705,-17.523 26.978,-27.771 0.374,3.088 0.689,5.888 0.681,8.367 7.967,-1.574 15.112,-0.418 21.686,3.029 0,0 14.008,-32.355 -0.124,-47.107 -12.645,-13.265 -54.445,25.336 -54.445,25.336 z"
       style="fill:#5580fd;fill-opacity:1;fill-rule:nonzero;stroke:none"
       transform="matrix(0.37607936,0,0,-0.37607936,64.714717,73.313101)"
       clip-path="url(#clipPath49)" />
    <path
       id="path50"
       d="M 0,0 -0.725,-17.998 -8.209,10.181 C -5.201,6.823 -2.458,3.43 0,0"
       style="fill:#514557;fill-opacity:1;fill-rule:nonzero;stroke:none"
       transform="matrix(0.37607936,0,0,-0.37607936,74.840581,83.702143)"
       clip-path="url(#clipPath51)" />
    <path
       id="path52"
       d="M 0,0 3.352,11.799 3.553,-3.102 C 1.602,-1.466 1.61,-1.485 0,0"
       style="fill:#514557;fill-opacity:1;fill-rule:nonzero;stroke:none"
       transform="matrix(0.37607936,0,0,-0.37607936,62.750229,87.659027)"
       clip-path="url(#clipPath53)" />
    <path
       id="path54"
       d="m 0,0 c 0,-9.729 -7.886,-17.614 -17.614,-17.614 -9.728,0 -17.615,7.885 -17.615,17.614 0,9.728 7.887,17.614 17.615,17.614 C -7.886,17.614 0,9.728 0,0"
       style="fill:#ffffff;fill-opacity:1;fill-rule:nonzero;stroke:none"
       transform="matrix(0.37607936,0,0,-0.37607936,54.387954,77.483597)"
       clip-path="url(#clipPath55)" />
    <path
       id="path56"
       d="M 0,0 C -6.222,9.619 -11.818,14.601 -16.085,9.716 L -9.73,1.085 c 0.484,-2.684 1.115,-5.354 1.866,-7.974 0.749,-2.616 2.552,-5.726 4.222,-7.905 2.724,-3.554 6.979,-5.02 11.159,-6.076 4.089,-1.032 9.097,-0.149 12.157,2.87 3.465,3.417 5.943,7.75 7.482,12.351 0.203,0.607 0.402,1.221 0.547,1.845 3.406,5.894 6.867,11.871 8.311,14.731 1.329,2.621 -2.036,5.064 -4.026,1.964 C 29.731,9.547 27.009,5.235 24.07,0.475 c 3.192,6.606 6.21,12.936 7.78,16.961 1.332,3.394 -2.815,5.391 -4.735,2.058 -2.667,-4.611 -5.574,-9.829 -8.664,-15.508 3.135,6.638 5.923,12.834 8.086,18.233 1.567,3.479 -3.252,6.05 -5.154,2.185 L 12.537,6.914 c 2.634,6.552 5.084,12.77 6.664,17.398 0.986,3.307 -3.233,5.169 -4.979,1.709 C 8.72,15.125 4.349,4.371 0,0"
       style="fill:#ffffff;fill-opacity:1;fill-rule:nonzero;stroke:#c3bbc9;stroke-width:0.375;stroke-dasharray:none;stroke-opacity:1"
       transform="matrix(0.37607936,0,0,-0.37607936,75.003273,73.8181)"
       clip-path="url(#clipPath57)" />
    <path
       id="path58"
       d="m 0,0 c -3.898,3.416 -8.716,6.257 -14.32,8.446 l 0.181,0.466 C -8.479,6.702 -3.612,3.83 0.329,0.376 Z"
       style="fill:#c3bbc9;fill-opacity:1;fill-rule:nonzero;stroke:none"
       transform="matrix(0.37607936,0,0,-0.37607936,84.387994,74.187412)"
       clip-path="url(#clipPath59)" />
    <path
       id="path60"
       d="M 0,0 -0.492,0.085 C 0.873,7.966 -6.86,12.258 -6.938,12.301 L -6.7,12.74 C -6.619,12.696 1.428,8.239 0,0"
       style="fill:#c3bbc9;fill-opacity:1;fill-rule:nonzero;stroke:none"
       transform="matrix(0.37607936,0,0,-0.37607936,77.567908,78.526802)"
       clip-path="url(#clipPath61)" />
    <path
       id="path62"
       d="m 0,0 c 0.366,0.375 0.708,0.605 1.158,0.749 0,0 3.404,-2.999 1.642,-4.535 z"
       style="fill:#514557;fill-opacity:1;fill-rule:nonzero;stroke:none"
       transform="matrix(0.37607936,0,0,-0.37607936,69.040721,70.288145)"
       clip-path="url(#clipPath63)" />
    <path
       id="path64"
       d="M 0,0 C -2.001,-2.971 1.121,-10.68 5.845,-11.316 V 1.556 C 5.845,1.556 2.002,2.971 0,0"
       style="fill:#ffffff;fill-opacity:1;fill-rule:nonzero;stroke:#c3bbc9;stroke-width:0.375;stroke-dasharray:none;stroke-opacity:1"
       transform="matrix(0.37607936,0,0,-0.37607936,37.767765,64.354253)"
       clip-path="url(#clipPath65)" />
    <path
       id="path66"
       d="M 0,0 C 2.002,-2.971 -1.12,-10.68 -5.844,-11.316 V 1.556 c 0,0 3.843,1.415 5.844,-1.556"
       style="fill:#ffffff;fill-opacity:1;fill-rule:nonzero;stroke:#c3bbc9;stroke-width:0.375;stroke-dasharray:none;stroke-opacity:1"
       transform="matrix(0.37607936,0,0,-0.37607936,57.759468,64.354253)"
       clip-path="url(#clipPath67)" />
    <path
       id="path68"
       d="m 0,0 v 0 c -8.959,0 -16.289,7.33 -16.289,16.289 v 28.778 c 0,8.959 7.33,16.289 16.289,16.289 8.96,0 16.29,-7.33 16.29,-16.289 V 16.289 C 16.29,7.33 8.96,0 0,0"
       style="fill:#ffffff;fill-opacity:1;fill-rule:nonzero;stroke:none"
       transform="matrix(0.37607936,0,0,-0.37607936,47.763616,82.627685)"
       clip-path="url(#clipPath69)" />
    <path
       id="path70"
       d="m 0,0 v 17.087 c 0,8.959 -7.329,16.289 -16.289,16.289 -8.959,0 -16.289,-7.33 -16.289,-16.289 V -7.424 C -9.924,-17.693 0,0 0,0"
       style="fill:#514557;fill-opacity:1;fill-rule:nonzero;stroke:none"
       transform="matrix(0.37607936,0,0,-0.37607936,53.889574,73.728482)"
       clip-path="url(#clipPath71)" />
    <path
       id="path72"
       d="m 0,0 v -31.723 c 0,-11.404 9.331,-20.735 20.734,-20.735 11.405,0 20.736,9.331 20.736,20.735 V 0 Z"
       style="fill:#ffffff;fill-opacity:1;fill-rule:nonzero;stroke:#c3bbc9;stroke-width:0.375;stroke-dasharray:none;stroke-opacity:1"
       transform="matrix(0.37607936,0,0,-0.37607936,39.965838,56.981028)"
       clip-path="url(#clipPath73)" />
    <path
       id="path74"
       d="m 0,0 c -3.567,7.691 -5.428,17.107 -2.765,20.567 -6.314,9.589 6.204,19.854 15.492,13.93 0.96,10.448 17.692,11.488 21.134,2.522 C 43.524,48.255 63.938,41.342 52.17,20.327 53.039,15.116 52.077,6.443 49.558,0.164 48.248,0.569 46.964,0.588 45.71,0.134 v 13.194 c -13.823,-4.67 -27.647,-4.67 -41.47,0 V 0.134 C 2.637,0.636 1.229,0.571 0,0"
       style="fill:#514557;fill-opacity:1;fill-rule:nonzero;stroke:none"
       transform="matrix(0.37607936,0,0,-0.37607936,38.371186,63.820218)"
       clip-path="url(#clipPath75)" />
    <path
       id="path76"
       d="M 0,0 V 7.365 L -2.434,1.004 C -1.688,0.475 -0.883,0.123 0,0"
       style="fill:#514557;fill-opacity:1;fill-rule:nonzero;stroke:none"
       transform="matrix(0.37607936,0,0,-0.37607936,39.965838,68.610117)"
       clip-path="url(#clipPath77)" />
    <path
       id="path78"
       d="M 0,0 V 7.365 L 2.434,1.004 C 1.688,0.475 0.883,0.123 0,0"
       style="fill:#514557;fill-opacity:1;fill-rule:nonzero;stroke:none"
       transform="matrix(0.37607936,0,0,-0.37607936,55.561736,68.610117)"
       clip-path="url(#clipPath79)" />
    <path
       id="path80"
       d="M 0,0 C 5.066,-5.868 12.356,-5.572 17.933,0.029 12.436,-1.564 6.458,-1.574 0,0"
       style="fill:#ffffff;fill-opacity:1;fill-rule:nonzero;stroke:#c3bbc9;stroke-width:0.375;stroke-linecap:round;stroke-linejoin:round;stroke-dasharray:none;stroke-opacity:1"
       transform="matrix(0.37607936,0,0,-0.37607936,44.391727,70.389498)"
       clip-path="url(#clipPath81)" />
    <path
       id="path82"
       d="M 0,0 C 3.644,-2.856 8.028,-2.655 11.873,0.312 7.925,-1.804 3.67,-1.962 0,0"
       style="fill:#514557;fill-opacity:1;fill-rule:nonzero;stroke:none"
       transform="matrix(0.37607936,0,0,-0.37607936,45.556709,72.205247)"
       clip-path="url(#clipPath83)" />
    <path
       id="path84"
       d="m 0,0 v 0 c -0.836,0 -1.521,0.685 -1.521,1.521 v 1.231 c 0,0.836 0.685,1.521 1.521,1.521 0.837,0 1.521,-0.685 1.521,-1.521 V 1.521 C 1.521,0.685 0.837,0 0,0"
       style="fill:#514557;fill-opacity:1;fill-rule:nonzero;stroke:none"
       transform="matrix(0.37607936,0,0,-0.37607936,43.593688,66.230775)"
       clip-path="url(#clipPath85)" />
    <path
       id="path86"
       d="m 0,0 v 0 c -0.837,0 -1.521,0.685 -1.521,1.521 v 1.231 c 0,0.836 0.684,1.521 1.521,1.521 0.836,0 1.521,-0.685 1.521,-1.521 V 1.521 C 1.521,0.685 0.836,0 0,0"
       style="fill:#514557;fill-opacity:1;fill-rule:nonzero;stroke:none"
       transform="matrix(0.37607936,0,0,-0.37607936,51.933886,66.230775)"
       clip-path="url(#clipPath87)" />
    <path
       id="path88"
       d="M 0,0 9.527,-0.39 C 9.527,-0.39 6.835,4.119 0,0"
       style="fill:#514557;fill-opacity:1;fill-rule:nonzero;stroke:none"
       transform="matrix(0.37607936,0,0,-0.37607936,41.802159,63.641206)"
       clip-path="url(#clipPath89)" />
    <path
       id="path90"
       d="m 0,0 -9.523,-0.465 c 0,0 2.656,4.529 9.523,0.465"
       style="fill:#514557;fill-opacity:1;fill-rule:nonzero;stroke:none"
       transform="matrix(0.37607936,0,0,-0.37607936,53.712554,63.661402)"
       clip-path="url(#clipPath91)" />
    <path
       id="path92"
       d="M 0,0 C 2.922,-3.042 5.951,-3.042 9.087,0 5.912,-1.12 2.89,-1.068 0,0"
       style="fill:#514557;fill-opacity:1;fill-rule:nonzero;stroke:none"
       transform="matrix(0.37607936,0,0,-0.37607936,46.085213,68.707972)"
       clip-path="url(#clipPath93)" />
    <path
       id="path94"
       d="m 0,0 c -5.37,0 -9.738,-3.587 -9.738,-7.996 0,-4.409 4.368,-7.996 9.738,-7.996 5.37,0 9.738,3.587 9.738,7.996 C 9.738,-3.587 5.37,0 0,0 m 0,-16.492 c -5.646,0 -10.238,3.812 -10.238,8.496 0,4.685 4.592,8.496 10.238,8.496 5.646,0 10.238,-3.811 10.238,-8.496 0,-4.684 -4.592,-8.496 -10.238,-8.496"
       style="fill:#ffcc00;fill-opacity:1;fill-rule:nonzero;stroke:none"
       transform="matrix(0.37607936,0,0,-0.37607936,43.168754,62.953695)"
       clip-path="url(#clipPath95)" />
    <path
       id="path96"
       d="m 0,0 c -5.37,0 -9.739,-3.587 -9.739,-7.996 0,-4.409 4.369,-7.996 9.739,-7.996 5.369,0 9.738,3.587 9.738,7.996 C 9.738,-3.587 5.369,0 0,0 m 0,-16.492 c -5.646,0 -10.239,3.812 -10.239,8.496 0,4.685 4.593,8.496 10.239,8.496 5.646,0 10.238,-3.811 10.238,-8.496 0,-4.684 -4.592,-8.496 -10.238,-8.496"
       style="fill:#ffcc00;fill-opacity:1;fill-rule:nonzero;stroke:none"
       transform="matrix(0.37607936,0,0,-0.37607936,52.419065,62.953695)"
       clip-path="url(#clipPath97)" />
    <path
       id="path98"
       d="M 0,0 C -1.812,1.513 -3.855,1.514 -5.608,0.002 L -5.935,0.381 C -4.008,2.043 -1.67,2.046 0.32,0.384 Z"
       style="fill:#ffcc00;fill-opacity:1;fill-rule:nonzero;stroke:none"
       transform="matrix(0.37607936,0,0,-0.37607936,48.849247,64.92845)"
       clip-path="url(#clipPath99)" />
    <path
       id="path33-4"
       d="M 0,0 V -117.807 H 87.669 V 0.023 C 87.669,0.023 0,-0.951 0,0"
       style="fill:#e1e1e1;fill-opacity:1;fill-rule:nonzero;stroke:none"
       transform="matrix(0.21164808,0,0,-0.21164808,7.9050018,14.209612)"
       clip-path="url(#clipPath34)" />
    <path
       id="path35-0"
       d="m 0,0 v -18.331 l 87.701,-0.535 v 19.11 z"
       style="fill:#ececec;fill-opacity:1;fill-rule:nonzero;stroke:none"
       transform="matrix(0.21164808,0,0,-0.21164808,7.9050018,14.261169)"
       clip-path="url(#clipPath36)" />
    <path
       id="path37-5"
       d="m 0,0 v -3.584 h 28.081 v 3.106 C 28.081,-0.478 0.72,0 0,0"
       style="fill:#ffffff;fill-opacity:1;fill-rule:nonzero;stroke:none"
       transform="matrix(0.21164808,0,0,-0.21164808,14.617201,15.994567)"
       clip-path="url(#clipPath38)" />
    <path
       id="path39-9"
       d="m 56.453,350.926 h 27.454 v 29.437 H 56.453 Z"
       style="fill:#fafafa;fill-opacity:1;fill-rule:nonzero;stroke:none"
       transform="matrix(0.21164808,0,0,-0.21164808,-3.0082199,100.42844)"
       clip-path="url(#clipPath40)" />
    <path
       id="path41-4"
       d="m 0,0 c 0,0 0.419,0.016 1.216,0.023 0.838,0.005 2.003,0.012 3.48,0.021 3.063,0.008 7.415,0.02 12.759,0.035 L 17.376,0 c -0.006,8.755 -0.015,20.337 -0.025,33.012 0.001,2.513 0.001,4.984 0.001,7.382 v 0.103 h 0.103 c 9.601,-0.009 18.293,-0.017 25.239,-0.024 l -0.079,-0.078 c 0.087,5.459 0.157,9.91 0.207,13.042 0.029,1.512 0.052,2.704 0.069,3.561 0.018,0.815 0.039,1.245 0.039,1.245 0,0 0.01,-0.43 0.007,-1.245 -0.006,-0.857 -0.015,-2.05 -0.026,-3.562 -0.033,-3.133 -0.08,-7.583 -0.138,-13.043 L 42.772,40.315 H 42.694 C 35.748,40.308 27.056,40.3 17.455,40.291 l 0.103,0.103 c 0.001,-2.398 0.001,-4.869 0.001,-7.382 C 17.549,20.337 17.541,8.755 17.534,0 v -0.079 l -0.079,0.001 C 12.111,-0.064 7.759,-0.052 4.696,-0.043 3.219,-0.035 2.054,-0.028 1.216,-0.022 0.419,-0.015 0,0 0,0"
       style="fill:#fafafa;fill-opacity:1;fill-rule:nonzero;stroke:none"
       transform="matrix(0.21164808,0,0,-0.21164808,13.937804,32.681283)"
       clip-path="url(#clipPath42)" />
    <path
       id="path43-6"
       d="m 0,0 c 0,0 -0.723,-0.019 -2.079,-0.028 -1.394,-0.006 -3.374,-0.014 -5.876,-0.025 -5.098,-0.009 -12.318,-0.022 -20.969,-0.037 h -0.09 V 0 c -0.004,8.459 -0.009,18.435 -0.014,29.084 10e-4,4.685 0.002,9.239 0.003,13.586 v 0.101 h 0.101 c 6.246,-0.004 12.077,-0.009 17.312,-0.013 L -11.7,42.67 c 0.015,8.138 0.028,14.906 0.037,19.681 0.011,2.34 0.018,4.19 0.024,5.494 0.009,1.266 0.027,1.941 0.027,1.941 0,0 0.018,-0.675 0.027,-1.941 0.006,-1.304 0.014,-3.154 0.024,-5.494 0.009,-4.775 0.022,-11.543 0.037,-19.681 l 10e-4,-0.088 h -0.089 c -5.235,-0.004 -11.066,-0.008 -17.312,-0.013 l 0.102,0.101 c 0,-4.347 10e-4,-8.901 0.003,-13.586 C -28.825,18.435 -28.83,8.459 -28.834,0 l -0.09,0.09 C -20.273,0.075 -13.053,0.062 -7.955,0.053 -5.453,0.042 -3.473,0.034 -2.079,0.028 -0.723,0.019 0,0 0,0"
       style="fill:#ececec;fill-opacity:1;fill-rule:nonzero;stroke:none"
       transform="matrix(0.21164808,0,0,-0.21164808,24.875424,34.527002)"
       clip-path="url(#clipPath44)" />
    <path
       id="path45-9"
       d="M 0,0 V -2.764 H 22.209 V 0.553 Z"
       style="fill:#fafafa;fill-opacity:1;fill-rule:nonzero;stroke:none"
       transform="matrix(0.21164808,0,0,-0.21164808,8.976687,27.517385)"
       clip-path="url(#clipPath46)" />
    <path
       id="path47-2"
       d="M 0,0 V -2.764 H 22.209 V 0.553 Z"
       style="fill:#fafafa;fill-opacity:1;fill-rule:nonzero;stroke:none"
       transform="matrix(0.21164808,0,0,-0.21164808,8.9400192,28.536872)"
       clip-path="url(#clipPath48)" />
    <path
       id="path1"
       d="m 0,0 h -250.02 c -5.982,0 -10.831,4.849 -10.831,10.831 v 131.316 c 0,5.982 4.849,10.831 10.831,10.831 H 0 c 5.981,0 10.831,-4.849 10.831,-10.831 V 10.831 C 10.831,4.849 5.981,0 0,0"
       style="fill:#f5f5f5;fill-opacity:1;fill-rule:nonzero;stroke:none"
       transform="matrix(0.21164808,0,0,-0.21164808,84.669261,41.979247)"
       clip-path="url(#clipPath2)" />
    <path
       id="path3-8"
       d="m 0,0 c -5.42,0 -9.831,-4.41 -9.831,-9.831 v -131.316 c 0,-5.421 4.411,-9.831 9.831,-9.831 h 250.02 c 5.421,0 9.832,4.41 9.832,9.831 V -9.831 C 259.852,-4.41 255.441,0 250.02,0 Z M 250.02,-152.978 H 0 c -6.523,0 -11.831,5.308 -11.831,11.831 V -9.831 C -11.831,-3.308 -6.523,2 0,2 h 250.02 c 6.524,0 11.832,-5.308 11.832,-11.831 v -131.316 c 0,-6.523 -5.308,-11.831 -11.832,-11.831"
       style="fill:#e1e1e1;fill-opacity:1;fill-rule:nonzero;stroke:none"
       transform="matrix(0.21164808,0,0,-0.21164808,31.752902,9.8133743)"
       clip-path="url(#clipPath4)" />
    <path
       id="path5-8"
       d="m 0,0 h 42.979 v -22.278 h 39.176 v -26.179 h 133.016 v 41.456 h 27.45 V 47.06 h 29.061 v -91.039 c 0,-8.251 -6.689,-14.941 -14.941,-14.941 H 16.268 C 7.284,-58.92 0,-51.636 0,-42.651 Z"
       style="fill:#e1e1e1;fill-opacity:1;fill-rule:nonzero;stroke:none"
       transform="matrix(0.21164808,0,0,-0.21164808,29.319476,29.467397)"
       clip-path="url(#clipPath6)" />
    <path
       id="path59-1"
       d="M 0,0 -33.849,12.155 -67.368,0.164 C -71.647,-1.857 -75.4,-3.067 -75.4,-7.054 v -19.847 c 0,-13.784 3.611,-27.442 11.042,-39.501 6.252,-10.147 15.934,-20.596 30.838,-27.237 13.702,4.451 23.929,16.315 30.181,26.463 7.431,12.058 11.042,25.717 11.042,39.501 V -9.828 C 7.703,-4.143 4.69,-1.367 0,0"
       style="fill:#f2ab07;fill-opacity:1;fill-rule:nonzero;stroke:none"
       transform="matrix(0.21164809,0,0,-0.21164809,61.922284,15.4604)"
       clip-path="url(#clipPath60)" />
    <g
       opacity="0.300003"
       id="g62"
       clip-path="url(#clipPath63-7)"
       transform="matrix(0.15873607,0,0,0.15873607,-5.0967199,-6.0221568)">
      <path
         d="m 0,0 c -11.792,5.254 -19.452,13.697 -24.399,21.725 -5.878,9.54 -8.736,20.347 -8.736,31.252 v 13.922 c 0,3.154 1.903,6.108 5.68,7.872 l 27.132,10.145 -0.006,9.359 -33.519,-11.991 c -3.519,-1.537 -8.033,-3.231 -8.033,-7.218 V 55.219 c 0,-13.783 3.612,-27.442 11.042,-39.501 C -24.587,5.571 -14.904,-4.877 0,-11.519 Z"
         style="fill:#000000;fill-opacity:1;fill-rule:nonzero;stroke:none"
         transform="matrix(1.3333333,0,0,-1.3333333,377.5112,244.82853)"
         clip-path="url(#clipPath61-8)"
         id="path62-2" />
    </g>
    <g
       opacity="0.399994"
       id="g65"
       clip-path="url(#clipPath66)"
       transform="matrix(0.15873607,0,0,0.15873607,-5.0967199,-6.0221568)">
      <path
         d="m 0,0 c 2.374,0.795 4.556,1.711 6.649,2.852 5.621,3.061 10.414,7.265 14.073,11.069 4.091,4.256 7.14,8.856 9.788,13.152 7.43,12.058 11.042,25.717 10.713,39.881 l 0.02,16.386 c -0.02,8.16 -4.206,8.762 -7.723,10.299 l -33.849,12.155 0.006,-9.36 27.448,-10.309 c 3.778,-1.763 5.681,-4.717 5.681,-7.871 V 64.332 C 32.806,53.426 29.948,42.62 24.07,33.08 19.123,25.051 11.792,16.772 0,11.519 Z"
         style="fill:#000000;fill-opacity:1;fill-rule:nonzero;stroke:none"
         transform="matrix(1.3333333,0,0,-1.3333333,377.5112,260.18667)"
         clip-path="url(#clipPath64)"
         id="path65-8" />
    </g>
    <g
       opacity="0.5"
       id="g68"
       clip-path="url(#clipPath69-3)"
       transform="matrix(0.15873607,0,0,0.15873607,-5.0967199,-6.0221568)">
      <path
         d="m 0,0 h -13.788 l 0.037,2.656 c 0,3.802 3.093,6.895 6.895,6.895 3.8,0 6.894,-3.093 6.894,-6.882 z m -4.514,-16.785 h -4.29 l 0.67,3.098 c -0.742,0.462 -1.239,1.283 -1.239,2.221 0,1.445 1.172,2.616 2.616,2.616 1.445,0 2.615,-1.171 2.615,-2.616 0,-0.905 -0.459,-1.702 -1.157,-2.172 0.304,-1.2 0.785,-3.147 0.785,-3.147 m 6.408,16.763 0.038,2.678 c 0,4.846 -3.943,8.788 -8.788,8.788 -4.846,0 -8.789,-3.942 -8.789,-8.775 l -0.038,-2.728 c -2.372,-0.351 -4.193,-2.389 -4.193,-4.858 v -15.8 c 0,-2.716 2.201,-4.918 4.918,-4.918 H 1.444 c 2.716,0 4.918,2.202 4.918,4.918 v 15.8 c 0,2.563 -1.964,4.667 -4.468,4.895"
         style="fill:#ffffff;fill-opacity:1;fill-rule:nonzero;stroke:none"
         transform="matrix(1.3333333,0,0,-1.3333333,386.5204,172.97173)"
         clip-path="url(#clipPath67-2)"
         id="path68-9" />
    </g>
    <path
       id="path70-3"
       d="m 0,0 c -0.074,-0.011 -0.31,1.033 -0.507,2.749 -0.203,1.713 -0.353,4.102 -0.275,6.738 0.037,1.319 0.125,2.573 0.244,3.709 0.109,1.135 0.317,2.199 0.757,2.995 0.429,0.8 1.03,1.278 1.482,1.49 0.459,0.213 0.745,0.203 0.749,0.171 C 2.508,17.777 1.308,17.541 0.593,16.003 0.24,15.259 0.084,14.27 0.005,13.146 -0.083,12.018 -0.153,10.775 -0.19,9.47 -0.268,6.861 -0.186,4.496 -0.09,2.784 0,1.072 0.088,0.012 0,0"
       style="fill:#ffffff;fill-opacity:1;fill-rule:nonzero;stroke:none"
       transform="matrix(0.21164809,0,0,-0.21164809,48.97577,21.398631)"
       clip-path="url(#clipPath71-9)" />
    <path
       id="path72-6"
       d="m 0,0 c -0.164,-0.003 -0.312,0.812 -0.332,1.821 -0.02,1.01 0.097,1.83 0.26,1.834 C 0.091,3.658 0.24,2.843 0.26,1.833 0.279,0.824 0.163,0.003 0,0"
       style="fill:#ffffff;fill-opacity:1;fill-rule:nonzero;stroke:none"
       transform="matrix(0.21164809,0,0,-0.21164809,49.081191,23.227293)"
       clip-path="url(#clipPath73-7)" />
    <path
       id="path74-8"
       d="m 0,0 c 0,0 0.954,-0.188 2.682,-0.873 0.863,-0.339 1.909,-0.846 3.028,-1.634 1.102,-0.794 2.307,-1.898 3.157,-3.484 0.877,-1.564 1.4,-3.545 1.46,-5.729 0.052,-2.177 0.026,-4.537 0.042,-7.086 10e-4,-5.095 0.049,-10.92 0.011,-17.406 -0.057,-6.492 -0.886,-13.643 -2.737,-21.151 -1.898,-7.491 -4.908,-15.321 -9.309,-22.96 -4.428,-7.61 -10.052,-15.147 -17.097,-21.884 -7.027,-6.694 -15.638,-12.616 -25.732,-15.755 l -0.088,-0.028 -0.084,0.036 c -3.473,1.5 -6.939,3.175 -10.331,5.107 -3.375,1.958 -6.684,4.14 -9.869,6.567 -6.384,4.839 -12.195,10.73 -17.206,17.365 -5.469,7.241 -9.787,15.168 -12.808,23.371 -3.031,8.201 -4.789,16.657 -5.377,24.953 -0.318,4.152 -0.233,8.255 -0.244,12.277 0.002,4.026 0.003,7.99 0.005,11.884 0.002,1.948 0.003,3.878 0.004,5.79 0.012,0.954 -0.042,1.902 0.099,2.887 0.136,0.976 0.561,1.906 1.16,2.669 1.214,1.543 2.928,2.464 4.572,3.28 1.669,0.797 3.355,1.483 4.994,2.214 l 0.01,0.005 0.01,0.003 c 16.916,5.7 31.97,10.773 44.586,15.025 l 0.055,0.018 0.055,-0.019 C -30.833,10.614 -19.595,6.77 -11.872,4.128 -8.027,2.803 -5.061,1.779 -3.042,1.083 -2.048,0.735 -1.289,0.469 -0.767,0.286 -0.256,0.104 0,0 0,0 c 0,0 -0.266,0.073 -0.781,0.24 -0.526,0.173 -1.288,0.424 -2.288,0.752 -2.026,0.677 -5.002,1.672 -8.859,2.961 -7.734,2.607 -18.991,6.401 -33.134,11.168 h 0.11 C -57.559,10.84 -72.603,5.733 -89.505,-0.006 l 0.02,0.007 c -1.646,-0.736 -3.331,-1.425 -4.978,-2.215 -1.623,-0.806 -3.283,-1.717 -4.403,-3.153 -0.555,-0.711 -0.942,-1.556 -1.067,-2.461 -0.128,-0.891 -0.08,-1.857 -0.088,-2.812 0.001,-1.912 0.002,-3.842 0.003,-5.79 0.002,-3.894 0.004,-7.858 0.006,-11.884 0.016,-4.03 -0.065,-8.116 0.254,-12.241 0.592,-8.25 2.344,-16.658 5.361,-24.811 3.007,-8.154 7.3,-16.033 12.74,-23.235 4.983,-6.598 10.759,-12.456 17.104,-17.269 3.166,-2.413 6.455,-4.584 9.81,-6.534 3.372,-1.922 6.818,-3.59 10.271,-5.085 l -0.172,0.009 c 10,3.103 18.555,8.968 25.552,15.619 7.014,6.689 12.63,14.191 17.048,21.756 4.395,7.595 7.407,15.382 9.315,22.836 1.861,7.471 2.708,14.593 2.787,21.061 0.022,6.48 0.043,12.307 0.06,17.402 -0.004,2.546 0.035,4.916 -0.004,7.079 -0.047,2.159 -0.549,4.108 -1.399,5.653 -0.823,1.566 -2,2.662 -3.082,3.46 -1.099,0.791 -2.131,1.308 -2.986,1.659 -0.85,0.362 -1.518,0.588 -1.969,0.728 C 0.228,-0.084 0,0 0,0"
       style="fill:#f2ab07;fill-opacity:1;fill-rule:nonzero;stroke:none"
       transform="matrix(0.21164809,0,0,-0.21164809,64.353549,13.335029)"
       clip-path="url(#clipPath75-4)" />
  </g>
</svg>
