<?xml version="1.0" encoding="UTF-8" standalone="no"?>
<!-- Created with Inkscape (http://www.inkscape.org/) -->

<svg
   width="64"
   height="64"
   viewBox="0 0 16.933333 16.933333"
   version="1.1"
   id="svg1"
   inkscape:version="1.3.2 (1:1.3.2+202404261509+091e20ef0f)"
   sodipodi:docname="read.svg"
   xmlns:inkscape="http://www.inkscape.org/namespaces/inkscape"
   xmlns:sodipodi="http://sodipodi.sourceforge.net/DTD/sodipodi-0.dtd"
   xmlns="http://www.w3.org/2000/svg"
   xmlns:svg="http://www.w3.org/2000/svg">
  <sodipodi:namedview
     id="namedview1"
     pagecolor="#ffffff"
     bordercolor="#999999"
     borderopacity="1"
     inkscape:showpageshadow="2"
     inkscape:pageopacity="0"
     inkscape:pagecheckerboard="0"
     inkscape:deskcolor="#d1d1d1"
     inkscape:document-units="mm"
     inkscape:zoom="4.946268"
     inkscape:cx="36.492159"
     inkscape:cy="43.669287"
     inkscape:window-width="1920"
     inkscape:window-height="963"
     inkscape:window-x="0"
     inkscape:window-y="32"
     inkscape:window-maximized="1"
     inkscape:current-layer="layer1" />
  <defs
     id="defs1">
    <clipPath
       clipPathUnits="userSpaceOnUse"
       id="clipPath1646">
      <path
         d="M 0,1080 H 1920 V 0 H 0 Z"
         transform="translate(-1383.6555,-794.23272)"
         id="path1646" />
    </clipPath>
  </defs>
  <g
     inkscape:label="Capa 1"
     inkscape:groupmode="layer"
     id="layer1">
    <path
       id="path1645"
       d="m 0,0 -0.704,0.586 c -0.327,0.273 -0.802,0.273 -1.129,0 L -2.537,0 Z M 5.787,-2.527 7.234,-3.732 C 7.435,-3.9 7.552,-4.148 7.552,-4.41 v -8.82 c 0,-1.461 -1.185,-2.646 -2.646,-2.646 H -7.442 c -1.461,0 -2.646,1.185 -2.646,2.646 v 8.82 c 0,0.262 0.116,0.51 0.317,0.678 l 1.447,1.205 v 1.645 c 0,0.487 0.395,0.882 0.882,0.882 h 2.15 l 2.33,1.941 c 0.981,0.818 2.406,0.818 3.388,0 L 2.755,0 H 4.906 C 5.393,0 5.787,-0.395 5.787,-0.882 Z M -6.56,-5.582 -1.854,-9.765 c 0.334,-0.297 0.838,-0.297 1.172,0 l 4.706,4.183 v 2.642 1.176 H 2.436 -4.973 -6.56 V -2.94 Z m 11.466,-8.53 c 0.487,0 0.881,0.395 0.881,0.882 v 6.856 L 5.492,-6.637 0.49,-11.083 c -1.003,-0.891 -2.514,-0.891 -3.516,0 l -5.002,4.446 -0.296,0.263 v -6.856 c 0,-0.487 0.395,-0.882 0.882,-0.882 z"
       style="fill:#cccccc;fill-opacity:1;fill-rule:evenodd;stroke:none"
       transform="matrix(0.81936435,0,0,-0.81936435,9.5601406,2.8308989)"
       clip-path="url(#clipPath1646)" />
  </g>
</svg>
