<?xml version="1.0" encoding="UTF-8" standalone="no"?>
<!-- Created with Inkscape (http://www.inkscape.org/) -->

<svg
   width="64"
   height="64"
   viewBox="0 0 16.933333 16.933333"
   version="1.1"
   id="svg1"
   xml:space="preserve"
   inkscape:version="1.4.2 (1:1.4.2+202505120737+ebf0e940d0)"
   sodipodi:docname="rotate_mobile.svg"
   xmlns:inkscape="http://www.inkscape.org/namespaces/inkscape"
   xmlns:sodipodi="http://sodipodi.sourceforge.net/DTD/sodipodi-0.dtd"
   xmlns="http://www.w3.org/2000/svg"
   xmlns:svg="http://www.w3.org/2000/svg"><sodipodi:namedview
     id="namedview1"
     pagecolor="#ffffff"
     bordercolor="#999999"
     borderopacity="1"
     inkscape:showpageshadow="2"
     inkscape:pageopacity="0"
     inkscape:pagecheckerboard="0"
     inkscape:deskcolor="#d1d1d1"
     inkscape:document-units="mm"
     inkscape:zoom="7.6599266"
     inkscape:cx="48.433884"
     inkscape:cy="47.781136"
     inkscape:window-width="1920"
     inkscape:window-height="963"
     inkscape:window-x="1920"
     inkscape:window-y="32"
     inkscape:window-maximized="1"
     inkscape:current-layer="layer1" /><defs
     id="defs1" /><g
     inkscape:label="Capa 1"
     inkscape:groupmode="layer"
     id="layer1"><path
       style="fill:#000000;stroke-width:0.225543"
       d="M 1.6106499,16.06937 C 1.324967,15.977656 0.93725552,15.573912 0.84798533,15.275141 c -0.10630042,-0.355769 -0.10630042,-13.1764726 0,-13.5322424 0.0947277,-0.317037 0.48177537,-0.704084 0.79881247,-0.79881237 0.3508121,-0.10482096 6.5575718,-0.10482096 6.9083841,0 0.3154481,0.094254 0.7240132,0.49929917 0.8077212,0.80076347 0.040583,0.1461493 0.063938,1.1355112 0.064148,2.7174335 l 3.383e-4,2.4876116 2.7301076,0.018719 2.730102,0.018718 0.307254,0.1620491 c 0.168985,0.089125 0.390316,0.2628252 0.491842,0.3859932 0.371818,0.4510776 0.370113,0.4309909 0.351551,4.1426369 -0.01663,3.32024 -0.01855,3.368565 -0.145871,3.604062 -0.15212,0.281389 -0.444693,0.56923 -0.73624,0.72433 -0.199738,0.106252 -0.495631,0.111509 -6.7730477,0.120465 -4.7053755,0.0065 -6.6231549,-0.0094 -6.7724322,-0.05748 z m 6.9384076,-0.534521 c 0.2736351,-0.179379 0.3520996,-0.364071 0.386082,-0.908765 l 0.031672,-0.507671 H 5.1094014 1.2519909 l 6.538e-4,0.313294 c 0.00113,0.5421 0.062876,0.760726 0.2746278,0.972477 0.1087558,0.108763 0.2725703,0.209572 0.3640299,0.224029 0.091459,0.01445 1.5907406,0.02306 3.3317354,0.0191 2.9165215,-0.0065 3.1780729,-0.01549 3.326017,-0.112451 z M 1.8828344,15.039106 c -0.2624827,-0.262485 0.00694,-0.443296 0.6605533,-0.443296 0.5549556,0 0.6555444,0.0258 0.7439468,0.191009 0.04849,0.09061 0.039215,0.143321 -0.040742,0.231675 -0.088568,0.09787 -0.18774,0.114378 -0.6867494,0.114378 -0.4506462,0 -0.6045508,-0.02132 -0.6770071,-0.09378 z m 5.1144974,0.01915 C 6.8659036,14.888332 6.8628576,14.833014 6.9785574,14.717315 7.082347,14.613523 7.1765217,14.595792 7.6238746,14.595792 c 0.3774913,0 0.5608357,0.02595 0.6564184,0.09291 0.1633379,0.114402 0.1716741,0.299731 0.017203,0.382401 -0.1690943,0.09048 -1.2283352,0.08004 -1.300162,-0.01279 z M 13.485241,11.582242 V 7.4945473 H 11.457583 9.429921 L 9.413733,11.358466 c -0.014844,3.543491 -0.024849,3.88076 -0.1206177,4.067025 -0.057439,0.111709 -0.1044288,0.212413 -0.1044288,0.22378 0,0.01136 0.9667255,0.02063 2.1482805,0.02063 h 2.148274 z m 1.483075,3.943059 c 0.216676,-0.112046 0.471985,-0.410562 0.530958,-0.620809 0.02459,-0.08774 0.04474,-1.623021 0.04474,-3.41176 0,-3.6347591 0.01966,-3.4597618 -0.427036,-3.8004732 -0.183331,-0.1398355 -0.288473,-0.1700467 -0.656479,-0.188629 l -0.438188,-0.022124 v 4.1028452 4.10285 l 0.386202,-0.03607 c 0.212412,-0.01984 0.464321,-0.07647 0.559803,-0.125835 z m -0.337323,-1.478505 c -0.182484,-0.182483 0.01623,-0.519599 0.252795,-0.428827 0.151448,0.0581 0.190202,0.32564 0.06088,0.420209 -0.135541,0.09909 -0.220831,0.101434 -0.313667,0.0086 z m -0.03839,-2.089949 c -0.105596,-0.150739 -0.123567,-0.59367 -0.03113,-0.76641 0.06904,-0.129023 0.294058,-0.153446 0.403687,-0.04383 0.107982,0.107983 0.09159,0.735315 -0.02218,0.849083 -0.129653,0.129651 -0.241025,0.11731 -0.350401,-0.03887 z M 8.9499888,8.5090196 V 3.4366956 H 5.1009898 1.2519909 v 5.072324 5.0723244 h 3.8489989 3.848999 z M 8.9351393,2.3919559 C 8.9011535,1.8472058 8.8226767,1.6625234 8.5489797,1.48319 8.4004127,1.3858451 8.1412964,1.3779289 5.1036139,1.3779289 c -3.0776951,0 -3.2947983,0.00686 -3.444675,0.1085762 C 1.3820038,1.6744837 1.2996303,1.8663655 1.2662622,2.4012122 L 1.2351671,2.8996261 H 5.1009898 8.9668119 Z M 4.4594898,2.3577767 C 4.339613,2.2879549 4.3211439,2.0622958 4.4266691,1.9567706 4.5346463,1.8487934 5.1619845,1.8651694 5.2757507,1.9789346 5.4054034,2.1085876 5.3930549,2.2199581 5.2368982,2.3293348 5.0877287,2.4338167 4.6194579,2.4509485 4.4594901,2.3577755 Z m 2.5595568,-0.006 C 6.9046285,2.287757 6.889421,2.0600187 6.9926682,1.9567709 7.1692577,1.7801816 7.438779,1.9550795 7.3759335,2.2054654 7.3357481,2.3655773 7.1671818,2.4346891 7.0190466,2.3517885 Z m 7.2121254,3.854935 C 14.198345,6.1928236 13.907801,5.9265016 13.585496,5.6148882 12.978811,5.0283193 12.902861,4.8760756 13.142119,4.7260954 c 0.11907,-0.074641 0.133564,-0.066752 0.582226,0.3167466 l 0.308237,0.2634716 -0.039,-0.2933091 C 13.786697,3.457408 12.767336,2.2599895 11.403919,1.9709941 c -0.21734,-0.046068 -0.496441,-0.084227 -0.62022,-0.084797 -0.180905,-8.346e-4 -0.238238,-0.029959 -0.292229,-0.148455 -0.106026,-0.2327169 0.01837,-0.3301497 0.420161,-0.3290944 0.825871,0.00219 1.677083,0.3675938 2.351133,1.0093398 0.237239,0.2258685 0.521711,0.560604 0.632163,0.7438569 0.276047,0.4580028 0.533769,1.2359855 0.582254,1.7576372 l 0.04044,0.435166 0.335896,-0.3323948 c 0.340569,-0.3370146 0.459957,-0.3898705 0.589039,-0.2607858 0.162151,0.1621499 0.06689,0.3284284 -0.516776,0.9018483 -0.323606,0.3179422 -0.598857,0.5759571 -0.611658,0.5733657 -0.01279,-0.00259 -0.05015,-0.016077 -0.08294,-0.029967 z"
       id="path1" /></g></svg>
