<?xml version="1.0" encoding="UTF-8" standalone="no"?>
<!-- Created with Inkscape (http://www.inkscape.org/) -->

<svg
   width="64"
   height="64"
   viewBox="0 0 16.933333 16.933333"
   version="1.1"
   id="svg1"
   xmlns="http://www.w3.org/2000/svg"
   xmlns:svg="http://www.w3.org/2000/svg">
  <defs
     id="defs1">
    <clipPath
       clipPathUnits="userSpaceOnUse"
       id="clipPath2">
      <path
         d="M 0,64 H 64 V 0 H 0 Z"
         transform="translate(-43.864601,-60.341702)"
         id="path2" />
    </clipPath>
    <clipPath
       clipPathUnits="userSpaceOnUse"
       id="clipPath4">
      <path
         d="M 0,64 H 64 V 0 H 0 Z"
         transform="translate(-4.9069001,-3.4228001)"
         id="path4" />
    </clipPath>
    <clipPath
       clipPathUnits="userSpaceOnUse"
       id="clipPath6">
      <path
         d="M 0,64 H 64 V 0 H 0 Z"
         transform="translate(-10.9624,-61.841502)"
         id="path6" />
    </clipPath>
    <clipPath
       clipPathUnits="userSpaceOnUse"
       id="clipPath8">
      <path
         d="M 0,64 H 64 V 0 H 0 Z"
         transform="translate(-1.7805,-9.0450005)"
         id="path8" />
    </clipPath>
    <clipPath
       clipPathUnits="userSpaceOnUse"
       id="clipPath10">
      <path
         d="M 0,64 H 64 V 0 H 0 Z"
         transform="translate(-43.864601,-13.2686)"
         id="path10" />
    </clipPath>
    <clipPath
       clipPathUnits="userSpaceOnUse"
       id="clipPath12">
      <path
         d="M 0,64 H 64 V 0 H 0 Z"
         transform="translate(-4.8754001,-3.4354998)"
         id="path12" />
    </clipPath>
    <clipPath
       clipPathUnits="userSpaceOnUse"
       id="clipPath14">
      <path
         d="M 0,64 H 64 V 0 H 0 Z"
         transform="translate(-39.009601,-45.100001)"
         id="path14" />
    </clipPath>
    <clipPath
       clipPathUnits="userSpaceOnUse"
       id="clipPath16">
      <path
         d="M 0,64 H 64 V 0 H 0 Z"
         transform="translate(-39.009801,-44.335201)"
         id="path16" />
    </clipPath>
    <clipPath
       clipPathUnits="userSpaceOnUse"
       id="clipPath18">
      <path
         d="M 0,64 H 64 V 0 H 0 Z"
         transform="translate(-39.009601,-41.651201)"
         id="path18" />
    </clipPath>
    <clipPath
       clipPathUnits="userSpaceOnUse"
       id="clipPath20">
      <path
         d="M 0,64 H 64 V 0 H 0 Z"
         transform="translate(-39.009801,-40.882301)"
         id="path20" />
    </clipPath>
    <clipPath
       clipPathUnits="userSpaceOnUse"
       id="clipPath22">
      <path
         d="M 0,64 H 64 V 0 H 0 Z"
         transform="translate(-46.731101,-23.680901)"
         id="path22" />
    </clipPath>
    <clipPath
       clipPathUnits="userSpaceOnUse"
       id="clipPath24">
      <path
         d="M 0,64 H 64 V 0 H 0 Z"
         transform="translate(-47.813701,-23.681)"
         id="path24" />
    </clipPath>
    <clipPath
       clipPathUnits="userSpaceOnUse"
       id="clipPath26">
      <path
         d="M 0,64 H 64 V 0 H 0 Z"
         transform="translate(-52.128202,-22.574)"
         id="path26" />
    </clipPath>
    <clipPath
       clipPathUnits="userSpaceOnUse"
       id="clipPath28">
      <path
         d="M 0,64 H 64 V 0 H 0 Z"
         transform="translate(-52.668502,-22.032601)"
         id="path28" />
    </clipPath>
    <clipPath
       clipPathUnits="userSpaceOnUse"
       id="clipPath30">
      <path
         d="M 0,64 H 64 V 0 H 0 Z"
         transform="translate(-43.864601,-7.4982004)"
         id="path30" />
    </clipPath>
    <clipPath
       clipPathUnits="userSpaceOnUse"
       id="clipPath32">
      <path
         d="M 0,64 H 64 V 0 H 0 Z"
         transform="translate(-15.145401,-61.841502)"
         id="path32" />
    </clipPath>
    <clipPath
       clipPathUnits="userSpaceOnUse"
       id="clipPath34">
      <path
         d="M 0,64 H 64 V 0 H 0 Z"
         transform="translate(-19.5354,-54.260001)"
         id="path34" />
    </clipPath>
    <clipPath
       clipPathUnits="userSpaceOnUse"
       id="clipPath232">
      <path
         d="M 0,64 H 64 V 0 H 0 Z"
         transform="translate(-52.876504,-36.941501)"
         id="path232" />
    </clipPath>
    <clipPath
       clipPathUnits="userSpaceOnUse"
       id="clipPath234">
      <path
         d="M 0,64 H 64 V 0 H 0 Z"
         transform="translate(-52.876504,-46.161501)"
         id="path234" />
    </clipPath>
    <clipPath
       clipPathUnits="userSpaceOnUse"
       id="clipPath236">
      <path
         d="M 0,64 H 64 V 0 H 0 Z"
         transform="translate(-7.9573002,-51.570801)"
         id="path236" />
    </clipPath>
    <clipPath
       clipPathUnits="userSpaceOnUse"
       id="clipPath238">
      <path
         d="M 0,64 H 64 V 0 H 0 Z"
         transform="translate(-52.876699,-35.949601)"
         id="path238" />
    </clipPath>
    <clipPath
       clipPathUnits="userSpaceOnUse"
       id="clipPath240">
      <path
         d="M 0,64 H 64 V 0 H 0 Z"
         transform="translate(-12.787203,-50.232401)"
         id="path240" />
    </clipPath>
    <clipPath
       clipPathUnits="userSpaceOnUse"
       id="clipPath242">
      <path
         d="M 0,64 H 64 V 0 H 0 Z"
         transform="translate(-10.238298,-56.522901)"
         id="path242" />
    </clipPath>
    <clipPath
       clipPathUnits="userSpaceOnUse"
       id="clipPath244">
      <path
         d="M 0,64 H 64 V 0 H 0 Z"
         transform="translate(-23.984403,-50.232401)"
         id="path244" />
    </clipPath>
    <clipPath
       clipPathUnits="userSpaceOnUse"
       id="clipPath246">
      <path
         d="M 0,64 H 64 V 0 H 0 Z"
         transform="translate(-21.435401,-56.522901)"
         id="path246" />
    </clipPath>
    <clipPath
       clipPathUnits="userSpaceOnUse"
       id="clipPath248">
      <path
         d="M 0,64 H 64 V 0 H 0 Z"
         transform="translate(-35.181498,-50.232401)"
         id="path248" />
    </clipPath>
    <clipPath
       clipPathUnits="userSpaceOnUse"
       id="clipPath250">
      <path
         d="M 0,64 H 64 V 0 H 0 Z"
         transform="translate(-32.632398,-56.522901)"
         id="path250" />
    </clipPath>
    <clipPath
       clipPathUnits="userSpaceOnUse"
       id="clipPath252">
      <path
         d="M 0,64 H 64 V 0 H 0 Z"
         transform="translate(-46.378601,-50.232401)"
         id="path252" />
    </clipPath>
    <clipPath
       clipPathUnits="userSpaceOnUse"
       id="clipPath254">
      <path
         d="M 0,64 H 64 V 0 H 0 Z"
         transform="translate(-43.830004,-56.522901)"
         id="path254" />
    </clipPath>
    <clipPath
       clipPathUnits="userSpaceOnUse"
       id="clipPath256">
      <path
         d="M 0,64 H 64 V 0 H 0 Z"
         transform="translate(-59.344399,-63.750002)"
         id="path256" />
    </clipPath>
    <clipPath
       clipPathUnits="userSpaceOnUse"
       id="clipPath258">
      <path
         d="M 0,64 H 64 V 0 H 0 Z"
         transform="translate(-61.576999,-48.317901)"
         id="path258" />
    </clipPath>
    <clipPath
       clipPathUnits="userSpaceOnUse"
       id="clipPath260">
      <path
         d="M 0,64 H 64 V 0 H 0 Z"
         transform="translate(-61.576999,-48.317901)"
         id="path260" />
    </clipPath>
    <clipPath
       clipPathUnits="userSpaceOnUse"
       id="clipPath262">
      <path
         d="M 0,64 H 64 V 0 H 0 Z"
         transform="translate(-51.309799,-52.521101)"
         id="path262" />
    </clipPath>
    <clipPath
       clipPathUnits="userSpaceOnUse"
       id="clipPath264">
      <path
         d="M 0,64 H 64 V 0 H 0 Z"
         transform="translate(-15.275598,-26.7149)"
         id="path264" />
    </clipPath>
    <clipPath
       clipPathUnits="userSpaceOnUse"
       id="clipPath266">
      <path
         d="M 0,64 H 64 V 0 H 0 Z"
         transform="translate(-12.030498,-31.059401)"
         id="path266" />
    </clipPath>
    <clipPath
       clipPathUnits="userSpaceOnUse"
       id="clipPath268">
      <path
         d="M 0,64 H 64 V 0 H 0 Z"
         transform="translate(-12.030498,-21.131401)"
         id="path268" />
    </clipPath>
    <clipPath
       clipPathUnits="userSpaceOnUse"
       id="clipPath270">
      <path
         d="M 0,64 H 64 V 0 H 0 Z"
         transform="translate(-12.030498,-11.2034)"
         id="path270" />
    </clipPath>
    <clipPath
       clipPathUnits="userSpaceOnUse"
       id="clipPath272">
      <path
         d="M 0,64 H 64 V 0 H 0 Z"
         transform="translate(-28.838501,-26.7149)"
         id="path272" />
    </clipPath>
    <clipPath
       clipPathUnits="userSpaceOnUse"
       id="clipPath274">
      <path
         d="M 0,64 H 64 V 0 H 0 Z"
         transform="translate(-25.593498,-31.059401)"
         id="path274" />
    </clipPath>
    <clipPath
       clipPathUnits="userSpaceOnUse"
       id="clipPath276">
      <path
         d="M 0,64 H 64 V 0 H 0 Z"
         transform="translate(-25.593498,-21.131401)"
         id="path276" />
    </clipPath>
    <clipPath
       clipPathUnits="userSpaceOnUse"
       id="clipPath278">
      <path
         d="M 0,64 H 64 V 0 H 0 Z"
         transform="translate(-25.593498,-11.2034)"
         id="path278" />
    </clipPath>
    <clipPath
       clipPathUnits="userSpaceOnUse"
       id="clipPath280">
      <path
         d="M 0,64 H 64 V 0 H 0 Z"
         transform="translate(-39.156401,-31.059401)"
         id="path280" />
    </clipPath>
    <clipPath
       clipPathUnits="userSpaceOnUse"
       id="clipPath282">
      <path
         d="M 0,64 H 64 V 0 H 0 Z"
         transform="translate(-39.156401,-21.131401)"
         id="path282" />
    </clipPath>
    <clipPath
       clipPathUnits="userSpaceOnUse"
       id="clipPath284">
      <path
         d="M 0,64 H 64 V 0 H 0 Z"
         transform="translate(-39.156401,-11.2034)"
         id="path284" />
    </clipPath>
    <clipPath
       clipPathUnits="userSpaceOnUse"
       id="clipPath36">
      <path
         d="M 0,64 H 64 V 0 H 0 Z"
         transform="translate(-58.047201,-9.2578002)"
         id="path36" />
    </clipPath>
    <clipPath
       clipPathUnits="userSpaceOnUse"
       id="clipPath38">
      <path
         d="M 0,64 H 64 V 0 H 0 Z"
         transform="translate(-54.817499,-4.6165001)"
         id="path38" />
    </clipPath>
    <clipPath
       clipPathUnits="userSpaceOnUse"
       id="clipPath40">
      <path
         d="M 0,64 H 64 V 0 H 0 Z"
         transform="translate(-62.633002,-49.093601)"
         id="path40" />
    </clipPath>
    <clipPath
       clipPathUnits="userSpaceOnUse"
       id="clipPath42">
      <path
         d="M 0,64 H 64 V 0 H 0 Z"
         transform="translate(-31.964203,-39.076301)"
         id="path42" />
    </clipPath>
    <clipPath
       clipPathUnits="userSpaceOnUse"
       id="clipPath44">
      <path
         d="M 0,64 H 64 V 0 H 0 Z"
         transform="translate(-58.789101,-8.1875)"
         id="path44" />
    </clipPath>
    <clipPath
       clipPathUnits="userSpaceOnUse"
       id="clipPath46">
      <path
         d="M 0,64 H 64 V 0 H 0 Z"
         transform="translate(-2.2343976,-49.859401)"
         id="path46" />
    </clipPath>
    <clipPath
       clipPathUnits="userSpaceOnUse"
       id="clipPath48">
      <path
         d="M 0,64 H 64 V 0 H 0 Z"
         transform="translate(-10.171903,-53.828102)"
         id="path48" />
    </clipPath>
    <clipPath
       clipPathUnits="userSpaceOnUse"
       id="clipPath50">
      <path
         d="M 0,64 H 64 V 0 H 0 Z"
         transform="translate(-16.124998,-53.828102)"
         id="path50" />
    </clipPath>
    <clipPath
       clipPathUnits="userSpaceOnUse"
       id="clipPath52">
      <path
         d="M 0,64 H 64 V 0 H 0 Z"
         transform="translate(-22.078101,-53.828102)"
         id="path52" />
    </clipPath>
    <clipPath
       clipPathUnits="userSpaceOnUse"
       id="clipPath54">
      <path
         d="M 0,64 H 64 V 0 H 0 Z"
         transform="translate(-54.820304,-4.2187001)"
         id="path54" />
    </clipPath>
    <clipPath
       clipPathUnits="userSpaceOnUse"
       id="clipPath56">
      <path
         d="M 0,64 H 64 V 0 H 0 Z"
         transform="translate(-32.000998,-8.1875)"
         id="path56" />
    </clipPath>
    <clipPath
       clipPathUnits="userSpaceOnUse"
       id="clipPath58">
      <path
         d="M 0,64 H 64 V 0 H 0 Z"
         transform="translate(-31.999003,-8.1875)"
         id="path58" />
    </clipPath>
    <clipPath
       clipPathUnits="userSpaceOnUse"
       id="clipPath60">
      <path
         d="M 0,64 H 64 V 0 H 0 Z"
         transform="translate(-32.000998,-4.2187001)"
         id="path60" />
    </clipPath>
    <clipPath
       clipPathUnits="userSpaceOnUse"
       id="clipPath62">
      <path
         d="M 0,64 H 64 V 0 H 0 Z"
         transform="translate(-31.999003,-4.2187001)"
         id="path62" />
    </clipPath>
    <clipPath
       clipPathUnits="userSpaceOnUse"
       id="clipPath64">
      <path
         d="M 0,64 H 64 V 0 H 0 Z"
         transform="translate(-32.000001,-4.2196999)"
         id="path64" />
    </clipPath>
    <clipPath
       clipPathUnits="userSpaceOnUse"
       id="clipPath66">
      <path
         d="M 0,64 H 64 V 0 H 0 Z"
         transform="translate(-25.054701,-35.968801)"
         id="path66" />
    </clipPath>
    <clipPath
       clipPathUnits="userSpaceOnUse"
       id="clipPath68">
      <path
         d="M 0,64 H 64 V 0 H 0 Z"
         transform="translate(-25.054701,-30.015601)"
         id="path68" />
    </clipPath>
    <clipPath
       clipPathUnits="userSpaceOnUse"
       id="clipPath70">
      <path
         d="M 0,64 H 64 V 0 H 0 Z"
         transform="translate(-25.054701,-24.062501)"
         id="path70" />
    </clipPath>
    <clipPath
       clipPathUnits="userSpaceOnUse"
       id="clipPath72">
      <path
         d="M 0,64 H 64 V 0 H 0 Z"
         transform="translate(-25.054701,-18.1094)"
         id="path72" />
    </clipPath>
    <clipPath
       clipPathUnits="userSpaceOnUse"
       id="clipPath74">
      <path
         d="M 0,64 H 64 V 0 H 0 Z"
         transform="translate(-46.882799,-35.968801)"
         id="path74" />
    </clipPath>
    <clipPath
       clipPathUnits="userSpaceOnUse"
       id="clipPath76">
      <path
         d="M 0,64 H 64 V 0 H 0 Z"
         transform="translate(-46.882799,-30.015601)"
         id="path76" />
    </clipPath>
    <clipPath
       clipPathUnits="userSpaceOnUse"
       id="clipPath78">
      <path
         d="M 0,64 H 64 V 0 H 0 Z"
         transform="translate(-46.882799,-24.062501)"
         id="path78" />
    </clipPath>
    <clipPath
       clipPathUnits="userSpaceOnUse"
       id="clipPath80">
      <path
         d="M 0,64 H 64 V 0 H 0 Z"
         transform="translate(-46.882799,-18.1094)"
         id="path80" />
    </clipPath>
  </defs>
  <g
     id="layer1">
    <path
       id="path35"
       d="m 0,0 h -52.391 c -2.564,0 -4.661,2.098 -4.661,4.662 v 31.629 c 0,2.564 2.097,4.662 4.661,4.662 H 0 c 2.564,0 4.662,-2.098 4.662,-4.662 V 4.662 C 4.662,2.098 2.564,0 0,0"
       style="fill:#ffffff;fill-opacity:1;fill-rule:nonzero;stroke:none"
       transform="matrix(0.2563996,0,0,-0.2563996,15.223242,14.581917)"
       clip-path="url(#clipPath36)" />
    <path
       id="path37"
       d="m 0,0 h -45.703 c -1.338,0 -2.433,1.095 -2.433,2.434 v 3.764 c 0,1.338 1.095,2.433 2.433,2.433 H 0 c 1.338,0 2.434,-1.095 2.434,-2.433 V 2.434 C 2.434,1.095 1.338,0 0,0"
       style="fill:#ffffff;fill-opacity:1;fill-rule:nonzero;stroke:none"
       transform="matrix(0.2563996,0,0,-0.2563996,14.395147,15.771945)"
       clip-path="url(#clipPath38)" />
    <path
       id="path39"
       d="m 0,0 h -61.841 v 7.229 c 0,1.553 1.27,2.824 2.823,2.824 H -2.824 C -1.271,10.053 0,8.782 0,7.229 Z"
       style="fill:#697ee9;fill-opacity:1;fill-rule:nonzero;stroke:none"
       transform="matrix(0.2563996,0,0,-0.2563996,16.399039,4.368034)"
       clip-path="url(#clipPath40)" />
    <path
       id="path41"
       d="m 0,0 v -29.042 c 0,0 3.249,3.199 8.073,3.3 h 11.881 c 0,0 0.609,0.051 0.711,2.082 0.101,2.031 0,25.894 0,25.894 0,0 -0.407,1.574 -2.438,1.625 -2.03,0.051 -12.947,0 -12.947,0 C 5.28,3.859 1.422,3.199 0,0"
       style="fill:#ffffff;fill-opacity:1;fill-rule:nonzero;stroke:none"
       transform="matrix(0.2563996,0,0,-0.2563996,8.5355707,6.9364652)"
       clip-path="url(#clipPath42)" />
    <path
       id="path43"
       d="m 0,0 h -1.984 c -0.549,0 -0.993,0.444 -0.993,0.992 0,0.549 0.444,0.992 0.993,0.992 H 0 c 1.641,0 2.977,1.336 2.977,2.977 V 39.688 H -56.555 V 4.961 c 0,-1.641 1.336,-2.977 2.977,-2.977 h 1.984 c 0.549,0 0.992,-0.443 0.992,-0.992 C -50.602,0.444 -51.045,0 -51.594,0 h -1.984 c -2.735,0 -4.961,2.226 -4.961,4.961 V 40.68 c 0,0.548 0.444,0.992 0.992,0.992 H 3.969 c 0.548,0 0.992,-0.444 0.992,-0.992 V 4.961 C 4.961,2.226 2.736,0 0,0"
       style="fill:#4e4957;fill-opacity:1;fill-rule:nonzero;stroke:none"
       transform="matrix(0.2563996,0,0,-0.2563996,15.413465,14.856343)"
       clip-path="url(#clipPath44)" />
    <path
       id="path45"
       d="m 0,0 h 59.531 v 4.961 c 0,1.641 -1.335,2.976 -2.976,2.976 H 2.977 C 1.335,7.937 0,6.602 0,4.961 Z M 60.523,-1.984 H -0.992 c -0.549,0 -0.992,0.443 -0.992,0.992 v 5.953 c 0,2.735 2.225,4.961 4.961,4.961 h 53.578 c 2.736,0 4.961,-2.226 4.961,-4.961 v -5.953 c 0,-0.549 -0.444,-0.992 -0.993,-0.992"
       style="fill:#4e4957;fill-opacity:1;fill-rule:nonzero;stroke:none"
       transform="matrix(0.2563996,0,0,-0.2563996,0.91286083,4.1716826)"
       clip-path="url(#clipPath46)" />
    <path
       id="path47"
       d="m 0,0 c 0,-1.096 -0.888,-1.984 -1.984,-1.984 -1.096,0 -1.985,0.888 -1.985,1.984 0,1.096 0.889,1.984 1.985,1.984 C -0.888,1.984 0,1.096 0,0"
       style="fill:#ffffff;fill-opacity:1;fill-rule:nonzero;stroke:none"
       transform="matrix(0.2563996,0,0,-0.2563996,2.9480337,3.1541096)"
       clip-path="url(#clipPath48)" />
    <path
       id="path49"
       d="m 0,0 c 0,-1.096 -0.888,-1.984 -1.984,-1.984 -1.096,0 -1.985,0.888 -1.985,1.984 0,1.096 0.889,1.984 1.985,1.984 C -0.888,1.984 0,1.096 0,0"
       style="fill:#ffffff;fill-opacity:1;fill-rule:nonzero;stroke:none"
       transform="matrix(0.2563996,0,0,-0.2563996,4.4744052,3.1541096)"
       clip-path="url(#clipPath50)" />
    <path
       id="path51"
       d="m 0,0 c 0,-1.096 -0.888,-1.984 -1.984,-1.984 -1.096,0 -1.985,0.888 -1.985,1.984 0,1.096 0.889,1.984 1.985,1.984 C -0.888,1.984 0,1.096 0,0"
       style="fill:#f69f00;fill-opacity:1;fill-rule:nonzero;stroke:none"
       transform="matrix(0.2563996,0,0,-0.2563996,6.0007782,3.1541096)"
       clip-path="url(#clipPath52)" />
    <path
       id="path53"
       d="m 0,0 h -45.641 c -1.641,0 -2.976,1.335 -2.976,2.977 v 27.781 c 0,1.641 1.335,2.976 2.976,2.976 h 1.985 c 0.548,0 0.992,-0.443 0.992,-0.992 0,-0.548 -0.444,-0.992 -0.992,-0.992 h -1.985 c -0.547,0 -0.992,-0.445 -0.992,-0.992 V 2.977 c 0,-0.548 0.445,-0.993 0.992,-0.993 H 0 c 0.546,0 0.992,0.445 0.992,0.993 V 30.758 C 0.992,31.305 0.546,31.75 0,31.75 h -1.984 c -0.549,0 -0.993,0.444 -0.993,0.992 0,0.549 0.444,0.992 0.993,0.992 H 0 c 1.641,0 2.977,-1.335 2.977,-2.976 V 2.977 C 2.977,1.335 1.641,0 0,0"
       style="fill:#4e4957;fill-opacity:1;fill-rule:nonzero;stroke:none"
       transform="matrix(0.2563996,0,0,-0.2563996,14.395866,15.873941)"
       clip-path="url(#clipPath54)" />
    <path
       id="path55"
       d="m 0,0 c -0.302,0 -0.6,0.137 -0.795,0.396 -1.678,2.238 -4.348,3.573 -7.143,3.573 h -10.915 c -1.641,0 -2.976,1.335 -2.976,2.976 v 25.797 c 0,1.642 1.335,2.977 2.976,2.977 h 10.915 c 3.416,0 6.68,-1.632 8.731,-4.365 0.329,-0.439 0.24,-1.061 -0.198,-1.39 -0.442,-0.327 -1.062,-0.238 -1.39,0.198 -1.678,2.237 -4.348,3.572 -7.143,3.572 h -10.915 c -0.547,0 -0.992,-0.444 -0.992,-0.992 V 6.945 c 0,-0.547 0.445,-0.992 0.992,-0.992 h 10.915 c 3.416,0 6.68,-1.632 8.731,-4.365 C 1.122,1.149 1.033,0.527 0.595,0.199 0.416,0.065 0.207,0 0,0"
       style="fill:#4e4957;fill-opacity:1;fill-rule:nonzero;stroke:none"
       transform="matrix(0.2563996,0,0,-0.2563996,8.5450053,14.856343)"
       clip-path="url(#clipPath56)" />
    <path
       id="path57"
       d="m 0,0 c -0.207,0 -0.416,0.065 -0.595,0.199 -0.438,0.328 -0.527,0.95 -0.198,1.389 2.051,2.733 5.315,4.365 8.731,4.365 h 10.915 c 0.546,0 0.992,0.445 0.992,0.992 v 25.797 c 0,0.548 -0.446,0.992 -0.992,0.992 H 7.938 c -2.794,0 -5.466,-1.335 -7.143,-3.572 -0.329,-0.439 -0.949,-0.525 -1.39,-0.198 -0.438,0.329 -0.527,0.951 -0.198,1.39 2.051,2.733 5.315,4.365 8.731,4.365 h 10.915 c 1.641,0 2.976,-1.335 2.976,-2.977 V 6.945 c 0,-1.641 -1.335,-2.976 -2.976,-2.976 H 7.938 C 5.144,3.969 2.472,2.634 0.795,0.396 0.6,0.137 0.301,0 0,0"
       style="fill:#4e4957;fill-opacity:1;fill-rule:nonzero;stroke:none"
       transform="matrix(0.2563996,0,0,-0.2563996,8.5444936,14.856343)"
       clip-path="url(#clipPath58)" />
    <path
       id="path59"
       d="m 0,0 c -0.302,0 -0.6,0.137 -0.795,0.396 -1.678,2.238 -4.348,3.573 -7.143,3.573 h -10.915 c -1.641,0 -2.976,1.335 -2.976,2.976 v 11.907 c 0,0.548 0.444,0.992 0.992,0.992 0.549,0 0.992,-0.444 0.992,-0.992 V 6.945 c 0,-0.547 0.445,-0.992 0.992,-0.992 h 10.915 c 3.416,0 6.68,-1.632 8.731,-4.365 C 1.122,1.149 1.033,0.527 0.595,0.199 0.416,0.065 0.207,0 0,0"
       style="fill:#4e4957;fill-opacity:1;fill-rule:nonzero;stroke:none"
       transform="matrix(0.2563996,0,0,-0.2563996,8.5450053,15.873941)"
       clip-path="url(#clipPath60)" />
    <path
       id="path61"
       d="m 0,0 c -0.207,0 -0.416,0.065 -0.595,0.199 -0.438,0.328 -0.527,0.95 -0.198,1.389 2.051,2.733 5.315,4.365 8.731,4.365 h 10.915 c 0.546,0 0.992,0.445 0.992,0.992 v 11.783 c 0,0.548 0.443,0.992 0.992,0.992 0.548,0 0.992,-0.444 0.992,-0.992 V 6.945 c 0,-1.641 -1.335,-2.976 -2.976,-2.976 H 7.938 C 5.144,3.969 2.472,2.634 0.795,0.396 0.6,0.137 0.301,0 0,0"
       style="fill:#4e4957;fill-opacity:1;fill-rule:nonzero;stroke:none"
       transform="matrix(0.2563996,0,0,-0.2563996,8.5444936,15.873941)"
       clip-path="url(#clipPath62)" />
    <path
       id="path63"
       d="m 0,0 c -0.548,0 -0.992,0.444 -0.992,0.992 v 33.734 c 0,0.548 0.444,0.992 0.992,0.992 0.548,0 0.992,-0.444 0.992,-0.992 V 0.992 C 0.992,0.444 0.548,0 0,0"
       style="fill:#4e4957;fill-opacity:1;fill-rule:nonzero;stroke:none"
       transform="matrix(0.2563996,0,0,-0.2563996,8.5447494,15.873685)"
       clip-path="url(#clipPath64)" />
    <path
       id="path65"
       d="m 0,0 h -7.937 c -0.549,0 -0.993,0.444 -0.993,0.992 0,0.549 0.444,0.992 0.993,0.992 H 0 C 0.548,1.984 0.992,1.541 0.992,0.992 0.992,0.444 0.548,0 0,0"
       style="fill:#4e4957;fill-opacity:1;fill-rule:nonzero;stroke:none"
       transform="matrix(0.2563996,0,0,-0.2563996,6.7639771,7.7332271)"
       clip-path="url(#clipPath66)" />
    <path
       id="path67"
       d="m 0,0 h -7.937 c -0.549,0 -0.993,0.444 -0.993,0.992 0,0.549 0.444,0.992 0.993,0.992 H 0 C 0.548,1.984 0.992,1.541 0.992,0.992 0.992,0.444 0.548,0 0,0"
       style="fill:#4e4957;fill-opacity:1;fill-rule:nonzero;stroke:none"
       transform="matrix(0.2563996,0,0,-0.2563996,6.7639771,9.2596258)"
       clip-path="url(#clipPath68)" />
    <path
       id="path69"
       d="m 0,0 h -7.937 c -0.549,0 -0.993,0.444 -0.993,0.992 0,0.549 0.444,0.992 0.993,0.992 H 0 C 0.548,1.984 0.992,1.541 0.992,0.992 0.992,0.444 0.548,0 0,0"
       style="fill:#4e4957;fill-opacity:1;fill-rule:nonzero;stroke:none"
       transform="matrix(0.2563996,0,0,-0.2563996,6.7639771,10.785998)"
       clip-path="url(#clipPath70)" />
    <path
       id="path71"
       d="m 0,0 h -7.937 c -0.549,0 -0.993,0.444 -0.993,0.992 0,0.549 0.444,0.992 0.993,0.992 H 0 C 0.548,1.984 0.992,1.541 0.992,0.992 0.992,0.444 0.548,0 0,0"
       style="fill:#4e4957;fill-opacity:1;fill-rule:nonzero;stroke:none"
       transform="matrix(0.2563996,0,0,-0.2563996,6.7639771,12.312371)"
       clip-path="url(#clipPath72)" />
    <path
       id="path73"
       d="m 0,0 h -7.937 c -0.549,0 -0.993,0.444 -0.993,0.992 0,0.549 0.444,0.992 0.993,0.992 H 0 C 0.548,1.984 0.992,1.541 0.992,0.992 0.992,0.444 0.548,0 0,0"
       style="fill:#4e4957;fill-opacity:1;fill-rule:nonzero;stroke:none"
       transform="matrix(0.2563996,0,0,-0.2563996,12.360694,7.7332271)"
       clip-path="url(#clipPath74)" />
    <path
       id="path75"
       d="m 0,0 h -7.937 c -0.549,0 -0.993,0.444 -0.993,0.992 0,0.549 0.444,0.992 0.993,0.992 H 0 C 0.548,1.984 0.992,1.541 0.992,0.992 0.992,0.444 0.548,0 0,0"
       style="fill:#4e4957;fill-opacity:1;fill-rule:nonzero;stroke:none"
       transform="matrix(0.2563996,0,0,-0.2563996,12.360694,9.2596258)"
       clip-path="url(#clipPath76)" />
    <path
       id="path77"
       d="m 0,0 h -7.937 c -0.549,0 -0.993,0.444 -0.993,0.992 0,0.549 0.444,0.992 0.993,0.992 H 0 C 0.548,1.984 0.992,1.541 0.992,0.992 0.992,0.444 0.548,0 0,0"
       style="fill:#4e4957;fill-opacity:1;fill-rule:nonzero;stroke:none"
       transform="matrix(0.2563996,0,0,-0.2563996,12.360694,10.785998)"
       clip-path="url(#clipPath78)" />
    <path
       id="path79"
       d="m 0,0 h -7.937 c -0.549,0 -0.993,0.444 -0.993,0.992 0,0.549 0.444,0.992 0.993,0.992 H 0 C 0.548,1.984 0.992,1.541 0.992,0.992 0.992,0.444 0.548,0 0,0"
       style="fill:#4e4957;fill-opacity:1;fill-rule:nonzero;stroke:none"
       transform="matrix(0.2563996,0,0,-0.2563996,12.360694,12.312371)"
       clip-path="url(#clipPath80)" />
  </g>
</svg>
