<?xml version="1.0" encoding="UTF-8" standalone="no"?>
<!-- Created with Inkscape (http://www.inkscape.org/) -->

<svg
   width="24"
   height="24"
   viewBox="0 0 6.3499999 6.3499999"
   version="1.1"
   id="svg1"
   xml:space="preserve"
   inkscape:version="1.4.1 (1:1.4.1+202503302257+93de688d07)"
   sodipodi:docname="search.svg"
   xmlns:inkscape="http://www.inkscape.org/namespaces/inkscape"
   xmlns:sodipodi="http://sodipodi.sourceforge.net/DTD/sodipodi-0.dtd"
   xmlns="http://www.w3.org/2000/svg"
   xmlns:svg="http://www.w3.org/2000/svg"><sodipodi:namedview
     id="namedview1"
     pagecolor="#ffffff"
     bordercolor="#999999"
     borderopacity="1"
     inkscape:showpageshadow="2"
     inkscape:pageopacity="0"
     inkscape:pagecheckerboard="0"
     inkscape:deskcolor="#d1d1d1"
     inkscape:document-units="mm"
     inkscape:zoom="3.8299633"
     inkscape:cx="132.5078"
     inkscape:cy="32.637388"
     inkscape:window-width="1920"
     inkscape:window-height="1043"
     inkscape:window-x="0"
     inkscape:window-y="0"
     inkscape:window-maximized="1"
     inkscape:current-layer="layer1" /><defs
     id="defs1" /><g
     inkscape:label="Capa 1"
     inkscape:groupmode="layer"
     id="layer1"><rect
       style="fill:#b3b3b3;fill-opacity:0;stroke-width:0.131018;stroke-linecap:round;stroke-linejoin:round"
       id="rect1"
       width="6.3499999"
       height="6.3499999"
       x="-2.0816683e-17"
       y="0" /><path
       d="M 1.0865915,4.7945991 2.0240707,3.8571198 C 1.8303692,3.5651818 1.7169956,3.2156328 1.7169956,2.8398706 c 0,-1.018177 0.8283488,-1.84652588 1.8465189,-1.84652588 1.0181702,0 1.8465194,0.82834888 1.8465194,1.84652588 0,1.0181703 -0.8283492,1.8465192 -1.8465194,1.8465192 -0.3757689,0 -0.725311,-0.1133736 -1.0172489,-0.307075 L 1.6087867,5.3167937 c -0.1440254,0.1442141 -0.37817,0.1442141 -0.5221952,0 -0.14421357,-0.1442138 -0.14421357,-0.3779811 0,-0.5221946 z M 4.8560772,2.8398706 c 0,-0.7127631 -0.5798066,-1.2925695 -1.2925627,-1.2925695 -0.7127562,0 -1.2925624,0.5798064 -1.2925624,1.2925695 0,0.7127561 0.5798062,1.2925627 1.2925624,1.2925627 0.7127561,0 1.2925627,-0.5798066 1.2925627,-1.2925627 z"
       id="XMLID_223_"
       style="fill:#cccccc;stroke-width:0.184652" /></g></svg>
