<?xml version="1.0" encoding="UTF-8" standalone="no"?>
<!-- Created with Inkscape (http://www.inkscape.org/) -->

<svg
   width="64"
   height="64"
   viewBox="0 0 16.933333 16.933333"
   version="1.1"
   id="svg1"
   xml:space="preserve"
   inkscape:version="1.4.2 (1:1.4.2+202505120737+ebf0e940d0)"
   sodipodi:docname="smile.svg"
   xmlns:inkscape="http://www.inkscape.org/namespaces/inkscape"
   xmlns:sodipodi="http://sodipodi.sourceforge.net/DTD/sodipodi-0.dtd"
   xmlns="http://www.w3.org/2000/svg"
   xmlns:svg="http://www.w3.org/2000/svg"><sodipodi:namedview
     id="namedview1"
     pagecolor="#ffffff"
     bordercolor="#999999"
     borderopacity="1"
     inkscape:showpageshadow="2"
     inkscape:pageopacity="0"
     inkscape:pagecheckerboard="0"
     inkscape:deskcolor="#d1d1d1"
     inkscape:document-units="mm"
     inkscape:zoom="5.1170595"
     inkscape:cx="52.960104"
     inkscape:cy="24.037243"
     inkscape:window-width="1920"
     inkscape:window-height="963"
     inkscape:window-x="1920"
     inkscape:window-y="32"
     inkscape:window-maximized="1"
     inkscape:current-layer="layer1" /><defs
     id="defs1"><radialGradient
       cx="259.5"
       cy="95.494515"
       fx="259.5"
       fy="95.494515"
       id="radialGradient-1"
       r="309.71799"
       gradientUnits="userSpaceOnUse"><stop
         offset="0%"
         stop-color="#FDE990"
         id="stop1" /><stop
         offset="100%"
         stop-color="#FACE57"
         id="stop2" /></radialGradient><radialGradient
       cx="259.5"
       cy="241.14834"
       fx="259.5"
       fy="241.14834"
       id="radialGradient-2"
       r="291.2647"
       gradientUnits="userSpaceOnUse"><stop
         offset="0%"
         stop-color="#D27C12"
         stop-opacity="0.186216128"
         id="stop3" /><stop
         offset="82.3426943%"
         stop-color="#D27C12"
         stop-opacity="0"
         id="stop4" /><stop
         offset="100%"
         stop-color="#D27C12"
         stop-opacity="0.176081731"
         id="stop5" /></radialGradient><radialGradient
       cx="50%"
       cy="50%"
       fx="50%"
       fy="50%"
       id="radialGradient-3"
       r="50%"><stop
         offset="0%"
         stop-color="#F6756A"
         id="stop6" /><stop
         offset="100%"
         stop-color="#F66F6A"
         stop-opacity="0"
         id="stop7" /></radialGradient></defs><g
     inkscape:label="Capa 1"
     inkscape:groupmode="layer"
     id="layer1"><g
       id="g1"><rect
         style="fill:#ffffff;stroke-width:0.181625;stroke-linecap:round;stroke-linejoin:round;fill-opacity:0"
         id="rect1"
         width="16.933332"
         height="16.933332"
         x="0"
         y="0"
         ry="0" /><g
         id="Group"
         style="fill:none;fill-rule:evenodd;stroke:none;stroke-width:1"
         transform="matrix(0.02859159,0,0,0.02859159,1.0911603,0.92393637)"><circle
           cx="259.5"
           cy="259.5"
           fill="url(#radialGradient-1)"
           id="Oval"
           r="259.5"
           style="fill:url(#radialGradient-1)" /><circle
           cx="259.5"
           cy="259.5"
           fill="url(#radialGradient-2)"
           id="circle7"
           r="259.5"
           style="fill:url(#radialGradient-2)" /><path
           d="m 128.55802,118 c 31.74354,0 58.88877,22.59009 65.19749,53.60154 1.31538,6.46595 -2.80826,12.7846 -9.21042,14.11309 -6.33813,1.31521 -12.53332,-2.7535 -13.9329,-9.10892 l -0.0409,-0.19328 c -4.05759,-19.94568 -21.55633,-34.50802 -42.01323,-34.50802 -23.6898,0 -42.889475,19.37202 -42.889475,43.26275 0,4.67753 0.731798,9.23956 2.149979,13.57344 l 0.144105,0.43262 c 2.116976,6.24517 -1.179631,13.04113 -7.363178,15.1792 -6.183546,2.13807 -12.912449,-1.19139 -15.029425,-7.43656 C 63.215313,199.96936 62,192.64368 62,185.16716 62,148.06914 91.801634,118 128.55802,118 Z"
           fill="#251c0c"
           fill-rule="nonzero"
           id="Path" /><path
           d="m 318.55802,61 c 31.74354,0 58.88877,22.590087 65.19749,53.60154 1.31538,6.46595 -2.80826,12.7846 -9.21042,14.11309 -6.33813,1.31521 -12.53332,-2.7535 -13.9329,-9.10892 l -0.0409,-0.19328 C 356.5137,99.466752 339.01496,84.904412 318.55806,84.904412 c -23.6898,0 -42.88948,19.372018 -42.88948,43.262748 0,4.67753 0.7318,9.23956 2.14998,13.57344 l 0.14411,0.43262 c 2.11698,6.24517 -1.17963,13.04113 -7.36318,15.1792 -6.18355,2.13807 -12.91245,-1.19139 -15.02942,-7.43656 C 253.21531,142.96936 252,135.64368 252,128.16716 252,91.06914 281.80163,61 318.55802,61 Z"
           fill="#251c0c"
           fill-rule="nonzero"
           id="path7" /><path
           d="m 334.70706,215.74832 c 3.38523,-5.58105 10.74222,-7.41369 16.43231,-4.09334 5.69009,3.32035 7.55854,10.53636 4.17332,16.1174 -25.09005,41.36459 -62.54497,67.60398 -108.05859,74.47884 -30.71678,4.63979 -63.05052,0.0316 -96.8352,-13.64105 -6.12042,-2.47693 -9.03482,-9.35139 -6.50949,-15.35451 2.52534,-6.00313 9.5341,-8.86167 15.65452,-6.38474 29.91263,12.10565 57.87088,16.09024 84.04076,12.13726 38.1919,-5.76892 69.55999,-27.74412 91.10237,-63.25986 z"
           fill="#251c0c"
           fill-rule="nonzero"
           id="Path-7" /><circle
           cx="102"
           cy="263"
           fill="url(#radialGradient-3)"
           id="circle8"
           opacity="0.711054"
           r="89"
           style="fill:url(#radialGradient9)" /><circle
           cx="377"
           cy="178"
           fill="url(#radialGradient-3)"
           id="circle9"
           opacity="0.711054"
           r="89"
           style="fill:url(#radialGradient10)" /></g></g></g></svg>
