<?xml version="1.0" encoding="UTF-8" standalone="no"?>
<!-- Created with Inkscape (http://www.inkscape.org/) -->

<svg
   width="64"
   height="64"
   viewBox="0 0 16.933333 16.933333"
   version="1.1"
   id="svg1"
   inkscape:version="1.4 (1:1.4+202410161351+e7c3feb100)"
   sodipodi:docname="doc_pdf.svg"
   xmlns:inkscape="http://www.inkscape.org/namespaces/inkscape"
   xmlns:sodipodi="http://sodipodi.sourceforge.net/DTD/sodipodi-0.dtd"
   xmlns="http://www.w3.org/2000/svg"
   xmlns:svg="http://www.w3.org/2000/svg">
  <sodipodi:namedview
     id="namedview1"
     pagecolor="#ffffff"
     bordercolor="#999999"
     borderopacity="1"
     inkscape:showpageshadow="2"
     inkscape:pageopacity="0"
     inkscape:pagecheckerboard="0"
     inkscape:deskcolor="#d1d1d1"
     inkscape:document-units="mm"
     inkscape:zoom="8.0126864"
     inkscape:cx="44.866351"
     inkscape:cy="27.206855"
     inkscape:window-width="1920"
     inkscape:window-height="1043"
     inkscape:window-x="0"
     inkscape:window-y="0"
     inkscape:window-maximized="1"
     inkscape:current-layer="layer1" />
  <defs
     id="defs1">
    <clipPath
       clipPathUnits="userSpaceOnUse"
       id="clipPath3547">
      <path
         d="M 0,1534 H 1920 V 0 H 0 Z"
         transform="translate(-813.36902,-874.90432)"
         id="path3547" />
    </clipPath>
    <clipPath
       clipPathUnits="userSpaceOnUse"
       id="clipPath3549">
      <path
         d="M 0,1534 H 1920 V 0 H 0 Z"
         transform="translate(-840.11627,-843.16502)"
         id="path3549" />
    </clipPath>
    <clipPath
       clipPathUnits="userSpaceOnUse"
       id="clipPath3551">
      <path
         d="M 0,1534 H 1920 V 0 H 0 Z"
         transform="translate(-840.11627,-856.47562)"
         id="path3551" />
    </clipPath>
    <clipPath
       clipPathUnits="userSpaceOnUse"
       id="clipPath3553">
      <path
         d="M 0,1534 H 1920 V 0 H 0 Z"
         transform="translate(-824.86652,-842.35162)"
         id="path3553" />
    </clipPath>
    <clipPath
       clipPathUnits="userSpaceOnUse"
       id="clipPath3555">
      <path
         d="M 0,1534 H 1920 V 0 H 0 Z"
         transform="translate(-824.86652,-857.28912)"
         id="path3555" />
    </clipPath>
    <clipPath
       clipPathUnits="userSpaceOnUse"
       id="clipPath3557">
      <path
         d="M 0,1534 H 1920 V 0 H 0 Z"
         transform="translate(-809.61902,-842.35162)"
         id="path3557" />
    </clipPath>
    <clipPath
       clipPathUnits="userSpaceOnUse"
       id="clipPath3559">
      <path
         d="M 0,1534 H 1920 V 0 H 0 Z"
         transform="translate(-812.77577,-853.32032)"
         id="path3559" />
    </clipPath>
    <clipPath
       clipPathUnits="userSpaceOnUse"
       id="clipPath3561">
      <path
         d="M 0,1534 H 1920 V 0 H 0 Z"
         transform="translate(-855.39452,-867.34082)"
         id="path3561" />
    </clipPath>
    <clipPath
       clipPathUnits="userSpaceOnUse"
       id="clipPath3563">
      <path
         d="M 0,1534 H 1920 V 0 H 0 Z"
         transform="translate(-802.98377,-867.34082)"
         id="path3563" />
    </clipPath>
    <clipPath
       clipPathUnits="userSpaceOnUse"
       id="clipPath3565">
      <path
         d="M 0,1534 H 1920 V 0 H 0 Z"
         transform="translate(-812.77577,-839.19632)"
         id="path3565" />
    </clipPath>
    <clipPath
       clipPathUnits="userSpaceOnUse"
       id="clipPath3568">
      <path
         d="M 0,1534 H 1920 V 0 H 0 Z"
         transform="translate(0,-2.5000001e-5)"
         id="path3568" />
    </clipPath>
    <clipPath
       clipPathUnits="userSpaceOnUse"
       id="clipPath3570">
      <path
         d="M 0,1534 H 1920 V 0 H 0 Z"
         transform="translate(0,-2.5000001e-5)"
         id="path3570" />
    </clipPath>
    <clipPath
       clipPathUnits="userSpaceOnUse"
       id="clipPath3572">
      <path
         d="M 0,1534 H 1920 V 0 H 0 Z"
         transform="translate(0,-2.5000001e-5)"
         id="path3572" />
    </clipPath>
    <clipPath
       clipPathUnits="userSpaceOnUse"
       id="clipPath3574">
      <path
         d="M 0,1534 H 1920 V 0 H 0 Z"
         transform="translate(0,-2.5000001e-5)"
         id="path3574" />
    </clipPath>
    <clipPath
       clipPathUnits="userSpaceOnUse"
       id="clipPath3576">
      <path
         d="M 0,1534 H 1920 V 0 H 0 Z"
         transform="translate(0,-2.5000001e-5)"
         id="path3576" />
    </clipPath>
    <clipPath
       clipPathUnits="userSpaceOnUse"
       id="clipPath3578">
      <path
         d="M 0,1534 H 1920 V 0 H 0 Z"
         transform="translate(0,-2.5000001e-5)"
         id="path3578" />
    </clipPath>
    <clipPath
       clipPathUnits="userSpaceOnUse"
       id="clipPath3580">
      <path
         d="M 0,1534 H 1920 V 0 H 0 Z"
         transform="translate(0,-2.5000001e-5)"
         id="path3580" />
    </clipPath>
    <clipPath
       clipPathUnits="userSpaceOnUse"
       id="clipPath3582">
      <path
         d="M 0,1534 H 1920 V 0 H 0 Z"
         transform="translate(0,-2.5000001e-5)"
         id="path3582" />
    </clipPath>
    <clipPath
       clipPathUnits="userSpaceOnUse"
       id="clipPath3584">
      <path
         d="M 0,1534 H 1920 V 0 H 0 Z"
         transform="translate(0,-2.5000001e-5)"
         id="path3584" />
    </clipPath>
    <clipPath
       clipPathUnits="userSpaceOnUse"
       id="clipPath3586">
      <path
         d="M 0,1534 H 1920 V 0 H 0 Z"
         transform="translate(0,-2.5000001e-5)"
         id="path3586" />
    </clipPath>
    <clipPath
       clipPathUnits="userSpaceOnUse"
       id="clipPath3588">
      <path
         d="M 0,1534 H 1920 V 0 H 0 Z"
         transform="translate(0,-2.5000001e-5)"
         id="path3588" />
    </clipPath>
    <clipPath
       clipPathUnits="userSpaceOnUse"
       id="clipPath3590">
      <path
         d="M 0,1534 H 1920 V 0 H 0 Z"
         transform="translate(0,-2.5000001e-5)"
         id="path3590" />
    </clipPath>
    <clipPath
       clipPathUnits="userSpaceOnUse"
       id="clipPath3592">
      <path
         d="M 0,1534 H 1920 V 0 H 0 Z"
         transform="translate(0,-2.5000001e-5)"
         id="path3592" />
    </clipPath>
  </defs>
  <g
     inkscape:label="Capa 1"
     inkscape:groupmode="layer"
     id="layer1">
    <path
       id="path3567"
       d="m 1079.563,865.026 h -6.822 v 6.947 h 6.822 z"
       style="fill:none;stroke:#4d4956;stroke-width:1.523;stroke-linecap:round;stroke-linejoin:round;stroke-miterlimit:10;stroke-dasharray:none;stroke-opacity:1"
       transform="matrix(0.29203436,0,0,-0.29203436,-309.23426,258.2999)"
       clip-path="url(#clipPath3568)" />
    <path
       id="path3569"
       d="m 1103.192,865.026 h -16.753 v 6.947 h 16.753 z"
       style="fill:none;stroke:#4d4956;stroke-width:1.523;stroke-linecap:round;stroke-linejoin:round;stroke-miterlimit:10;stroke-dasharray:none;stroke-opacity:1"
       transform="matrix(0.29203436,0,0,-0.29203436,-309.23426,258.2999)"
       clip-path="url(#clipPath3570)" />
    <path
       id="path3571"
       d="m 1079.563,851.45 h -6.822 v 6.948 h 6.822 z"
       style="fill:none;stroke:#4d4956;stroke-width:1.523;stroke-linecap:round;stroke-linejoin:round;stroke-miterlimit:10;stroke-dasharray:none;stroke-opacity:1"
       transform="matrix(0.29203436,0,0,-0.29203436,-309.23426,258.2999)"
       clip-path="url(#clipPath3572)" />
    <path
       id="path3573"
       d="m 1103.192,851.45 h -16.753 v 6.948 h 16.753 z"
       style="fill:none;stroke:#4d4956;stroke-width:1.523;stroke-linecap:round;stroke-linejoin:round;stroke-miterlimit:10;stroke-dasharray:none;stroke-opacity:1"
       transform="matrix(0.29203436,0,0,-0.29203436,-309.23426,258.2999)"
       clip-path="url(#clipPath3574)" />
    <path
       id="path3575"
       d="m 1079.563,837.872 h -6.822 v 6.95 h 6.822 z"
       style="fill:none;stroke:#4d4956;stroke-width:1.523;stroke-linecap:round;stroke-linejoin:round;stroke-miterlimit:10;stroke-dasharray:none;stroke-opacity:1"
       transform="matrix(0.29203436,0,0,-0.29203436,-309.23426,258.2999)"
       clip-path="url(#clipPath3576)" />
    <path
       id="path3577"
       d="m 1103.192,837.872 h -16.753 v 6.95 h 16.753 z"
       style="fill:none;stroke:#4d4956;stroke-width:1.523;stroke-linecap:round;stroke-linejoin:round;stroke-miterlimit:10;stroke-dasharray:none;stroke-opacity:1"
       transform="matrix(0.29203436,0,0,-0.29203436,-309.23426,258.2999)"
       clip-path="url(#clipPath3578)" />
    <path
       style="fill:#4d4956;stroke-linecap:round;stroke-linejoin:round;stroke-miterlimit:10"
       d="m 1066.291,829.00391 a 0.76157615,0.76157615 0 0 0 -0.7617,0.76171 v 50.45704 a 0.76157615,0.76157615 0 0 0 0.7617,0.76171 h 43.3496 a 0.76157615,0.76157615 0 0 0 0.7617,-0.76171 v -50.45704 a 0.76157615,0.76157615 0 0 0 -0.7617,-0.76171 z m 0.7617,1.52343 h 41.8262 v 48.9336 h -41.8262 z"
       id="path3579"
       transform="matrix(0.29203436,0,0,-0.29203436,-309.23426,258.2999)" />
    <g
       id="path3581"
       clip-path="url(#clipPath3582)"
       transform="matrix(0.29203436,0,0,-0.29203436,-309.23426,258.2999)">
      <path
         style="fill:#e9a306;stroke-linecap:round;stroke-linejoin:round;stroke-miterlimit:10"
         d="m 1079.563,837.872 h -6.822 v 6.95 h 6.822 z"
         id="path11" />
      <path
         style="fill:#4d4956;stroke-linecap:round;stroke-linejoin:round;stroke-miterlimit:10"
         d="m 1072.7402,837.11133 a 0.76157615,0.76157615 0 0 0 -0.7597,0.75976 v 6.95118 a 0.76157615,0.76157615 0 0 0 0.7597,0.76171 h 6.8223 a 0.76157615,0.76157615 0 0 0 0.7617,-0.76171 v -6.95118 a 0.76157615,0.76157615 0 0 0 -0.7617,-0.75976 z m 0.7618,1.52148 h 5.2988 v 5.42774 h -5.2988 z"
         id="path12" />
    </g>
    <g
       id="path3583"
       clip-path="url(#clipPath3584)"
       transform="matrix(0.29203436,0,0,-0.29203436,-309.23426,258.2999)">
      <path
         style="fill:#e9a306;stroke-linecap:round;stroke-linejoin:round;stroke-miterlimit:10"
         d="m 1079.563,851.45 h -6.822 v 6.948 h 6.822 z"
         id="path9" />
      <path
         style="fill:#4d4956;stroke-linecap:round;stroke-linejoin:round;stroke-miterlimit:10"
         d="m 1072.7402,850.68945 a 0.76157615,0.76157615 0 0 0 -0.7597,0.75977 v 6.94922 a 0.76157615,0.76157615 0 0 0 0.7597,0.76172 h 6.8223 a 0.76157615,0.76157615 0 0 0 0.7617,-0.76172 v -6.94922 a 0.76157615,0.76157615 0 0 0 -0.7617,-0.75977 z m 0.7618,1.52149 h 5.2988 v 5.42578 h -5.2988 z"
         id="path10" />
    </g>
    <g
       id="path3585"
       clip-path="url(#clipPath3586)"
       transform="matrix(0.29203436,0,0,-0.29203436,-309.23426,258.2999)">
      <path
         style="fill:#e9a306;stroke-linecap:round;stroke-linejoin:round;stroke-miterlimit:10"
         d="m 1079.563,865.026 h -6.822 v 6.947 h 6.822 z"
         id="path7" />
      <path
         style="fill:#4d4956;stroke-linecap:round;stroke-linejoin:round;stroke-miterlimit:10"
         d="m 1072.7402,864.26367 a 0.76157615,0.76157615 0 0 0 -0.7597,0.76172 v 6.94727 a 0.76157615,0.76157615 0 0 0 0.7597,0.76171 h 6.8223 a 0.76157615,0.76157615 0 0 0 0.7617,-0.76171 v -6.94727 a 0.76157615,0.76157615 0 0 0 -0.7617,-0.76172 z m 0.7618,1.52344 h 5.2988 v 5.42383 h -5.2988 z"
         id="path8" />
    </g>
    <g
       id="path3587"
       clip-path="url(#clipPath3588)"
       transform="matrix(0.29203436,0,0,-0.29203436,-309.23426,258.2999)">
      <path
         style="fill:#6e80e3;stroke-linecap:round;stroke-linejoin:round;stroke-miterlimit:10"
         d="m 1103.192,837.872 h -16.753 v 6.95 h 16.753 z"
         id="path5" />
      <path
         style="fill:#4d4956;stroke-linecap:round;stroke-linejoin:round;stroke-miterlimit:10"
         d="m 1086.4395,837.11133 a 0.76157615,0.76157615 0 0 0 -0.7618,0.75976 v 6.95118 a 0.76157615,0.76157615 0 0 0 0.7618,0.76171 h 16.7519 a 0.76157615,0.76157615 0 0 0 0.7617,-0.76171 v -6.95118 a 0.76157615,0.76157615 0 0 0 -0.7617,-0.75976 z m 0.7617,1.52148 h 15.2285 v 5.42774 h -15.2285 z"
         id="path6" />
    </g>
    <g
       id="path3589"
       clip-path="url(#clipPath3590)"
       transform="matrix(0.29203436,0,0,-0.29203436,-309.23426,258.2999)">
      <path
         style="fill:#6e80e3;stroke-linecap:round;stroke-linejoin:round;stroke-miterlimit:10"
         d="m 1103.192,851.45 h -16.753 v 6.948 h 16.753 z"
         id="path3" />
      <path
         style="fill:#4d4956;stroke-linecap:round;stroke-linejoin:round;stroke-miterlimit:10"
         d="m 1086.4395,850.68945 a 0.76157615,0.76157615 0 0 0 -0.7618,0.75977 v 6.94922 a 0.76157615,0.76157615 0 0 0 0.7618,0.76172 h 16.7519 a 0.76157615,0.76157615 0 0 0 0.7617,-0.76172 v -6.94922 a 0.76157615,0.76157615 0 0 0 -0.7617,-0.75977 z m 0.7617,1.52149 h 15.2285 v 5.42578 h -15.2285 z"
         id="path4" />
    </g>
    <g
       id="path3591"
       clip-path="url(#clipPath3592)"
       transform="matrix(0.29203436,0,0,-0.29203436,-309.23426,258.2999)">
      <path
         style="fill:#6e80e3;stroke-linecap:round;stroke-linejoin:round;stroke-miterlimit:10"
         d="m 1103.192,865.026 h -16.753 v 6.947 h 16.753 z"
         id="path1" />
      <path
         style="fill:#4d4956;stroke-linecap:round;stroke-linejoin:round;stroke-miterlimit:10"
         d="m 1086.4395,864.26367 a 0.76157615,0.76157615 0 0 0 -0.7618,0.76172 v 6.94727 a 0.76157615,0.76157615 0 0 0 0.7618,0.76171 h 16.7519 a 0.76157615,0.76157615 0 0 0 0.7617,-0.76171 v -6.94727 a 0.76157615,0.76157615 0 0 0 -0.7617,-0.76172 z m 0.7617,1.52344 h 15.2285 v 5.42383 h -15.2285 z"
         id="path2" />
    </g>
  </g>
</svg>
