<?xml version="1.0" encoding="UTF-8" standalone="no"?>
<!-- Created with Inkscape (http://www.inkscape.org/) -->

<svg
   width="64"
   height="64"
   viewBox="0 0 16.933333 16.933333"
   version="1.1"
   id="svg1"
   inkscape:version="1.4 (1:1.4+202410161351+e7c3feb100)"
   sodipodi:docname="calendar.svg"
   xmlns:inkscape="http://www.inkscape.org/namespaces/inkscape"
   xmlns:sodipodi="http://sodipodi.sourceforge.net/DTD/sodipodi-0.dtd"
   xmlns="http://www.w3.org/2000/svg"
   xmlns:svg="http://www.w3.org/2000/svg">
  <sodipodi:namedview
     id="namedview1"
     pagecolor="#ffffff"
     bordercolor="#999999"
     borderopacity="1"
     inkscape:showpageshadow="2"
     inkscape:pageopacity="0"
     inkscape:pagecheckerboard="0"
     inkscape:deskcolor="#d1d1d1"
     inkscape:document-units="mm"
     inkscape:zoom="11.33165"
     inkscape:cx="48.845491"
     inkscape:cy="30.97519"
     inkscape:window-width="1920"
     inkscape:window-height="1043"
     inkscape:window-x="0"
     inkscape:window-y="0"
     inkscape:window-maximized="1"
     inkscape:current-layer="layer1" />
  <defs
     id="defs1">
    <clipPath
       clipPathUnits="userSpaceOnUse"
       id="clipPath3547">
      <path
         d="M 0,1534 H 1920 V 0 H 0 Z"
         transform="translate(-813.36902,-874.90432)"
         id="path3547" />
    </clipPath>
    <clipPath
       clipPathUnits="userSpaceOnUse"
       id="clipPath3549">
      <path
         d="M 0,1534 H 1920 V 0 H 0 Z"
         transform="translate(-840.11627,-843.16502)"
         id="path3549" />
    </clipPath>
    <clipPath
       clipPathUnits="userSpaceOnUse"
       id="clipPath3551">
      <path
         d="M 0,1534 H 1920 V 0 H 0 Z"
         transform="translate(-840.11627,-856.47562)"
         id="path3551" />
    </clipPath>
    <clipPath
       clipPathUnits="userSpaceOnUse"
       id="clipPath3553">
      <path
         d="M 0,1534 H 1920 V 0 H 0 Z"
         transform="translate(-824.86652,-842.35162)"
         id="path3553" />
    </clipPath>
    <clipPath
       clipPathUnits="userSpaceOnUse"
       id="clipPath3555">
      <path
         d="M 0,1534 H 1920 V 0 H 0 Z"
         transform="translate(-824.86652,-857.28912)"
         id="path3555" />
    </clipPath>
    <clipPath
       clipPathUnits="userSpaceOnUse"
       id="clipPath3557">
      <path
         d="M 0,1534 H 1920 V 0 H 0 Z"
         transform="translate(-809.61902,-842.35162)"
         id="path3557" />
    </clipPath>
    <clipPath
       clipPathUnits="userSpaceOnUse"
       id="clipPath3559">
      <path
         d="M 0,1534 H 1920 V 0 H 0 Z"
         transform="translate(-812.77577,-853.32032)"
         id="path3559" />
    </clipPath>
    <clipPath
       clipPathUnits="userSpaceOnUse"
       id="clipPath3561">
      <path
         d="M 0,1534 H 1920 V 0 H 0 Z"
         transform="translate(-855.39452,-867.34082)"
         id="path3561" />
    </clipPath>
    <clipPath
       clipPathUnits="userSpaceOnUse"
       id="clipPath3563">
      <path
         d="M 0,1534 H 1920 V 0 H 0 Z"
         transform="translate(-802.98377,-867.34082)"
         id="path3563" />
    </clipPath>
    <clipPath
       clipPathUnits="userSpaceOnUse"
       id="clipPath3565">
      <path
         d="M 0,1534 H 1920 V 0 H 0 Z"
         transform="translate(-812.77577,-839.19632)"
         id="path3565" />
    </clipPath>
  </defs>
  <g
     inkscape:label="Capa 1"
     inkscape:groupmode="layer"
     id="layer1">
    <path
       id="path3546"
       d="m 0,0 h 30.137 7.643 c 1.931,0 3.495,-1.316 3.495,-2.94 v -4.623 h -52.411 v 4.623 c 0,1.624 1.564,2.94 3.492,2.94 z"
       style="fill:#e9a306;fill-opacity:1;fill-rule:nonzero;stroke:none"
       transform="matrix(0.29030249,0,0,-0.29030249,3.8972604,2.8845461)"
       clip-path="url(#clipPath3547)" />
    <path
       id="path3548"
       d="M 0,0 C 0,1.744 1.415,3.156 3.156,3.156 H 5.485 C 7.229,3.156 8.643,1.744 8.643,0 v -0.813 c 0,-1.744 -1.414,-3.156 -3.158,-3.156 H 3.156 C 1.415,-3.969 0,-2.557 0,-0.813 Z"
       style="fill:#6e80e3;fill-opacity:1;fill-rule:nonzero;stroke:none"
       transform="matrix(0.29030249,0,0,-0.29030249,11.662053,12.098542)"
       clip-path="url(#clipPath3549)" />
    <path
       id="path3550"
       d="m 0,0 v 0.813 c 0,1.743 1.415,3.156 3.156,3.156 h 2.329 c 1.744,0 3.158,-1.413 3.158,-3.156 V 0 c 0,-1.744 -1.414,-3.155 -3.158,-3.155 H 3.156 C 1.415,-3.155 0,-1.744 0,0"
       style="fill:#6e80e3;fill-opacity:1;fill-rule:nonzero;stroke:none"
       transform="matrix(0.29030249,0,0,-0.29030249,11.662053,8.2344431)"
       clip-path="url(#clipPath3551)" />
    <path
       id="path3552"
       d="M 0,0 V 0.813 C 0,2.558 1.415,3.97 3.157,3.97 h 2.329 c 1.743,0 3.157,-1.412 3.157,-3.157 V 0 c 0,-1.743 -1.414,-3.155 -3.157,-3.155 H 3.157 C 1.415,-3.155 0,-1.743 0,0"
       style="fill:#6e80e3;fill-opacity:1;fill-rule:nonzero;stroke:none"
       transform="matrix(0.29030249,0,0,-0.29030249,7.2350011,12.334677)"
       clip-path="url(#clipPath3553)" />
    <path
       id="path3554"
       d="M 0,0 C 0,1.742 1.415,3.155 3.157,3.155 H 5.486 C 7.229,3.155 8.643,1.742 8.643,0 v -0.813 c 0,-1.745 -1.414,-3.156 -3.157,-3.156 H 3.157 C 1.415,-3.969 0,-2.558 0,-0.813 Z"
       style="fill:#6e80e3;fill-opacity:1;fill-rule:nonzero;stroke:none"
       transform="matrix(0.29030249,0,0,-0.29030249,7.2350011,7.9982811)"
       clip-path="url(#clipPath3555)" />
    <path
       id="path3556"
       d="M 0,0 V 0.813 C 0,2.558 1.412,3.97 3.156,3.97 H 5.483 C 7.228,3.97 8.64,2.558 8.64,0.813 V 0 c 0,-1.743 -1.412,-3.155 -3.157,-3.155 H 3.156 C 1.412,-3.155 0,-1.743 0,0"
       style="fill:#6e80e3;fill-opacity:1;fill-rule:nonzero;stroke:none"
       transform="matrix(0.29030249,0,0,-0.29030249,2.8086254,12.334677)"
       clip-path="url(#clipPath3557)" />
    <path
       id="path3558"
       d="m 0,0 c -1.744,0 -3.156,1.411 -3.156,3.155 v 0.814 c 0,1.742 1.412,3.155 3.156,3.155 h 2.327 c 1.744,0 3.156,-1.413 3.156,-3.155 V 3.155 C 5.483,1.411 4.071,0 2.327,0 Z"
       style="fill:#6e80e3;fill-opacity:1;fill-rule:nonzero;stroke:none"
       transform="matrix(0.29030249,0,0,-0.29030249,3.7250263,9.1504334)"
       clip-path="url(#clipPath3559)" />
    <path
       style="fill:#4d4956;stroke-linecap:round;stroke-linejoin:round;stroke-miterlimit:10"
       d="m -48.919922,-35.275391 c -2.275603,0 -4.251953,1.590527 -4.251953,3.703125 V 0 4.6230469 c 0,2.1125979 1.976613,3.7011719 4.251953,3.7011719 h 6.882813 v 2.2617192 a 0.7615,0.7615 0 0 0 0.761718,0.761718 0.7615,0.7615 0 0 0 0.761719,-0.761718 V 8.3242188 h 28.613281 v 2.2617192 a 0.7615,0.7615 0 0 0 0.761719,0.761718 0.7615,0.7615 0 0 0 0.761719,-0.761718 V 8.3242188 h 6.8828124 c 2.276981,0 4.25585935,-1.5882614 4.25585935,-3.7011719 V 0 -31.572266 c 0,-2.11291 -1.97861545,-3.703125 -4.25585935,-3.703125 z m 0,1.523438 h 45.4257814 c 1.5847561,0 2.73242185,1.044598 2.73242185,2.179687 V 0 4.6230469 c 0,1.1350895 -1.14740285,2.1777343 -2.73242185,2.1777343 H -10.376953 V 4.5390625 a 0.7615,0.7615 0 0 0 -0.761719,-0.7617187 0.7615,0.7615 0 0 0 -0.761719,0.7617187 V 6.8007812 H -40.513672 V 4.5390625 a 0.7615,0.7615 0 0 0 -0.761719,-0.7617187 0.7615,0.7615 0 0 0 -0.761718,0.7617187 v 2.2617187 h -6.882813 c -1.58266,0 -2.730469,-1.0423322 -2.730469,-2.1777343 V 0 -31.572266 c 0,-1.135402 1.148072,-2.179687 2.730469,-2.179687 z"
       id="path3560"
       transform="matrix(0.29030249,0,0,-0.29030249,16.097363,5.0802488)" />
    <path
       style="fill:#4d4956;stroke-linecap:round;stroke-linejoin:round;stroke-miterlimit:10"
       d="M 0,-0.76171875 A 0.7615,0.7615 0 0 0 -0.76171875,0 0.7615,0.7615 0 0 0 0,0.76171875 H 52.410156 A 0.7615,0.7615 0 0 0 53.171875,0 0.7615,0.7615 0 0 0 52.410156,-0.76171875 Z"
       id="path3562"
       transform="matrix(0.29030249,0,0,-0.29030249,0.8823966,5.0802488)" />
    <path
       style="fill:#4d4956;stroke-linecap:round;stroke-linejoin:round;stroke-miterlimit:10"
       d="m 0,-0.76171875 c -2.1550237,0 -3.9179688,1.76175615 -3.9179688,3.91601565 V 3.96875 c 0,2.1550237 1.7629451,3.9179688 3.9179688,3.9179687 h 2.3261719 c 2.1550237,0 3.9179687,-1.762945 3.9179687,-3.9179687 V 3.1542969 c 0,-2.1542595 -1.762945,-3.91601565 -3.9179687,-3.91601565 z m 15.248047,0 c -2.153496,0 -3.917969,1.76088233 -3.917969,3.91601565 V 3.96875 c 0,2.155897 1.764473,3.9179688 3.917969,3.9179687 h 2.328125 c 2.153495,0 3.917969,-1.7623628 3.917969,-3.9179687 V 3.1542969 c 0,-2.15484206 -1.764474,-3.91601565 -3.917969,-3.91601565 z m 15.248047,0 c -2.152732,0 -3.916016,1.76088233 -3.916016,3.91601565 V 3.96875 c 0,2.155897 1.763284,3.9179688 3.916016,3.9179687 h 2.330078 c 2.154259,0 3.917969,-1.7623628 3.917969,-3.9179687 V 3.1542969 c 0,-2.15484206 -1.76371,-3.91601565 -3.917969,-3.91601565 z M 0,0.76171875 h 2.3261719 c 1.3329763,0 2.3945312,1.06083765 2.3945312,2.39257815 V 3.96875 c 0,1.3329763 -1.0615549,2.3945313 -2.3945312,2.3945312 H 0 c -1.3329763,0 -2.3945313,-1.0615549 -2.3945313,-2.3945312 V 3.1542969 c 0,-1.3317405 1.061555,-2.39257815 2.3945313,-2.39257815 z m 15.248047,0 h 2.328125 c 1.330504,0 2.394531,1.06142015 2.394531,2.39257815 V 3.96875 c 0,1.3323941 -1.064027,2.3945313 -2.394531,2.3945312 h -2.328125 c -1.330505,0 -2.396485,-1.0624282 -2.396484,-2.3945312 V 3.1542969 c 0,-1.3308667 1.065979,-2.39257815 2.396484,-2.39257815 z m 15.248047,0 h 2.330078 c 1.33174,0 2.394531,1.06142015 2.394531,2.39257815 V 3.96875 c 0,1.3323941 -1.062791,2.3945312 -2.394531,2.3945312 h -2.330078 c -1.329268,0 -2.394531,-1.0624282 -2.394532,-2.3945312 V 3.1542969 c 0,-1.3308667 1.065264,-2.39257815 2.394532,-2.39257815 z M 0,13.363281 c -2.1547326,0 -3.9179688,1.760992 -3.9179688,3.916016 v 0.814453 c 0,2.153496 1.762654,3.916016 3.9179688,3.916016 h 2.3261719 c 2.1553148,0 3.9179687,-1.76252 3.9179687,-3.916016 v -0.814453 c 0,-2.155024 -1.7632361,-3.916016 -3.9179687,-3.916016 z m 15.248047,0 c -2.153204,0 -3.917969,1.760119 -3.917969,3.916016 v 0.814453 c 0,2.15437 1.764182,3.916016 3.917969,3.916016 h 2.328125 c 2.153787,0 3.917969,-1.761938 3.917969,-3.916016 v -0.814453 c 0,-2.155606 -1.764765,-3.916016 -3.917969,-3.916016 z m 15.248047,0 c -2.152441,0 -3.916016,1.760119 -3.916016,3.916016 v 0.814453 c 0,2.15437 1.762992,3.916016 3.916016,3.916016 h 2.330078 c 2.154551,0 3.917969,-1.761938 3.917969,-3.916016 v -0.814453 c 0,-2.155606 -1.764001,-3.916016 -3.917969,-3.916016 z M 0,14.884766 h 2.3261719 c 1.3332674,0 2.3945312,1.061555 2.3945312,2.394531 v 0.814453 c 0,1.330504 -1.061846,2.392578 -2.3945312,2.392578 H 0 c -1.3326852,0 -2.3945313,-1.062074 -2.3945313,-2.392578 v -0.814453 c 0,-1.332976 1.0612639,-2.394531 2.3945313,-2.394531 z m 15.248047,0 h 2.328125 c 1.330796,0 2.394531,1.062137 2.394531,2.394531 v 0.814453 c 0,1.329922 -1.064318,2.392578 -2.394531,2.392578 h -2.328125 c -1.330213,0 -2.396484,-1.062948 -2.396484,-2.392578 v -0.814453 c 0,-1.332103 1.065688,-2.394531 2.396484,-2.394531 z m 15.248047,0 h 2.330078 c 1.332032,0 2.394531,1.062137 2.394531,2.394531 v 0.814453 c 0,1.329922 -1.063082,2.392578 -2.394531,2.392578 h -2.330078 c -1.328977,0 -2.394532,-1.062948 -2.394532,-2.392578 v -0.814453 c 0,-1.332103 1.064972,-2.394531 2.394532,-2.394531 z"
       id="path3564"
       transform="matrix(0.29030249,0,0,-0.29030249,3.7250263,13.250665)" />
  </g>
</svg>
