<?xml version="1.0" encoding="UTF-8" standalone="no"?>
<!-- Created with Inkscape (http://www.inkscape.org/) -->

<svg
   width="64"
   height="64"
   viewBox="0 0 16.933333 16.933333"
   version="1.1"
   id="svg1"
   inkscape:version="1.3.2 (1:1.3.2+202404261509+091e20ef0f)"
   sodipodi:docname="unread.svg"
   xmlns:inkscape="http://www.inkscape.org/namespaces/inkscape"
   xmlns:sodipodi="http://sodipodi.sourceforge.net/DTD/sodipodi-0.dtd"
   xmlns="http://www.w3.org/2000/svg"
   xmlns:svg="http://www.w3.org/2000/svg">
  <sodipodi:namedview
     id="namedview1"
     pagecolor="#ffffff"
     bordercolor="#999999"
     borderopacity="1"
     inkscape:showpageshadow="2"
     inkscape:pageopacity="0"
     inkscape:pagecheckerboard="0"
     inkscape:deskcolor="#d1d1d1"
     inkscape:document-units="mm"
     inkscape:zoom="4.946268"
     inkscape:cx="36.492159"
     inkscape:cy="43.669287"
     inkscape:window-width="1920"
     inkscape:window-height="963"
     inkscape:window-x="0"
     inkscape:window-y="32"
     inkscape:window-maximized="1"
     inkscape:current-layer="layer1" />
  <defs
     id="defs1">
    <clipPath
       clipPathUnits="userSpaceOnUse"
       id="clipPath1646">
      <path
         d="M 0,1080 H 1920 V 0 H 0 Z"
         transform="translate(-1383.6555,-794.23272)"
         id="path1646" />
    </clipPath>
    <clipPath
       clipPathUnits="userSpaceOnUse"
       id="clipPath1656">
      <path
         d="M 0,1080 H 1920 V 0 H 0 Z"
         transform="translate(-1391.1053,-734.91782)"
         id="path1656" />
    </clipPath>
  </defs>
  <g
     inkscape:label="Capa 1"
     inkscape:groupmode="layer"
     id="layer1">
    <path
       id="path1655"
       d="M 0,0 V 6.613 C -0.42,6.465 -0.872,6.384 -1.342,6.384 c -0.152,0 -0.301,0.008 -0.448,0.024 V 0 c 0,-0.459 -0.351,-0.776 -0.716,-0.776 h -12.887 c -0.365,0 -0.716,0.317 -0.716,0.776 v 8.221 l 5.172,-5.694 c 1.066,-1.173 2.909,-1.173 3.975,0 l 3.867,4.257 c -0.547,0.265 -1.025,0.65 -1.4,1.121 L -8.287,3.731 c -0.355,-0.391 -0.97,-0.391 -1.325,0 l -5.662,6.233 h 9.929 c -0.016,0.147 -0.025,0.296 -0.025,0.447 0,0.471 0.081,0.923 0.229,1.343 h -10.252 c -0.837,0 -1.569,-0.42 -2.019,-1.046 -0.307,-0.427 -0.487,-0.955 -0.487,-1.52 V 0 c 0,-1.386 1.092,-2.565 2.506,-2.565 H -2.506 C -1.092,-2.565 0,-1.386 0,0 m -1.342,8.174 c 1.235,0 2.237,1.001 2.237,2.237 0,1.236 -1.002,2.237 -2.237,2.237 -1.236,0 -2.238,-1.001 -2.238,-2.237 0,-1.236 1.002,-2.237 2.238,-2.237"
       style="fill:#4e4957;fill-opacity:1;fill-rule:evenodd;stroke:none"
       transform="matrix(0.81790821,0,0,-0.81790821,15.577687,12.438054)"
       clip-path="url(#clipPath1656)" />
  </g>
</svg>
