<?xml version="1.0" encoding="UTF-8" standalone="no"?>
<!-- Created with Inkscape (http://www.inkscape.org/) -->

<svg
   width="64"
   height="64"
   viewBox="0 0 16.933333 16.933333"
   version="1.1"
   id="svg1"
   xmlns="http://www.w3.org/2000/svg"
   xmlns:svg="http://www.w3.org/2000/svg">
  <defs
     id="defs1">
    <clipPath
       clipPathUnits="userSpaceOnUse"
       id="clipPath2">
      <path
         d="M 0,64 H 64 V 0 H 0 Z"
         transform="translate(-43.864601,-60.341702)"
         id="path2" />
    </clipPath>
    <clipPath
       clipPathUnits="userSpaceOnUse"
       id="clipPath4">
      <path
         d="M 0,64 H 64 V 0 H 0 Z"
         transform="translate(-4.9069001,-3.4228001)"
         id="path4" />
    </clipPath>
    <clipPath
       clipPathUnits="userSpaceOnUse"
       id="clipPath6">
      <path
         d="M 0,64 H 64 V 0 H 0 Z"
         transform="translate(-10.9624,-61.841502)"
         id="path6" />
    </clipPath>
    <clipPath
       clipPathUnits="userSpaceOnUse"
       id="clipPath8">
      <path
         d="M 0,64 H 64 V 0 H 0 Z"
         transform="translate(-1.7805,-9.0450005)"
         id="path8" />
    </clipPath>
    <clipPath
       clipPathUnits="userSpaceOnUse"
       id="clipPath10">
      <path
         d="M 0,64 H 64 V 0 H 0 Z"
         transform="translate(-43.864601,-13.2686)"
         id="path10" />
    </clipPath>
    <clipPath
       clipPathUnits="userSpaceOnUse"
       id="clipPath12">
      <path
         d="M 0,64 H 64 V 0 H 0 Z"
         transform="translate(-4.8754001,-3.4354998)"
         id="path12" />
    </clipPath>
    <clipPath
       clipPathUnits="userSpaceOnUse"
       id="clipPath14">
      <path
         d="M 0,64 H 64 V 0 H 0 Z"
         transform="translate(-39.009601,-45.100001)"
         id="path14" />
    </clipPath>
    <clipPath
       clipPathUnits="userSpaceOnUse"
       id="clipPath16">
      <path
         d="M 0,64 H 64 V 0 H 0 Z"
         transform="translate(-39.009801,-44.335201)"
         id="path16" />
    </clipPath>
    <clipPath
       clipPathUnits="userSpaceOnUse"
       id="clipPath18">
      <path
         d="M 0,64 H 64 V 0 H 0 Z"
         transform="translate(-39.009601,-41.651201)"
         id="path18" />
    </clipPath>
    <clipPath
       clipPathUnits="userSpaceOnUse"
       id="clipPath20">
      <path
         d="M 0,64 H 64 V 0 H 0 Z"
         transform="translate(-39.009801,-40.882301)"
         id="path20" />
    </clipPath>
    <clipPath
       clipPathUnits="userSpaceOnUse"
       id="clipPath22">
      <path
         d="M 0,64 H 64 V 0 H 0 Z"
         transform="translate(-46.731101,-23.680901)"
         id="path22" />
    </clipPath>
    <clipPath
       clipPathUnits="userSpaceOnUse"
       id="clipPath24">
      <path
         d="M 0,64 H 64 V 0 H 0 Z"
         transform="translate(-47.813701,-23.681)"
         id="path24" />
    </clipPath>
    <clipPath
       clipPathUnits="userSpaceOnUse"
       id="clipPath26">
      <path
         d="M 0,64 H 64 V 0 H 0 Z"
         transform="translate(-52.128202,-22.574)"
         id="path26" />
    </clipPath>
    <clipPath
       clipPathUnits="userSpaceOnUse"
       id="clipPath28">
      <path
         d="M 0,64 H 64 V 0 H 0 Z"
         transform="translate(-52.668502,-22.032601)"
         id="path28" />
    </clipPath>
    <clipPath
       clipPathUnits="userSpaceOnUse"
       id="clipPath30">
      <path
         d="M 0,64 H 64 V 0 H 0 Z"
         transform="translate(-43.864601,-7.4982004)"
         id="path30" />
    </clipPath>
    <clipPath
       clipPathUnits="userSpaceOnUse"
       id="clipPath32">
      <path
         d="M 0,64 H 64 V 0 H 0 Z"
         transform="translate(-15.145401,-61.841502)"
         id="path32" />
    </clipPath>
    <clipPath
       clipPathUnits="userSpaceOnUse"
       id="clipPath34">
      <path
         d="M 0,64 H 64 V 0 H 0 Z"
         transform="translate(-19.5354,-54.260001)"
         id="path34" />
    </clipPath>
    <clipPath
       clipPathUnits="userSpaceOnUse"
       id="clipPath232">
      <path
         d="M 0,64 H 64 V 0 H 0 Z"
         transform="translate(-52.876504,-36.941501)"
         id="path232" />
    </clipPath>
    <clipPath
       clipPathUnits="userSpaceOnUse"
       id="clipPath234">
      <path
         d="M 0,64 H 64 V 0 H 0 Z"
         transform="translate(-52.876504,-46.161501)"
         id="path234" />
    </clipPath>
    <clipPath
       clipPathUnits="userSpaceOnUse"
       id="clipPath236">
      <path
         d="M 0,64 H 64 V 0 H 0 Z"
         transform="translate(-7.9573002,-51.570801)"
         id="path236" />
    </clipPath>
    <clipPath
       clipPathUnits="userSpaceOnUse"
       id="clipPath238">
      <path
         d="M 0,64 H 64 V 0 H 0 Z"
         transform="translate(-52.876699,-35.949601)"
         id="path238" />
    </clipPath>
    <clipPath
       clipPathUnits="userSpaceOnUse"
       id="clipPath240">
      <path
         d="M 0,64 H 64 V 0 H 0 Z"
         transform="translate(-12.787203,-50.232401)"
         id="path240" />
    </clipPath>
    <clipPath
       clipPathUnits="userSpaceOnUse"
       id="clipPath242">
      <path
         d="M 0,64 H 64 V 0 H 0 Z"
         transform="translate(-10.238298,-56.522901)"
         id="path242" />
    </clipPath>
    <clipPath
       clipPathUnits="userSpaceOnUse"
       id="clipPath244">
      <path
         d="M 0,64 H 64 V 0 H 0 Z"
         transform="translate(-23.984403,-50.232401)"
         id="path244" />
    </clipPath>
    <clipPath
       clipPathUnits="userSpaceOnUse"
       id="clipPath246">
      <path
         d="M 0,64 H 64 V 0 H 0 Z"
         transform="translate(-21.435401,-56.522901)"
         id="path246" />
    </clipPath>
    <clipPath
       clipPathUnits="userSpaceOnUse"
       id="clipPath248">
      <path
         d="M 0,64 H 64 V 0 H 0 Z"
         transform="translate(-35.181498,-50.232401)"
         id="path248" />
    </clipPath>
    <clipPath
       clipPathUnits="userSpaceOnUse"
       id="clipPath250">
      <path
         d="M 0,64 H 64 V 0 H 0 Z"
         transform="translate(-32.632398,-56.522901)"
         id="path250" />
    </clipPath>
    <clipPath
       clipPathUnits="userSpaceOnUse"
       id="clipPath252">
      <path
         d="M 0,64 H 64 V 0 H 0 Z"
         transform="translate(-46.378601,-50.232401)"
         id="path252" />
    </clipPath>
    <clipPath
       clipPathUnits="userSpaceOnUse"
       id="clipPath254">
      <path
         d="M 0,64 H 64 V 0 H 0 Z"
         transform="translate(-43.830004,-56.522901)"
         id="path254" />
    </clipPath>
    <clipPath
       clipPathUnits="userSpaceOnUse"
       id="clipPath256">
      <path
         d="M 0,64 H 64 V 0 H 0 Z"
         transform="translate(-59.344399,-63.750002)"
         id="path256" />
    </clipPath>
    <clipPath
       clipPathUnits="userSpaceOnUse"
       id="clipPath258">
      <path
         d="M 0,64 H 64 V 0 H 0 Z"
         transform="translate(-61.576999,-48.317901)"
         id="path258" />
    </clipPath>
    <clipPath
       clipPathUnits="userSpaceOnUse"
       id="clipPath260">
      <path
         d="M 0,64 H 64 V 0 H 0 Z"
         transform="translate(-61.576999,-48.317901)"
         id="path260" />
    </clipPath>
    <clipPath
       clipPathUnits="userSpaceOnUse"
       id="clipPath262">
      <path
         d="M 0,64 H 64 V 0 H 0 Z"
         transform="translate(-51.309799,-52.521101)"
         id="path262" />
    </clipPath>
    <clipPath
       clipPathUnits="userSpaceOnUse"
       id="clipPath264">
      <path
         d="M 0,64 H 64 V 0 H 0 Z"
         transform="translate(-15.275598,-26.7149)"
         id="path264" />
    </clipPath>
    <clipPath
       clipPathUnits="userSpaceOnUse"
       id="clipPath266">
      <path
         d="M 0,64 H 64 V 0 H 0 Z"
         transform="translate(-12.030498,-31.059401)"
         id="path266" />
    </clipPath>
    <clipPath
       clipPathUnits="userSpaceOnUse"
       id="clipPath268">
      <path
         d="M 0,64 H 64 V 0 H 0 Z"
         transform="translate(-12.030498,-21.131401)"
         id="path268" />
    </clipPath>
    <clipPath
       clipPathUnits="userSpaceOnUse"
       id="clipPath270">
      <path
         d="M 0,64 H 64 V 0 H 0 Z"
         transform="translate(-12.030498,-11.2034)"
         id="path270" />
    </clipPath>
    <clipPath
       clipPathUnits="userSpaceOnUse"
       id="clipPath272">
      <path
         d="M 0,64 H 64 V 0 H 0 Z"
         transform="translate(-28.838501,-26.7149)"
         id="path272" />
    </clipPath>
    <clipPath
       clipPathUnits="userSpaceOnUse"
       id="clipPath274">
      <path
         d="M 0,64 H 64 V 0 H 0 Z"
         transform="translate(-25.593498,-31.059401)"
         id="path274" />
    </clipPath>
    <clipPath
       clipPathUnits="userSpaceOnUse"
       id="clipPath276">
      <path
         d="M 0,64 H 64 V 0 H 0 Z"
         transform="translate(-25.593498,-21.131401)"
         id="path276" />
    </clipPath>
    <clipPath
       clipPathUnits="userSpaceOnUse"
       id="clipPath278">
      <path
         d="M 0,64 H 64 V 0 H 0 Z"
         transform="translate(-25.593498,-11.2034)"
         id="path278" />
    </clipPath>
    <clipPath
       clipPathUnits="userSpaceOnUse"
       id="clipPath280">
      <path
         d="M 0,64 H 64 V 0 H 0 Z"
         transform="translate(-39.156401,-31.059401)"
         id="path280" />
    </clipPath>
    <clipPath
       clipPathUnits="userSpaceOnUse"
       id="clipPath282">
      <path
         d="M 0,64 H 64 V 0 H 0 Z"
         transform="translate(-39.156401,-21.131401)"
         id="path282" />
    </clipPath>
    <clipPath
       clipPathUnits="userSpaceOnUse"
       id="clipPath284">
      <path
         d="M 0,64 H 64 V 0 H 0 Z"
         transform="translate(-39.156401,-11.2034)"
         id="path284" />
    </clipPath>
    <clipPath
       clipPathUnits="userSpaceOnUse"
       id="clipPath36">
      <path
         d="M 0,64 H 64 V 0 H 0 Z"
         transform="translate(-58.047201,-9.2578002)"
         id="path36" />
    </clipPath>
    <clipPath
       clipPathUnits="userSpaceOnUse"
       id="clipPath38">
      <path
         d="M 0,64 H 64 V 0 H 0 Z"
         transform="translate(-54.817499,-4.6165001)"
         id="path38" />
    </clipPath>
    <clipPath
       clipPathUnits="userSpaceOnUse"
       id="clipPath40">
      <path
         d="M 0,64 H 64 V 0 H 0 Z"
         transform="translate(-62.633002,-49.093601)"
         id="path40" />
    </clipPath>
    <clipPath
       clipPathUnits="userSpaceOnUse"
       id="clipPath42">
      <path
         d="M 0,64 H 64 V 0 H 0 Z"
         transform="translate(-31.964203,-39.076301)"
         id="path42" />
    </clipPath>
    <clipPath
       clipPathUnits="userSpaceOnUse"
       id="clipPath44">
      <path
         d="M 0,64 H 64 V 0 H 0 Z"
         transform="translate(-58.789101,-8.1875)"
         id="path44" />
    </clipPath>
    <clipPath
       clipPathUnits="userSpaceOnUse"
       id="clipPath46">
      <path
         d="M 0,64 H 64 V 0 H 0 Z"
         transform="translate(-2.2343976,-49.859401)"
         id="path46" />
    </clipPath>
    <clipPath
       clipPathUnits="userSpaceOnUse"
       id="clipPath48">
      <path
         d="M 0,64 H 64 V 0 H 0 Z"
         transform="translate(-10.171903,-53.828102)"
         id="path48" />
    </clipPath>
    <clipPath
       clipPathUnits="userSpaceOnUse"
       id="clipPath50">
      <path
         d="M 0,64 H 64 V 0 H 0 Z"
         transform="translate(-16.124998,-53.828102)"
         id="path50" />
    </clipPath>
    <clipPath
       clipPathUnits="userSpaceOnUse"
       id="clipPath52">
      <path
         d="M 0,64 H 64 V 0 H 0 Z"
         transform="translate(-22.078101,-53.828102)"
         id="path52" />
    </clipPath>
    <clipPath
       clipPathUnits="userSpaceOnUse"
       id="clipPath54">
      <path
         d="M 0,64 H 64 V 0 H 0 Z"
         transform="translate(-54.820304,-4.2187001)"
         id="path54" />
    </clipPath>
    <clipPath
       clipPathUnits="userSpaceOnUse"
       id="clipPath56">
      <path
         d="M 0,64 H 64 V 0 H 0 Z"
         transform="translate(-32.000998,-8.1875)"
         id="path56" />
    </clipPath>
    <clipPath
       clipPathUnits="userSpaceOnUse"
       id="clipPath58">
      <path
         d="M 0,64 H 64 V 0 H 0 Z"
         transform="translate(-31.999003,-8.1875)"
         id="path58" />
    </clipPath>
    <clipPath
       clipPathUnits="userSpaceOnUse"
       id="clipPath60">
      <path
         d="M 0,64 H 64 V 0 H 0 Z"
         transform="translate(-32.000998,-4.2187001)"
         id="path60" />
    </clipPath>
    <clipPath
       clipPathUnits="userSpaceOnUse"
       id="clipPath62">
      <path
         d="M 0,64 H 64 V 0 H 0 Z"
         transform="translate(-31.999003,-4.2187001)"
         id="path62" />
    </clipPath>
    <clipPath
       clipPathUnits="userSpaceOnUse"
       id="clipPath64">
      <path
         d="M 0,64 H 64 V 0 H 0 Z"
         transform="translate(-32.000001,-4.2196999)"
         id="path64" />
    </clipPath>
    <clipPath
       clipPathUnits="userSpaceOnUse"
       id="clipPath66">
      <path
         d="M 0,64 H 64 V 0 H 0 Z"
         transform="translate(-25.054701,-35.968801)"
         id="path66" />
    </clipPath>
    <clipPath
       clipPathUnits="userSpaceOnUse"
       id="clipPath68">
      <path
         d="M 0,64 H 64 V 0 H 0 Z"
         transform="translate(-25.054701,-30.015601)"
         id="path68" />
    </clipPath>
    <clipPath
       clipPathUnits="userSpaceOnUse"
       id="clipPath70">
      <path
         d="M 0,64 H 64 V 0 H 0 Z"
         transform="translate(-25.054701,-24.062501)"
         id="path70" />
    </clipPath>
    <clipPath
       clipPathUnits="userSpaceOnUse"
       id="clipPath72">
      <path
         d="M 0,64 H 64 V 0 H 0 Z"
         transform="translate(-25.054701,-18.1094)"
         id="path72" />
    </clipPath>
    <clipPath
       clipPathUnits="userSpaceOnUse"
       id="clipPath74">
      <path
         d="M 0,64 H 64 V 0 H 0 Z"
         transform="translate(-46.882799,-35.968801)"
         id="path74" />
    </clipPath>
    <clipPath
       clipPathUnits="userSpaceOnUse"
       id="clipPath76">
      <path
         d="M 0,64 H 64 V 0 H 0 Z"
         transform="translate(-46.882799,-30.015601)"
         id="path76" />
    </clipPath>
    <clipPath
       clipPathUnits="userSpaceOnUse"
       id="clipPath78">
      <path
         d="M 0,64 H 64 V 0 H 0 Z"
         transform="translate(-46.882799,-24.062501)"
         id="path78" />
    </clipPath>
    <clipPath
       clipPathUnits="userSpaceOnUse"
       id="clipPath80">
      <path
         d="M 0,64 H 64 V 0 H 0 Z"
         transform="translate(-46.882799,-18.1094)"
         id="path80" />
    </clipPath>
    <clipPath
       clipPathUnits="userSpaceOnUse"
       id="clipPath82">
      <path
         d="M 0,64 H 64 V 0 H 0 Z"
         transform="translate(-55.685599,-43.178401)"
         id="path82" />
    </clipPath>
    <clipPath
       clipPathUnits="userSpaceOnUse"
       id="clipPath84">
      <path
         d="M 0,64 H 64 V 0 H 0 Z"
         transform="translate(-8.0628027,-53.329901)"
         id="path84" />
    </clipPath>
    <clipPath
       clipPathUnits="userSpaceOnUse"
       id="clipPath86">
      <path
         d="M 0,64 H 64 V 0 H 0 Z"
         transform="translate(-55.119604,-24.480901)"
         id="path86" />
    </clipPath>
    <clipPath
       clipPathUnits="userSpaceOnUse"
       id="clipPath88">
      <path
         d="M 0,64 H 64 V 0 H 0 Z"
         transform="translate(-44.898304,-48.549001)"
         id="path88" />
    </clipPath>
    <clipPath
       clipPathUnits="userSpaceOnUse"
       id="clipPath90">
      <path
         d="M 0,64 H 64 V 0 H 0 Z"
         transform="translate(-44.898304,-41.898301)"
         id="path90" />
    </clipPath>
    <clipPath
       clipPathUnits="userSpaceOnUse"
       id="clipPath92">
      <path
         d="M 0,64 H 64 V 0 H 0 Z"
         transform="translate(-52.835801,-43.905901)"
         id="path92" />
    </clipPath>
    <clipPath
       clipPathUnits="userSpaceOnUse"
       id="clipPath94">
      <path
         d="M 0,64 H 64 V 0 H 0 Z"
         transform="translate(-52.835801,-43.905901)"
         id="path94" />
    </clipPath>
    <clipPath
       clipPathUnits="userSpaceOnUse"
       id="clipPath96">
      <path
         d="M 0,64 H 64 V 0 H 0 Z"
         transform="translate(-31.999998,-45.890301)"
         id="path96" />
    </clipPath>
    <clipPath
       clipPathUnits="userSpaceOnUse"
       id="clipPath98">
      <path
         d="M 0,64 H 64 V 0 H 0 Z"
         transform="translate(-31.999998,-45.890301)"
         id="path98" />
    </clipPath>
    <clipPath
       clipPathUnits="userSpaceOnUse"
       id="clipPath100">
      <path
         d="M 0,64 H 64 V 0 H 0 Z"
         transform="translate(-31.999998,-33.984101)"
         id="path100" />
    </clipPath>
    <clipPath
       clipPathUnits="userSpaceOnUse"
       id="clipPath102">
      <path
         d="M 0,64 H 64 V 0 H 0 Z"
         transform="translate(-31.999998,-0.99030027)"
         id="path102" />
    </clipPath>
    <clipPath
       clipPathUnits="userSpaceOnUse"
       id="clipPath122">
      <path
         d="M 0,64 H 64 V 0 H 0 Z"
         transform="translate(-1.3087025,-6.0121002)"
         id="path122" />
    </clipPath>
    <clipPath
       clipPathUnits="userSpaceOnUse"
       id="clipPath124">
      <path
         d="M 0,64 H 64 V 0 H 0 Z"
         transform="translate(-43.859601,-25.9862)"
         id="path124" />
    </clipPath>
    <clipPath
       clipPathUnits="userSpaceOnUse"
       id="clipPath126">
      <path
         d="M 0,64 H 64 V 0 H 0 Z"
         transform="translate(-55.197599,-23.302001)"
         id="path126" />
    </clipPath>
    <clipPath
       clipPathUnits="userSpaceOnUse"
       id="clipPath128">
      <path
         d="M 0,64 H 64 V 0 H 0 Z"
         transform="translate(-59.869701,-26.193101)"
         id="path128" />
    </clipPath>
    <clipPath
       clipPathUnits="userSpaceOnUse"
       id="clipPath130">
      <path
         d="M 0,64 H 64 V 0 H 0 Z"
         transform="translate(-27.792801,-33.787801)"
         id="path130" />
    </clipPath>
    <clipPath
       clipPathUnits="userSpaceOnUse"
       id="clipPath132">
      <path
         d="M 0,64 H 64 V 0 H 0 Z"
         transform="translate(-40.945701,-2.0397003)"
         id="path132" />
    </clipPath>
    <clipPath
       clipPathUnits="userSpaceOnUse"
       id="clipPath134">
      <path
         d="M 0,64 H 64 V 0 H 0 Z"
         transform="translate(-43.771004,-17.402701)"
         id="path134" />
    </clipPath>
    <clipPath
       clipPathUnits="userSpaceOnUse"
       id="clipPath136">
      <path
         d="M 0,64 H 64 V 0 H 0 Z"
         transform="translate(-8.4524002,-8.8555002)"
         id="path136" />
    </clipPath>
    <clipPath
       clipPathUnits="userSpaceOnUse"
       id="clipPath138">
      <path
         d="M 0,64 H 64 V 0 H 0 Z"
         transform="translate(-8.4524002,-18.0256)"
         id="path138" />
    </clipPath>
    <clipPath
       clipPathUnits="userSpaceOnUse"
       id="clipPath140">
      <path
         d="M 0,64 H 64 V 0 H 0 Z"
         transform="translate(-12.6893,-24.082301)"
         id="path140" />
    </clipPath>
    <clipPath
       clipPathUnits="userSpaceOnUse"
       id="clipPath142">
      <path
         d="M 0,64 H 64 V 0 H 0 Z"
         transform="translate(-8.4521977,-7.7965002)"
         id="path142" />
    </clipPath>
    <clipPath
       clipPathUnits="userSpaceOnUse"
       id="clipPath144">
      <path
         d="M 0,64 H 64 V 0 H 0 Z"
         transform="translate(-37.489701,-52.832402)"
         id="path144" />
    </clipPath>
    <clipPath
       clipPathUnits="userSpaceOnUse"
       id="clipPath146">
      <path
         d="M 0,64 H 64 V 0 H 0 Z"
         transform="translate(-33.056901,-40.281301)"
         id="path146" />
    </clipPath>
    <clipPath
       clipPathUnits="userSpaceOnUse"
       id="clipPath148">
      <path
         d="M 0,64 H 64 V 0 H 0 Z"
         transform="translate(2.5000001e-6)"
         id="path148" />
    </clipPath>
    <clipPath
       clipPathUnits="userSpaceOnUse"
       id="clipPath150">
      <path
         d="M 0,64 H 64 V 0 H 0 Z"
         transform="translate(-10.4888,-35.468001)"
         id="path150" />
    </clipPath>
    <clipPath
       clipPathUnits="userSpaceOnUse"
       id="clipPath104">
      <path
         d="M 0,64 H 64 V 0 H 0 Z"
         transform="translate(-15.244598,-10.3565)"
         id="path104" />
    </clipPath>
    <clipPath
       clipPathUnits="userSpaceOnUse"
       id="clipPath106">
      <path
         d="M 0,64 H 64 V 0 H 0 Z"
         transform="translate(-28.455601,-58.909801)"
         id="path106" />
    </clipPath>
    <clipPath
       clipPathUnits="userSpaceOnUse"
       id="clipPath108">
      <path
         d="M 0,64 H 64 V 0 H 0 Z"
         transform="translate(-49.308699,-46.659501)"
         id="path108" />
    </clipPath>
    <clipPath
       clipPathUnits="userSpaceOnUse"
       id="clipPath110">
      <path
         d="M 0,64 H 64 V 0 H 0 Z"
         transform="translate(-8.3196002,-44.750801)"
         id="path110" />
    </clipPath>
    <clipPath
       clipPathUnits="userSpaceOnUse"
       id="clipPath112">
      <path
         d="M 0,64 H 64 V 0 H 0 Z"
         transform="translate(-55.653001,-44.722201)"
         id="path112" />
    </clipPath>
    <clipPath
       clipPathUnits="userSpaceOnUse"
       id="clipPath114">
      <path
         d="M 0,64 H 64 V 0 H 0 Z"
         transform="translate(-4.1411026,-49.628301)"
         id="path114" />
    </clipPath>
    <clipPath
       clipPathUnits="userSpaceOnUse"
       id="clipPath116">
      <path
         d="M 0,64 H 64 V 0 H 0 Z"
         transform="translate(-59.847399,-49.597901)"
         id="path116" />
    </clipPath>
    <clipPath
       clipPathUnits="userSpaceOnUse"
       id="clipPath118">
      <path
         d="M 0,64 H 64 V 0 H 0 Z"
         transform="translate(-32.055001,-9.4001)"
         id="path118" />
    </clipPath>
    <clipPath
       clipPathUnits="userSpaceOnUse"
       id="clipPath120">
      <path
         d="M 0,64 H 64 V 0 H 0 Z"
         transform="translate(-28.455601,-58.909801)"
         id="path120" />
    </clipPath>
    <clipPath
       clipPathUnits="userSpaceOnUse"
       id="clipPath367">
      <path
         d="M 0,64 H 64 V 0 H 0 Z"
         transform="translate(-58.786501,-42.928201)"
         id="path367" />
    </clipPath>
    <clipPath
       clipPathUnits="userSpaceOnUse"
       id="clipPath369">
      <path
         d="M 0,64 H 64 V 0 H 0 Z"
         transform="translate(-56.782201,-34.420401)"
         id="path369" />
    </clipPath>
    <clipPath
       clipPathUnits="userSpaceOnUse"
       id="clipPath371">
      <path
         d="M 0,64 H 64 V 0 H 0 Z"
         transform="translate(-56.782201,-26.9747)"
         id="path371" />
    </clipPath>
    <clipPath
       clipPathUnits="userSpaceOnUse"
       id="clipPath373">
      <path
         d="M 0,64 H 64 V 0 H 0 Z"
         transform="translate(-46.117576,-19.530001)"
         id="path373" />
    </clipPath>
    <clipPath
       clipPathUnits="userSpaceOnUse"
       id="clipPath375">
      <path
         d="M 0,64 H 64 V 0 H 0 Z"
         transform="translate(-31.655026,-57.137001)"
         id="path375" />
    </clipPath>
    <clipPath
       clipPathUnits="userSpaceOnUse"
       id="clipPath377">
      <path
         d="M 0,64 H 64 V 0 H 0 Z"
         transform="translate(-5.2125001,-56.078901)"
         id="path377" />
    </clipPath>
    <clipPath
       clipPathUnits="userSpaceOnUse"
       id="clipPath379">
      <path
         d="M 0,64 H 64 V 0 H 0 Z"
         transform="translate(-52.469401,-5.8048001)"
         id="path379" />
    </clipPath>
    <clipPath
       clipPathUnits="userSpaceOnUse"
       id="clipPath381">
      <path
         d="M 0,64 H 64 V 0 H 0 Z"
         transform="translate(-7.5686252,-49.235601)"
         id="path381" />
    </clipPath>
    <clipPath
       clipPathUnits="userSpaceOnUse"
       id="clipPath383">
      <path
         d="M 0,64 H 64 V 0 H 0 Z"
         transform="translate(-7.5686252,-41.789801)"
         id="path383" />
    </clipPath>
    <clipPath
       clipPathUnits="userSpaceOnUse"
       id="clipPath385">
      <path
         d="M 0,64 H 64 V 0 H 0 Z"
         transform="translate(-17.175075,-35.403301)"
         id="path385" />
    </clipPath>
    <clipPath
       clipPathUnits="userSpaceOnUse"
       id="clipPath329">
      <path
         d="M 0,64 H 64 V 0 H 0 Z"
         transform="translate(-62.568427,-32.002901)"
         id="path329" />
    </clipPath>
    <clipPath
       clipPathUnits="userSpaceOnUse"
       id="clipPath331">
      <path
         d="M 0,64 H 64 V 0 H 0 Z"
         transform="translate(-54.336501,-32.005801)"
         id="path331" />
    </clipPath>
    <clipPath
       clipPathUnits="userSpaceOnUse"
       id="clipPath333">
      <path
         d="M 0,64 H 64 V 0 H 0 Z"
         transform="translate(-51.500301,-21.120301)"
         id="path333" />
    </clipPath>
    <clipPath
       clipPathUnits="userSpaceOnUse"
       id="clipPath335">
      <path
         d="M 0,64 H 64 V 0 H 0 Z"
         transform="translate(-44.368176,-37.731201)"
         id="path335" />
    </clipPath>
    <clipPath
       clipPathUnits="userSpaceOnUse"
       id="clipPath337">
      <path
         d="M 0,64 H 64 V 0 H 0 Z"
         transform="translate(-31.906176,-49.022901)"
         id="path337" />
    </clipPath>
    <clipPath
       clipPathUnits="userSpaceOnUse"
       id="clipPath339">
      <path
         d="M 0,64 H 64 V 0 H 0 Z"
         transform="translate(-42.806526,-29.531201)"
         id="path339" />
    </clipPath>
    <clipPath
       clipPathUnits="userSpaceOnUse"
       id="clipPath341">
      <path
         d="M 0,64 H 64 V 0 H 0 Z"
         transform="translate(-13.8401,-21.146801)"
         id="path341" />
    </clipPath>
    <clipPath
       clipPathUnits="userSpaceOnUse"
       id="clipPath343">
      <path
         d="M 0,64 H 64 V 0 H 0 Z"
         transform="translate(-31.906176,-49.022901)"
         id="path343" />
    </clipPath>
    <clipPath
       clipPathUnits="userSpaceOnUse"
       id="clipPath345">
      <path
         d="M 0,64 H 64 V 0 H 0 Z"
         transform="translate(-21.750026,-38.481901)"
         id="path345" />
    </clipPath>
    <clipPath
       clipPathUnits="userSpaceOnUse"
       id="clipPath347">
      <path
         d="M 0,64 H 64 V 0 H 0 Z"
         transform="translate(-53.023001,-23.693201)"
         id="path347" />
    </clipPath>
    <clipPath
       clipPathUnits="userSpaceOnUse"
       id="clipPath349">
      <path
         d="M 0,64 H 64 V 0 H 0 Z"
         transform="translate(-31.360376,-40.514201)"
         id="path349" />
    </clipPath>
    <clipPath
       clipPathUnits="userSpaceOnUse"
       id="clipPath351">
      <path
         d="M 0,64 H 64 V 0 H 0 Z"
         transform="translate(-33.048326,-39.593801)"
         id="path351" />
    </clipPath>
    <clipPath
       clipPathUnits="userSpaceOnUse"
       id="clipPath353">
      <path
         d="M 0,64 H 64 V 0 H 0 Z"
         transform="translate(-21.750026,-38.481901)"
         id="path353" />
    </clipPath>
    <clipPath
       clipPathUnits="userSpaceOnUse"
       id="clipPath355">
      <path
         d="M 0,64 H 64 V 0 H 0 Z"
         transform="translate(-31.952726,-2.2696001)"
         id="path355" />
    </clipPath>
    <clipPath
       clipPathUnits="userSpaceOnUse"
       id="clipPath357">
      <path
         d="M 0,64 H 64 V 0 H 0 Z"
         transform="translate(-19.233025,-2.5128003)"
         id="path357" />
    </clipPath>
    <clipPath
       clipPathUnits="userSpaceOnUse"
       id="clipPath359">
      <path
         d="M 0,64 H 64 V 0 H 0 Z"
         transform="translate(-44.833226,-2.5270998)"
         id="path359" />
    </clipPath>
    <clipPath
       clipPathUnits="userSpaceOnUse"
       id="clipPath361">
      <path
         d="M 0,64 H 64 V 0 H 0 Z"
         transform="translate(-20.982101,-23.642)"
         id="path361" />
    </clipPath>
    <clipPath
       clipPathUnits="userSpaceOnUse"
       id="clipPath363">
      <path
         d="M 0,64 H 64 V 0 H 0 Z"
         transform="translate(-37.002326,-23.6162)"
         id="path363" />
    </clipPath>
    <clipPath
       clipPathUnits="userSpaceOnUse"
       id="clipPath365">
      <path
         d="M 0,64 H 64 V 0 H 0 Z"
         transform="translate(-53.023001,-23.693201)"
         id="path365" />
    </clipPath>
    <clipPath
       clipPathUnits="userSpaceOnUse"
       id="clipPath176">
      <path
         d="M 0,64 H 64 V 0 H 0 Z"
         transform="translate(-7.3634027,-35.901001)"
         id="path176" />
    </clipPath>
    <clipPath
       clipPathUnits="userSpaceOnUse"
       id="clipPath178">
      <path
         d="M 0,64 H 64 V 0 H 0 Z"
         transform="translate(-13.53,-19.8817)"
         id="path178" />
    </clipPath>
    <clipPath
       clipPathUnits="userSpaceOnUse"
       id="clipPath180">
      <path
         d="M 0,64 H 64 V 0 H 0 Z"
         transform="translate(-2.2011976,-12.977101)"
         id="path180" />
    </clipPath>
    <clipPath
       clipPathUnits="userSpaceOnUse"
       id="clipPath182">
      <path
         d="M 0,64 H 64 V 0 H 0 Z"
         transform="translate(-42.393601,-39.227301)"
         id="path182" />
    </clipPath>
    <clipPath
       clipPathUnits="userSpaceOnUse"
       id="clipPath184">
      <path
         d="M 0,64 H 64 V 0 H 0 Z"
         transform="translate(-2.3019976,-36.120601)"
         id="path184" />
    </clipPath>
    <clipPath
       clipPathUnits="userSpaceOnUse"
       id="clipPath186">
      <path
         d="M 0,64 H 64 V 0 H 0 Z"
         transform="translate(-31.878398,-35.901001)"
         id="path186" />
    </clipPath>
    <clipPath
       clipPathUnits="userSpaceOnUse"
       id="clipPath188">
      <path
         d="M 0,64 H 64 V 0 H 0 Z"
         transform="translate(-19.620998,-12.663001)"
         id="path188" />
    </clipPath>
    <clipPath
       clipPathUnits="userSpaceOnUse"
       id="clipPath190">
      <path
         d="M 0,64 H 64 V 0 H 0 Z"
         transform="translate(-37.040798,-0.25000001)"
         id="path190" />
    </clipPath>
    <clipPath
       clipPathUnits="userSpaceOnUse"
       id="clipPath192">
      <path
         d="M 0,64 H 64 V 0 H 0 Z"
         transform="translate(-51.357301,-27.522901)"
         id="path192" />
    </clipPath>
    <clipPath
       clipPathUnits="userSpaceOnUse"
       id="clipPath194">
      <path
         d="M 0,64 H 64 V 0 H 0 Z"
         transform="translate(-61.865199,-53.867301)"
         id="path194" />
    </clipPath>
    <clipPath
       clipPathUnits="userSpaceOnUse"
       id="clipPath196">
      <path
         d="M 0,64 H 64 V 0 H 0 Z"
         transform="translate(-52.975899,-61.763002)"
         id="path196" />
    </clipPath>
    <clipPath
       clipPathUnits="userSpaceOnUse"
       id="clipPath198">
      <path
         d="M 0,64 H 64 V 0 H 0 Z"
         transform="translate(-17.0328,-42.933401)"
         id="path198" />
    </clipPath>
    <clipPath
       clipPathUnits="userSpaceOnUse"
       id="clipPath200">
      <path
         d="M 0,64 H 64 V 0 H 0 Z"
         transform="translate(-9.3321002,-30.832801)"
         id="path200" />
    </clipPath>
    <clipPath
       clipPathUnits="userSpaceOnUse"
       id="clipPath202">
      <path
         d="M 0,64 H 64 V 0 H 0 Z"
         transform="translate(-31.643003,-30.832801)"
         id="path202" />
    </clipPath>
    <clipPath
       clipPathUnits="userSpaceOnUse"
       id="clipPath204">
      <path
         d="M 0,64 H 64 V 0 H 0 Z"
         transform="translate(-13.877498,-42.521401)"
         id="path204" />
    </clipPath>
    <clipPath
       clipPathUnits="userSpaceOnUse"
       id="clipPath206">
      <path
         d="M 0,64 H 64 V 0 H 0 Z"
         transform="translate(-51.722401,-50.344701)"
         id="path206" />
    </clipPath>
    <clipPath
       clipPathUnits="userSpaceOnUse"
       id="clipPath208">
      <path
         d="M 0,64 H 64 V 0 H 0 Z"
         transform="translate(-52.157004,-52.583901)"
         id="path208" />
    </clipPath>
    <clipPath
       clipPathUnits="userSpaceOnUse"
       id="clipPath388">
      <path
         d="M 0,64 H 64 V 0 H 0 Z"
         transform="translate(-16.4936,-19.565401)"
         id="path388" />
    </clipPath>
    <clipPath
       clipPathUnits="userSpaceOnUse"
       id="clipPath390">
      <path
         d="M 0,64 H 64 V 0 H 0 Z"
         transform="translate(-54.983901,-1.3080003)"
         id="path390" />
    </clipPath>
    <clipPath
       clipPathUnits="userSpaceOnUse"
       id="clipPath392">
      <path
         d="M 0,64 H 64 V 0 H 0 Z"
         transform="translate(2.5000001e-5)"
         id="path392" />
    </clipPath>
    <clipPath
       clipPathUnits="userSpaceOnUse"
       id="clipPath394">
      <path
         d="M 0,64 H 64 V 0 H 0 Z"
         transform="translate(-13.0139,-8.2500005)"
         id="path394" />
    </clipPath>
    <clipPath
       clipPathUnits="userSpaceOnUse"
       id="clipPath396">
      <path
         d="M 0,64 H 64 V 0 H 0 Z"
         transform="translate(-16.4936,-8.2500005)"
         id="path396" />
    </clipPath>
    <clipPath
       clipPathUnits="userSpaceOnUse"
       id="clipPath398">
      <path
         d="M 0,64 H 64 V 0 H 0 Z"
         transform="translate(-16.4936,-44.691701)"
         id="path398" />
    </clipPath>
    <clipPath
       clipPathUnits="userSpaceOnUse"
       id="clipPath400">
      <path
         d="M 0,64 H 64 V 0 H 0 Z"
         transform="translate(-16.4936,-18.5077)"
         id="path400" />
    </clipPath>
    <clipPath
       clipPathUnits="userSpaceOnUse"
       id="clipPath402">
      <path
         d="M 0,64 H 64 V 0 H 0 Z"
         transform="translate(2.5000001e-5)"
         id="path402" />
    </clipPath>
    <clipPath
       clipPathUnits="userSpaceOnUse"
       id="clipPath404">
      <path
         d="M 0,64 H 64 V 0 H 0 Z"
         transform="translate(-26.473101,-26.123401)"
         id="path404" />
    </clipPath>
    <clipPath
       clipPathUnits="userSpaceOnUse"
       id="clipPath406">
      <path
         d="M 0,64 H 64 V 0 H 0 Z"
         transform="translate(-34.740126,-32.225001)"
         id="path406" />
    </clipPath>
    <clipPath
       clipPathUnits="userSpaceOnUse"
       id="clipPath408">
      <path
         d="M 0,64 H 64 V 0 H 0 Z"
         transform="translate(-34.739826,-32.225001)"
         id="path408" />
    </clipPath>
    <clipPath
       clipPathUnits="userSpaceOnUse"
       id="clipPath410">
      <path
         d="M 0,64 H 64 V 0 H 0 Z"
         transform="translate(-54.984126,-8.2500005)"
         id="path410" />
    </clipPath>
    <clipPath
       clipPathUnits="userSpaceOnUse"
       id="clipPath412">
      <path
         d="M 0,64 H 64 V 0 H 0 Z"
         transform="translate(-34.738926,-31.166101)"
         id="path412" />
    </clipPath>
    <clipPath
       clipPathUnits="userSpaceOnUse"
       id="clipPath414">
      <path
         d="M 0,64 H 64 V 0 H 0 Z"
         transform="translate(-56.231126,-1.7025003)"
         id="path414" />
    </clipPath>
    <clipPath
       clipPathUnits="userSpaceOnUse"
       id="clipPath416">
      <path
         d="M 0,64 H 64 V 0 H 0 Z"
         transform="translate(-7.9729752,-62.754102)"
         id="path416" />
    </clipPath>
    <clipPath
       clipPathUnits="userSpaceOnUse"
       id="clipPath418">
      <path
         d="M 0,64 H 64 V 0 H 0 Z"
         transform="translate(-31.312001,-42.258301)"
         id="path418" />
    </clipPath>
    <clipPath
       clipPathUnits="userSpaceOnUse"
       id="clipPath420">
      <path
         d="M 0,64 H 64 V 0 H 0 Z"
         transform="translate(-4.0324001,-3.5112003)"
         id="path420" />
    </clipPath>
    <clipPath
       clipPathUnits="userSpaceOnUse"
       id="clipPath422">
      <path
         d="M 0,64 H 64 V 0 H 0 Z"
         transform="translate(-31.312001,-42.258301)"
         id="path422" />
    </clipPath>
    <clipPath
       clipPathUnits="userSpaceOnUse"
       id="clipPath424">
      <path
         d="M 0,64 H 64 V 0 H 0 Z"
         transform="translate(-32.012201,-9.0129005)"
         id="path424" />
    </clipPath>
    <clipPath
       clipPathUnits="userSpaceOnUse"
       id="clipPath426">
      <path
         d="M 0,64 H 64 V 0 H 0 Z"
         transform="translate(-50.199701,-46.231901)"
         id="path426" />
    </clipPath>
    <clipPath
       clipPathUnits="userSpaceOnUse"
       id="clipPath428">
      <path
         d="M 0,64 H 64 V 0 H 0 Z"
         transform="translate(-50.160101,-35.284001)"
         id="path428" />
    </clipPath>
    <clipPath
       clipPathUnits="userSpaceOnUse"
       id="clipPath430">
      <path
         d="M 0,64 H 64 V 0 H 0 Z"
         transform="translate(-50.268476,-28.717501)"
         id="path430" />
    </clipPath>
    <clipPath
       clipPathUnits="userSpaceOnUse"
       id="clipPath432">
      <path
         d="M 0,64 H 64 V 0 H 0 Z"
         transform="translate(-50.220326,-17.7695)"
         id="path432" />
    </clipPath>
    <clipPath
       clipPathUnits="userSpaceOnUse"
       id="clipPath434">
      <path
         d="M 0,64 H 64 V 0 H 0 Z"
         transform="translate(-9.0216252,-56.853001)"
         id="path434" />
    </clipPath>
    <clipPath
       clipPathUnits="userSpaceOnUse"
       id="clipPath436">
      <path
         d="M 0,64 H 64 V 0 H 0 Z"
         transform="translate(-15.565225,-56.853001)"
         id="path436" />
    </clipPath>
    <clipPath
       clipPathUnits="userSpaceOnUse"
       id="clipPath438">
      <path
         d="M 0,64 H 64 V 0 H 0 Z"
         transform="translate(-22.204526,-59.692701)"
         id="path438" />
    </clipPath>
    <clipPath
       clipPathUnits="userSpaceOnUse"
       id="clipPath440">
      <path
         d="M 0,64 H 64 V 0 H 0 Z"
         transform="translate(-23.857001,-33.874701)"
         id="path440" />
    </clipPath>
    <clipPath
       clipPathUnits="userSpaceOnUse"
       id="clipPath442">
      <path
         d="M 0,64 H 64 V 0 H 0 Z"
         transform="translate(-31.312001,-42.258301)"
         id="path442" />
    </clipPath>
    <clipPath
       clipPathUnits="userSpaceOnUse"
       id="clipPath444">
      <path
         d="M 0,64 H 64 V 0 H 0 Z"
         transform="translate(-15.8368,-22.271701)"
         id="path444" />
    </clipPath>
    <clipPath
       clipPathUnits="userSpaceOnUse"
       id="clipPath446">
      <path
         d="M 0,64 H 64 V 0 H 0 Z"
         transform="translate(-23.857001,-33.874701)"
         id="path446" />
    </clipPath>
  </defs>
  <g
     id="layer1">
    <path
       id="path413"
       d="m 0,0 h -48.307 c -3.708,0 -6.742,3.034 -6.742,6.742 V 52.274 H 6.742 V 6.742 C 6.742,3.034 3.708,0 0,0"
       style="fill:#ffffff;fill-opacity:1;fill-rule:nonzero;stroke:none"
       transform="matrix(0.26046619,0,0,-0.26046619,14.767998,16.326614)"
       clip-path="url(#clipPath414)" />
    <path
       id="path415"
       d="m 0,0 h 48.307 c 3.708,0 6.742,-3.034 6.742,-6.742 V -8.334 H -6.742 v 1.592 C -6.742,-3.034 -3.708,0 0,0"
       style="fill:#697ee9;fill-opacity:1;fill-rule:nonzero;stroke:none"
       transform="matrix(0.26046619,0,0,-0.26046619,2.1983812,0.42473603)"
       clip-path="url(#clipPath416)" />
    <path
       id="path417"
       d="m 0,0 c -0.002,0.097 -0.057,0.131 -0.147,0.123 -2.855,2.112 -6.072,2.776 -9.504,2.119 -6.857,-1.313 -11.167,-7.267 -10.316,-14.235 0.396,-3.243 1.885,-5.952 4.492,-7.994 0.019,-0.087 0.071,-0.127 0.161,-0.111 h 10e-4 c 0.025,-0.183 0.183,-0.254 0.307,-0.344 2.904,-2.107 6.141,-2.959 9.681,-2.366 8.944,1.496 13.483,11.457 8.767,19.204 -0.878,1.443 -1.945,2.737 -3.443,3.605 z"
       style="fill:#f69f00;fill-opacity:1;fill-rule:nonzero;stroke:none"
       transform="matrix(0.26046619,0,0,-0.26046619,8.2774083,5.7631987)"
       clip-path="url(#clipPath418)" />
    <path
       id="path419"
       d="m 0,0 c 0.879,-0.843 1.961,-1.07 3.136,-1.069 16.507,0.004 33.014,0.003 49.521,0.003 3.104,0 4.87,1.767 4.87,4.874 0,14.476 0.002,28.952 -0.006,43.428 0,0.673 0.304,1.627 -0.132,1.947 -0.459,0.337 -1.353,0.08 -2.056,0.083 -0.228,0.007 -0.455,0.021 -0.683,0.021 -18.494,10e-4 -36.989,-0.002 -55.484,0.015 -0.61,10e-4 -0.773,-0.136 -0.772,-0.764 0.019,-14.912 0.015,-29.825 0.015,-44.737 0,-0.251 -0.013,-0.504 0.01,-0.752 C -1.465,1.821 -1.013,0.764 0,0 m -1.573,52.447 c -0.04,-0.969 -0.04,-0.97 0.887,-0.97 19.11,0 38.22,0 57.33,0 0.136,0 0.275,0.013 0.41,-0.002 0.341,-0.037 0.496,0.074 0.48,0.45 -0.028,0.66 0.013,1.323 -0.017,1.983 -0.092,2.013 -1.755,3.866 -3.558,3.989 -0.337,0.191 -0.708,0.147 -1.07,0.147 -16.62,0.001 -33.241,0.001 -49.861,0.001 -0.159,0 -0.319,10e-4 -0.479,-0.007 C 0.644,57.946 -1.019,56.549 -1.464,54.691 -1.642,53.946 -1.59,53.197 -1.573,52.447 M -3.781,28.563 c 0,8.23 -10e-4,16.461 0.001,24.691 0,4.198 2.779,6.98 6.973,6.98 16.531,10e-4 33.063,10e-4 49.594,0 4.116,-0.001 6.928,-2.792 6.929,-6.887 0.003,-16.574 0.002,-33.149 0,-49.724 C 59.715,0.33 57.839,-2.21 54.808,-3.036 54.211,-3.199 53.602,-3.257 52.983,-3.257 36.315,-3.255 19.647,-3.259 2.979,-3.253 c -3.916,0.002 -6.754,2.856 -6.758,6.783 -0.007,8.344 -0.002,16.688 -0.002,25.033"
       style="fill:#4e4957;fill-opacity:1;fill-rule:nonzero;stroke:none"
       transform="matrix(0.26046619,0,0,-0.26046619,1.1719941,15.855509)"
       clip-path="url(#clipPath420)" />
    <path
       id="path421"
       d="m 0,0 c -0.002,0.097 -0.057,0.131 -0.147,0.123 -2.855,2.112 -6.072,2.776 -9.504,2.119 -6.857,-1.313 -11.167,-7.267 -10.316,-14.235 0.396,-3.243 1.885,-5.952 4.492,-7.994 0.019,-0.087 0.071,-0.127 0.161,-0.111 h 10e-4 c 0.025,-0.183 0.183,-0.254 0.307,-0.344 2.904,-2.107 6.141,-2.959 9.681,-2.366 8.944,1.496 13.483,11.457 8.767,19.204 -0.878,1.443 -1.945,2.737 -3.443,3.605 z m -22.302,-10.237 c 0.008,8.21 6.705,14.896 14.919,14.895 8.24,-0.002 14.94,-6.726 14.914,-14.969 -0.025,-8.205 -6.741,-14.88 -14.954,-14.862 -8.209,0.018 -14.888,6.723 -14.879,14.936"
       style="fill:#4e4957;fill-opacity:1;fill-rule:nonzero;stroke:none"
       transform="matrix(0.26046619,0,0,-0.26046619,8.2774083,5.7631987)"
       clip-path="url(#clipPath422)" />
    <path
       id="path423"
       d="m 0,0 c -7.135,0 -14.269,0 -21.404,0.001 -0.227,0 -0.463,-0.027 -0.681,0.022 -0.58,0.131 -0.924,0.505 -0.905,1.111 0.017,0.572 0.361,0.919 0.914,1.035 0.197,0.042 0.408,0.02 0.613,0.02 14.292,0 28.584,0 42.876,0 0.205,0 0.416,0.023 0.614,-0.016 C 22.613,2.058 22.968,1.695 22.965,1.09 22.962,0.487 22.604,0.125 22.018,0.016 21.797,-0.025 21.563,0 21.335,0 14.224,0 7.112,0 0,0"
       style="fill:#4e4957;fill-opacity:1;fill-rule:nonzero;stroke:none"
       transform="matrix(0.26046619,0,0,-0.26046619,8.4597868,14.422501)"
       clip-path="url(#clipPath424)" />
    <path
       id="path425"
       d="m 0,0 c 1.138,0 2.275,0.003 3.413,-0.001 0.866,-0.003 1.363,-0.396 1.375,-1.076 0.011,-0.685 -0.491,-1.111 -1.339,-1.112 -2.298,-0.005 -4.596,-0.005 -6.894,0 -0.85,10e-4 -1.35,0.424 -1.34,1.11 0.01,0.681 0.506,1.075 1.372,1.078 C -2.275,0.003 -1.138,0 0,0"
       style="fill:#4e4957;fill-opacity:1;fill-rule:nonzero;stroke:none"
       transform="matrix(0.26046619,0,0,-0.26046619,13.197016,4.72821)"
       clip-path="url(#clipPath426)" />
    <path
       id="path427"
       d="m 0,0 c -1.16,0 -2.321,-0.007 -3.481,0.002 -0.788,0.007 -1.279,0.451 -1.264,1.117 0.014,0.64 0.491,1.066 1.242,1.069 C -1.136,2.195 1.23,2.196 3.596,2.187 4.344,2.185 4.821,1.748 4.827,1.107 4.834,0.465 4.356,0.012 3.618,0.004 2.412,-0.009 1.206,0 0,0"
       style="fill:#4e4957;fill-opacity:1;fill-rule:nonzero;stroke:none"
       transform="matrix(0.26046619,0,0,-0.26046619,13.186702,7.579768)"
       clip-path="url(#clipPath428)" />
    <path
       id="path429"
       d="M 0,0 C 1.115,0 2.23,0.003 3.345,-0.001 4.21,-0.004 4.707,-0.398 4.719,-1.077 4.73,-1.763 4.228,-2.188 3.38,-2.189 c -2.299,-0.005 -4.597,-0.005 -6.895,0 -0.849,10e-4 -1.349,0.424 -1.339,1.111 0.011,0.681 0.507,1.074 1.373,1.077 C -2.321,0.003 -1.16,0 0,0"
       style="fill:#4e4957;fill-opacity:1;fill-rule:nonzero;stroke:none"
       transform="matrix(0.26046619,0,0,-0.26046619,13.214929,9.2901191)"
       clip-path="url(#clipPath430)" />
    <path
       id="path431"
       d="m 0,0 c -1.16,0 -2.321,-0.005 -3.481,0.001 -0.84,0.005 -1.345,0.441 -1.324,1.127 0.019,0.658 0.506,1.06 1.318,1.061 2.321,0.005 4.642,0.005 6.963,0 C 4.276,2.187 4.765,1.762 4.767,1.099 4.769,0.435 4.279,0.008 3.481,0.002 2.321,-0.006 1.16,0 0,0"
       style="fill:#4e4957;fill-opacity:1;fill-rule:nonzero;stroke:none"
       transform="matrix(0.26046619,0,0,-0.26046619,13.202388,12.141704)"
       clip-path="url(#clipPath432)" />
    <path
       id="path433"
       d="M 0,0 C -0.799,-0.006 -1.426,0.61 -1.433,1.408 -1.44,2.209 -0.825,2.833 -0.024,2.84 0.775,2.846 1.403,2.23 1.409,1.432 1.415,0.633 0.799,0.006 0,0"
       style="fill:#4e4957;fill-opacity:1;fill-rule:nonzero;stroke:none"
       transform="matrix(0.26046619,0,0,-0.26046619,2.4715188,1.9617725)"
       clip-path="url(#clipPath434)" />
    <path
       id="path435"
       d="m 0,0 c -0.799,0.007 -1.414,0.633 -1.408,1.433 0.007,0.8 0.632,1.414 1.434,1.407 C 0.825,2.833 1.441,2.206 1.434,1.407 1.427,0.608 0.8,-0.007 0,0"
       style="fill:#4e4957;fill-opacity:1;fill-rule:nonzero;stroke:none"
       transform="matrix(0.26046619,0,0,-0.26046619,4.1759057,1.9617725)"
       clip-path="url(#clipPath436)" />
    <path
       id="path437"
       d="M 0,0 C 0.793,-0.029 1.393,-0.679 1.363,-1.478 1.334,-2.271 0.685,-2.869 -0.115,-2.84 -0.908,-2.811 -1.508,-2.161 -1.478,-1.362 -1.449,-0.568 -0.801,0.029 0,0"
       style="fill:#4e4957;fill-opacity:1;fill-rule:nonzero;stroke:none"
       transform="matrix(0.26046619,0,0,-0.26046619,5.9052186,1.2221266)"
       clip-path="url(#clipPath438)" />
    <path
       id="path439"
       d="m 0,0 c 0.258,-0.251 0.269,-0.512 0.341,-0.74 0.729,-2.32 1.46,-4.64 2.17,-6.965 0.178,-0.583 0.475,-1.003 1.122,-1 0.646,0.004 0.935,0.43 1.114,1.01 1.126,3.649 2.271,7.291 3.406,10.937 C 8.424,4.114 8.19,4.704 7.509,4.914 6.858,5.116 6.34,4.739 6.062,3.852 5.384,1.683 4.71,-0.487 4.032,-2.657 3.922,-3.009 3.799,-3.358 3.625,-3.878 3.495,-3.493 3.422,-3.289 3.357,-3.081 2.632,-0.76 1.899,1.559 1.192,3.886 1.009,4.487 0.724,4.951 0.043,4.946 -0.641,4.941 -0.908,4.458 -1.088,3.864 c -0.701,-2.305 -1.42,-4.605 -2.147,-6.901 -0.077,-0.242 -0.056,-0.549 -0.339,-0.717 -0.2,0.64 -0.399,1.268 -0.594,1.897 -0.606,1.954 -1.201,3.911 -1.818,5.861 -0.289,0.915 -1.146,1.243 -1.791,0.706 -0.476,-0.396 -0.45,-0.894 -0.281,-1.433 1.142,-3.644 2.28,-7.289 3.407,-10.937 0.184,-0.596 0.47,-1.061 1.158,-1.045 0.686,0.016 0.942,0.502 1.123,1.094 C -1.599,-5.09 -0.805,-2.577 0,0"
       style="fill:#cdd6da;fill-opacity:1;fill-rule:nonzero;stroke:none"
       transform="matrix(0.26046619,0,0,-0.26046619,6.3356329,7.9468432)"
       clip-path="url(#clipPath440)" />
    <path
       id="path441"
       d="M 0,0 C -0.089,-0.007 -0.134,0.039 -0.147,0.123 -0.057,0.131 -0.002,0.097 0,0"
       style="fill:#607c8a;fill-opacity:1;fill-rule:nonzero;stroke:none"
       transform="matrix(0.26046619,0,0,-0.26046619,8.2774083,5.7631987)"
       clip-path="url(#clipPath442)" />
    <path
       id="path443"
       d="M 0,0 C 0.088,0.012 0.148,-0.015 0.161,-0.112 0.071,-0.127 0.019,-0.087 0,0"
       style="fill:#607c8a;fill-opacity:1;fill-rule:nonzero;stroke:none"
       transform="matrix(0.26046619,0,0,-0.26046619,4.2466413,10.969032)"
       clip-path="url(#clipPath444)" />
    <path
       id="path445"
       d="m 0,0 c -0.805,-2.577 -1.599,-5.09 -2.37,-7.611 -0.181,-0.592 -0.437,-1.078 -1.123,-1.094 -0.688,-0.016 -0.974,0.449 -1.158,1.045 -1.127,3.648 -2.265,7.293 -3.407,10.937 -0.169,0.539 -0.195,1.037 0.281,1.433 0.645,0.537 1.502,0.209 1.791,-0.706 0.617,-1.95 1.212,-3.907 1.818,-5.861 0.195,-0.629 0.394,-1.257 0.594,-1.897 0.283,0.168 0.262,0.475 0.339,0.717 0.727,2.296 1.446,4.596 2.147,6.901 0.18,0.594 0.447,1.077 1.131,1.082 0.681,0.005 0.966,-0.459 1.149,-1.06 0.707,-2.327 1.44,-4.646 2.165,-6.967 0.065,-0.208 0.138,-0.412 0.268,-0.797 0.174,0.52 0.297,0.869 0.407,1.221 0.678,2.17 1.352,4.34 2.03,6.509 C 6.34,4.739 6.858,5.116 7.509,4.914 8.19,4.704 8.424,4.114 8.153,3.242 7.018,-0.404 5.873,-4.046 4.747,-7.695 4.568,-8.275 4.279,-8.701 3.633,-8.705 2.986,-8.708 2.689,-8.288 2.511,-7.705 1.801,-5.38 1.07,-3.06 0.341,-0.74 0.269,-0.512 0.258,-0.251 0,0"
       style="fill:#4e4957;fill-opacity:1;fill-rule:nonzero;stroke:none"
       transform="matrix(0.26046619,0,0,-0.26046619,6.3356329,7.9468432)"
       clip-path="url(#clipPath446)" />
  </g>
</svg>
