<?xml version="1.0" encoding="UTF-8" standalone="no"?>
<!-- Created with Inkscape (http://www.inkscape.org/) -->

<svg
   width="64"
   height="64"
   viewBox="0 0 16.933333 16.933333"
   version="1.1"
   id="svg1"
   xmlns="http://www.w3.org/2000/svg"
   xmlns:svg="http://www.w3.org/2000/svg">
  <defs
     id="defs1">
    <clipPath
       clipPathUnits="userSpaceOnUse"
       id="clipPath2">
      <path
         d="M 0,64 H 64 V 0 H 0 Z"
         transform="translate(-43.864601,-60.341702)"
         id="path2" />
    </clipPath>
    <clipPath
       clipPathUnits="userSpaceOnUse"
       id="clipPath4">
      <path
         d="M 0,64 H 64 V 0 H 0 Z"
         transform="translate(-4.9069001,-3.4228001)"
         id="path4" />
    </clipPath>
    <clipPath
       clipPathUnits="userSpaceOnUse"
       id="clipPath6">
      <path
         d="M 0,64 H 64 V 0 H 0 Z"
         transform="translate(-10.9624,-61.841502)"
         id="path6" />
    </clipPath>
    <clipPath
       clipPathUnits="userSpaceOnUse"
       id="clipPath8">
      <path
         d="M 0,64 H 64 V 0 H 0 Z"
         transform="translate(-1.7805,-9.0450005)"
         id="path8" />
    </clipPath>
    <clipPath
       clipPathUnits="userSpaceOnUse"
       id="clipPath10">
      <path
         d="M 0,64 H 64 V 0 H 0 Z"
         transform="translate(-43.864601,-13.2686)"
         id="path10" />
    </clipPath>
    <clipPath
       clipPathUnits="userSpaceOnUse"
       id="clipPath12">
      <path
         d="M 0,64 H 64 V 0 H 0 Z"
         transform="translate(-4.8754001,-3.4354998)"
         id="path12" />
    </clipPath>
    <clipPath
       clipPathUnits="userSpaceOnUse"
       id="clipPath14">
      <path
         d="M 0,64 H 64 V 0 H 0 Z"
         transform="translate(-39.009601,-45.100001)"
         id="path14" />
    </clipPath>
    <clipPath
       clipPathUnits="userSpaceOnUse"
       id="clipPath16">
      <path
         d="M 0,64 H 64 V 0 H 0 Z"
         transform="translate(-39.009801,-44.335201)"
         id="path16" />
    </clipPath>
    <clipPath
       clipPathUnits="userSpaceOnUse"
       id="clipPath18">
      <path
         d="M 0,64 H 64 V 0 H 0 Z"
         transform="translate(-39.009601,-41.651201)"
         id="path18" />
    </clipPath>
    <clipPath
       clipPathUnits="userSpaceOnUse"
       id="clipPath20">
      <path
         d="M 0,64 H 64 V 0 H 0 Z"
         transform="translate(-39.009801,-40.882301)"
         id="path20" />
    </clipPath>
    <clipPath
       clipPathUnits="userSpaceOnUse"
       id="clipPath22">
      <path
         d="M 0,64 H 64 V 0 H 0 Z"
         transform="translate(-46.731101,-23.680901)"
         id="path22" />
    </clipPath>
    <clipPath
       clipPathUnits="userSpaceOnUse"
       id="clipPath24">
      <path
         d="M 0,64 H 64 V 0 H 0 Z"
         transform="translate(-47.813701,-23.681)"
         id="path24" />
    </clipPath>
    <clipPath
       clipPathUnits="userSpaceOnUse"
       id="clipPath26">
      <path
         d="M 0,64 H 64 V 0 H 0 Z"
         transform="translate(-52.128202,-22.574)"
         id="path26" />
    </clipPath>
    <clipPath
       clipPathUnits="userSpaceOnUse"
       id="clipPath28">
      <path
         d="M 0,64 H 64 V 0 H 0 Z"
         transform="translate(-52.668502,-22.032601)"
         id="path28" />
    </clipPath>
    <clipPath
       clipPathUnits="userSpaceOnUse"
       id="clipPath30">
      <path
         d="M 0,64 H 64 V 0 H 0 Z"
         transform="translate(-43.864601,-7.4982004)"
         id="path30" />
    </clipPath>
    <clipPath
       clipPathUnits="userSpaceOnUse"
       id="clipPath32">
      <path
         d="M 0,64 H 64 V 0 H 0 Z"
         transform="translate(-15.145401,-61.841502)"
         id="path32" />
    </clipPath>
    <clipPath
       clipPathUnits="userSpaceOnUse"
       id="clipPath34">
      <path
         d="M 0,64 H 64 V 0 H 0 Z"
         transform="translate(-19.5354,-54.260001)"
         id="path34" />
    </clipPath>
    <clipPath
       clipPathUnits="userSpaceOnUse"
       id="clipPath232">
      <path
         d="M 0,64 H 64 V 0 H 0 Z"
         transform="translate(-52.876504,-36.941501)"
         id="path232" />
    </clipPath>
    <clipPath
       clipPathUnits="userSpaceOnUse"
       id="clipPath234">
      <path
         d="M 0,64 H 64 V 0 H 0 Z"
         transform="translate(-52.876504,-46.161501)"
         id="path234" />
    </clipPath>
    <clipPath
       clipPathUnits="userSpaceOnUse"
       id="clipPath236">
      <path
         d="M 0,64 H 64 V 0 H 0 Z"
         transform="translate(-7.9573002,-51.570801)"
         id="path236" />
    </clipPath>
    <clipPath
       clipPathUnits="userSpaceOnUse"
       id="clipPath238">
      <path
         d="M 0,64 H 64 V 0 H 0 Z"
         transform="translate(-52.876699,-35.949601)"
         id="path238" />
    </clipPath>
    <clipPath
       clipPathUnits="userSpaceOnUse"
       id="clipPath240">
      <path
         d="M 0,64 H 64 V 0 H 0 Z"
         transform="translate(-12.787203,-50.232401)"
         id="path240" />
    </clipPath>
    <clipPath
       clipPathUnits="userSpaceOnUse"
       id="clipPath242">
      <path
         d="M 0,64 H 64 V 0 H 0 Z"
         transform="translate(-10.238298,-56.522901)"
         id="path242" />
    </clipPath>
    <clipPath
       clipPathUnits="userSpaceOnUse"
       id="clipPath244">
      <path
         d="M 0,64 H 64 V 0 H 0 Z"
         transform="translate(-23.984403,-50.232401)"
         id="path244" />
    </clipPath>
    <clipPath
       clipPathUnits="userSpaceOnUse"
       id="clipPath246">
      <path
         d="M 0,64 H 64 V 0 H 0 Z"
         transform="translate(-21.435401,-56.522901)"
         id="path246" />
    </clipPath>
    <clipPath
       clipPathUnits="userSpaceOnUse"
       id="clipPath248">
      <path
         d="M 0,64 H 64 V 0 H 0 Z"
         transform="translate(-35.181498,-50.232401)"
         id="path248" />
    </clipPath>
    <clipPath
       clipPathUnits="userSpaceOnUse"
       id="clipPath250">
      <path
         d="M 0,64 H 64 V 0 H 0 Z"
         transform="translate(-32.632398,-56.522901)"
         id="path250" />
    </clipPath>
    <clipPath
       clipPathUnits="userSpaceOnUse"
       id="clipPath252">
      <path
         d="M 0,64 H 64 V 0 H 0 Z"
         transform="translate(-46.378601,-50.232401)"
         id="path252" />
    </clipPath>
    <clipPath
       clipPathUnits="userSpaceOnUse"
       id="clipPath254">
      <path
         d="M 0,64 H 64 V 0 H 0 Z"
         transform="translate(-43.830004,-56.522901)"
         id="path254" />
    </clipPath>
    <clipPath
       clipPathUnits="userSpaceOnUse"
       id="clipPath256">
      <path
         d="M 0,64 H 64 V 0 H 0 Z"
         transform="translate(-59.344399,-63.750002)"
         id="path256" />
    </clipPath>
    <clipPath
       clipPathUnits="userSpaceOnUse"
       id="clipPath258">
      <path
         d="M 0,64 H 64 V 0 H 0 Z"
         transform="translate(-61.576999,-48.317901)"
         id="path258" />
    </clipPath>
    <clipPath
       clipPathUnits="userSpaceOnUse"
       id="clipPath260">
      <path
         d="M 0,64 H 64 V 0 H 0 Z"
         transform="translate(-61.576999,-48.317901)"
         id="path260" />
    </clipPath>
    <clipPath
       clipPathUnits="userSpaceOnUse"
       id="clipPath262">
      <path
         d="M 0,64 H 64 V 0 H 0 Z"
         transform="translate(-51.309799,-52.521101)"
         id="path262" />
    </clipPath>
    <clipPath
       clipPathUnits="userSpaceOnUse"
       id="clipPath264">
      <path
         d="M 0,64 H 64 V 0 H 0 Z"
         transform="translate(-15.275598,-26.7149)"
         id="path264" />
    </clipPath>
    <clipPath
       clipPathUnits="userSpaceOnUse"
       id="clipPath266">
      <path
         d="M 0,64 H 64 V 0 H 0 Z"
         transform="translate(-12.030498,-31.059401)"
         id="path266" />
    </clipPath>
    <clipPath
       clipPathUnits="userSpaceOnUse"
       id="clipPath268">
      <path
         d="M 0,64 H 64 V 0 H 0 Z"
         transform="translate(-12.030498,-21.131401)"
         id="path268" />
    </clipPath>
    <clipPath
       clipPathUnits="userSpaceOnUse"
       id="clipPath270">
      <path
         d="M 0,64 H 64 V 0 H 0 Z"
         transform="translate(-12.030498,-11.2034)"
         id="path270" />
    </clipPath>
    <clipPath
       clipPathUnits="userSpaceOnUse"
       id="clipPath272">
      <path
         d="M 0,64 H 64 V 0 H 0 Z"
         transform="translate(-28.838501,-26.7149)"
         id="path272" />
    </clipPath>
    <clipPath
       clipPathUnits="userSpaceOnUse"
       id="clipPath274">
      <path
         d="M 0,64 H 64 V 0 H 0 Z"
         transform="translate(-25.593498,-31.059401)"
         id="path274" />
    </clipPath>
    <clipPath
       clipPathUnits="userSpaceOnUse"
       id="clipPath276">
      <path
         d="M 0,64 H 64 V 0 H 0 Z"
         transform="translate(-25.593498,-21.131401)"
         id="path276" />
    </clipPath>
    <clipPath
       clipPathUnits="userSpaceOnUse"
       id="clipPath278">
      <path
         d="M 0,64 H 64 V 0 H 0 Z"
         transform="translate(-25.593498,-11.2034)"
         id="path278" />
    </clipPath>
    <clipPath
       clipPathUnits="userSpaceOnUse"
       id="clipPath280">
      <path
         d="M 0,64 H 64 V 0 H 0 Z"
         transform="translate(-39.156401,-31.059401)"
         id="path280" />
    </clipPath>
    <clipPath
       clipPathUnits="userSpaceOnUse"
       id="clipPath282">
      <path
         d="M 0,64 H 64 V 0 H 0 Z"
         transform="translate(-39.156401,-21.131401)"
         id="path282" />
    </clipPath>
    <clipPath
       clipPathUnits="userSpaceOnUse"
       id="clipPath284">
      <path
         d="M 0,64 H 64 V 0 H 0 Z"
         transform="translate(-39.156401,-11.2034)"
         id="path284" />
    </clipPath>
    <clipPath
       clipPathUnits="userSpaceOnUse"
       id="clipPath36">
      <path
         d="M 0,64 H 64 V 0 H 0 Z"
         transform="translate(-58.047201,-9.2578002)"
         id="path36" />
    </clipPath>
    <clipPath
       clipPathUnits="userSpaceOnUse"
       id="clipPath38">
      <path
         d="M 0,64 H 64 V 0 H 0 Z"
         transform="translate(-54.817499,-4.6165001)"
         id="path38" />
    </clipPath>
    <clipPath
       clipPathUnits="userSpaceOnUse"
       id="clipPath40">
      <path
         d="M 0,64 H 64 V 0 H 0 Z"
         transform="translate(-62.633002,-49.093601)"
         id="path40" />
    </clipPath>
    <clipPath
       clipPathUnits="userSpaceOnUse"
       id="clipPath42">
      <path
         d="M 0,64 H 64 V 0 H 0 Z"
         transform="translate(-31.964203,-39.076301)"
         id="path42" />
    </clipPath>
    <clipPath
       clipPathUnits="userSpaceOnUse"
       id="clipPath44">
      <path
         d="M 0,64 H 64 V 0 H 0 Z"
         transform="translate(-58.789101,-8.1875)"
         id="path44" />
    </clipPath>
    <clipPath
       clipPathUnits="userSpaceOnUse"
       id="clipPath46">
      <path
         d="M 0,64 H 64 V 0 H 0 Z"
         transform="translate(-2.2343976,-49.859401)"
         id="path46" />
    </clipPath>
    <clipPath
       clipPathUnits="userSpaceOnUse"
       id="clipPath48">
      <path
         d="M 0,64 H 64 V 0 H 0 Z"
         transform="translate(-10.171903,-53.828102)"
         id="path48" />
    </clipPath>
    <clipPath
       clipPathUnits="userSpaceOnUse"
       id="clipPath50">
      <path
         d="M 0,64 H 64 V 0 H 0 Z"
         transform="translate(-16.124998,-53.828102)"
         id="path50" />
    </clipPath>
    <clipPath
       clipPathUnits="userSpaceOnUse"
       id="clipPath52">
      <path
         d="M 0,64 H 64 V 0 H 0 Z"
         transform="translate(-22.078101,-53.828102)"
         id="path52" />
    </clipPath>
    <clipPath
       clipPathUnits="userSpaceOnUse"
       id="clipPath54">
      <path
         d="M 0,64 H 64 V 0 H 0 Z"
         transform="translate(-54.820304,-4.2187001)"
         id="path54" />
    </clipPath>
    <clipPath
       clipPathUnits="userSpaceOnUse"
       id="clipPath56">
      <path
         d="M 0,64 H 64 V 0 H 0 Z"
         transform="translate(-32.000998,-8.1875)"
         id="path56" />
    </clipPath>
    <clipPath
       clipPathUnits="userSpaceOnUse"
       id="clipPath58">
      <path
         d="M 0,64 H 64 V 0 H 0 Z"
         transform="translate(-31.999003,-8.1875)"
         id="path58" />
    </clipPath>
    <clipPath
       clipPathUnits="userSpaceOnUse"
       id="clipPath60">
      <path
         d="M 0,64 H 64 V 0 H 0 Z"
         transform="translate(-32.000998,-4.2187001)"
         id="path60" />
    </clipPath>
    <clipPath
       clipPathUnits="userSpaceOnUse"
       id="clipPath62">
      <path
         d="M 0,64 H 64 V 0 H 0 Z"
         transform="translate(-31.999003,-4.2187001)"
         id="path62" />
    </clipPath>
    <clipPath
       clipPathUnits="userSpaceOnUse"
       id="clipPath64">
      <path
         d="M 0,64 H 64 V 0 H 0 Z"
         transform="translate(-32.000001,-4.2196999)"
         id="path64" />
    </clipPath>
    <clipPath
       clipPathUnits="userSpaceOnUse"
       id="clipPath66">
      <path
         d="M 0,64 H 64 V 0 H 0 Z"
         transform="translate(-25.054701,-35.968801)"
         id="path66" />
    </clipPath>
    <clipPath
       clipPathUnits="userSpaceOnUse"
       id="clipPath68">
      <path
         d="M 0,64 H 64 V 0 H 0 Z"
         transform="translate(-25.054701,-30.015601)"
         id="path68" />
    </clipPath>
    <clipPath
       clipPathUnits="userSpaceOnUse"
       id="clipPath70">
      <path
         d="M 0,64 H 64 V 0 H 0 Z"
         transform="translate(-25.054701,-24.062501)"
         id="path70" />
    </clipPath>
    <clipPath
       clipPathUnits="userSpaceOnUse"
       id="clipPath72">
      <path
         d="M 0,64 H 64 V 0 H 0 Z"
         transform="translate(-25.054701,-18.1094)"
         id="path72" />
    </clipPath>
    <clipPath
       clipPathUnits="userSpaceOnUse"
       id="clipPath74">
      <path
         d="M 0,64 H 64 V 0 H 0 Z"
         transform="translate(-46.882799,-35.968801)"
         id="path74" />
    </clipPath>
    <clipPath
       clipPathUnits="userSpaceOnUse"
       id="clipPath76">
      <path
         d="M 0,64 H 64 V 0 H 0 Z"
         transform="translate(-46.882799,-30.015601)"
         id="path76" />
    </clipPath>
    <clipPath
       clipPathUnits="userSpaceOnUse"
       id="clipPath78">
      <path
         d="M 0,64 H 64 V 0 H 0 Z"
         transform="translate(-46.882799,-24.062501)"
         id="path78" />
    </clipPath>
    <clipPath
       clipPathUnits="userSpaceOnUse"
       id="clipPath80">
      <path
         d="M 0,64 H 64 V 0 H 0 Z"
         transform="translate(-46.882799,-18.1094)"
         id="path80" />
    </clipPath>
    <clipPath
       clipPathUnits="userSpaceOnUse"
       id="clipPath82">
      <path
         d="M 0,64 H 64 V 0 H 0 Z"
         transform="translate(-55.685599,-43.178401)"
         id="path82" />
    </clipPath>
    <clipPath
       clipPathUnits="userSpaceOnUse"
       id="clipPath84">
      <path
         d="M 0,64 H 64 V 0 H 0 Z"
         transform="translate(-8.0628027,-53.329901)"
         id="path84" />
    </clipPath>
    <clipPath
       clipPathUnits="userSpaceOnUse"
       id="clipPath86">
      <path
         d="M 0,64 H 64 V 0 H 0 Z"
         transform="translate(-55.119604,-24.480901)"
         id="path86" />
    </clipPath>
    <clipPath
       clipPathUnits="userSpaceOnUse"
       id="clipPath88">
      <path
         d="M 0,64 H 64 V 0 H 0 Z"
         transform="translate(-44.898304,-48.549001)"
         id="path88" />
    </clipPath>
    <clipPath
       clipPathUnits="userSpaceOnUse"
       id="clipPath90">
      <path
         d="M 0,64 H 64 V 0 H 0 Z"
         transform="translate(-44.898304,-41.898301)"
         id="path90" />
    </clipPath>
    <clipPath
       clipPathUnits="userSpaceOnUse"
       id="clipPath92">
      <path
         d="M 0,64 H 64 V 0 H 0 Z"
         transform="translate(-52.835801,-43.905901)"
         id="path92" />
    </clipPath>
    <clipPath
       clipPathUnits="userSpaceOnUse"
       id="clipPath94">
      <path
         d="M 0,64 H 64 V 0 H 0 Z"
         transform="translate(-52.835801,-43.905901)"
         id="path94" />
    </clipPath>
    <clipPath
       clipPathUnits="userSpaceOnUse"
       id="clipPath96">
      <path
         d="M 0,64 H 64 V 0 H 0 Z"
         transform="translate(-31.999998,-45.890301)"
         id="path96" />
    </clipPath>
    <clipPath
       clipPathUnits="userSpaceOnUse"
       id="clipPath98">
      <path
         d="M 0,64 H 64 V 0 H 0 Z"
         transform="translate(-31.999998,-45.890301)"
         id="path98" />
    </clipPath>
    <clipPath
       clipPathUnits="userSpaceOnUse"
       id="clipPath100">
      <path
         d="M 0,64 H 64 V 0 H 0 Z"
         transform="translate(-31.999998,-33.984101)"
         id="path100" />
    </clipPath>
    <clipPath
       clipPathUnits="userSpaceOnUse"
       id="clipPath102">
      <path
         d="M 0,64 H 64 V 0 H 0 Z"
         transform="translate(-31.999998,-0.99030027)"
         id="path102" />
    </clipPath>
    <clipPath
       clipPathUnits="userSpaceOnUse"
       id="clipPath122">
      <path
         d="M 0,64 H 64 V 0 H 0 Z"
         transform="translate(-1.3087025,-6.0121002)"
         id="path122" />
    </clipPath>
    <clipPath
       clipPathUnits="userSpaceOnUse"
       id="clipPath124">
      <path
         d="M 0,64 H 64 V 0 H 0 Z"
         transform="translate(-43.859601,-25.9862)"
         id="path124" />
    </clipPath>
    <clipPath
       clipPathUnits="userSpaceOnUse"
       id="clipPath126">
      <path
         d="M 0,64 H 64 V 0 H 0 Z"
         transform="translate(-55.197599,-23.302001)"
         id="path126" />
    </clipPath>
    <clipPath
       clipPathUnits="userSpaceOnUse"
       id="clipPath128">
      <path
         d="M 0,64 H 64 V 0 H 0 Z"
         transform="translate(-59.869701,-26.193101)"
         id="path128" />
    </clipPath>
    <clipPath
       clipPathUnits="userSpaceOnUse"
       id="clipPath130">
      <path
         d="M 0,64 H 64 V 0 H 0 Z"
         transform="translate(-27.792801,-33.787801)"
         id="path130" />
    </clipPath>
    <clipPath
       clipPathUnits="userSpaceOnUse"
       id="clipPath132">
      <path
         d="M 0,64 H 64 V 0 H 0 Z"
         transform="translate(-40.945701,-2.0397003)"
         id="path132" />
    </clipPath>
    <clipPath
       clipPathUnits="userSpaceOnUse"
       id="clipPath134">
      <path
         d="M 0,64 H 64 V 0 H 0 Z"
         transform="translate(-43.771004,-17.402701)"
         id="path134" />
    </clipPath>
    <clipPath
       clipPathUnits="userSpaceOnUse"
       id="clipPath136">
      <path
         d="M 0,64 H 64 V 0 H 0 Z"
         transform="translate(-8.4524002,-8.8555002)"
         id="path136" />
    </clipPath>
    <clipPath
       clipPathUnits="userSpaceOnUse"
       id="clipPath138">
      <path
         d="M 0,64 H 64 V 0 H 0 Z"
         transform="translate(-8.4524002,-18.0256)"
         id="path138" />
    </clipPath>
    <clipPath
       clipPathUnits="userSpaceOnUse"
       id="clipPath140">
      <path
         d="M 0,64 H 64 V 0 H 0 Z"
         transform="translate(-12.6893,-24.082301)"
         id="path140" />
    </clipPath>
    <clipPath
       clipPathUnits="userSpaceOnUse"
       id="clipPath142">
      <path
         d="M 0,64 H 64 V 0 H 0 Z"
         transform="translate(-8.4521977,-7.7965002)"
         id="path142" />
    </clipPath>
    <clipPath
       clipPathUnits="userSpaceOnUse"
       id="clipPath144">
      <path
         d="M 0,64 H 64 V 0 H 0 Z"
         transform="translate(-37.489701,-52.832402)"
         id="path144" />
    </clipPath>
    <clipPath
       clipPathUnits="userSpaceOnUse"
       id="clipPath146">
      <path
         d="M 0,64 H 64 V 0 H 0 Z"
         transform="translate(-33.056901,-40.281301)"
         id="path146" />
    </clipPath>
    <clipPath
       clipPathUnits="userSpaceOnUse"
       id="clipPath148">
      <path
         d="M 0,64 H 64 V 0 H 0 Z"
         transform="translate(2.5000001e-6)"
         id="path148" />
    </clipPath>
    <clipPath
       clipPathUnits="userSpaceOnUse"
       id="clipPath150">
      <path
         d="M 0,64 H 64 V 0 H 0 Z"
         transform="translate(-10.4888,-35.468001)"
         id="path150" />
    </clipPath>
    <clipPath
       clipPathUnits="userSpaceOnUse"
       id="clipPath104">
      <path
         d="M 0,64 H 64 V 0 H 0 Z"
         transform="translate(-15.244598,-10.3565)"
         id="path104" />
    </clipPath>
    <clipPath
       clipPathUnits="userSpaceOnUse"
       id="clipPath106">
      <path
         d="M 0,64 H 64 V 0 H 0 Z"
         transform="translate(-28.455601,-58.909801)"
         id="path106" />
    </clipPath>
    <clipPath
       clipPathUnits="userSpaceOnUse"
       id="clipPath108">
      <path
         d="M 0,64 H 64 V 0 H 0 Z"
         transform="translate(-49.308699,-46.659501)"
         id="path108" />
    </clipPath>
    <clipPath
       clipPathUnits="userSpaceOnUse"
       id="clipPath110">
      <path
         d="M 0,64 H 64 V 0 H 0 Z"
         transform="translate(-8.3196002,-44.750801)"
         id="path110" />
    </clipPath>
    <clipPath
       clipPathUnits="userSpaceOnUse"
       id="clipPath112">
      <path
         d="M 0,64 H 64 V 0 H 0 Z"
         transform="translate(-55.653001,-44.722201)"
         id="path112" />
    </clipPath>
    <clipPath
       clipPathUnits="userSpaceOnUse"
       id="clipPath114">
      <path
         d="M 0,64 H 64 V 0 H 0 Z"
         transform="translate(-4.1411026,-49.628301)"
         id="path114" />
    </clipPath>
    <clipPath
       clipPathUnits="userSpaceOnUse"
       id="clipPath116">
      <path
         d="M 0,64 H 64 V 0 H 0 Z"
         transform="translate(-59.847399,-49.597901)"
         id="path116" />
    </clipPath>
    <clipPath
       clipPathUnits="userSpaceOnUse"
       id="clipPath118">
      <path
         d="M 0,64 H 64 V 0 H 0 Z"
         transform="translate(-32.055001,-9.4001)"
         id="path118" />
    </clipPath>
    <clipPath
       clipPathUnits="userSpaceOnUse"
       id="clipPath120">
      <path
         d="M 0,64 H 64 V 0 H 0 Z"
         transform="translate(-28.455601,-58.909801)"
         id="path120" />
    </clipPath>
    <clipPath
       clipPathUnits="userSpaceOnUse"
       id="clipPath367">
      <path
         d="M 0,64 H 64 V 0 H 0 Z"
         transform="translate(-58.786501,-42.928201)"
         id="path367" />
    </clipPath>
    <clipPath
       clipPathUnits="userSpaceOnUse"
       id="clipPath369">
      <path
         d="M 0,64 H 64 V 0 H 0 Z"
         transform="translate(-56.782201,-34.420401)"
         id="path369" />
    </clipPath>
    <clipPath
       clipPathUnits="userSpaceOnUse"
       id="clipPath371">
      <path
         d="M 0,64 H 64 V 0 H 0 Z"
         transform="translate(-56.782201,-26.9747)"
         id="path371" />
    </clipPath>
    <clipPath
       clipPathUnits="userSpaceOnUse"
       id="clipPath373">
      <path
         d="M 0,64 H 64 V 0 H 0 Z"
         transform="translate(-46.117576,-19.530001)"
         id="path373" />
    </clipPath>
    <clipPath
       clipPathUnits="userSpaceOnUse"
       id="clipPath375">
      <path
         d="M 0,64 H 64 V 0 H 0 Z"
         transform="translate(-31.655026,-57.137001)"
         id="path375" />
    </clipPath>
    <clipPath
       clipPathUnits="userSpaceOnUse"
       id="clipPath377">
      <path
         d="M 0,64 H 64 V 0 H 0 Z"
         transform="translate(-5.2125001,-56.078901)"
         id="path377" />
    </clipPath>
    <clipPath
       clipPathUnits="userSpaceOnUse"
       id="clipPath379">
      <path
         d="M 0,64 H 64 V 0 H 0 Z"
         transform="translate(-52.469401,-5.8048001)"
         id="path379" />
    </clipPath>
    <clipPath
       clipPathUnits="userSpaceOnUse"
       id="clipPath381">
      <path
         d="M 0,64 H 64 V 0 H 0 Z"
         transform="translate(-7.5686252,-49.235601)"
         id="path381" />
    </clipPath>
    <clipPath
       clipPathUnits="userSpaceOnUse"
       id="clipPath383">
      <path
         d="M 0,64 H 64 V 0 H 0 Z"
         transform="translate(-7.5686252,-41.789801)"
         id="path383" />
    </clipPath>
    <clipPath
       clipPathUnits="userSpaceOnUse"
       id="clipPath385">
      <path
         d="M 0,64 H 64 V 0 H 0 Z"
         transform="translate(-17.175075,-35.403301)"
         id="path385" />
    </clipPath>
    <clipPath
       clipPathUnits="userSpaceOnUse"
       id="clipPath329">
      <path
         d="M 0,64 H 64 V 0 H 0 Z"
         transform="translate(-62.568427,-32.002901)"
         id="path329" />
    </clipPath>
    <clipPath
       clipPathUnits="userSpaceOnUse"
       id="clipPath331">
      <path
         d="M 0,64 H 64 V 0 H 0 Z"
         transform="translate(-54.336501,-32.005801)"
         id="path331" />
    </clipPath>
    <clipPath
       clipPathUnits="userSpaceOnUse"
       id="clipPath333">
      <path
         d="M 0,64 H 64 V 0 H 0 Z"
         transform="translate(-51.500301,-21.120301)"
         id="path333" />
    </clipPath>
    <clipPath
       clipPathUnits="userSpaceOnUse"
       id="clipPath335">
      <path
         d="M 0,64 H 64 V 0 H 0 Z"
         transform="translate(-44.368176,-37.731201)"
         id="path335" />
    </clipPath>
    <clipPath
       clipPathUnits="userSpaceOnUse"
       id="clipPath337">
      <path
         d="M 0,64 H 64 V 0 H 0 Z"
         transform="translate(-31.906176,-49.022901)"
         id="path337" />
    </clipPath>
    <clipPath
       clipPathUnits="userSpaceOnUse"
       id="clipPath339">
      <path
         d="M 0,64 H 64 V 0 H 0 Z"
         transform="translate(-42.806526,-29.531201)"
         id="path339" />
    </clipPath>
    <clipPath
       clipPathUnits="userSpaceOnUse"
       id="clipPath341">
      <path
         d="M 0,64 H 64 V 0 H 0 Z"
         transform="translate(-13.8401,-21.146801)"
         id="path341" />
    </clipPath>
    <clipPath
       clipPathUnits="userSpaceOnUse"
       id="clipPath343">
      <path
         d="M 0,64 H 64 V 0 H 0 Z"
         transform="translate(-31.906176,-49.022901)"
         id="path343" />
    </clipPath>
    <clipPath
       clipPathUnits="userSpaceOnUse"
       id="clipPath345">
      <path
         d="M 0,64 H 64 V 0 H 0 Z"
         transform="translate(-21.750026,-38.481901)"
         id="path345" />
    </clipPath>
    <clipPath
       clipPathUnits="userSpaceOnUse"
       id="clipPath347">
      <path
         d="M 0,64 H 64 V 0 H 0 Z"
         transform="translate(-53.023001,-23.693201)"
         id="path347" />
    </clipPath>
    <clipPath
       clipPathUnits="userSpaceOnUse"
       id="clipPath349">
      <path
         d="M 0,64 H 64 V 0 H 0 Z"
         transform="translate(-31.360376,-40.514201)"
         id="path349" />
    </clipPath>
    <clipPath
       clipPathUnits="userSpaceOnUse"
       id="clipPath351">
      <path
         d="M 0,64 H 64 V 0 H 0 Z"
         transform="translate(-33.048326,-39.593801)"
         id="path351" />
    </clipPath>
    <clipPath
       clipPathUnits="userSpaceOnUse"
       id="clipPath353">
      <path
         d="M 0,64 H 64 V 0 H 0 Z"
         transform="translate(-21.750026,-38.481901)"
         id="path353" />
    </clipPath>
    <clipPath
       clipPathUnits="userSpaceOnUse"
       id="clipPath355">
      <path
         d="M 0,64 H 64 V 0 H 0 Z"
         transform="translate(-31.952726,-2.2696001)"
         id="path355" />
    </clipPath>
    <clipPath
       clipPathUnits="userSpaceOnUse"
       id="clipPath357">
      <path
         d="M 0,64 H 64 V 0 H 0 Z"
         transform="translate(-19.233025,-2.5128003)"
         id="path357" />
    </clipPath>
    <clipPath
       clipPathUnits="userSpaceOnUse"
       id="clipPath359">
      <path
         d="M 0,64 H 64 V 0 H 0 Z"
         transform="translate(-44.833226,-2.5270998)"
         id="path359" />
    </clipPath>
    <clipPath
       clipPathUnits="userSpaceOnUse"
       id="clipPath361">
      <path
         d="M 0,64 H 64 V 0 H 0 Z"
         transform="translate(-20.982101,-23.642)"
         id="path361" />
    </clipPath>
    <clipPath
       clipPathUnits="userSpaceOnUse"
       id="clipPath363">
      <path
         d="M 0,64 H 64 V 0 H 0 Z"
         transform="translate(-37.002326,-23.6162)"
         id="path363" />
    </clipPath>
    <clipPath
       clipPathUnits="userSpaceOnUse"
       id="clipPath365">
      <path
         d="M 0,64 H 64 V 0 H 0 Z"
         transform="translate(-53.023001,-23.693201)"
         id="path365" />
    </clipPath>
    <clipPath
       clipPathUnits="userSpaceOnUse"
       id="clipPath176">
      <path
         d="M 0,64 H 64 V 0 H 0 Z"
         transform="translate(-7.3634027,-35.901001)"
         id="path176" />
    </clipPath>
    <clipPath
       clipPathUnits="userSpaceOnUse"
       id="clipPath178">
      <path
         d="M 0,64 H 64 V 0 H 0 Z"
         transform="translate(-13.53,-19.8817)"
         id="path178" />
    </clipPath>
    <clipPath
       clipPathUnits="userSpaceOnUse"
       id="clipPath180">
      <path
         d="M 0,64 H 64 V 0 H 0 Z"
         transform="translate(-2.2011976,-12.977101)"
         id="path180" />
    </clipPath>
    <clipPath
       clipPathUnits="userSpaceOnUse"
       id="clipPath182">
      <path
         d="M 0,64 H 64 V 0 H 0 Z"
         transform="translate(-42.393601,-39.227301)"
         id="path182" />
    </clipPath>
    <clipPath
       clipPathUnits="userSpaceOnUse"
       id="clipPath184">
      <path
         d="M 0,64 H 64 V 0 H 0 Z"
         transform="translate(-2.3019976,-36.120601)"
         id="path184" />
    </clipPath>
    <clipPath
       clipPathUnits="userSpaceOnUse"
       id="clipPath186">
      <path
         d="M 0,64 H 64 V 0 H 0 Z"
         transform="translate(-31.878398,-35.901001)"
         id="path186" />
    </clipPath>
    <clipPath
       clipPathUnits="userSpaceOnUse"
       id="clipPath188">
      <path
         d="M 0,64 H 64 V 0 H 0 Z"
         transform="translate(-19.620998,-12.663001)"
         id="path188" />
    </clipPath>
    <clipPath
       clipPathUnits="userSpaceOnUse"
       id="clipPath190">
      <path
         d="M 0,64 H 64 V 0 H 0 Z"
         transform="translate(-37.040798,-0.25000001)"
         id="path190" />
    </clipPath>
    <clipPath
       clipPathUnits="userSpaceOnUse"
       id="clipPath192">
      <path
         d="M 0,64 H 64 V 0 H 0 Z"
         transform="translate(-51.357301,-27.522901)"
         id="path192" />
    </clipPath>
    <clipPath
       clipPathUnits="userSpaceOnUse"
       id="clipPath194">
      <path
         d="M 0,64 H 64 V 0 H 0 Z"
         transform="translate(-61.865199,-53.867301)"
         id="path194" />
    </clipPath>
    <clipPath
       clipPathUnits="userSpaceOnUse"
       id="clipPath196">
      <path
         d="M 0,64 H 64 V 0 H 0 Z"
         transform="translate(-52.975899,-61.763002)"
         id="path196" />
    </clipPath>
    <clipPath
       clipPathUnits="userSpaceOnUse"
       id="clipPath198">
      <path
         d="M 0,64 H 64 V 0 H 0 Z"
         transform="translate(-17.0328,-42.933401)"
         id="path198" />
    </clipPath>
    <clipPath
       clipPathUnits="userSpaceOnUse"
       id="clipPath200">
      <path
         d="M 0,64 H 64 V 0 H 0 Z"
         transform="translate(-9.3321002,-30.832801)"
         id="path200" />
    </clipPath>
    <clipPath
       clipPathUnits="userSpaceOnUse"
       id="clipPath202">
      <path
         d="M 0,64 H 64 V 0 H 0 Z"
         transform="translate(-31.643003,-30.832801)"
         id="path202" />
    </clipPath>
    <clipPath
       clipPathUnits="userSpaceOnUse"
       id="clipPath204">
      <path
         d="M 0,64 H 64 V 0 H 0 Z"
         transform="translate(-13.877498,-42.521401)"
         id="path204" />
    </clipPath>
    <clipPath
       clipPathUnits="userSpaceOnUse"
       id="clipPath206">
      <path
         d="M 0,64 H 64 V 0 H 0 Z"
         transform="translate(-51.722401,-50.344701)"
         id="path206" />
    </clipPath>
    <clipPath
       clipPathUnits="userSpaceOnUse"
       id="clipPath208">
      <path
         d="M 0,64 H 64 V 0 H 0 Z"
         transform="translate(-52.157004,-52.583901)"
         id="path208" />
    </clipPath>
    <clipPath
       clipPathUnits="userSpaceOnUse"
       id="clipPath388">
      <path
         d="M 0,64 H 64 V 0 H 0 Z"
         transform="translate(-16.4936,-19.565401)"
         id="path388" />
    </clipPath>
    <clipPath
       clipPathUnits="userSpaceOnUse"
       id="clipPath390">
      <path
         d="M 0,64 H 64 V 0 H 0 Z"
         transform="translate(-54.983901,-1.3080003)"
         id="path390" />
    </clipPath>
    <clipPath
       clipPathUnits="userSpaceOnUse"
       id="clipPath392">
      <path
         d="M 0,64 H 64 V 0 H 0 Z"
         transform="translate(2.5000001e-5)"
         id="path392" />
    </clipPath>
    <clipPath
       clipPathUnits="userSpaceOnUse"
       id="clipPath394">
      <path
         d="M 0,64 H 64 V 0 H 0 Z"
         transform="translate(-13.0139,-8.2500005)"
         id="path394" />
    </clipPath>
    <clipPath
       clipPathUnits="userSpaceOnUse"
       id="clipPath396">
      <path
         d="M 0,64 H 64 V 0 H 0 Z"
         transform="translate(-16.4936,-8.2500005)"
         id="path396" />
    </clipPath>
    <clipPath
       clipPathUnits="userSpaceOnUse"
       id="clipPath398">
      <path
         d="M 0,64 H 64 V 0 H 0 Z"
         transform="translate(-16.4936,-44.691701)"
         id="path398" />
    </clipPath>
    <clipPath
       clipPathUnits="userSpaceOnUse"
       id="clipPath400">
      <path
         d="M 0,64 H 64 V 0 H 0 Z"
         transform="translate(-16.4936,-18.5077)"
         id="path400" />
    </clipPath>
    <clipPath
       clipPathUnits="userSpaceOnUse"
       id="clipPath402">
      <path
         d="M 0,64 H 64 V 0 H 0 Z"
         transform="translate(2.5000001e-5)"
         id="path402" />
    </clipPath>
    <clipPath
       clipPathUnits="userSpaceOnUse"
       id="clipPath404">
      <path
         d="M 0,64 H 64 V 0 H 0 Z"
         transform="translate(-26.473101,-26.123401)"
         id="path404" />
    </clipPath>
    <clipPath
       clipPathUnits="userSpaceOnUse"
       id="clipPath406">
      <path
         d="M 0,64 H 64 V 0 H 0 Z"
         transform="translate(-34.740126,-32.225001)"
         id="path406" />
    </clipPath>
    <clipPath
       clipPathUnits="userSpaceOnUse"
       id="clipPath408">
      <path
         d="M 0,64 H 64 V 0 H 0 Z"
         transform="translate(-34.739826,-32.225001)"
         id="path408" />
    </clipPath>
    <clipPath
       clipPathUnits="userSpaceOnUse"
       id="clipPath410">
      <path
         d="M 0,64 H 64 V 0 H 0 Z"
         transform="translate(-54.984126,-8.2500005)"
         id="path410" />
    </clipPath>
    <clipPath
       clipPathUnits="userSpaceOnUse"
       id="clipPath412">
      <path
         d="M 0,64 H 64 V 0 H 0 Z"
         transform="translate(-34.738926,-31.166101)"
         id="path412" />
    </clipPath>
  </defs>
  <g
     id="layer1">
    <path
       id="path386"
       d="M 14.252428,14.522647 V 2.1756577 H 4.075859 v 2.7119015 6.9231868 2.711901 z"
       style="fill:#697ee9;fill-opacity:1;fill-rule:evenodd;stroke:none;stroke-width:0.264395" />
    <path
       id="path387"
       d="m 0,0 v 26.185 10.257 h -3.48 c -2.198,0 -3.998,-1.797 -3.998,-3.999 v -46.698 c 0,2.198 1.8,3.998 3.998,3.998 H 0 Z"
       style="fill:#ffffff;fill-opacity:1;fill-rule:evenodd;stroke:none"
       transform="matrix(0.26439516,0,0,-0.26439516,4.0757796,11.810719)"
       clip-path="url(#clipPath388)" />
    <path
       id="path389"
       d="m 0,0 v 8 h -38.49 -3.48 C -44.168,8 -45.968,6.2 -45.968,4.002 -45.968,1.8 -44.168,0 -41.97,0 Z"
       style="fill:#ffffff;fill-opacity:1;fill-rule:evenodd;stroke:none"
       transform="matrix(0.26439516,0,0,-0.26439516,14.252428,16.637887)"
       clip-path="url(#clipPath390)" />
    <path
       id="path391"
       d="M 48.375,21.541 H 23.103 v -6.898 h 25.272 z"
       style="fill:#ffffff;fill-opacity:1;fill-rule:evenodd;stroke:none"
       transform="matrix(0.26439516,0,0,-0.26439516,-0.28505564,16.983716)"
       clip-path="url(#clipPath392)" />
    <path
       id="path393"
       d="m 0,0 c -1.621,0 -2.94,-1.319 -2.94,-2.94 0,-1.623 1.319,-2.944 2.94,-2.944 H 40.912 V 0 Z M 41.97,-8 H 0 c -2.788,0 -5.056,2.269 -5.056,5.06 0,2.788 2.268,5.056 5.056,5.056 h 41.97 c 0.585,0 1.058,-0.473 1.058,-1.058 v -8 C 43.028,-7.527 42.555,-8 41.97,-8"
       style="fill:#4e4957;fill-opacity:1;fill-rule:nonzero;stroke:none"
       transform="matrix(0.26439516,0,0,-0.26439516,3.1557636,14.802455)"
       clip-path="url(#clipPath394)" />
    <path
       id="path395"
       d="m 0,0 c -0.585,0 -1.058,0.473 -1.058,1.058 v 46.699 c 0,0.585 0.473,1.058 1.058,1.058 0.585,0 1.058,-0.473 1.058,-1.058 V 1.058 C 1.058,0.473 0.585,0 0,0"
       style="fill:#4e4957;fill-opacity:1;fill-rule:nonzero;stroke:none"
       transform="matrix(0.26439516,0,0,-0.26439516,4.0757796,14.802455)"
       clip-path="url(#clipPath396)" />
    <path
       id="path397"
       d="m 0,0 h -7.478 c -0.584,0 -1.058,0.473 -1.058,1.058 0,0.585 0.474,1.058 1.058,1.058 H 0 C 0.585,2.116 1.058,1.643 1.058,1.058 1.058,0.473 0.585,0 0,0"
       style="fill:#4e4957;fill-opacity:1;fill-rule:nonzero;stroke:none"
       transform="matrix(0.26439516,0,0,-0.26439516,4.0757796,5.1674467)"
       clip-path="url(#clipPath398)" />
    <path
       id="path399"
       d="m 0,0 h -7.478 c -0.584,0 -1.058,0.473 -1.058,1.058 0,0.585 0.474,1.058 1.058,1.058 H 0 C 0.585,2.116 1.058,1.643 1.058,1.058 1.058,0.473 0.585,0 0,0"
       style="fill:#4e4957;fill-opacity:1;fill-rule:nonzero;stroke:none"
       transform="matrix(0.26439516,0,0,-0.26439516,4.0757796,12.09037)"
       clip-path="url(#clipPath400)" />
    <path
       id="path401"
       d="m 24.161,15.701 h 23.156 v 4.782 H 24.161 Z M 48.375,13.585 H 23.103 c -0.585,0 -1.058,0.473 -1.058,1.058 v 6.898 c 0,0.584 0.473,1.058 1.058,1.058 h 25.272 c 0.584,0 1.058,-0.474 1.058,-1.058 v -6.898 c 0,-0.585 -0.474,-1.058 -1.058,-1.058"
       style="fill:#4e4957;fill-opacity:1;fill-rule:nonzero;stroke:none"
       transform="matrix(0.26439516,0,0,-0.26439516,-0.28505564,16.983716)"
       clip-path="url(#clipPath402)" />
    <path
       id="path403"
       d="M 0,0 8.267,6.102 1.15,10.21 Z"
       style="fill:#ffffff;fill-opacity:1;fill-rule:evenodd;stroke:none"
       transform="matrix(0.26439516,0,0,-0.26439516,6.7143105,10.076816)"
       clip-path="url(#clipPath404)" />
    <path
       id="path405"
       d="m 0,0 13.2,22.862 1.483,2.567 c 0.511,0.884 0.204,2.03 -0.683,2.541 l -3.893,2.246 C 9.22,30.731 8.077,30.424 7.566,29.537 L -7.117,4.108 Z"
       style="fill:#f69f00;fill-opacity:1;fill-rule:evenodd;stroke:none"
       transform="matrix(0.26439516,0,0,-0.26439516,8.9000721,8.463582)"
       clip-path="url(#clipPath406)" />
    <path
       id="path407"
       d="m 0,0 h 0.01 z m -6.089,3.77 -0.854,-7.579 6.137,4.53 14.573,25.237 c 0.106,0.183 0.132,0.398 0.077,0.607 -0.057,0.209 -0.188,0.383 -0.372,0.488 L 9.578,29.298 C 9.577,29.299 9.576,29.3 9.575,29.3 9.392,29.408 9.175,29.436 8.97,29.38 8.762,29.324 8.589,29.193 8.483,29.008 Z M -8.266,-7.16 c -0.182,0 -0.366,0.047 -0.529,0.142 -0.365,0.21 -0.571,0.616 -0.523,1.035 l 1.15,10.21 c 0.017,0.145 0.063,0.285 0.135,0.41 L 6.65,30.066 c 0.389,0.675 1.018,1.158 1.775,1.359 0.751,0.201 1.54,0.097 2.214,-0.294 l 3.89,-2.244 c 0.674,-0.388 1.157,-1.017 1.359,-1.774 0.203,-0.755 0.1,-1.541 -0.289,-2.214 L 0.916,-0.529 C 0.843,-0.655 0.746,-0.765 0.629,-0.852 L -7.638,-6.954 C -7.824,-7.091 -8.045,-7.16 -8.266,-7.16"
       style="fill:#4e4957;fill-opacity:1;fill-rule:nonzero;stroke:none"
       transform="matrix(0.26439516,0,0,-0.26439516,8.8999926,8.463582)"
       clip-path="url(#clipPath408)" />
    <path
       id="path409"
       d="m 0,0 c -0.585,0 -1.058,0.473 -1.058,1.058 v 45.641 h -5.453 c -0.584,0 -1.058,0.474 -1.058,1.058 0,0.585 0.474,1.058 1.058,1.058 H 0 c 0.585,0 1.058,-0.473 1.058,-1.058 V 1.058 C 1.058,0.473 0.585,0 0,0 m -45.968,-3.998 c -0.585,0 -1.058,0.473 -1.058,1.058 v 46.698 c 0,2.789 2.268,5.057 5.056,5.057 h 25.969 c 0.585,0 1.058,-0.473 1.058,-1.058 0,-0.584 -0.473,-1.058 -1.058,-1.058 H -41.97 c -1.621,0 -2.94,-1.319 -2.94,-2.941 V -2.94 c 0,-0.585 -0.474,-1.058 -1.058,-1.058"
       style="fill:#4e4957;fill-opacity:1;fill-rule:nonzero;stroke:none"
       transform="matrix(0.26439516,0,0,-0.26439516,14.252487,14.802455)"
       clip-path="url(#clipPath410)" />
    <path
       id="path411"
       d="m 0,0 c -0.179,0 -0.361,0.046 -0.528,0.143 l -7.116,4.108 c -0.506,0.292 -0.68,0.939 -0.388,1.445 0.293,0.505 0.939,0.681 1.446,0.387 L 0.53,1.975 C 1.036,1.683 1.209,1.036 0.917,0.53 0.722,0.191 0.366,0 0,0"
       style="fill:#4e4957;fill-opacity:1;fill-rule:nonzero;stroke:none"
       transform="matrix(0.26439516,0,0,-0.26439516,8.899755,8.7435497)"
       clip-path="url(#clipPath412)" />
  </g>
</svg>
